<svg width="176" height="60" viewBox="0 0 176 60" fill="none" xmlns="http://www.w3.org/2000/svg">
<g clip-path="url(#clip0_114_2601)">
<path fill-rule="evenodd" clip-rule="evenodd" d="M173.174 45.3741C173.332 45.3741 173.409 45.2588 173.409 45.1244V44.9071C173.409 44.7591 173.326 44.6703 173.174 44.6703H172.566V45.3741H173.174ZM172.567 45.7065V46.5062H172.153V44.3309H173.15C173.59 44.3309 173.839 44.5806 173.839 45.0218C173.839 45.4059 173.628 45.6165 173.365 45.6876L173.844 46.5062H173.385L172.938 45.7065H172.567ZM172.8 47.2668C173.964 47.3624 174.903 46.4218 174.806 45.255C174.735 44.3788 174 43.6421 173.126 43.5694C171.96 43.4738 171.022 44.415 171.118 45.5824C171.19 46.4582 171.926 47.1947 172.8 47.2668ZM172.518 43.1903C174.116 42.8856 175.49 44.2638 175.186 45.8644C175.019 46.7524 174.293 47.4797 173.407 47.6474C171.811 47.9509 170.438 46.5735 170.739 44.975C170.908 44.0865 171.632 43.3591 172.518 43.1903Z" fill="#B3FCFF" fill-opacity="0.8"/>
<path fill-rule="evenodd" clip-rule="evenodd" d="M86.8762 33.9159L86.5365 34.0179C83.9588 34.7994 81.1159 34.7915 78.554 33.9962L78.2155 33.8909L82.252 20.6606C82.3505 20.3385 82.8059 20.3397 82.9026 20.6618L86.8762 33.9159ZM77.6385 14.8179L66.4678 47.6897H74.0057L76.4449 39.6979L76.786 39.8026C80.4928 40.9429 84.5733 40.952 88.2761 39.8297L88.6175 39.7267L91.0065 47.6897H98.5324L87.4186 14.8251C86.7176 12.751 84.7758 11.3551 82.5908 11.3551H82.4639C80.2818 11.3551 78.3418 12.7474 77.6385 14.8179Z" fill="#B3FCFF" fill-opacity="0.8"/>
<path fill-rule="evenodd" clip-rule="evenodd" d="M155.185 20.4317H147.188L139.38 30.9629V11.3551H132.631V47.6903H139.38V34.6138L148.511 47.6903H156.034L146.052 33.5694C145.703 33.0759 145.72 32.41 146.095 31.9353L155.185 20.4317Z" fill="#B3FCFF" fill-opacity="0.8"/>
<path fill-rule="evenodd" clip-rule="evenodd" d="M119.799 20.4311H109.654H108.959C105.615 20.4311 102.905 23.1472 102.905 26.4979V47.6897H109.654V28.0555C109.654 27.1949 110.349 26.4979 111.208 26.4979H118.245C119.104 26.4979 119.799 27.1949 119.799 28.0555V47.6897H126.547V26.4979C126.547 23.1472 123.838 20.4311 120.495 20.4311H119.799Z" fill="#B3FCFF" fill-opacity="0.8"/>
<path fill-rule="evenodd" clip-rule="evenodd" d="M175.229 20.4311H166.744H166.049C162.705 20.4311 159.996 23.1472 159.996 26.4979V47.6897H166.744V28.0555C166.744 27.1949 167.44 26.4979 168.298 26.4979H175.229V20.4311Z" fill="#B3FCFF" fill-opacity="0.8"/>
<path fill-rule="evenodd" clip-rule="evenodd" d="M30.9501 1.514L49.9061 11.2627C52.6664 12.6828 54.3811 15.4964 54.3811 18.6055V23.0506H47.3914V18.6055C47.3914 18.1361 47.1315 17.7104 46.7142 17.4955L27.7591 7.74731C27.4039 7.56501 26.979 7.56442 26.6225 7.74792L7.66633 17.4955C7.2494 17.7104 6.99019 18.1361 6.99019 18.6055V23.0506H-0.000244141V18.6055C-0.000244141 15.4964 1.71458 12.6828 4.47413 11.2627L23.4315 1.514C25.785 0.302219 28.5947 0.302219 30.9501 1.514ZM33.1715 29.3449C33.1715 26.0377 30.4874 23.3483 27.1883 23.3483C23.8892 23.3483 21.2051 26.0377 21.2051 29.3449C21.2051 32.6509 23.8892 35.3412 27.1883 35.3412C30.4874 35.3412 33.1715 32.6509 33.1715 29.3449ZM46.7153 41.787C47.1318 41.5726 47.3914 41.1476 47.3914 40.6776V36.232H54.3814V40.6776C54.3814 43.7867 52.6664 46.6003 49.9076 48.0197L30.9501 57.7685C29.7955 58.362 28.4952 58.6768 27.1906 58.6768C25.8867 58.6768 24.5857 58.362 23.431 57.7685L4.47489 48.0197C1.71475 46.6003 -7.51889e-05 43.7867 -7.51889e-05 40.6776V36.232H6.98975V40.6776C6.98975 41.1476 7.24957 41.5726 7.66709 41.787L23.6958 50.0303V41.8632C18.2353 40.33 14.2171 35.3 14.2171 29.3447C14.2171 22.1751 20.0371 16.3421 27.1906 16.3421C34.3443 16.3421 40.1644 22.1751 40.1644 29.3447C40.1644 35.3 36.146 40.33 30.6855 41.8632V50.0309L46.7153 41.787Z" fill="#B3FCFF" fill-opacity="0.8"/>
</g>
<defs>
<clipPath id="clip0_114_2601">
<rect width="175.833" height="60" fill="white"/>
</clipPath>
</defs>
</svg>
