<svg width="110" height="60" viewBox="0 0 110 60" fill="none" xmlns="http://www.w3.org/2000/svg">
<g clip-path="url(#clip0_114_2654)">
<path d="M53.922 45.974C54.8571 45.974 55.6363 46.1299 56.2597 46.4416C57.0389 46.7532 57.5065 47.2208 57.8181 47.6883C58.1298 48.2338 58.3636 48.7013 58.3636 49.2468L58.2857 49.4805L57.974 49.5584H57.3506L57.1948 49.2468C57.1169 48.6234 56.8052 48.0779 56.1818 47.6883C55.5104 47.2535 54.7214 47.0358 53.922 47.0649C53.1308 47.0126 52.3425 47.2029 51.6623 47.6104C51.1169 48 50.8831 48.5455 50.8831 49.3247C50.8831 49.7922 50.8831 50.1818 51.1948 50.4935C51.4285 50.8052 51.8181 51.1169 52.3636 51.2727C52.8311 51.5844 53.6104 51.8182 54.6233 52.2078C55.6363 52.5195 56.4156 52.8312 56.961 53.1429C57.5844 53.3766 57.974 53.7662 58.2857 54.1558C58.5974 54.6234 58.7532 55.1688 58.7532 55.8701C58.7655 56.3671 58.6588 56.8598 58.4419 57.3071C58.225 57.7545 57.9043 58.1434 57.5065 58.4416C56.4906 59.1064 55.2907 59.4337 54.0779 59.3766C53.1973 59.4042 52.3209 59.2449 51.5065 58.9091C50.8592 58.6476 50.294 58.217 49.8701 57.6623C49.4805 57.1948 49.2467 56.6493 49.2467 56.1039C49.2467 55.948 49.2467 55.8701 49.4026 55.7922L49.6363 55.6364H50.1039C50.2597 55.6364 50.4156 55.7922 50.4156 56.026C50.4689 56.3412 50.5863 56.6421 50.7605 56.9102C50.9347 57.1783 51.1621 57.4077 51.4285 57.5844C52.0519 58.0519 52.987 58.2857 54.0779 58.2857C55.2467 58.2857 56.1039 58.0519 56.7272 57.6623C57.2727 57.1948 57.5065 56.5714 57.5065 55.8701C57.5065 55.3247 57.4285 54.9351 57.1169 54.7013C56.8831 54.3896 56.4156 54.0779 55.948 53.9221C55.1313 53.5731 54.2993 53.2611 53.4545 52.987C52.674 52.7457 51.9176 52.4326 51.1948 52.0519C50.7169 51.7961 50.3141 51.4201 50.0259 50.961C49.7922 50.5714 49.6363 49.9481 49.6363 49.3247C49.6363 48.7013 49.7922 48.0779 50.1818 47.6104C50.4935 47.0649 50.961 46.6753 51.6623 46.3636C52.2857 46.0519 53.0649 45.974 54 45.974H53.922ZM70.5194 45.974C71.6883 45.974 72.5454 46.1299 73.3246 46.5195C73.953 46.8544 74.4842 47.3461 74.8665 47.9468C75.2487 48.5476 75.4692 49.237 75.5065 49.948V50.1039L75.4285 50.2597L75.1169 50.3377H74.8052C74.5714 50.3377 74.4935 50.1818 74.4156 49.948C74.1818 48.9351 73.7922 48.1558 73.1688 47.6883C72.5454 47.2987 71.6104 47.0649 70.5974 47.0649C69.4285 47.0649 68.5714 47.3766 67.8701 48.0779C67.2467 48.7013 66.8571 49.7143 66.8571 51.1169V54.2338C66.8571 55.6364 67.2467 56.5714 67.8701 57.3506C68.6262 57.9996 69.6022 58.3342 70.5974 58.2857C71.6883 58.2857 72.5454 58.0519 73.1688 57.6623C73.7922 57.1948 74.1818 56.4156 74.4156 55.3247C74.4156 55.0909 74.6493 55.013 74.8831 55.013H75.2727L75.5065 55.0909C75.5844 55.1688 75.6623 55.2467 75.5844 55.4026C75.5844 56.026 75.3506 56.6493 75.0389 57.2727C74.6493 57.8961 74.1039 58.3636 73.4026 58.8312C72.6233 59.2208 71.7662 59.3766 70.5974 59.3766C69.0389 59.3766 67.7922 58.987 66.935 58.0519C66.0929 56.9904 65.6515 55.6662 65.6883 54.3117V51.039C65.6883 49.4805 66.1558 48.2338 66.935 47.2987C67.7143 46.3636 68.961 45.974 70.5974 45.974H70.5194ZM6.38958 46.1299H6.4675C6.70127 46.1299 6.85711 46.2857 6.93503 46.5195L11.6104 58.6753L11.6883 58.8312V58.9091L11.6104 59.1429L11.2987 59.2208H10.9091L10.6753 59.1429L10.5194 58.9091L9.35062 55.9481H2.80516L1.55841 58.9091V58.987L1.40256 59.1429L1.09088 59.2208H0.779187L0.545421 59.1429C0.511018 59.0994 0.486273 59.0492 0.472836 58.9954C0.459399 58.9417 0.457579 58.8857 0.467499 58.8312V58.6753L5.22075 46.5195V46.4416C5.37659 46.2078 5.53243 46.1299 5.7662 46.1299H6.38958ZM17.4545 46.1299L17.6883 46.2078L17.8441 46.4416L21.974 57.8182L26.0259 46.4416V46.3636L26.1818 46.2078L26.4156 46.1299H26.8831L27.1168 46.2078L27.1948 46.5195V46.6753L22.8311 58.7532V58.8312C22.6753 59.0649 22.4415 59.2208 22.2078 59.2208H21.5844C21.3506 59.2208 21.1168 59.0649 21.0389 58.7532L16.6753 46.7532V46.4416L16.7532 46.2078L17.0649 46.1299H17.4545ZM38.1039 46.1299H38.1818C38.4156 46.1299 38.5714 46.2857 38.6493 46.5195L43.3246 58.6753L43.4026 58.8312V58.9091L43.3246 59.1429L43.013 59.2208H42.6233L42.3896 59.1429L42.2337 58.9091L41.1428 55.9481H34.5194L33.3506 58.9091V58.987L33.1948 59.1429L32.8831 59.2208H32.4935L32.2597 59.1429C32.2253 59.0994 32.2006 59.0492 32.1871 58.9954C32.1737 58.9417 32.1719 58.8857 32.1818 58.8312V58.6753L36.935 46.5195V46.4416C37.0909 46.2078 37.2467 46.1299 37.4805 46.1299H38.1039ZM87.5065 46.1299C87.8182 46.1299 87.974 46.2857 88.0519 46.5195L92.7272 58.6753V59.1429L92.4156 59.2208H92.0259L91.7922 59.1429L91.6363 58.9091L90.4675 55.9481H83.8441L82.6753 58.9091V58.987L82.5195 59.1429L82.2857 59.2208H81.8961L81.6623 59.1429C81.6139 59.1066 81.5746 59.0595 81.5476 59.0054C81.5205 58.9513 81.5065 58.8917 81.5065 58.8312V58.6753L86.3376 46.5195V46.4416C86.4156 46.2078 86.6493 46.1299 86.8831 46.1299H87.5065ZM100.519 46.1299C100.675 46.1299 100.753 46.2078 100.909 46.3636L107.766 56.8831V46.5195C107.766 46.3636 107.766 46.2857 107.922 46.2857L108.156 46.1299H108.545L108.857 46.2078L108.935 46.5974V58.8312L108.857 59.0649L108.545 59.2208H108.078C108.012 59.2065 107.95 59.1783 107.897 59.1379C107.843 59.0976 107.798 59.0461 107.766 58.987L100.831 48.4675V58.8312L100.753 59.1429L100.442 59.2208H100.052L99.8182 59.1429C99.7698 59.1066 99.7305 59.0595 99.7034 59.0054C99.6764 58.9513 99.6623 58.8917 99.6623 58.8312V46.5195C99.6623 46.3636 99.6623 46.2857 99.8182 46.2857L100.052 46.1299H100.519ZM6.07789 47.4545L3.19477 54.8571H8.96101L6.07789 47.4545ZM37.7922 47.4545L34.9091 54.8571H40.6753L37.7922 47.4545ZM87.1948 47.4545L84.3117 54.8571H90L87.1948 47.4545ZM24.1558 1.01299C25.8746 2.02165 27.1254 3.66829 27.6362 5.59459C28.1469 7.52089 27.8763 9.57096 26.8831 11.2987L14.1039 33.6623C13.092 35.3793 11.443 36.6271 9.51564 37.1343C7.58832 37.6414 5.53869 37.3669 3.81278 36.3704C2.08687 35.3739 0.82437 33.7361 0.300016 31.8134C-0.224337 29.8906 0.0318953 27.8386 1.01295 26.1039L13.8701 3.74026C14.3697 2.8788 15.0346 2.12456 15.8265 1.52086C16.6185 0.917172 17.522 0.475931 18.485 0.222498C19.4481 -0.0309346 20.4517 -0.0915639 21.4383 0.0440943C22.4248 0.179753 23.3748 0.509024 24.2337 1.01299H24.1558ZM47.7662 3.58442L47.922 3.74026L60.7792 26.1039C61.6048 27.8062 61.7619 29.7563 61.2195 31.5689C60.6772 33.3814 59.4748 34.9247 57.8498 35.8938C56.2249 36.8628 54.2956 37.1873 52.4431 36.803C50.5906 36.4187 48.9495 35.3536 47.8441 33.8182L47.6883 33.6623L34.8311 11.2987C34.0056 9.59636 33.8484 7.64631 34.3908 5.83375C34.9331 4.02118 36.1356 2.47793 37.7605 1.50885C39.3854 0.539761 41.3147 0.215314 43.1672 0.5996C45.0198 0.983885 46.6608 2.04896 47.7662 3.58442ZM91.948 1.01299C93.6668 2.02165 94.9176 3.66829 95.4284 5.59459C95.9391 7.52089 95.6685 9.57096 94.6753 11.2987L81.8182 33.6623C80.8063 35.3793 79.1572 36.6271 77.2299 37.1343C75.3026 37.6414 73.253 37.3669 71.5271 36.3704C69.8012 35.3739 68.5387 33.7361 68.0143 31.8134C67.49 29.8906 67.7462 27.8386 68.7272 26.1039L81.5844 3.74026C82.084 2.8788 82.7488 2.12456 83.5408 1.52086C84.3328 0.917172 85.2363 0.475931 86.1993 0.222498C87.1624 -0.0309346 88.166 -0.0915639 89.1526 0.0440943C90.1391 0.179753 91.0891 0.509024 91.948 1.01299ZM101.455 22.5195C102.427 22.5195 103.389 22.711 104.287 23.083C105.186 23.455 106.002 24.0003 106.689 24.6877C107.376 25.375 107.922 26.1911 108.294 27.0892C108.666 27.9874 108.857 28.95 108.857 29.9221C108.857 30.8942 108.666 31.8568 108.294 32.7549C107.922 33.6531 107.376 34.4691 106.689 35.1565C106.002 35.8439 105.186 36.3892 104.287 36.7612C103.389 37.1332 102.427 37.3247 101.455 37.3247C99.4912 37.3247 97.6083 36.5448 96.2201 35.1565C94.8318 33.7682 94.0519 31.8854 94.0519 29.9221C94.0519 27.9588 94.8318 26.0759 96.2201 24.6877C97.6083 23.2994 99.4912 22.5195 101.455 22.5195Z" fill="#B3FCFF" fill-opacity="0.8"/>
</g>
<defs>
<clipPath id="clip0_114_2654">
<rect width="109.091" height="60" fill="white"/>
</clipPath>
</defs>
</svg>
