<svg xmlns="http://www.w3.org/2000/svg" width="493.79" height="56.057" viewBox="0 0 493.79 56.057">
  <g id="bitnodes" transform="translate(-0.82 -0.823)">
    <path id="Tracé_2853" data-name="Tracé 2853" d="M147.75,56.86c-2.02-1.57-2.45-3.64-2.43-6.12.1-14.24.05-28.49.05-42.73,0-2.46-.24-5.15,2.65-6.28,2.86-1.12,5.36-.34,7.72,1.74q21.96,19.32,44.05,38.47c.82.71,1.65,1.41,2.96,2.53.08-1.68.19-2.82.19-3.97.01-11.46.03-22.92,0-34.39,0-2.67.37-4.93,3.72-5.25,2.88-.28,4.62,1.02,4.63,3.88.05,15.36-.02,30.71.06,46.07.02,3.73-2.42,5.02-5.34,6.05h-1.35c-3.42-1.18-5.78-3.83-8.34-6.1-13.64-12.1-27.36-24.13-41.25-36.36a4.863,4.863,0,0,0-.33,2.81c-.02,11.23.03,22.46-.04,33.69-.02,4.42-.72,5.16-4.93,5.97h-2.03Z" fill="#9ad4d7"/>
    <path id="Tracé_2854" data-name="Tracé 2854" d="M2.78,56.86C1.15,55.41.81,53.6.82,51.49.9,38.81.85,26.12.86,13.44.86,6.25,3.91,2.9,11.15,1.91A38.722,38.722,0,0,1,22.27,1.9c6.38.95,9.56,4.5,9.63,10.8.03,2.89.07,5.79-.01,8.68-.08,2.8,1.32,4.29,3.96,4.99,2.22.59,4.47.42,6.71.56,2.36.15,4.74.19,7.06.57,6.94,1.14,9.93,4.72,9.94,11.62.02,11.98-3.23,15.76-15.42,16.67-7.18.54-14.42.26-21.64.28-2.21,0-3.65-.94-3.59-3.42.06-2.52,1.58-3.15,3.8-3.14,5.98.03,11.96.01,17.94.01a20.6,20.6,0,0,0,5.36-.54c3.85-1.03,5.03-2.39,5.18-6.28.02-.56,0-1.11,0-1.67,0-6.49-1.08-7.55-7.57-7.67A42.83,42.83,0,0,1,31.9,32.04c-5.44-1.64-7.7-4.66-7.8-10.27-.05-2.89.03-5.79-.02-8.68-.07-3.7-1.28-4.93-5.03-5.27-.67-.06-1.35-.04-2.03-.05C9.83,7.74,8.75,8.78,8.75,15.7c0,12.02-.04,24.03.04,36.05.01,2.27-.36,4.11-2.63,5.12H2.78Z" fill="#9ad4d7"/>
    <path id="Tracé_2856" data-name="Tracé 2856" d="M109.14,56.86c-1.89-1.53-2.21-3.53-2.19-5.86.09-13.36,0-26.73.1-40.09.02-2.3-.56-3.06-2.97-2.99-6.21.17-12.42.01-18.63.08-2.63.03-4.5-.64-4.41-3.65.08-2.83,2.06-2.96,4.27-2.95q25.74.045,51.49,0c2.3,0,4.14.36,4.17,3.1.03,2.8-1.73,3.53-4.23,3.51-6.21-.05-12.42.11-18.63-.08-2.47-.08-2.93.72-2.91,2.99.11,13.14-.05,26.28.13,39.42.05,3.34-.56,5.71-4.14,6.54h-2.03Z" fill="#9ad4d7"/>
    <path id="Tracé_2857" data-name="Tracé 2857" d="M493.98,34.74a.6.6,0,0,0,.63.07V46.17l-.33-.05-.3.12a13.117,13.117,0,0,1,0-11.5Z" fill="#9ad4d7"/>
    <path id="Soustraction_7" data-name="Soustraction 7" d="M-491.806-816.209a4.436,4.436,0,0,1-3.306-.965A4.429,4.429,0,0,1-496-820.5c.129-5.487.1-11.064.08-16.459v-.015c-.01-2.152-.019-4.378-.019-6.567v-.01c0-2.274.007-4.567.013-6.784.016-5.549.033-11.287-.053-16.927a3.88,3.88,0,0,1,.786-2.915,3.8,3.8,0,0,1,2.823-.825h.081c7.153.049,14.222.055,20.193.055l7.1,0h.005l6.938,0c3.505,0,6.395,0,9.094.009a34.477,34.477,0,0,1,9.35,1.33,14.146,14.146,0,0,1,7.462,4.423,12.782,12.782,0,0,1,2.557,8.1c.171,9.277.171,17.794,0,26.04a16.936,16.936,0,0,1-.953,5.5,11.689,11.689,0,0,1-2.6,4.166,13.4,13.4,0,0,1-4.255,2.864,22.94,22.94,0,0,1-5.908,1.593,65.71,65.71,0,0,1-8.76.64c-3.292.017-6.823.025-11.446.025l-5.523,0h-.779l-5.417,0c-4.881,0-10.652.007-16.446.06Zm6.673-48.212a2.618,2.618,0,0,0-1.953.527,2.754,2.754,0,0,0-.53,2.035c.1,12.065.1,24.305,0,36.38a2.755,2.755,0,0,0,.538,2.027,2.862,2.862,0,0,0,2.126.543h.066c5.205-.037,10.417-.042,15.273-.042h7.52c3.336,0,7.3,0,11.388-.02a32.9,32.9,0,0,0,5.03-.53c2.9-.476,4.81-1.341,6-2.722s1.756-3.378,1.766-6.278c.013-4.829.009-9.73,0-14.47V-847q0-3.6,0-7.2c0-3.87-.615-6.159-2.056-7.655s-3.829-2.23-7.734-2.375c-2.153-.08-4.459-.117-7.258-.117-1.892,0-3.814.017-5.673.034h-.017c-1.853.016-3.768.033-5.652.033v-.1h-.41c-1.6,0-3.214.005-4.778.01h-.031c-1.715.005-3.484.011-5.223.011-3.192,0-5.788-.02-8.167-.062Z" transform="translate(789.227 872.35)" fill="#9ad4d7"/>
    <path id="Soustraction_6" data-name="Soustraction 6" d="M-467.051-816.042a80.935,80.935,0,0,1-15.724-1.306c-5.166-1.012-8.359-2.56-10.354-5.02-1.969-2.429-2.846-5.855-2.846-11.11V-843.5l-.01.02c0-1.368,0-2.76-.007-4.105-.008-3.032-.017-6.164.017-9.245a12.136,12.136,0,0,1,1.791-6.488,12.9,12.9,0,0,1,5.158-4.463,26.942,26.942,0,0,1,11.711-2.87c1.523-.037,3.073-.083,4.572-.128h.036c3.7-.109,7.522-.222,11.282-.222a115.19,115.19,0,0,1,14.52.791,24.463,24.463,0,0,1,8.65,2.631,12.366,12.366,0,0,1,4.9,4.469,12.223,12.223,0,0,1,1.625,6.381c0,2.59-.006,5.2-.011,7.724-.012,5.9-.025,11.991.031,17.986a12.734,12.734,0,0,1-2.046,7.465,13.772,13.772,0,0,1-6.134,4.735,31.505,31.505,0,0,1-11.849,2.38c-1.745.044-3.521.105-5.239.164H-457C-460.294-816.16-463.7-816.042-467.051-816.042Zm-6.367-48.292a28.486,28.486,0,0,0-7.487.826,8.968,8.968,0,0,0-5.019,2.858,8.558,8.558,0,0,0-1.561,5.492c-.028,5.093-.022,10.258-.016,15.252,0,2.106.005,4.284.005,6.448,0,3.576.576,5.839,1.866,7.337,1.318,1.53,3.469,2.381,6.974,2.762a115.252,115.252,0,0,0,12.723.609c3.545,0,7.15-.1,10.636-.2h.047c1.407-.04,2.863-.082,4.293-.116a19.134,19.134,0,0,0,4.331-.68c4.855-1.261,6.5-3.361,6.52-8.32.02-4.827.013-9.73.007-14.471,0-2.245-.007-4.79-.007-7.229-.005-3.629-.7-6.067-2.2-7.675-1.516-1.63-3.918-2.487-7.561-2.695-1.537-.089-3.182-.13-5.175-.13-1.4,0-2.811.02-4.178.04s-2.786.04-4.177.04c-.64.03-1.309.044-2.044.044-1.316,0-2.657-.047-3.954-.093h-.037C-470.737-864.286-472.088-864.334-473.418-864.334Z" transform="translate(716.225 872.269)" fill="#9ad4d7"/>
    <path id="Tracé_2860" data-name="Tracé 2860" d="M401.08,32.25c-7.56,0-15.12.06-22.68-.04-1.91-.02-2.62.49-2.5,2.42a56.536,56.536,0,0,1,0,7.01c-.2,3.44,1.57,5.44,4.64,6.51a26.177,26.177,0,0,0,8.66,1.24q16.92.015,33.85,0c2.27,0,4.41-.02,4.48,3.08s-1.87,3.67-4.43,3.62c-13.64-.28-27.3.58-40.93-.51a23.728,23.728,0,0,1-7.8-2.03c-4.59-2.04-6.96-5.58-7.01-10.48-.09-9.46-.11-18.92,0-28.38.08-6.68,4.15-10.76,12.24-12.44,6.58-1.36,13.26-.76,19.91-.83,2.04-.02,2.72,1.43,2.78,3.11.07,1.88-.77,3.32-2.88,3.39-2.82.1-5.64.05-8.46.05a30.743,30.743,0,0,0-10.31,1.49c-3.18,1.12-5.07,3.14-4.74,6.76.27,2.96-1.23,6.86.55,8.67,1.8,1.83,5.77.53,8.78.54,12.52.06,25.05.02,37.57.03,1.55,0,3.21-.23,4.13,1.53,1.36,2.59-.17,5.21-3.2,5.24-7.56.06-15.12.02-22.68.02Z" fill="#9ad4d7"/>
    <path id="Tracé_2861" data-name="Tracé 2861" d="M493.98,34.74v11.5c-1.64,6.77-7.2,8.28-13.01,9.23a57.566,57.566,0,0,1-9.1.58c-10.95.06-21.9,0-32.85.04-2.6,0-5.2.12-5.25-3.49-.05-3.64,2.64-3.2,5.01-3.2q17.445,0,34.89-.01a36.338,36.338,0,0,0,4.04-.23c9.16-1.01,8.65-5.04,7.94-12.54-.17-1.83-1.76-3.01-3.51-3.78a20.568,20.568,0,0,0-8.25-1.49c-8.35-.07-16.7.33-25.03-.49a28.533,28.533,0,0,1-7.55-1.7c-5.01-1.92-7.05-4.9-7.1-10.18V17.31c0-10.63,3.53-14.68,14.33-15.7,4.59-.44,9.25-.17,13.87-.2,2.14-.01,3.01,1.22,3.07,3.18.06,2-.94,3.26-2.96,3.32-3.72.12-7.45.01-11.18.07-7.53.12-11.21,5.63-8.44,12.55.91,2.27,2.93,2.99,5.01,3.52a37.476,37.476,0,0,0,8.4.75c8.34.2,16.73-.79,25.01.7,5.64,1.02,11.13,2.58,12.67,9.23Z" fill="#9ad4d7"/>
    <path id="Tracé_2862" data-name="Tracé 2862" d="M67.46,28.81q0-11.505,0-23.02C67.47,2.11,68.6.86,71.78.84c3.13-.02,4.15,1.2,4.15,5.03V51.58c0,3.78-1.47,5.06-5.1,4.69-2.81-.29-3.4-2.05-3.39-4.44.04-7.67.01-15.35.01-23.02Z" fill="#9ad4d7"/>
  </g>
</svg>
