<svg id="logo.7e5cedb5" xmlns="http://www.w3.org/2000/svg" width="60.63" height="60" viewBox="0 0 60.63 60">
  <path id="Tracé_2845" data-name="Tracé 2845" d="M5.124,34.888,2.392,37.62a7.784,7.784,0,0,0,0,11.228L24.4,71.074a6.7,6.7,0,0,0,1.8,1.31V45.442Z" transform="translate(0 -12.384)" fill="#9ad4d7"/>
  <path id="Tracé_2846" data-name="Tracé 2846" d="M75.074,34.888l2.732,2.732a7.784,7.784,0,0,1,0,11.228L55.8,71.074a6.7,6.7,0,0,1-1.8,1.31V45.442Z" transform="translate(-19.567 -12.384)" fill="#9ad4d7"/>
  <path id="Tracé_2847" data-name="Tracé 2847" d="M56.654,16.185,42.616,2.375A7.981,7.981,0,0,0,40,.618a8.115,8.115,0,0,0-6.213,0,7.98,7.98,0,0,0-2.616,1.757L17.094,16.185l19.723,9.656Z" transform="translate(-6.432)" fill="#9ad4d7"/>
</svg>
