<svg width="236" height="60" viewBox="0 0 236 60" fill="none" xmlns="http://www.w3.org/2000/svg">
<g clip-path="url(#clip0_114_2647)">
<path d="M12.4723 28.5657C12.4724 28.2307 12.5386 27.899 12.6672 27.5896C12.7959 27.2803 12.9843 26.9994 13.2218 26.7631C13.4592 26.5268 13.741 26.3397 14.051 26.2126C14.3609 26.0855 14.693 26.0209 15.028 26.0224L19.2649 26.0363C19.9404 26.0363 20.5883 26.3046 21.066 26.7823C21.5437 27.26 21.8121 27.9079 21.8121 28.5835V44.6055C22.2893 44.4641 22.9 44.3132 23.572 44.155C24.0376 44.0454 24.4526 43.7818 24.7496 43.4069C25.0466 43.032 25.2083 42.5677 25.2084 42.0894V22.2167C25.2084 21.5411 25.4767 20.8931 25.9544 20.4154C26.4321 19.9376 27.08 19.6691 27.7556 19.669H32.0054C32.681 19.6691 33.3289 19.9376 33.8065 20.4154C34.2842 20.8931 34.5526 21.5411 34.5526 22.2167V40.6618C34.5526 40.6618 35.6158 40.2316 36.6508 39.7944C37.0354 39.6318 37.3636 39.3595 37.5944 39.0115C37.8252 38.6635 37.9485 38.2553 37.9488 37.8377V15.8484C37.9488 15.173 38.2171 14.5251 38.6947 14.0475C39.1723 13.5698 39.8201 13.3014 40.4956 13.3012H44.7409C45.416 13.3019 46.0633 13.5705 46.5404 14.0482C47.0176 14.5258 47.2856 15.1733 47.2856 15.8484V33.9558C50.9662 31.2884 54.6963 28.0801 57.6564 24.2224C58.0859 23.6624 58.3701 23.0049 58.4836 22.3084C58.5972 21.6119 58.5366 20.8981 58.3072 20.2307C56.937 16.2886 54.7589 12.6759 51.9123 9.62385C49.0657 6.57179 45.6133 4.14758 41.7761 2.50633C37.9389 0.865093 33.8012 0.0429679 29.628 0.0925723C25.4548 0.142177 21.338 1.06242 17.5408 2.7944C13.7437 4.52639 10.3499 7.03198 7.57666 10.1508C4.80343 13.2697 2.71182 16.9331 1.43567 20.9067C0.159523 24.8804 -0.27306 29.0766 0.165602 33.227C0.604264 37.3774 1.90451 41.3905 3.98314 45.0095C4.34528 45.6338 4.87808 46.1418 5.51894 46.4738C6.15979 46.8058 6.88208 46.948 7.60095 46.8837C8.40403 46.813 9.40393 46.7131 10.5927 46.5736C11.1101 46.5148 11.5878 46.2677 11.9348 45.8794C12.2817 45.4911 12.4738 44.9887 12.4743 44.468V28.5657" fill="#B3FCFF" fill-opacity="0.8"/>
<path d="M12.3818 54.2607C16.8567 57.5162 22.145 59.4702 27.6615 59.9067C33.178 60.3432 38.7077 59.245 43.6389 56.7338C48.5701 54.2226 52.7104 50.3962 55.6019 45.6779C58.4933 40.9597 60.0232 35.5335 60.0221 29.9997C60.0221 29.3074 59.99 28.626 59.944 27.9465C48.9842 44.2925 28.748 51.9341 12.3818 54.2607Z" fill="#B3FCFF" fill-opacity="0.8"/>
<path d="M85.8376 29.4459C87.4448 29.741 88.8954 30.596 89.9321 31.8591C90.9657 33.1018 91.5201 34.6737 91.4947 36.2899C91.4947 38.6108 90.7167 40.4503 89.1607 41.8086C87.6046 43.1668 85.3497 43.8459 82.3958 43.8459H71.2793V15.9162H82.198C84.9936 15.9162 87.1365 16.5426 88.6266 17.7953C90.1167 19.0481 90.8618 20.7689 90.8618 22.958C90.9334 24.509 90.4416 26.0335 89.4771 27.2503C88.5339 28.3572 87.2566 29.1277 85.8376 29.4459ZM75.7892 27.9426H81.3672C82.9497 27.9426 84.1563 27.5734 84.987 26.8349C85.4087 26.4437 85.739 25.9644 85.9544 25.4311C86.1698 24.8977 86.265 24.3235 86.2332 23.7492C86.2624 23.181 86.1659 22.6134 85.9504 22.0869C85.735 21.5603 85.4061 21.0878 84.987 20.703C84.1563 19.9645 82.8969 19.5953 81.209 19.5953H75.7892V27.9426ZM81.4859 40.1272C83.2002 40.1272 84.5255 39.7382 85.4618 38.9602C85.9309 38.5607 86.3017 38.0584 86.5452 37.4924C86.7888 36.9264 86.8986 36.3118 86.8662 35.6965C86.8968 35.0765 86.7843 34.4579 86.5373 33.8885C86.2903 33.3191 85.9155 32.8142 85.442 32.4129C84.4925 31.6217 83.1606 31.2261 81.4464 31.2261H75.7892V40.1272H81.4859ZM102.888 21.7711C105.446 21.7711 107.497 22.4239 109.04 23.7294C110.6 25.0656 111.608 26.9337 111.868 28.9712H107.596C107.453 27.8621 106.911 26.8428 106.073 26.103C105.144 25.3439 103.967 24.9563 102.769 25.0151C101.823 24.9545 100.887 25.243 100.139 25.8261C99.8298 26.0995 99.5859 26.4386 99.425 26.8185C99.2642 27.1985 99.1904 27.6096 99.209 28.0217C99.1967 28.3305 99.2503 28.6385 99.3663 28.925C99.4822 29.2115 99.6579 29.47 99.8816 29.6833C100.367 30.127 100.939 30.464 101.563 30.6723C102.505 30.985 103.462 31.2491 104.431 31.4635C105.782 31.7496 107.111 32.133 108.407 32.6107C109.422 33.0062 110.32 33.6527 111.018 34.4899C111.79 35.4881 112.176 36.7311 112.106 37.991C112.128 38.8402 111.952 39.683 111.592 40.4522C111.231 41.2215 110.696 41.8959 110.029 42.4218C108.644 43.5558 106.778 44.1229 104.431 44.1229C101.715 44.1229 99.5189 43.4899 97.8442 42.2239C97.01 41.5885 96.3121 40.7917 95.7922 39.881C95.2722 38.9703 94.9409 37.9643 94.8178 36.9228H99.209C99.2615 37.4868 99.429 38.034 99.7012 38.5307C99.9734 39.0274 100.344 39.463 100.791 39.8108C101.84 40.5895 103.126 40.9809 104.431 40.9184C105.359 40.9714 106.272 40.667 106.983 40.0679C107.285 39.7975 107.524 39.4645 107.685 39.0922C107.845 38.7199 107.923 38.3171 107.912 37.9118C107.929 37.5754 107.874 37.2393 107.751 36.9256C107.629 36.612 107.441 36.3279 107.2 36.0921C106.687 35.621 106.081 35.2637 105.42 35.0437C104.461 34.727 103.483 34.4694 102.493 34.2723C101.185 33.983 99.897 33.6131 98.6354 33.1646C97.6483 32.7967 96.7752 32.176 96.1035 31.3646C95.3604 30.399 94.9884 29.1988 95.0552 27.9822C95.0308 27.1241 95.2057 26.2721 95.566 25.493C95.9264 24.714 96.4625 24.029 97.1321 23.492C98.5167 22.3448 100.435 21.7711 102.888 21.7711ZM126.308 21.7711C129.13 21.7711 131.464 22.5162 133.31 24.0063C135.176 25.5295 136.404 27.6958 136.752 30.0789H131.965C131.757 28.8 131.071 27.6478 130.046 26.8547C128.941 26.048 127.596 25.6369 126.229 25.6876C125.415 25.6681 124.605 25.822 123.855 26.1392C123.105 26.4563 122.431 26.9295 121.877 27.5272C120.717 28.7536 120.137 30.5536 120.137 32.9272C120.137 35.3009 120.717 37.1075 121.877 38.347C122.428 38.9498 123.101 39.4277 123.852 39.7484C124.602 40.0691 125.413 40.2253 126.229 40.2064C127.599 40.2569 128.946 39.8382 130.046 39.0195C131.069 38.2163 131.754 37.0588 131.965 35.7756H136.752C136.401 38.1631 135.174 40.3347 133.31 41.8679C131.464 43.3712 129.13 44.1229 126.308 44.1229C124.358 44.1618 122.43 43.6986 120.71 42.7778C119.089 41.8822 117.763 40.5354 116.893 38.9009C115.933 37.059 115.456 35.0036 115.508 32.9272C115.459 30.8638 115.936 28.8219 116.893 26.9931C117.763 25.3586 119.089 24.0118 120.71 23.1162C122.43 22.1954 124.358 21.7322 126.308 21.7711ZM159.46 36.4085C159.469 37.7456 159.128 39.0616 158.471 40.2261C157.767 41.4426 156.721 42.426 155.464 43.0547C153.928 43.8099 152.23 44.1766 150.519 44.1229C148.766 44.1521 147.026 43.8083 145.416 43.1141C143.989 42.5021 142.748 41.5268 141.816 40.2855C140.915 39.0618 140.38 37.6077 140.273 36.0921H145.099C145.223 37.2891 145.779 38.4001 146.662 39.2173C147.156 39.6647 147.734 40.0103 148.362 40.2343C148.99 40.4583 149.655 40.5563 150.321 40.5228C150.899 40.5593 151.478 40.4802 152.025 40.29C152.572 40.0998 153.075 39.8024 153.506 39.4151C153.88 39.0439 154.174 38.5992 154.368 38.109C154.562 37.6187 154.652 37.0937 154.633 36.5668C154.669 35.6686 154.373 34.7887 153.803 34.0943C153.238 33.4403 152.536 32.9201 151.745 32.5712C150.928 32.2019 149.807 31.78 148.383 31.3052C146.924 30.8628 145.502 30.3073 144.13 29.6437C143.019 29.076 142.062 28.248 141.341 27.2305C140.526 26.0034 140.124 24.5481 140.194 23.0766C140.164 21.6775 140.55 20.301 141.301 19.1206C142.078 17.9544 143.178 17.0402 144.466 16.4898C145.964 15.8446 147.583 15.5276 149.214 15.5601C152.062 15.5601 154.323 16.2459 155.998 17.6173C156.815 18.2737 157.49 19.0888 157.983 20.0136C158.476 20.9383 158.777 21.9534 158.866 22.9975H154C153.822 21.9541 153.3 21.0003 152.517 20.2876C151.604 19.497 150.419 19.0926 149.214 19.1602C148.115 19.1053 147.033 19.4496 146.167 20.1294C145.777 20.477 145.471 20.9086 145.273 21.3918C145.074 21.875 144.988 22.397 145.02 22.9184C144.988 23.7733 145.269 24.6105 145.811 25.2723C146.357 25.9057 147.041 26.4063 147.809 26.736C148.614 27.092 149.715 27.5074 151.112 27.9822C152.599 28.4259 154.048 28.9882 155.444 29.6635C156.581 30.2438 157.558 31.0925 158.293 32.136C159.124 33.401 159.532 34.8968 159.46 36.4085ZM173.662 21.7711C176.484 21.7711 178.818 22.5162 180.664 24.0063C182.53 25.5295 183.758 27.6958 184.106 30.0789H179.319C179.111 28.8 178.425 27.6478 177.4 26.8547C176.295 26.048 174.95 25.6369 173.583 25.6876C172.769 25.6681 171.959 25.822 171.209 26.1392C170.459 26.4563 169.785 26.9295 169.231 27.5272C168.071 28.7536 167.491 30.5536 167.491 32.9272C167.491 35.3009 168.071 37.1075 169.231 38.347C169.782 38.9498 170.455 39.4277 171.205 39.7484C171.956 40.0691 172.767 40.2253 173.583 40.2064C174.953 40.2569 176.3 39.8382 177.4 39.0195C178.423 38.2163 179.108 37.0588 179.319 35.7756H184.106C183.755 38.1631 182.528 40.3347 180.664 41.8679C178.818 43.3712 176.484 44.1229 173.662 44.1229C171.712 44.1618 169.784 43.6986 168.064 42.7778C166.443 41.8822 165.117 40.5354 164.247 38.9009C163.287 37.059 162.81 35.0036 162.862 32.9272C162.813 30.8638 163.29 28.8219 164.247 26.9931C165.117 25.3586 166.443 24.0118 168.064 23.1162C169.784 22.1954 171.712 21.7322 173.662 21.7711ZM197.201 21.7711C199 21.7186 200.771 22.2304 202.264 23.2349C203.639 24.1804 204.678 25.5379 205.231 27.1118V22.0481H209.741V43.8459H205.231V38.7822C204.678 40.3561 203.639 41.7136 202.264 42.6591C200.771 43.6636 199 44.1754 197.201 44.1229C195.414 44.1529 193.655 43.6874 192.117 42.7778C190.6 41.8513 189.383 40.5046 188.616 38.9009C187.733 37.0359 187.3 34.99 187.35 32.9272C187.302 30.8774 187.736 28.845 188.616 26.9931C189.383 25.3894 190.6 24.0427 192.117 23.1162C193.655 22.2066 195.414 21.7411 197.201 21.7711ZM198.585 25.7272C197.694 25.6872 196.804 25.8376 195.975 26.1684C195.146 26.4992 194.397 27.0029 193.779 27.6459C192.579 28.925 191.979 30.6855 191.979 32.9272C191.979 35.169 192.579 36.9294 193.779 38.2086C194.397 38.8515 195.146 39.3552 195.975 39.686C196.804 40.0169 197.694 40.1673 198.585 40.1272C199.779 40.1462 200.956 39.8384 201.987 39.2371C202.997 38.6365 203.818 37.7666 204.361 36.725C204.963 35.5514 205.262 34.2459 205.231 32.9272C205.258 31.6153 204.959 30.3174 204.361 29.1492C203.823 28.0994 203 27.222 201.987 26.6173C200.956 26.016 199.779 25.7082 198.585 25.7272ZM227.346 21.692C229.878 21.692 231.908 22.5096 233.438 24.1448C234.968 25.7799 235.732 28.114 235.732 31.147V43.8459H231.223V31.6217C231.223 29.6701 230.722 28.1602 229.719 27.092C229.186 26.5485 228.544 26.1246 227.835 25.8484C227.125 25.5722 226.365 25.4499 225.605 25.4898C224.805 25.4547 224.007 25.5899 223.264 25.8866C222.52 26.1833 221.849 26.6346 221.293 27.2107C220.212 28.358 219.671 30.0393 219.671 32.2547V43.8459H215.161V22.0481H219.671V26.8349C220.192 25.2759 221.224 23.9381 222.598 23.0371C224.012 22.128 225.665 21.6598 227.346 21.692Z" fill="#B3FCFF" fill-opacity="0.8"/>
</g>
<defs>
<clipPath id="clip0_114_2647">
<rect width="235.732" height="60" fill="white"/>
</clipPath>
</defs>
</svg>
