<svg xmlns="http://www.w3.org/2000/svg" width="291.979" height="77.589" viewBox="0 0 291.979 77.589">
  <g id="Coin_Gecko_AI" transform="translate(-136.021 525.087)">
    <g id="Groupe_2893" data-name="Groupe 2893" transform="translate(136.023 -524.596)">
      <g id="XMLID_00000109714536317397490150000016779953084460001213_" transform="translate(48.651 21.851)">
        <path id="Tracé_2865" data-name="Tracé 2865" d="M180.257,82.864a5.642,5.642,0,0,0-.3-.714A2.454,2.454,0,0,1,180.257,82.864Z" transform="translate(-179.96 -82.15)" fill="#9ad4d7"/>
      </g>
      <g id="XMLID_00000165210431025918170310000009667589234309158057_" transform="translate(101.396 21.069)">
        <path id="XMLID_00000094587396510722221950000010418240064250603163_" d="M394.655,88.459c-.792-3.09-2.787-5.35-6.707-5.35-5.764,0-8.175,5.085-8.175,10.249s2.412,10.249,8.175,10.249c4.182,0,6.48-3.128,6.856-7.045h4.6c-.376,6.442-4.937,10.89-11.455,10.89-8.062,0-12.885-6.4-12.885-14.091s4.823-14.091,12.885-14.091c6.067.038,10.852,3.39,11.417,9.192h-4.707Z" transform="translate(-375.06 -79.267)" fill="#9ad4d7"/>
        <path id="XMLID_00000163769377714059661400000003120967860727209120_" d="M475.42,117.369c0-5.953,3.579-10.249,9.833-10.249s9.833,4.3,9.833,10.249c0,5.991-3.579,10.287-9.833,10.287S475.42,123.36,475.42,117.369Zm15.372,0c0-3.352-1.7-6.856-5.539-6.856s-5.539,3.5-5.539,6.856c0,3.39,1.7,6.894,5.539,6.894S490.792,120.759,490.792,117.369Z" transform="translate(-448.288 -99.588)" fill="#9ad4d7"/>
        <path id="XMLID_00000089561488807806794110000008766464684109980846_" d="M561.83,81.62h4.3v4.069h-4.3Zm0,7.424h4.3v19.479h-4.3Z" transform="translate(-511.337 -80.982)" fill="#9ad4d7"/>
        <path id="XMLID_00000098222483093608998150000013599916721803706546_" d="M595,107.657h4.069v2.863l.076.076a6.979,6.979,0,0,1,6.067-3.466c4.22,0,6.894,2.26,6.894,6.632v13.374h-4.3V114.892c-.076-3.052-1.281-4.372-3.807-4.372-2.863,0-4.71,2.26-4.71,5.123v11.493H595Z" transform="translate(-535.539 -99.595)" fill="#9ad4d7"/>
        <path id="XMLID_00000086655630273909530280000003062558737360820648_" d="M697.345,106.8h-3.014l-.716-3.166c-2.525,2.863-4.823,3.807-8.1,3.807-8.062,0-12.885-6.4-12.885-14.091s4.823-14.091,12.885-14.091c5.877,0,10.814,3.128,11.53,9.192h-4.6c-.451-3.542-3.542-5.35-6.932-5.35-5.764,0-8.175,5.085-8.175,10.249s2.411,10.249,8.175,10.249c4.823.076,7.459-2.825,7.535-7.386h-7.159V92.634h11.455V106.8Z" transform="translate(-592.182 -79.26)" fill="#9ad4d7"/>
        <path id="XMLID_00000178884536388889934700000006008955773576916655_" d="M781.586,118.492c0,3.052,1.657,5.764,5.237,5.764a4.516,4.516,0,0,0,4.747-3.242h4.069c-.941,4.258-4.558,6.632-8.816,6.632-6.1,0-9.533-4.258-9.533-10.249,0-5.539,3.617-10.287,9.419-10.287,6.142,0,9.908,5.539,9.192,11.379H781.586Zm10.022-2.825c-.151-2.712-2-5.161-4.9-5.161a5.088,5.088,0,0,0-5.123,5.161Z" transform="translate(-668.547 -99.581)" fill="#9ad4d7"/>
        <path id="XMLID_00000165208769281547143380000014724391334763228032_" d="M868.871,114.175a4.118,4.118,0,0,0-4.445-3.655c-2.222,0-5.35,1.168-5.35,7.083,0,3.241,1.433,6.67,5.161,6.67,2.487,0,4.22-1.657,4.634-4.447h4.3c-.792,5.05-3.917,7.837-8.93,7.837-6.1,0-9.457-4.334-9.457-10.06,0-5.877,3.2-10.473,9.608-10.473,4.52,0,8.365,2.26,8.778,7.045h-4.3Z" transform="translate(-725.088 -99.595)" fill="#9ad4d7"/>
        <path id="XMLID_00000040532779282668257870000007019063433760943769_" d="M936.17,81.62h4.3v15.3l7.762-7.875H953.5L946.043,96.2l8.175,12.32h-5.237l-5.953-9.457-2.563,2.487v6.97h-4.3Z" transform="translate(-784.474 -80.982)" fill="#9ad4d7"/>
        <path id="XMLID_00000050633439882319899570000003261110152781964443_" d="M1007.25,117.369c0-5.953,3.579-10.249,9.835-10.249s9.833,4.3,9.833,10.249c0,5.991-3.579,10.287-9.833,10.287S1007.25,123.36,1007.25,117.369Zm15.372,0c0-3.352-1.7-6.856-5.539-6.856s-5.539,3.5-5.539,6.856c0,3.39,1.7,6.894,5.539,6.894S1022.622,120.759,1022.622,117.369Z" transform="translate(-836.337 -99.588)" fill="#9ad4d7"/>
      </g>
      <g id="XMLID_00000078027483154438176710000012863250752772532919_" transform="translate(-0.001 -0.491)">
        <g id="XMLID_00000155833996814241537590000005311418052219229083_" transform="translate(0)">
          <g id="Groupe_2892" data-name="Groupe 2892">
            <path id="Tracé_2866" data-name="Tracé 2866" d="M38.618-.491A38.794,38.794,0,1,0,77.587,38.131,38.794,38.794,0,0,0,38.618-.491ZM33.706,36.4a6.934,6.934,0,1,1,6.934-6.934A6.935,6.935,0,0,1,33.706,36.4Zm5.531,7.5.035-.043.038-.043a12.426,12.426,0,0,0,6.5,1.792,30.54,30.54,0,0,0,6.829-.568,37.381,37.381,0,0,0,6.637-2.052,33.475,33.475,0,0,0,3.55-1.679l.022-.014c.711-.427,1.406-.879,2.09-1.344.149-.105.292-.216.433-.33l.016.019.059.07a25.24,25.24,0,0,1-5.934,3.807,37.963,37.963,0,0,1-6.664,2.425,20.88,20.88,0,0,1-7.108.819A9.8,9.8,0,0,1,39.238,43.9Zm17.8-7.5a1.5,1.5,0,1,1,1.511,1.5A1.507,1.507,0,0,1,57.037,36.4ZM45.156,73.607c-1.5-10.5,7.67-20.779,12.839-26.04,1.173-1.192,2.987-2.836,4.674-4.582,6.71-6.275,8.046-13.772-5.688-17.519-2.6-.754-5.3-1.822-8.035-2.9a5.642,5.642,0,0,0-.3-.714,7.689,7.689,0,0,0-1.692-1.868c-1.784-1.549-5.139-1.509-8.035-.822a20.228,20.228,0,0,0-9.395-.295C16.247,22.524,14.111,29,13.595,36.806c-.7,8.435-1.114,14.721-4.307,21.9a35.872,35.872,0,1,1,35.867,14.9Z" transform="translate(0.001 0.491)" fill="#9ad4d7"/>
          </g>
        </g>
        <path id="XMLID_00000036209898089073278220000000037352250193229441_" d="M116.387,97.387a4.878,4.878,0,1,1-4.877-4.877A4.876,4.876,0,0,1,116.387,97.387Z" transform="translate(-77.802 -67.367)" fill="#9ad4d7"/>
      </g>
    </g>
  </g>
</svg>
