<svg xmlns="http://www.w3.org/2000/svg" width="187.531" height="60" viewBox="0 0 187.531 60">
  <g id="Layer_2" data-name="Layer 2" transform="translate(0 0)">
    <g id="Layer_1" data-name="Layer 1" transform="translate(0 0)">
      <path id="Tracé_30" data-name="Tracé 30" d="M13.953,20.31a1.45,1.45,0,0,1-.121,1.141h0a1.451,1.451,0,0,1-.929.672,1.413,1.413,0,0,1-1.127-.232L8.191,19.3a.967.967,0,0,1,.968-1.664l4.03,1.809a1.417,1.417,0,0,1,.764.861m0,23.579a1.417,1.417,0,0,1-.769.856l-4.03,1.813a.967.967,0,0,1-.968-1.668l3.585-2.582a1.418,1.418,0,0,1,1.979.319c.029.039.053.082.077.121a1.45,1.45,0,0,1,.121,1.141m-7.257-10.4-1.539-.527a1.175,1.175,0,0,1,0-2.224l1.539-.527A1.731,1.731,0,1,1,7.8,33.493a1.752,1.752,0,0,1-1.113,0M24.539,0H15.647A15.652,15.652,0,0,1,0,15.644V55.273A42.211,42.211,0,0,0,17.461,51.52l.692-20.484a4.494,4.494,0,0,1-2.1-4.086c0-2.113,1.1-3.869,2.559-4.265A9.669,9.669,0,0,1,19.938,19.1a2.11,2.11,0,0,1-1.553-1.006,36.681,36.681,0,0,1-4.451-7.123,1.7,1.7,0,0,1,.184-1.717.847.847,0,0,1,1.185-.16,1.011,1.011,0,0,1,.106.1c2.1,1.992,4.635,2.587,6.033,4.5a2.693,2.693,0,0,1,.4-.658,2.933,2.933,0,0,1,3.464-.909,3,3,0,0,1,5.743,0,2.759,2.759,0,0,1,2.013-.1,41.921,41.921,0,0,1,5.951-8.545A31.654,31.654,0,0,0,24.539,0" transform="translate(0 0)" fill="rgba(179,252,255,0.8)" style="isolation: isolate"/>
      <path id="Tracé_32" data-name="Tracé 32" d="M86.478,36.674l-1.543.527a1.731,1.731,0,1,1-1.113-3.279,1.752,1.752,0,0,1,1.113,0l1.543.527a1.175,1.175,0,0,1,0,2.224M83.222,49.866a.968.968,0,0,1-1.234.4l-4.03-1.813a1.407,1.407,0,0,1-.716-1.857l.073-.14a1.408,1.408,0,0,1,1.935-.517l.121.077L82.956,48.6a.967.967,0,0,1,.271,1.267M77.189,24.024a1.417,1.417,0,0,1,.769-.856l4.03-1.809a.967.967,0,0,1,.968,1.664L79.371,25.61a1.423,1.423,0,0,1-1.984-.334l-.068-.106h0a1.421,1.421,0,0,1-.131-1.146m-.16-15.252c-.885-.571-1.795-1.1-2.738-1.581a41.922,41.922,0,0,0-5.951,8.545,3.024,3.024,0,0,1,1.451,1.006,3.153,3.153,0,0,1,.4.658c1.311-1.794,3.619-2.2,5.641-4.125a1.186,1.186,0,0,1,1.534-.15.967.967,0,0,1,.266.261,1.165,1.165,0,0,1,.14,1.209l-.058.135A38.282,38.282,0,0,1,73.289,21.8a2.124,2.124,0,0,1-1.577,1.006,9.543,9.543,0,0,1,1.3,3.588,4.02,4.02,0,0,1,2.526,3.637,5.475,5.475,0,0,1,.034.629,4.6,4.6,0,0,1-1.892,3.965,1.292,1.292,0,0,1-.208.121v.3l.968,28.657A31.779,31.779,0,0,0,91.592,35.5h0A31.763,31.763,0,0,0,77.029,8.771" transform="translate(-35.293 -3.711)" fill="rgba(179,252,255,0.8)" style="isolation: isolate"/>
      <path id="Tracé_35" data-name="Tracé 35" d="M54.179,51.444l-1.611,1.48a1.011,1.011,0,0,0-.285.484c-.106.426-.314,1.263-.484,2.056a.484.484,0,0,1-.484.368h0a.484.484,0,0,1-.484-.368l-.513-2.056a.968.968,0,0,0-.285-.484l-1.611-1.48a.494.494,0,0,1,.411-.832l2.419.329h.131l.189-.024,2.23-.3a.479.479,0,0,1,.373.832m2.419-.542a5.772,5.772,0,0,1,.842-2.946,1.935,1.935,0,0,0,.155-1.6l-.111.1a2.825,2.825,0,0,1-3.454.029,2.165,2.165,0,0,1-2.1,1.955,2.419,2.419,0,0,1-.373,0,2.269,2.269,0,0,1-2.467-1.988,2.825,2.825,0,0,1-3.454-.029,2.264,2.264,0,0,1-.363-.382,1.9,1.9,0,0,0-.106,2,5.994,5.994,0,0,1,.706,2.864,5.772,5.772,0,0,1-.8,2.956,1.935,1.935,0,0,0,.179,2.192,9.047,9.047,0,0,0,5.733,3.242H51.5c2.458,0,4.388-1.529,5.767-3.542a1.9,1.9,0,0,0,.082-1.988,6,6,0,0,1-.726-2.855" transform="translate(-23.128 -23.778)" fill="rgba(179,252,255,0.8)" fill-rule="evenodd"/>
      <path id="Tracé_37" data-name="Tracé 37" d="M155.245,59.854A9.981,9.981,0,0,1,154.6,63.6a7.17,7.17,0,0,1-1.824,2.671,7.509,7.509,0,0,1-2.806,1.606,11.727,11.727,0,0,1-3.653.532h-1.026a10.969,10.969,0,0,1-1.176-.092c-.4-.044-.808-.111-1.219-.189a7.378,7.378,0,0,1-1.122-.31A1.839,1.839,0,0,1,140.387,66V53.25a1.137,1.137,0,0,1,.281-.827,1.984,1.984,0,0,1,.813-.484,10.779,10.779,0,0,1,2.327-.455c.818-.073,1.568-.106,2.245-.106a12.932,12.932,0,0,1,3.745.484,7.741,7.741,0,0,1,2.9,1.563,7.2,7.2,0,0,1,1.872,2.646A9.676,9.676,0,0,1,155.245,59.854Zm-4.354.053a5.283,5.283,0,0,0-1.268-3.871,4.47,4.47,0,0,0-3.3-1.268c-.319,0-.624,0-.9.024a6.483,6.483,0,0,0-.856.111v9.947a5.646,5.646,0,0,0,.842.121c.329.029.643.044.968.044a4.4,4.4,0,0,0,3.314-1.272A5.312,5.312,0,0,0,150.91,59.9Z" transform="translate(-72.498 -26.535)" fill="rgba(179,252,255,0.8)"/>
      <path id="Tracé_38" data-name="Tracé 38" d="M179.142,66.9a2.569,2.569,0,0,0,1.311,1.592,4.727,4.727,0,0,0,2.163.484,7.557,7.557,0,0,0,3.716-.968,2.259,2.259,0,0,1,.672.7,1.771,1.771,0,0,1,.266.934,1.635,1.635,0,0,1-.377,1.074,2.9,2.9,0,0,1-1.026.76,5.946,5.946,0,0,1-1.553.455,12.309,12.309,0,0,1-1.964.145,9.246,9.246,0,0,1-2.9-.44,6.372,6.372,0,0,1-2.313-1.345,5.956,5.956,0,0,1-1.509-2.177,7.877,7.877,0,0,1-.547-3.077,7.344,7.344,0,0,1,.547-2.971,5.806,5.806,0,0,1,3.585-3.3,7.867,7.867,0,0,1,2.419-.387,7.257,7.257,0,0,1,2.5.416,5.729,5.729,0,0,1,1.935,1.161,5.274,5.274,0,0,1,1.272,1.795,5.573,5.573,0,0,1,.455,2.269,1.684,1.684,0,0,1-.455,1.287,2.419,2.419,0,0,1-1.282.561Zm2.54-5.506a2.7,2.7,0,0,0-1.911.706,3.125,3.125,0,0,0-.9,2.047l5.109-.827a2.124,2.124,0,0,0-2.3-1.935Z" transform="translate(-90.412 -30.146)" fill="rgba(179,252,255,0.8)"/>
      <path id="Tracé_39" data-name="Tracé 39" d="M210.323,53.83h4.548c.087.179.179.4.281.668a2.565,2.565,0,0,1,.145.881,1.655,1.655,0,0,1-.387,1.229,1.379,1.379,0,0,1-1,.377h-3.387v8.743a5.288,5.288,0,0,1-.75.145,7.955,7.955,0,0,1-1.069.068,3.019,3.019,0,0,1-1.737-.387,1.761,1.761,0,0,1-.537-1.51V52.678a5.5,5.5,0,0,1,.44-2.274,4.136,4.136,0,0,1,1.219-1.563,5.2,5.2,0,0,1,1.809-.871,8.123,8.123,0,0,1,2.245-.3,6.212,6.212,0,0,1,2.821.484,1.708,1.708,0,0,1,.934,1.606,1.906,1.906,0,0,1-.2.9,1.829,1.829,0,0,1-.484.6,9.86,9.86,0,0,0-1.084-.266,7.063,7.063,0,0,0-1.3-.106,3.285,3.285,0,0,0-1.872.44,1.669,1.669,0,0,0-.634,1.48Zm7.219-4.625a2.143,2.143,0,0,1,.629-1.553,2.419,2.419,0,0,1,3.29,0,2.143,2.143,0,0,1,.629,1.553,2.182,2.182,0,0,1-.629,1.577,2.419,2.419,0,0,1-3.29,0,2.182,2.182,0,0,1-.629-1.577Zm4.306,16.522a5.152,5.152,0,0,1-.75.145,7.953,7.953,0,0,1-1.069.068,2.966,2.966,0,0,1-1.722-.387,1.787,1.787,0,0,1-.523-1.51V53.051a6.361,6.361,0,0,1,.75-.16,6.565,6.565,0,0,1,1.069-.077,2.83,2.83,0,0,1,1.722.4,1.824,1.824,0,0,1,.523,1.524Z" transform="translate(-106.604 -24.279)" fill="rgba(179,252,255,0.8)"/>
      <path id="Tracé_40" data-name="Tracé 40" d="M246.137,67.622a2.2,2.2,0,0,1-.6-1.616V51.913l.842-.131a7.533,7.533,0,0,1,1.084-.082,2.946,2.946,0,0,1,1.737.4,1.878,1.878,0,0,1,.537,1.577V64.806h6.415a3.975,3.975,0,0,1,.31.692,2.9,2.9,0,0,1,.145.939,1.935,1.935,0,0,1-.387,1.321,1.33,1.33,0,0,1-1.055.445h-7.407a2.2,2.2,0,0,1-1.621-.581Z" transform="translate(-126.798 -26.697)" fill="rgba(179,252,255,0.8)"/>
      <path id="Tracé_41" data-name="Tracé 41" d="M275.6,67.1a2.946,2.946,0,0,1-1.722-.387,1.787,1.787,0,0,1-.523-1.51V49.513a6.385,6.385,0,0,1,.76-.16,6.807,6.807,0,0,1,1.084-.082,2.9,2.9,0,0,1,1.713.4,1.8,1.8,0,0,1,.532,1.524V66.891a6.245,6.245,0,0,1-.774.145A7.954,7.954,0,0,1,275.6,67.1Z" transform="translate(-141.165 -25.443)" fill="rgba(179,252,255,0.8)"/>
      <path id="Tracé_42" data-name="Tracé 42" d="M292.762,58.34a10.731,10.731,0,0,1,2.526.281,5.535,5.535,0,0,1,1.935.871,4.02,4.02,0,0,1,1.243,1.495,4.925,4.925,0,0,1,.44,2.143v6.043a1.626,1.626,0,0,1-.339,1.1,3.44,3.44,0,0,1-.866.706,6.721,6.721,0,0,1-2.032.779,12.913,12.913,0,0,1-2.729.266,8,8,0,0,1-4.388-1.055,4.047,4.047,0,0,1-.532-6.019,5.952,5.952,0,0,1,3.387-1.2l3.556-.377v-.29a1.355,1.355,0,0,0-.692-1.258,4.035,4.035,0,0,0-2.008-.4,8.119,8.119,0,0,0-1.993.242,11.845,11.845,0,0,0-1.751.561,1.713,1.713,0,0,1-.566-.663,2.061,2.061,0,0,1-.227-.968,1.742,1.742,0,0,1,1.229-1.684,8.283,8.283,0,0,1,1.8-.44,14.515,14.515,0,0,1,2-.131Zm.16,10.644a5.836,5.836,0,0,0,1.161-.116,2.748,2.748,0,0,0,.871-.31V66.124l-2.192.184a3.353,3.353,0,0,0-1.379.387,1.006,1.006,0,0,0-.522.924,1.219,1.219,0,0,0,.484,1.016,2.584,2.584,0,0,0,1.6.373Z" transform="translate(-148.168 -30.13)" fill="rgba(179,252,255,0.8)"/>
      <path id="Tracé_43" data-name="Tracé 43" d="M337.352,71.6a6.071,6.071,0,0,1-.774.145,7.953,7.953,0,0,1-1.069.068,2.956,2.956,0,0,1-1.722-.387,1.787,1.787,0,0,1-.522-1.509V63.281a1.616,1.616,0,0,0-.484-1.3,1.935,1.935,0,0,0-1.287-.4,2.68,2.68,0,0,0-1.006.189,3.44,3.44,0,0,0-.842.484,2.539,2.539,0,0,1,.044.266V71.6a6.247,6.247,0,0,1-.774.145,7.954,7.954,0,0,1-1.069.068,2.946,2.946,0,0,1-1.722-.387,1.787,1.787,0,0,1-.523-1.51V63.281a1.538,1.538,0,0,0-.537-1.3,2.075,2.075,0,0,0-1.311-.4,2.835,2.835,0,0,0-1.016.174,5.593,5.593,0,0,0-.745.339v9.5a5.288,5.288,0,0,1-.75.145,7.953,7.953,0,0,1-1.069.068,3.019,3.019,0,0,1-1.737-.387,1.761,1.761,0,0,1-.537-1.509V61.65a1.935,1.935,0,0,1,.3-1.122,3.286,3.286,0,0,1,.827-.8,7.257,7.257,0,0,1,2.182-.968,9.633,9.633,0,0,1,2.714-.377,7.257,7.257,0,0,1,2.124.31,5.758,5.758,0,0,1,1.834.968,8.128,8.128,0,0,1,1.814-.9,7.175,7.175,0,0,1,2.419-.363,7.707,7.707,0,0,1,1.993.256,4.582,4.582,0,0,1,1.669.827,4.166,4.166,0,0,1,1.161,1.5,5.123,5.123,0,0,1,.44,2.23Z" transform="translate(-164.177 -30.151)" fill="rgba(179,252,255,0.8)"/>
      <path id="Tracé_44" data-name="Tracé 44" d="M368.835,58.34a10.673,10.673,0,0,1,2.526.281,5.5,5.5,0,0,1,1.935.871,3.972,3.972,0,0,1,1.243,1.495,4.838,4.838,0,0,1,.44,2.143v6.043a1.65,1.65,0,0,1-.358,1.108,3.387,3.387,0,0,1-.871.706,6.624,6.624,0,0,1-2.032.779,12.913,12.913,0,0,1-2.729.266,7.985,7.985,0,0,1-4.383-1.055,4.088,4.088,0,0,1-.532-6.028,5.952,5.952,0,0,1,3.387-1.2l3.556-.377v-.29a1.35,1.35,0,0,0-.7-1.258,4.03,4.03,0,0,0-2.008-.406,8.06,8.06,0,0,0-1.993.242,11.657,11.657,0,0,0-1.751.561,1.761,1.761,0,0,1-.561-.658,2.056,2.056,0,0,1-.223-.968,1.732,1.732,0,0,1,1.229-1.684,8.283,8.283,0,0,1,1.8-.44,14.474,14.474,0,0,1,2.017-.131Zm.16,10.644a5.915,5.915,0,0,0,1.165-.116,2.671,2.671,0,0,0,.867-.31V66.124l-2.192.184a3.353,3.353,0,0,0-1.379.387,1.011,1.011,0,0,0-.518.924,1.224,1.224,0,0,0,.484,1.016,2.584,2.584,0,0,0,1.572.373Z" transform="translate(-187.45 -30.13)" fill="rgba(179,252,255,0.8)"/>
    </g>
  </g>
</svg>
