<svg xmlns="http://www.w3.org/2000/svg" width="54.543" height="60" viewBox="0 0 54.543 60">
  <g id="Calque_2" data-name="Calque 2" transform="translate(0 0.003)" opacity="0.803">
    <g id="Calque_1" data-name="Calque 1" transform="translate(0 -0.003)">
      <path id="Soustraction_2" data-name="Soustraction 2" d="M27.255,60a9.347,9.347,0,0,1-2.548-.361,11.427,11.427,0,0,1-2.532-1.079c-3.916-2.234-7.886-4.53-11.725-6.751h0c-1.716-.993-3.49-2.019-5.256-3.038a11.819,11.819,0,0,1-2.011-1.447,9.74,9.74,0,0,1-1.541-1.761A9.487,9.487,0,0,1,.581,43.48a11.052,11.052,0,0,1-.569-2.414A4.773,4.773,0,0,1,0,40.575a1.322,1.322,0,0,0,.048-.558c0-6.652,0-13.4,0-20.054A1.318,1.318,0,0,0,0,19.406a11.118,11.118,0,0,1,.418-2.455A9.21,9.21,0,0,1,1.357,14.8a9.034,9.034,0,0,1,1.454-1.826,10.584,10.584,0,0,1,1.971-1.493C8.566,9.24,12.446,7.013,16.2,4.86l.021-.012,2.72-1.562c.4-.228.8-.468,1.183-.7l0,0A27.1,27.1,0,0,1,23.315.861a10.8,10.8,0,0,1,2-.648,9.2,9.2,0,0,1,4.511.145,11.26,11.26,0,0,1,2.488,1.058c5.695,3.254,11.447,6.575,17.1,9.871a11.614,11.614,0,0,1,2.069,1.521,9.418,9.418,0,0,1,1.547,1.856,9.15,9.15,0,0,1,1.006,2.2,10.823,10.823,0,0,1,.446,2.544.917.917,0,0,0-.054.435c0,.041,0,.082,0,.123V40.019c0,.041,0,.083,0,.124a.928.928,0,0,0,.053.434,9.512,9.512,0,0,1-4.955,8.042C43.812,51.966,38,55.323,32.249,58.6a11.184,11.184,0,0,1-2.489,1.053A9.285,9.285,0,0,1,27.255,60Zm.007-58.653a7.793,7.793,0,0,0-1.281.107,8.9,8.9,0,0,0-1.858.533,13.888,13.888,0,0,0-1.735.856c-5.454,3.137-11,6.34-16.49,9.517a11.444,11.444,0,0,0-1.476,1.014,8.92,8.92,0,0,0-1.23,1.213,7.808,7.808,0,0,0-.947,1.438,8.017,8.017,0,0,0-.627,1.69c-.1.417-.177.849-.247,1.267h0c-.033.194-.066.394-.1.59a.52.52,0,0,0-.09.417c0,.041.006.084.006.125V39.866c0,.041,0,.083-.006.123h0a.526.526,0,0,0,.089.418,1.5,1.5,0,0,1,.139.708,2.707,2.707,0,0,0,.032.4,8.719,8.719,0,0,0,4.638,6.221c2.124,1.215,4.274,2.46,6.354,3.664,1.118.647,2.274,1.317,3.415,1.975l1.383.8.024.014h0c1.819,1.051,3.7,2.138,5.558,3.194a10.253,10.253,0,0,0,2.13.924,7.993,7.993,0,0,0,2.276.338c.215,0,.434-.009.649-.027A8.369,8.369,0,0,0,30,58.147a11.868,11.868,0,0,0,1.974-.929c5.54-3.187,11.149-6.426,16.671-9.628a10.835,10.835,0,0,0,1.459-1,8.7,8.7,0,0,0,1.211-1.206,7.8,7.8,0,0,0,.931-1.431,8.1,8.1,0,0,0,.618-1.676c.106-.422.179-.859.251-1.281.032-.189.065-.384.1-.576A.546.546,0,0,0,53.3,40c0-.041-.006-.084-.006-.126V20.119c0-.041,0-.084.006-.126a.523.523,0,0,0-.088-.417.983.983,0,0,1-.092-.262,8.829,8.829,0,0,0-.446-2.254,7.77,7.77,0,0,0-.966-1.905,8.688,8.688,0,0,0-1.439-1.59,11.663,11.663,0,0,0-1.867-1.309c-2.279-1.3-4.589-2.64-6.823-3.933h0l-.017-.01c-1.02-.59-2.075-1.2-3.114-1.8l-1.434-.832c-1.73-1-3.519-2.042-5.288-3.043A8.937,8.937,0,0,0,27.262,1.347Z" transform="translate(0.032 0)" fill="#b3fcff"/>
      <path id="Tracé_7" data-name="Tracé 7" d="M.035,137.06c.2.227.115.5.117.757V157.87c0,.254.088.531-.117.757-.012-1.052-.035-2.1-.035-3.159V138.28C0,137.874.023,137.467.035,137.06Z" transform="translate(0 -117.854)" fill="#b3fcff"/>
      <path id="Tracé_8" data-name="Tracé 8" d="M384.19,158.658c-.206-.225-.117-.5-.117-.757q-.009-10.028,0-20.053c0-.254-.091-.532.118-.757.01,1.342.03,2.685.032,4.026v16.325C384.228,157.851,384.206,158.251,384.19,158.658Z" transform="translate(-329.681 -117.88)" fill="#b3fcff"/>
      <path id="Tracé_10" data-name="Tracé 10" d="M8.13,137.272V158.5c-.033.068-.065.242-.137.131s-.025-.325-.025-.493V137.633c0-.169,0-.336.01-.5,0-.009.052-.025.055-.022A1.481,1.481,0,0,1,8.13,137.272Z" transform="translate(-6.806 -117.895)" fill="#b3fcff"/>
      <path id="Tracé_11" data-name="Tracé 11" d="M376.11,158.488V137.252c.032-.066.062-.242.144-.13s.023.325.023.492v20.5c0,.175.087.369-.058.531,0,0-.043-.012-.049-.025A.411.411,0,0,1,376.11,158.488Z" transform="translate(-322.884 -117.876)" fill="#b3fcff"/>
      <path id="Soustraction_4" data-name="Soustraction 4" d="M23.8,53.085h0a6.527,6.527,0,0,1-1.816-.263,8.239,8.239,0,0,1-1.819-.789l-16.626-9.6a8.64,8.64,0,0,1-1.252-.869A6.83,6.83,0,0,1,1.271,40.51a6.175,6.175,0,0,1-.745-1.246A6.664,6.664,0,0,1,.069,37.8a4.044,4.044,0,0,1-.053-.485c0-.071-.01-.14-.016-.208a.921.921,0,0,0,.061-.476v0c0-.047,0-.1,0-.143V16.608c0-.047,0-.1,0-.143v0A.925.925,0,0,0,0,15.985a6.191,6.191,0,0,1,.894-2.906,6.549,6.549,0,0,1,2.17-2.1C4.62,10.021,6.223,9.1,7.774,8.213h0l.073-.042c.541-.31,1.1-.631,1.653-.951,3.572-2.069,7.18-4.15,10.721-6.186A8.1,8.1,0,0,1,22.012.259,6.468,6.468,0,0,1,23.805,0a6.392,6.392,0,0,1,1.751.249A7.828,7.828,0,0,1,27.3,1c5.572,3.2,11.209,6.45,16.754,9.668a8.719,8.719,0,0,1,1.252.869,6.828,6.828,0,0,1,1.012,1.047,6.147,6.147,0,0,1,.746,1.246,6.618,6.618,0,0,1,.455,1.464,4.187,4.187,0,0,1,.051.475v.01c0,.068.01.139.016.208a2.281,2.281,0,0,0-.029,1.045h0a4.283,4.283,0,0,1,.047.554c-.011,5.947-.011,11.977,0,17.925a4.276,4.276,0,0,1-.047.554h0a2.283,2.283,0,0,0,.029,1.045,6.222,6.222,0,0,1-.875,2.877,6.4,6.4,0,0,1-2.133,2.09c-1.608.993-3.271,1.948-4.879,2.872l-.005,0-.046.026c-.491.282-1,.573-1.5.865-3.535,2.045-7.142,4.127-10.721,6.188a8.207,8.207,0,0,1-1.817.79A6.525,6.525,0,0,1,23.8,53.085ZM13.844,7.093c-.674,0-.794.228-.794.872.011,12.47.017,24.981.017,37.183v.493a.312.312,0,0,0,.193.331,1.349,1.349,0,0,0,.517.114.788.788,0,0,0,.619-.27,1.14,1.14,0,0,0,.238-.755V9.849c0-.222.008-.451.014-.653V9.189c0-.07.005-.162.008-.254a.7.7,0,0,1,.358-.084c.074,0,.149.007.221.013h0c.056.005.111.01.162.012h9.17c.066,0,.135,0,.19.007s.127.007.193.007a.889.889,0,0,0,.377-.069c.126-.011.254-.017.381-.017h.042a18.333,18.333,0,0,1,2.968.385,16.35,16.35,0,0,1,5.353,2.193A17.838,17.838,0,0,1,36.455,13.2a20.007,20.007,0,0,1,3.191,3.632,16.6,16.6,0,0,1,2,4.039,16.918,16.918,0,0,1,.829,4.428,20.941,20.941,0,0,1-.32,4.8,16.726,16.726,0,0,1-.993,3.439,16.2,16.2,0,0,1-1.644,3.027A17.833,17.833,0,0,1,37.281,39.2a21.572,21.572,0,0,1-2.767,2.265,15.65,15.65,0,0,1-8.472,2.842.859.859,0,0,0-.353-.063c-.055,0-.112,0-.167.005h-.005c-.054,0-.111.005-.166.005-.835,0-1.673,0-2.382,0H21.361c-.809,0-1.765,0-2.722-.006h0a1.193,1.193,0,0,0-.177.018,1.259,1.259,0,0,1-.185.019.332.332,0,0,1-.323-.2c-.009-4.988-.009-10.032-.008-14.91v-.012c0-5.233,0-10.645-.01-15.99a.763.763,0,0,1,.153-.562.7.7,0,0,1,.522-.145h.06c.371.006.775.009,1.236.009.4,0,.811,0,1.207,0h.155l.993,0h.728c1.131,0,2.058,0,2.918.012a11.237,11.237,0,0,1,2.871.493,12.848,12.848,0,0,1,2.657,1.176,15.3,15.3,0,0,1,3.6,2.862,13.808,13.808,0,0,1,3.586,7.857,15.425,15.425,0,0,1-.184,4.593A14.18,14.18,0,0,1,25.617,40.67h0c-.275.014-.493.026-.674.026-.344,0-.519-.044-.625-.156-.181-.191-.158-.6-.113-1.415l0-.033a.524.524,0,0,1,.1-.345.5.5,0,0,1,.339-.124c.241-.024.485-.043.721-.061h0a12.044,12.044,0,0,0,1.856-.24,12.239,12.239,0,0,0,4.046-1.758A11.809,11.809,0,0,0,34.3,33.611a12.064,12.064,0,0,0,1.814-3.84,12.811,12.811,0,0,0,.4-4.421,11.048,11.048,0,0,0-1.018-3.779A12.515,12.515,0,0,0,33.3,18.333a12.781,12.781,0,0,0-1.433-1.321,12.2,12.2,0,0,0-1.6-1.072A10.572,10.572,0,0,0,26.714,14.7a25.425,25.425,0,0,0-3.876-.212h-.623c-.549,0-1.189,0-1.823-.027l-.125,0a.691.691,0,0,0-.576.187,1.039,1.039,0,0,0-.146.663c.01,8.752.016,17.591.016,26.271v.565a.282.282,0,0,0,.169.282,1.136,1.136,0,0,0,.5.125.872.872,0,0,0,.644-.273,1.04,1.04,0,0,0,.264-.729V16.459a.358.358,0,0,1,.078-.268.313.313,0,0,1,.234-.08h.019c.24.007.5.01.8.01s.58,0,.835-.006h0c.243,0,.546-.006.835-.006a15.013,15.013,0,0,1,2.861.22,8.556,8.556,0,0,1,1.525.454,9.977,9.977,0,0,1,1.492.75,10.892,10.892,0,0,1,1.4,1.021,11.165,11.165,0,0,1,1.258,1.267,10.619,10.619,0,0,1,1.861,3.172,9.981,9.981,0,0,1,.617,3.856,10.5,10.5,0,0,1-.68,3.336,10.84,10.84,0,0,1-1.665,2.92,10.546,10.546,0,0,1-2.472,2.256,9.87,9.87,0,0,1-3.1,1.345,12.164,12.164,0,0,1-2.842.282c-.335,0-.675-.007-.934-.013h-.048a.61.61,0,0,0-.458.13.682.682,0,0,0-.126.507c.025,1.169.018,2.356.011,3.5h0V41.2q0,.287,0,.574a.663.663,0,0,0,.1.476.469.469,0,0,0,.344.1h.019c.276,0,.556-.007.828-.009h.053a23.057,23.057,0,0,0,3.193-.171A14.247,14.247,0,0,0,32.025,40.5a16.029,16.029,0,0,0,2.154-1.441,16.731,16.731,0,0,0,3.52-3.822,16.147,16.147,0,0,0,1.265-2.272,14.475,14.475,0,0,0,1.287-5,18.578,18.578,0,0,0-.051-3.238,15.6,15.6,0,0,0-.634-3.05,14.694,14.694,0,0,0-1.251-2.849,15.845,15.845,0,0,0-1.9-2.635,18.531,18.531,0,0,0-2.247-2.158,15.308,15.308,0,0,0-2.511-1.65,13.928,13.928,0,0,0-2.786-1.091,14.41,14.41,0,0,0-3.071-.478c-1.109-.055-2.3-.081-3.747-.081-.971,0-1.957.012-2.911.023h0c-.955.011-1.942.023-2.915.023a.608.608,0,0,0-.1.506c.005.055.011.112.011.168-.006,11.238-.006,22.639,0,33.885a1.31,1.31,0,0,1-.014.161v0a.464.464,0,0,0,.13.487H21c1.686,0,2.977,0,4.186-.012a17.924,17.924,0,0,0,3.969-.476,19.067,19.067,0,0,0,3.734-1.3,19.918,19.918,0,0,0,6.359-4.737,19.614,19.614,0,0,0,2.37-3.268,18.917,18.917,0,0,0,2.408-7.211,20.33,20.33,0,0,0-.778-8.341,18.343,18.343,0,0,0-2.689-5.422,19.729,19.729,0,0,0-9.521-7.072,18.665,18.665,0,0,0-5.96-1.034c-.927-.006-1.915-.009-3.206-.009H18.2c-1.187,0-2.751,0-4.318-.019h-.038ZM23.989,17.749c-.225,0-.456.007-.687.019-.527.03-.664.17-.664.682.018,2.023.015,4.08.013,6.069,0,.65,0,1.388,0,2.1,0,.782,0,1.577,0,2.345v.022c0,1.9,0,3.868-.011,5.8a.709.709,0,0,0,.131.524.52.52,0,0,0,.389.119c.032,0,.067,0,.1,0,.282-.019.569-.025.847-.03a11.079,11.079,0,0,0,1.468-.1,8.656,8.656,0,0,0,4.1-1.8,8.945,8.945,0,0,0,3.218-5.447,8.587,8.587,0,0,0-.355-4.308,9.043,9.043,0,0,0-1.062-2.1,9.653,9.653,0,0,0-1.493-1.732,8.2,8.2,0,0,0-1.756-1.218,8.414,8.414,0,0,0-2-.719A10.257,10.257,0,0,0,23.989,17.749Z" transform="translate(3.48 3.442)" fill="#b3fcff"/>
      <path id="Tracé_13" data-name="Tracé 13" d="M360.285,158.618c-.221-.219-.128-.5-.128-.752V137.792c0-.252-.092-.532.128-.752.039.643.108,1.287.11,1.929q.013,8.859,0,17.719C360.393,157.331,360.322,157.974,360.285,158.618Z" transform="translate(-309.215 -117.837)" fill="#b3fcff"/>
      <path id="Tracé_14" data-name="Tracé 14" d="M23.812,137c.218.221.126.5.126.753q.009,10.036,0,20.07c0,.252.092.532-.126.753-.019-.335-.05-.669-.052-1.01V138C23.76,137.675,23.795,137.34,23.812,137Z" transform="translate(-20.332 -117.803)" fill="#b3fcff"/>
      <path id="Tracé_17" data-name="Tracé 17" d="M150.579,143.625c-.009-.19-.025-.382-.025-.577q0-15.6-.014-31.189c0-.6.167-.775.762-.752,2.487.1,4.981-.136,7.466.144-.219.222-.5.128-.752.128-2.134.009-4.267.035-6.4-.013-.721-.016-.925.16-.923.906q.04,15.674.019,31.349a.076.076,0,0,1-.133,0Z" transform="translate(-129.296 -95.714)" fill="#b3fcff"/>
      <path id="Tracé_18" data-name="Tracé 18" d="M115.241,76.309v37.914h-.071V76.28Z" transform="translate(-98.864 -65.275)" fill="#b3fcff"/>
      <path id="Tracé_19" data-name="Tracé 19" d="M137.875,100.13q-.009,4.423-.016,8.848v26.185c0,.31.026.622.039.932-.289-.144-.193-.413-.193-.636V100.784C137.7,100.558,137.608,100.294,137.875,100.13Z" transform="translate(-118.192 -86.336)" fill="#b3fcff"/>
      <path id="Tracé_20" data-name="Tracé 20" d="M127.92,86.143c.05-.193.212-.163.348-.163l10.567.03c-.218.222-.5.128-.747.13Q133,86.149,127.92,86.143Z" transform="translate(-109.892 -73.805)" fill="#b3fcff"/>
      <path id="Tracé_21" data-name="Tracé 21" d="M150.81,336.4h7.58c.252,0,.531-.092.75.126l-8,.052C151.006,336.588,150.852,336.594,150.81,336.4Z" transform="translate(-129.529 -288.761)" fill="#b3fcff"/>
      <path id="Tracé_22" data-name="Tracé 22" d="M195.632,168.291c0-2.23.022-4.461-.014-6.69-.009-.577.153-.743.721-.672a7.4,7.4,0,0,1,.775,14.592c-1.479.339-1.477.339-1.477-1.117Z" transform="translate(-168.001 -138.269)" fill="#b3fcff"/>
    </g>
  </g>
</svg>
