<svg width="270" height="60" viewBox="0 0 270 60" fill="none" xmlns="http://www.w3.org/2000/svg">
<g clip-path="url(#clip0_114_2616)">
<path d="M74.0911 20.6585C74.0911 18.6528 73.3965 17.6499 72.0073 17.6499C71.7188 17.64 71.4304 17.6673 71.149 17.731C70.7856 17.8047 70.4164 17.8455 70.0456 17.8531C69.8769 17.8557 69.7094 17.8226 69.5545 17.7561C69.3995 17.6895 69.2605 17.5909 69.1466 17.4669C69.0252 17.3396 68.9302 17.1896 68.8671 17.0257C68.804 16.8617 68.774 16.687 68.7788 16.5115C68.7788 15.5627 69.349 15.0883 70.4895 15.0883C70.5166 15.0883 70.7201 15.1019 71.0998 15.1289C75.1718 15.3999 77.0722 15.5354 76.8012 15.5354H77.2058L87.0198 15.2505C87.21 15.2505 87.9159 15.2098 89.1375 15.1284C89.5715 15.1014 89.9649 15.0879 90.3178 15.0879C91.7296 15.0879 92.4355 15.7113 92.4355 16.9581C92.4355 17.175 92.3965 17.8662 92.3187 19.0315C92.2604 19.8989 92.2312 20.6985 92.2312 21.4304C92.2198 22.0952 92.2426 22.7602 92.2993 23.4228C92.3749 24.0027 92.4204 24.5862 92.4355 25.1708C92.4355 26.2007 91.9451 26.7157 90.9644 26.7157C89.9837 26.7157 89.4933 25.994 89.4933 24.5507V22.4268C89.4933 20.1396 89.0184 18.7915 88.0684 18.3828C87.3624 18.0834 85.5434 17.9337 82.6115 17.9337C81.4697 17.896 80.3267 17.9375 79.1907 18.0579C78.0231 18.3608 77.4393 19.1868 77.4393 20.5358V24.6017C77.4393 25.686 77.681 26.3094 78.1645 26.4719C78.4822 26.5386 78.8071 26.5658 79.1316 26.553H80.7841C82.4768 26.553 83.3232 25.9703 83.3232 24.8049C83.3156 24.383 83.2815 23.962 83.2208 23.5444C83.1566 23.0856 83.1224 22.6231 83.1184 22.1598C83.1184 21.0755 83.602 20.5334 84.5691 20.5334C85.5363 20.5334 86.0199 21.1161 86.0199 22.2814C86.0199 22.4984 85.9317 23.339 85.7555 24.8034C85.615 25.8959 85.5395 26.9956 85.5293 28.0968C85.5293 28.6388 85.5838 29.6011 85.6928 30.9838C85.72 31.2007 85.7881 31.6751 85.8971 32.407C85.9686 32.8783 86.0096 33.3536 86.0199 33.8302C86.0484 34.029 86.0301 34.2317 85.9663 34.4223C85.9024 34.6128 85.7949 34.786 85.6521 34.928C85.5094 35.0701 85.3354 35.1771 85.1439 35.2406C84.9524 35.3041 84.7486 35.3223 84.5488 35.2939C83.5952 35.2939 83.1184 34.7247 83.1184 33.5864C83.1287 33.1511 83.1628 32.7168 83.2208 32.2853C83.2788 31.8538 83.313 31.4195 83.3232 30.9843C83.3232 29.8189 82.5469 29.2362 80.9943 29.2362H79.1554C78.3656 29.2362 77.882 29.3717 77.7047 29.6427C77.476 30.1956 77.3849 30.7953 77.4393 31.3908V33.9127C77.4393 34.3463 77.4529 34.929 77.4801 35.6608C77.5073 36.5552 77.5209 37.1516 77.5209 37.4499C77.548 38.5342 77.7659 39.2119 78.1744 39.4829C78.4726 39.6728 79.1808 39.7677 80.299 39.7677H85.8593C87.4666 39.7677 88.5699 39.5305 89.1693 39.0561C89.7686 38.5817 90.0683 37.6941 90.0683 36.3932C90.0683 35.9867 90.0479 35.3836 90.0072 34.5838C89.9664 33.784 89.9459 33.1807 89.9456 32.7739C89.9456 31.5541 90.4293 30.9442 91.3968 30.9442C92.4179 30.9442 92.9285 31.5676 92.9285 32.8144C92.9285 33.3024 92.9081 34.0477 92.8674 35.0506C92.8266 36.0535 92.8062 36.7988 92.8062 37.2868C92.8062 37.6662 92.8266 38.2286 92.8674 38.974C92.9081 39.7194 92.9285 40.2818 92.9285 40.6613C92.9285 41.9351 92.302 42.5721 91.0489 42.5721C90.7507 42.5721 90.2739 42.5411 89.6185 42.4791C89.2915 42.4474 88.6922 42.4316 87.8204 42.4316C88.0113 42.4316 86.9489 42.4006 84.6333 42.3386C82.3176 42.2767 80.3154 42.2455 78.6267 42.2452C76.0658 42.2452 73.5597 42.3401 71.1082 42.53C70.9846 42.5316 70.8614 42.5451 70.7404 42.5706H70.4964C69.3523 42.5706 68.7803 42.0827 68.7803 41.1068C68.7803 40.2395 69.2026 39.8058 70.0471 39.8058C70.1833 39.8058 70.5511 39.8328 71.1505 39.8869C71.4298 39.9654 71.7185 40.0065 72.0088 40.009C73.398 40.009 74.0926 38.9926 74.0926 36.9599L74.0911 20.6585ZM108.417 36.7566V34.1546C108.444 33.0432 108.934 32.4876 109.888 32.4876C110.841 32.4876 111.317 33.1105 111.316 34.3563C111.316 37.3108 110.937 39.3713 110.179 40.5376C109.152 42.1098 107.461 42.896 105.107 42.896C102.942 42.896 101.4 42.2048 100.48 40.8225C99.804 39.8196 99.4659 38.1119 99.4659 35.6994V25.9418C99.4659 25.3724 99.2008 25.0878 98.6707 25.0878H97.3338C97.1299 25.0942 96.9268 25.0598 96.7365 24.9864C96.5463 24.9131 96.3728 24.8025 96.2265 24.661C96.0848 24.5278 95.9727 24.3666 95.8971 24.1878C95.8215 24.009 95.7843 23.8165 95.7877 23.6225C95.7883 23.4334 95.8265 23.2462 95.9001 23.0718C95.9737 22.8974 96.0812 22.7392 96.2166 22.6063C96.3363 22.4693 96.4837 22.3589 96.6491 22.2822C96.8145 22.2056 96.9943 22.1643 97.1767 22.1613H98.7706C99.2344 22.1613 99.4664 21.9038 99.4664 21.3889V17.2009C99.4664 16.171 99.9977 15.656 101.06 15.656C102.041 15.656 102.531 16.171 102.531 17.2009V21.5525C102.531 21.959 102.776 22.1623 103.267 22.1623H107.721C108.756 22.1623 109.273 22.6367 109.273 23.5855C109.273 24.5883 108.715 25.0897 107.598 25.0897H103.103C102.721 25.0897 102.531 25.3744 102.531 25.9438V35.9457C102.531 38.7917 103.484 40.2147 105.39 40.2147C107.324 40.2131 108.332 39.0604 108.417 36.7566ZM119.776 16.1496L119.611 24.0706C120.481 23.197 121.492 22.4755 122.603 21.9363C123.616 21.522 124.704 21.3213 125.799 21.3468C128.148 21.3468 130.033 22.0109 131.455 23.3392C132.164 24.0124 132.721 24.8285 133.089 25.7329C133.456 26.6373 133.626 27.6092 133.586 28.5839V35.374C133.586 36.9732 133.599 37.8541 133.626 38.0167C133.735 39.3719 134.09 40.0496 134.689 40.0496C135.013 40.0255 135.33 39.9487 135.629 39.8221C135.844 39.779 136.063 39.7598 136.283 39.7647C137.291 39.7647 137.795 40.2263 137.795 41.1494C137.795 42.0724 137.141 42.534 135.834 42.534C135.314 42.5217 134.796 42.4809 134.281 42.4118C133.359 42.2918 132.432 42.224 131.502 42.2086C130.956 42.1996 130.41 42.2267 129.868 42.2897C128.724 42.4522 128.015 42.5335 127.743 42.5335C127.295 42.5486 126.858 42.3963 126.517 42.1067C126.359 41.975 126.234 41.8098 126.149 41.6233C126.064 41.4369 126.022 41.2338 126.026 41.0292C126.025 40.8575 126.064 40.6879 126.138 40.533C126.212 40.3781 126.321 40.2419 126.455 40.1346C126.732 39.894 127.089 39.7637 127.456 39.7687C127.819 39.7802 128.178 39.8488 128.519 39.9719C128.743 40.0497 128.978 40.0909 129.215 40.0941C130.032 40.0941 130.454 39.2132 130.481 37.4514C130.481 37.126 130.509 36.4891 130.563 35.5407V31.597C130.563 28.8323 130.289 26.9756 129.742 26.0268C128.95 24.6175 127.555 23.9128 125.559 23.9128C123.399 23.9128 121.826 24.6447 120.842 26.1084C120.158 27.1113 119.803 28.724 119.776 30.9467V33.8742C119.754 34.1507 119.699 34.4237 119.612 34.6871V35.4596C119.612 37.0044 119.626 37.8988 119.655 38.1428C119.795 39.471 120.201 40.1351 120.873 40.1351C121.194 40.1172 121.512 40.0556 121.817 39.9522C122.109 39.8519 122.413 39.7904 122.72 39.7692C123.617 39.7692 124.065 40.202 124.065 41.0678C124.065 42.0452 123.462 42.534 122.255 42.534C121.871 42.534 121.295 42.4933 120.527 42.4118C119.639 42.3124 118.746 42.2581 117.852 42.2491C117.386 42.2491 116.742 42.2899 115.919 42.3713C114.822 42.4797 114.122 42.534 113.82 42.534C112.696 42.534 112.134 42.0312 112.134 41.0257C112.134 40.188 112.661 39.7692 113.715 39.7692C113.983 39.7544 114.252 39.7931 114.505 39.8829C114.831 39.9736 115.166 40.031 115.504 40.054C115.948 40.054 116.246 39.6406 116.398 38.8138C116.603 37.1333 116.693 35.4408 116.667 33.7481V26.4704C116.667 22.4046 116.585 19.8364 116.422 18.766C116.258 17.6956 115.877 17.1602 115.279 17.1598C114.989 17.1731 114.702 17.214 114.42 17.282C114.125 17.3522 113.824 17.3932 113.521 17.4041C112.593 17.4041 112.13 16.9704 112.13 16.1031C112.131 15.9139 112.175 15.7274 112.26 15.5582C112.345 15.389 112.469 15.2416 112.62 15.1274C112.953 14.8542 113.374 14.7099 113.805 14.7209C113.941 14.7209 114.405 14.7616 115.197 14.8431C115.753 14.8991 116.312 14.9262 116.872 14.9242C117.214 14.9149 117.556 14.8809 117.893 14.8223C118.204 14.7672 118.518 14.7331 118.833 14.7204C119.46 14.7204 119.773 15.1696 119.773 16.068L119.776 16.1496ZM157.982 30.3815C158.036 31.0166 157.966 31.6561 157.777 32.265C157.641 32.4958 157.244 32.6112 156.589 32.6112H143.559C143.317 32.5841 143.074 32.6341 142.863 32.7541C142.803 32.8161 142.758 32.8903 142.729 32.9714C142.701 33.0526 142.691 33.1389 142.699 33.2244C142.637 35.0988 143.297 36.926 144.543 38.3331C145.11 38.9884 145.815 39.5112 146.608 39.8644C147.401 40.2177 148.263 40.3927 149.132 40.3769C150.304 40.3851 151.452 40.0451 152.429 39.4003C153.359 38.8361 154.05 37.9547 154.375 36.9203L154.744 35.7414C154.813 35.4438 154.988 35.181 155.237 35.0016C155.485 34.8223 155.79 34.7385 156.096 34.7658C157.107 34.7658 157.613 35.2807 157.613 36.3106C157.613 38.0724 156.714 39.6383 154.916 41.0084C153.164 42.3611 151.003 43.0841 148.786 43.0596C145.927 43.0596 143.653 42.1036 141.963 40.1915C140.274 38.2794 139.429 35.7113 139.429 32.4871C139.429 29.1801 140.328 26.4968 142.125 24.437C142.989 23.4304 144.069 22.63 145.286 22.0951C146.502 21.5601 147.824 21.3044 149.154 21.3468C150.33 21.3102 151.501 21.5183 152.591 21.9577C153.682 22.3972 154.668 23.0584 155.487 23.899C156.317 24.7589 156.965 25.7756 157.394 26.889C157.822 28.0025 158.021 29.19 157.98 30.3815H157.982ZM143.147 29.3568C143.147 29.7363 143.448 29.926 144.049 29.926H153.85C154.424 29.926 154.711 29.7363 154.711 29.3568C154.715 28.6541 154.571 27.9583 154.288 27.3142C154.006 26.6701 153.591 26.0918 153.071 25.6164C152.568 25.1088 151.968 24.7068 151.305 24.4344C150.643 24.162 149.933 24.0246 149.216 24.0305C147.664 24.0386 146.171 24.6263 145.034 25.6772C143.776 26.775 143.147 28.0016 143.147 29.3568ZM167.174 23.1978V24.3154C167.792 23.3836 168.637 22.6227 169.63 22.1038C170.623 21.585 171.732 21.325 172.854 21.3483C174.549 21.2735 176.209 21.8483 177.492 22.9545C178.072 23.4719 178.532 24.1093 178.839 24.8222C179.146 25.535 179.293 26.3059 179.269 27.0811C179.317 28.1245 178.999 29.152 178.37 29.9883C178.092 30.3477 177.732 30.6364 177.32 30.8307C176.908 31.0251 176.456 31.1195 176 31.1064C175.416 31.1217 174.847 30.9186 174.406 30.5372C174.2 30.3697 174.035 30.1584 173.922 29.9187C173.808 29.6791 173.751 29.4173 173.753 29.1526C173.753 28.9368 173.797 28.7232 173.881 28.5243C173.965 28.3254 174.088 28.1451 174.243 27.994C174.387 27.8344 174.564 27.7066 174.761 27.6191C174.957 27.5315 175.171 27.486 175.386 27.4856C175.567 27.5069 175.746 27.5478 175.918 27.6078C176.068 27.3325 176.152 27.0262 176.163 26.7132C176.161 26.3224 176.065 25.9376 175.884 25.591C175.702 25.2444 175.44 24.946 175.119 24.7208C174.373 24.1621 173.457 23.8752 172.524 23.9079C170.399 23.9079 168.983 24.8565 168.274 26.7538C167.839 27.9192 167.621 29.6809 167.621 32.0391V34.7222C167.621 36.5384 167.635 37.5548 167.662 37.7714C167.799 39.3162 168.225 40.0886 168.94 40.0886C169.316 40.0865 169.689 40.0398 170.053 39.9497C170.31 39.8858 170.574 39.8508 170.838 39.8453C171.718 39.8453 172.158 40.2724 172.158 41.1266C172.158 42.0612 171.599 42.5285 170.483 42.5285H170.319C169.697 42.5131 169.077 42.4656 168.46 42.3861C167.843 42.3066 167.222 42.2591 166.601 42.2437C165.511 42.2437 164.653 42.2707 164.026 42.3248L161.74 42.528C160.623 42.528 160.065 42.0536 160.065 41.1048C160.065 40.2645 160.587 39.8443 161.632 39.8443C161.839 39.8393 162.046 39.8529 162.25 39.8849L162.869 40.007C163.059 40.05 163.252 40.0771 163.446 40.0881C164.134 40.0881 164.505 39.4647 164.559 38.2179V36.1444L164.437 26.915C164.355 25.3157 163.946 24.5161 163.211 24.5161C162.909 24.5252 162.608 24.5593 162.312 24.618C162.015 24.6767 161.715 24.7108 161.413 24.7199C160.514 24.7199 160.064 24.2928 160.064 23.4386C160.064 22.504 160.65 22.0367 161.821 22.0367C162.231 22.0475 162.641 22.0815 163.047 22.1385C163.454 22.1956 163.863 22.2296 164.273 22.2404C164.629 22.228 164.984 22.1939 165.336 22.1385C165.588 22.066 165.85 22.0317 166.112 22.0367C166.82 22.038 167.174 22.425 167.174 23.1978ZM189.663 21.3473C191.302 21.29 192.912 21.7922 194.225 22.7705V22.6078C194.225 21.605 194.661 21.1035 195.532 21.1035C196.431 21.1035 196.881 21.5372 196.881 22.4046C196.881 22.5671 196.858 22.9738 196.813 23.6245C196.722 24.162 196.677 24.706 196.676 25.251C196.676 25.5763 196.71 26.0507 196.779 26.6741C196.847 27.2976 196.881 27.772 196.881 28.0973C196.881 29.1272 196.438 29.6422 195.553 29.6422C195.375 29.6645 195.194 29.6464 195.025 29.5892C194.855 29.532 194.7 29.4372 194.572 29.312C194.444 29.1868 194.347 29.0344 194.287 28.8662C194.227 28.698 194.206 28.5185 194.225 28.3411V26.9995C194.198 26.1862 193.726 25.4883 192.809 24.9058C191.843 24.3092 190.723 24.0055 189.587 24.0315C188.456 23.9921 187.344 24.3282 186.426 24.9869C186.035 25.25 185.715 25.6043 185.493 26.0189C185.272 26.4335 185.155 26.8958 185.154 27.3655C185.154 29.1002 186.357 30.1303 188.761 30.4556L191.139 30.781C195.784 31.4044 198.107 33.3154 198.107 36.5138C198.132 37.4228 197.943 38.3249 197.553 39.1475C197.164 39.9702 196.586 40.6904 195.866 41.2502C194.372 42.4565 192.416 43.0596 189.998 43.0596C187.882 43.1041 185.814 42.4302 184.134 41.1489V41.9223C184.134 42.8981 183.67 43.386 182.742 43.386C181.734 43.386 181.23 42.8303 181.23 41.719C181.348 41.019 181.43 40.3134 181.475 39.605C181.53 39.2283 181.557 38.8482 181.557 38.4676C181.56 37.854 181.506 37.2414 181.393 36.638C181.299 36.1965 181.244 35.7475 181.23 35.2964C181.23 34.3476 181.666 33.8732 182.537 33.8732C183.11 33.8732 183.471 34.0087 183.62 34.2797C183.834 34.9767 183.924 35.7055 183.886 36.4332C183.913 37.5986 184.526 38.5473 185.725 39.2791C187.119 40.0601 188.703 40.4402 190.301 40.3769C191.489 40.4234 192.657 40.0649 193.611 39.3607C194.02 39.0691 194.351 38.6842 194.579 38.2385C194.806 37.7927 194.923 37.2991 194.919 36.7992C194.919 34.956 193.448 33.8846 190.506 33.5849C187.7 33.2882 185.561 32.7393 184.091 31.9382C182.62 31.1371 181.884 29.7343 181.884 27.7299C181.859 26.8468 182.041 25.9701 182.416 25.1692C182.791 24.3682 183.347 23.665 184.042 23.1152C185.482 21.9366 187.355 21.3473 189.663 21.3473ZM213.062 28.9504C213.062 27.8661 213.743 27.2427 215.105 27.0801C215.049 26.6314 214.898 26.1996 214.661 25.8139C214.424 25.4281 214.107 25.0974 213.73 24.844C212.834 24.2689 211.781 23.9848 210.716 24.031C209.831 24.0087 208.955 24.2006 208.162 24.5902C207.369 24.9797 206.682 25.5552 206.162 26.2672C205.014 27.7579 204.439 29.736 204.439 32.2013C204.439 34.7493 204.979 36.7482 206.058 38.1981C206.567 38.9017 207.243 39.4687 208.026 39.8485C208.809 40.2282 209.675 40.4087 210.545 40.374C211.675 40.3974 212.78 40.0396 213.679 39.3587C214.585 38.6532 215.227 37.6653 215.502 36.5534C215.776 35.6046 215.939 35.0625 215.994 34.927C216.111 34.68 216.297 34.472 216.53 34.3277C216.763 34.1835 217.033 34.1093 217.307 34.114C217.518 34.1066 217.729 34.1423 217.927 34.2188C218.124 34.2953 218.304 34.4111 218.454 34.5591C218.604 34.708 218.721 34.8857 218.798 35.0813C218.876 35.2769 218.912 35.4863 218.905 35.6964C218.862 36.5472 218.639 37.3793 218.251 38.1388C217.87 39.0057 217.345 39.8028 216.699 40.4971C215.901 41.343 214.93 42.0093 213.852 42.4512C212.774 42.8932 211.614 43.1006 210.448 43.0596C209.179 43.1045 207.916 42.8646 206.752 42.3579C205.589 41.8511 204.555 41.0904 203.727 40.1322C202.024 38.1805 201.173 35.6191 201.173 32.448C201.173 29.0854 202.051 26.3952 203.807 24.3777C205.563 22.3601 207.898 21.3505 210.814 21.3488C212.779 21.2779 214.706 21.9049 216.249 23.1177C216.936 23.6474 217.489 24.3293 217.865 25.1092C218.241 25.8891 218.429 26.7454 218.415 27.6103C218.45 28.511 218.152 29.3933 217.577 30.0902C217.317 30.404 216.989 30.6549 216.618 30.8239C216.246 30.993 215.841 31.0757 215.432 31.0659C214.809 31.087 214.202 30.8687 213.736 30.4561C213.52 30.2693 213.348 30.0377 213.231 29.7776C213.115 29.5175 213.057 29.2351 213.062 28.9504ZM239.581 42.8955C237.347 42.8955 235.972 41.9331 235.456 40.0085C234.065 42.0426 231.885 43.0596 228.916 43.0596C226.709 43.0596 224.946 42.5175 223.625 41.4332C222.978 40.9102 222.462 40.2449 222.118 39.4897C221.774 38.7345 221.612 37.9101 221.643 37.0815C221.593 36.0643 221.841 35.0546 222.356 34.1744C222.871 33.2942 223.631 32.5811 224.544 32.1211C225.138 31.7729 225.777 31.5067 226.444 31.3299C226.974 31.208 228.043 31.052 229.652 30.8621C231.94 30.6182 233.431 30.2794 234.124 29.8459C234.818 29.4124 235.166 28.6128 235.168 27.4471C235.191 26.9504 235.098 26.4551 234.896 26.0004C234.694 25.5456 234.388 25.1437 234.004 24.8262C233.067 24.1388 231.917 23.8007 230.755 23.8708C229.536 23.8688 228.343 24.2221 227.323 24.887C226.915 25.158 226.71 25.4427 226.71 25.741C226.71 25.8495 226.833 25.985 227.078 26.1475C227.281 26.3134 227.439 26.5266 227.539 26.7682C227.639 27.0098 227.677 27.2723 227.65 27.5321C227.657 27.7853 227.607 28.0368 227.504 28.2687C227.402 28.5006 227.249 28.7071 227.058 28.8737C226.646 29.2321 226.113 29.4211 225.567 29.4023C225.236 29.4103 224.906 29.3493 224.6 29.2232C224.294 29.0972 224.018 28.9089 223.789 28.6705C223.555 28.4351 223.372 28.1555 223.249 27.8481C223.126 27.5408 223.067 27.212 223.074 26.8813C223.074 25.3649 223.83 24.0638 225.342 22.9782C226.951 21.8641 228.878 21.294 230.837 21.3518C235.795 21.3518 238.274 23.7183 238.274 28.4514V36.6469C238.25 37.4186 238.277 38.1911 238.356 38.9592C238.519 39.9057 238.983 40.3789 239.747 40.3789C240.701 40.3789 241.178 39.5175 241.178 37.7946V35.8166C241.178 34.9552 241.593 34.5244 242.425 34.5244C243.31 34.5244 243.752 35.1749 243.752 36.4758V38.9978C243.695 41.5966 242.305 42.896 239.581 42.896V42.8955ZM235.005 34.8048V31.9184C234.462 32.4274 233.817 32.8152 233.112 33.0558C231.946 33.3579 230.754 33.5485 229.551 33.6249C226.458 33.9216 224.911 35.06 224.911 37.04C224.892 37.506 224.984 37.9699 225.179 38.3939C225.374 38.8178 225.668 39.1898 226.035 39.4794C226.916 40.1169 227.991 40.4328 229.079 40.374C230.904 40.374 232.341 39.8795 233.39 38.8904C233.927 38.3568 234.348 37.7184 234.626 37.0154C234.904 36.3123 235.033 35.5598 235.005 34.8048ZM251.308 23.2794V24.4375C252.072 23.4418 253.064 22.642 254.201 22.1045C255.338 21.567 256.588 21.3074 257.846 21.3473C259.311 21.3455 260.749 21.7314 262.014 22.4654C263.189 23.0698 264.125 24.0511 264.67 25.2505C265.091 26.4091 265.285 27.6374 265.242 28.8688V36.594C265.242 37.7593 265.255 38.4505 265.283 38.6674C265.419 39.5905 265.787 40.052 266.386 40.052C266.708 40.0442 267.029 40.0101 267.346 39.9502C267.622 39.8958 267.902 39.8618 268.184 39.8483C268.353 39.8462 268.522 39.8774 268.68 39.9402C268.838 40.003 268.981 40.0961 269.103 40.2142C269.228 40.3275 269.327 40.4659 269.394 40.6201C269.46 40.7743 269.494 40.9409 269.491 41.1088C269.494 41.3043 269.45 41.4978 269.365 41.674C269.28 41.8503 269.155 42.0046 269.001 42.125C268.668 42.3982 268.247 42.5426 267.816 42.5315C267.187 42.5109 266.56 42.4561 265.937 42.3673C265.124 42.2627 264.305 42.2084 263.485 42.2046C262.898 42.1986 262.312 42.2257 261.728 42.2857C260.366 42.4483 259.644 42.5295 259.562 42.5295C258.473 42.5295 257.928 42.0551 257.928 41.1063C257.928 40.266 258.4 39.8458 259.345 39.8458C259.596 39.8489 259.847 39.8761 260.094 39.9269C260.422 40.0061 260.755 40.0615 261.092 40.0926C261.758 40.0926 262.119 39.3472 262.175 37.8564V30.2109C262.21 29.2175 262.142 28.2232 261.971 27.2438C261.766 26.2731 261.199 25.4159 260.384 24.845C259.49 24.2221 258.422 23.895 257.331 23.9099C255.16 23.9099 253.6 24.6823 252.65 26.2271C251.999 27.2844 251.673 29.0868 251.673 31.6345V37.042C251.629 37.8628 251.712 38.6854 251.918 39.4814C251.973 39.6744 252.091 39.8434 252.255 39.9613C252.418 40.0793 252.616 40.1392 252.817 40.1317C253.121 40.1187 253.423 40.0709 253.716 39.9892C254.023 39.9051 254.338 39.8573 254.656 39.8468C255.501 39.8468 255.923 40.3008 255.923 41.2087C255.923 42.0896 255.378 42.53 254.288 42.53C254.07 42.53 253.362 42.4488 252.164 42.2862C251.5 42.2008 250.831 42.16 250.161 42.1641C249.397 42.1772 248.634 42.2315 247.875 42.3268C246.676 42.4623 245.995 42.53 245.832 42.53C244.688 42.53 244.116 42.0685 244.116 41.1454C244.092 40.9668 244.11 40.7851 244.169 40.6146C244.228 40.4442 244.326 40.2897 244.455 40.1635C244.584 40.0373 244.741 39.9427 244.913 39.8873C245.086 39.8319 245.269 39.8172 245.448 39.8443C245.708 39.8623 245.965 39.9032 246.218 39.9665C246.58 40.0465 246.95 40.0875 247.32 40.0886C248.153 40.0886 248.584 39.3025 248.613 37.7303V26.8769C248.614 26.2303 248.494 25.5891 248.259 24.9864C248.17 24.8199 248.033 24.683 247.867 24.5926C247.7 24.5023 247.511 24.4625 247.322 24.478C247.034 24.4907 246.749 24.5316 246.469 24.6002C246.19 24.6687 245.904 24.7096 245.616 24.7223C244.617 24.7223 244.118 24.2819 244.118 23.401C244.118 22.4931 244.731 22.0391 245.957 22.0391C246.094 22.0364 246.231 22.05 246.365 22.0797L247.877 22.2424C248.261 22.247 248.644 22.2129 249.02 22.1405C249.729 22.0726 250.096 22.0386 250.123 22.0386C250.913 22.0386 251.308 22.4522 251.308 23.2794Z" fill="#B3FCFF" fill-opacity="0.8"/>
<path d="M12.5349 28.5662C12.535 28.2311 12.6016 27.8994 12.7308 27.5901C12.8601 27.2808 13.0495 26.9999 13.2881 26.7636C13.5268 26.5273 13.81 26.3402 14.1215 26.2131C14.433 26.086 14.7667 26.0213 15.1034 26.0229L19.3616 26.0367C20.0405 26.0367 20.6917 26.3051 21.1717 26.7828C21.6518 27.2605 21.9216 27.9084 21.9216 28.584V44.606C22.4011 44.4646 23.0149 44.3137 23.6903 44.1555C24.1583 44.0459 24.5753 43.7823 24.8738 43.4074C25.1723 43.0325 25.3348 42.5682 25.3349 42.0899V22.2172C25.3349 21.5416 25.6046 20.8936 26.0847 20.4159C26.5647 19.9381 27.2159 19.6696 27.8949 19.6695H32.166C32.845 19.6696 33.4961 19.9381 33.9762 20.4159C34.4563 20.8936 34.726 21.5416 34.726 22.2172V40.6623C34.726 40.6623 35.7945 40.2321 36.8347 39.7949C37.2212 39.6323 37.5511 39.3599 37.7831 39.012C38.0151 38.664 38.139 38.2557 38.1393 37.8382V15.8489C38.1393 15.1734 38.4089 14.5256 38.8889 14.0479C39.3689 13.5703 40.0199 13.3018 40.6988 13.3017H44.9654C45.6439 13.3024 46.2944 13.571 46.774 14.0486C47.2535 14.5263 47.5229 15.1738 47.5229 15.8489V33.9563C51.222 31.2889 54.9708 28.0805 57.9458 24.2229C58.3774 23.6629 58.663 23.0054 58.7771 22.3089C58.8912 21.6124 58.8303 20.8986 58.5998 20.2312C57.2227 16.2891 55.0337 12.6764 52.1728 9.62434C49.3119 6.57228 45.8422 4.14806 41.9857 2.50682C38.1293 0.865581 33.9709 0.0434562 29.7767 0.0930606C25.5826 0.142665 21.445 1.0629 17.6288 2.79489C13.8126 4.52688 10.4018 7.03247 7.61469 10.1513C4.82754 13.2702 2.72543 16.9336 1.44288 20.9072C0.160326 24.8808 -0.274428 29.0771 0.166435 33.2275C0.607299 37.3779 1.91407 41.391 4.00313 45.01C4.36709 45.6343 4.90257 46.1423 5.54664 46.4743C6.19071 46.8063 6.91662 46.9485 7.6391 46.8842C8.44621 46.8135 9.45112 46.7136 10.6459 46.5741C11.1659 46.5152 11.6459 46.2681 11.9946 45.8799C12.3434 45.4916 12.5364 44.9892 12.5369 44.4685V28.5662" fill="#B3FCFF" fill-opacity="0.8"/>
<path d="M12.4438 54.2612C16.9412 57.5167 22.256 59.4707 27.8002 59.9072C33.3444 60.3436 38.9019 59.2455 43.8578 56.7343C48.8137 54.2231 52.9748 50.3967 55.8808 45.6784C58.7867 40.9602 60.3243 35.534 60.3232 30.0002C60.3232 29.3079 60.2909 28.6265 60.2447 27.947C49.2299 44.2929 28.8922 51.9346 12.4438 54.2612Z" fill="#B3FCFF" fill-opacity="0.8"/>
</g>
<defs>
<clipPath id="clip0_114_2616">
<rect width="269.492" height="60" fill="white"/>
</clipPath>
</defs>
</svg>
