<svg xmlns="http://www.w3.org/2000/svg" width="293.891" height="60" viewBox="0 0 293.891 60">
  <g id="logo-ftmscan" transform="translate(-169 -216)">
    <path id="Tracé_2848" data-name="Tracé 2848" d="M25.47-42.467v5.518H10.8v9.312H22.557v5.321H10.8V-7.684H3.84V-42.467Zm28.4,0v5.518h-9.63V-7.684H37.273V-36.949H27.693v-5.518Zm41.433.394V-7.684H88.386V-31.678L79.546-7.684H73.521l-8.84-23.895V-7.684H57.718V-42.073h8.445L76.632-16.208,86.9-42.073Zm30.272,24.88a9.415,9.415,0,0,1-1.333,4.9,9.569,9.569,0,0,1-3.951,3.6,13.725,13.725,0,0,1-6.371,1.355A16.565,16.565,0,0,1,107.3-8.6a11.19,11.19,0,0,1-4.667-3.621,10.431,10.431,0,0,1-2-5.518h7.408a5.642,5.642,0,0,0,1.7,3.523,5.351,5.351,0,0,0,3.877,1.4,4.518,4.518,0,0,0,3.333-1.158,4.029,4.029,0,0,0,1.161-2.981,3.9,3.9,0,0,0-.938-2.685,6.846,6.846,0,0,0-2.37-1.7q-1.432-.64-3.951-1.478a39.108,39.108,0,0,1-5.333-2.143,9.852,9.852,0,0,1-3.531-3.079,8.807,8.807,0,0,1-1.457-5.272,8.564,8.564,0,0,1,3.235-7.07,13.317,13.317,0,0,1,8.568-2.587q5.531,0,8.815,2.66A10.034,10.034,0,0,1,124.88-33.2h-7.506a5.212,5.212,0,0,0-1.58-3.079,4.914,4.914,0,0,0-3.506-1.207,4.632,4.632,0,0,0-3.111,1.01,3.638,3.638,0,0,0-1.185,2.931,3.64,3.64,0,0,0,.914,2.537,6.971,6.971,0,0,0,2.321,1.65,38.153,38.153,0,0,0,3.827,1.429,50.951,50.951,0,0,1,5.457,2.217,9.608,9.608,0,0,1,3.58,3.1,9.105,9.105,0,0,1,1.482,5.419ZM143-35.323a13.56,13.56,0,0,1,8.815,2.858,12.474,12.474,0,0,1,4.42,7.784h-7.358a5.663,5.663,0,0,0-2.025-3.424,6.228,6.228,0,0,0-4-1.256,5.973,5.973,0,0,0-4.617,2.045q-1.852,2.045-1.852,5.986t1.852,5.986a5.973,5.973,0,0,0,4.617,2.045,6.228,6.228,0,0,0,4-1.256,5.663,5.663,0,0,0,2.025-3.424h7.358a12.474,12.474,0,0,1-4.42,7.784A13.56,13.56,0,0,1,143-7.339a14.59,14.59,0,0,1-7.111-1.7,11.962,11.962,0,0,1-4.84-4.853,15.244,15.244,0,0,1-1.728-7.439,15.388,15.388,0,0,1,1.728-7.464,11.766,11.766,0,0,1,4.84-4.853A14.761,14.761,0,0,1,143-35.323Zm28.89,0A10.533,10.533,0,0,1,177.82-33.7a8.859,8.859,0,0,1,3.506,4.385v-5.666h6.914V-7.684h-6.914V-13.4A8.989,8.989,0,0,1,177.82-8.99a10.416,10.416,0,0,1-5.926,1.65,11.773,11.773,0,0,1-6.222-1.675,11.326,11.326,0,0,1-4.321-4.853,16.8,16.8,0,0,1-1.556-7.464A16.8,16.8,0,0,1,161.35-28.8a11.326,11.326,0,0,1,4.321-4.853,11.773,11.773,0,0,1,6.222-1.675Zm2.173,6.06a6.819,6.819,0,0,0-5.235,2.119,8.189,8.189,0,0,0-1.975,5.814,8.1,8.1,0,0,0,1.975,5.789,6.86,6.86,0,0,0,5.235,2.094,6.9,6.9,0,0,0,5.21-2.143,7.959,7.959,0,0,0,2.049-5.74,8.027,8.027,0,0,0-2.049-5.789,6.9,6.9,0,0,0-5.21-2.143Zm36.791-6.109a9.7,9.7,0,0,1,7.556,3.1q2.815,3.1,2.815,8.72V-7.684h-6.914V-22.76a7.117,7.117,0,0,0-1.679-5.05,5.977,5.977,0,0,0-4.593-1.8,6.149,6.149,0,0,0-4.741,1.921,7.836,7.836,0,0,0-1.778,5.518V-7.684h-6.963V-34.979h6.963v5.469a8.7,8.7,0,0,1,3.58-4.311,10.662,10.662,0,0,1,5.753-1.552Z" transform="translate(241.163 271.339)" fill="#9ad4d7" stroke="#9ad4d7" stroke-width="1"/>
    <g id="Groupe_2891" data-name="Groupe 2891" transform="translate(169 216)">
      <path id="Soustraction_5" data-name="Soustraction 5" d="M50.084,60H10A10.011,10.011,0,0,1,0,50V10A10.011,10.011,0,0,1,10,0H50.084a10.011,10.011,0,0,1,10,10V50A10.011,10.011,0,0,1,50.084,60ZM30.063,9.042A4.127,4.127,0,0,0,28,9.593L13.58,17.822a4.124,4.124,0,0,0-2.058,3.559V37.839A4.124,4.124,0,0,0,13.58,41.4L28,49.628a4.128,4.128,0,0,0,4.12,0L46.544,41.4a4.124,4.124,0,0,0,2.06-3.559V21.38a4.124,4.124,0,0,0-2.057-3.559L32.124,9.593A4.131,4.131,0,0,0,30.063,9.042Z" transform="translate(0 0)" fill="#9ad4d7"/>
      <line id="Ligne_1" data-name="Ligne 1" y1="20.766" transform="translate(30.063 29.588)" fill="none" stroke="#9ad4d7" stroke-linecap="round" stroke-linejoin="round" stroke-width="4"/>
      <path id="Tracé_2850" data-name="Tracé 2850" d="M0,0,17.985,10.4,35.968,0" transform="translate(12.078 19.236)" fill="none" stroke="#9ad4d7" stroke-linecap="round" stroke-linejoin="round" stroke-width="4"/>
    </g>
  </g>
</svg>
