<svg xmlns="http://www.w3.org/2000/svg" width="253.133" height="219.774" viewBox="0 0 253.133 219.774">
  <g id="_2" data-name="2" transform="translate(-533.681 -604.816)">
    <path id="Tracé_2851" data-name="Tracé 2851" d="M183.6,208.22s-19.785,41.358,30.8,52.589l6.289,15.535s21.993,25.092,36.769,34.43c-2.83-3.866-14.668-20.5-12.727-24.9,0,0-27.151-12.874-10.3-38.838,0,0-17.723-9.223-17.671-25.923,0,0-5.076,10.585-1.337,24.727C215.419,245.839,180.755,244.4,183.6,208.22Zm-6.789-6.655s-35,18.239-9.734,43c0,0-5.173,19.807,11.862,41.313a41.316,41.316,0,0,1,.074-38.937S153.547,228,176.811,201.565Zm59.079-10.075s-9.363,48.254,45.452,75.221c0,0-22.5-16.923-26.1-38.514,0,0-2.365,2.309-2.1,7.243C253.139,235.44,239.56,224.865,235.891,191.49Zm-99.938.981s-12.6,6.122-25.534,6.693c0,0-10.468,19.61-11,26.981,0,0,11.588,15.156,16.048,19.18,0,0,4.6-1.878,2.221-13.231,0,0-.686,2.78-5.227,1.12,0,0-8.819-11.867-1.508-22.22,0,0,5.542-3.069,11.217-2.632s29,2.824,33.174-9.585C155.348,198.778,142.425,198.184,135.952,192.471Zm61.04-51.9s21.2-.416,27.673,34.22,1.926,49.785,23.751,68.56c0,0-30.563-11.356-33.494-48.79a34.363,34.363,0,0,0-.548,26.06s-9.724-17.515-5.093-40.968S205.672,149.761,196.992,140.571Zm9.4,93.526c.054.032.1.042.124.028l-.124-.028c-.7-.407-3.452-4.464-4.312-8.652a19.558,19.558,0,0,1,.474-8.48s-8.119-7.649-9.986-15.384c-1.8-7.454-1.881-14.734-1.445-15.215.617-.684-28.977.216-34.614-25.654a9.185,9.185,0,0,0-1.188,7.51,11.242,11.242,0,0,1-4.338-7.663s-8.338,3.812-14.239-3.1c0,0,.876,18.2,12.287,22.372,0,0-8.677,2.108-12.73.107,0,0,4.721,6.709,15.656,7.962,0,0-1.056,4.31-6.92,4.392,0,0,17.324,4.707,29.877,0l8.264,3.664,4.467,7.253S183.717,228.967,206.392,234.1Zm-96.2-13.888s7.924-.512,7.879-8.621a14.943,14.943,0,0,0-3.69.394c-.689.2-.054,3.255-3.132,2.7A8.174,8.174,0,0,0,110.193,220.209Zm140.033-3.538a151.588,151.588,0,0,1-7.8-16.2c-1.992-5.356-4.145-13.612-2.808-17.069,0,0,9.1-3.547,15.807-.19,27.249,13.642,24.184,21.654,63.707,16.377,0,0-20.1,20.426-48.988,11.621,0,0,13.593,9.813,27.236,4.045,0,0-26.825,18.112-49.024-18.311,0,0-1.206,13.708,1.869,19.726.172.315.269.487.269.487C250.4,217,250.313,216.84,250.226,216.671ZM116.775,153.123s-10.4,8.272-9.526,20.453L86.241,190.9c2.719,9.387,8.113,19.417,13.181,26.716l3.408-8.3s-5.942-8.6-6.82-15.7a47.126,47.126,0,0,1,12.681-1.141c4.729.224,8.378.291,20.321-3.158C129.012,189.314,113.8,180.566,116.775,153.123Zm88.113,60.761S197.8,200,202.946,181.327c0,0,1.594-8.825-5.513-7.052,0,0-9.9,5.995-28.546-1.308,0,0,16,11.192,26.874,8.989C195.761,181.957,192.193,195.894,204.888,213.884ZM134.74,146.906c-1-4.123-2.61-9.178-6.977-13.672-6.635-6.83-7.8-9.147-9.56-14.039-1.321-3.671,2.62-9.481-.19-15.9,0,0,5.318-3.59,11.955,1.831s7.7,7.538,14.746,7.761c0,0-4.773,4.817-11.269.549,0,0,7.7,8.275,15.8,6.919,0,0-2.108,4.328-4.327,4.532,0,0,3.079,7,9.63,9.681,0,0-4.4,2.066-7.571-.218a54.739,54.739,0,0,0,1.911,6.776l.093-.049q1.1-.584,2.176-1.2,1.053-.6,2.09-1.222l.01-.006c.2-.136,3.473-2.359,3.86-5.456-1.306-.547-2.885-1.306-4.636-2.2,0,0-.484-2.006-1.854-2.314,0,0,2.67-2.69,7.29,0,0,0,6.8-5.991,10.236-1.587.563.722-1.221.954-1.221.954s-5.886-2.017-6.74,1.88c2.087,1.211,4.01,2.849,3,6.12,0,0,1.2,15.363,11.881,19.912,0,0-5.286,11,18.088,12.842,0,0-17.259,5.549-28.926-3.395l-4-10.176c1.462-7.863.413-12.772-3.773-13.986l-1.155,6.772a14.148,14.148,0,0,1-2.074-5.874s-1.188.706-3.289,1.713c1.532,3.588,3.683,7.179,6.518,8.728,0,0-9.618-.774-11.409-5.264l-.024-.062.024.062c.254.648,2.469,6.171,4.672,7.795,0,0-12.445,1.069-13.768-3.23-.256-.831-.481-1.792-.723-2.849-1.294.3-2.634.574-4.013.805.274,1.359.366,2.21.366,2.21a64.943,64.943,0,0,0,5.214,23.8c-4.272-1.716-7.037-6.731-7.037-6.731.294,15.038,11.358,19.7,11.358,19.7-15.573-3.632-19.814-16.193-18.674-28.246a29.275,29.275,0,0,0-.7-9.936c-11.4-.04-24.005-3.906-34.372-16.68l1.642.191a41.018,41.018,0,0,0,32.23,14.75,22.208,22.208,0,0,0-9.72-12.557c-5.633-3.166-9.69,1.425-10.374,2.278l-.1.132s.035-.048.1-.132c9.933-12.741,19.739-8.175,25.109-.83a30.119,30.119,0,0,1,4.5,10.076l.035-.007q.969-.2,1.93-.434.99-.239,1.972-.516Zm54.671-6.336s10.817,4.913,13.839,15.769c1.239,4.452,1.323,14.173,1.323,14.173s-2.945-3.847-7.657-3.5c-3.93.29.969-9.432.969-9.432C199.608,151.329,195.4,146.665,189.411,140.571Zm-2.231,2.957a9.56,9.56,0,0,0-3.6-.54c-3.7.286-9.121.566-13.414-5.673,0,0-4.009,10.414,7.122,16.308,0,0-2.188,12.554,14.085,12.805,0,0-8.421-4.518-6.754-12.05C185.344,151.089,191.253,149.038,187.18,143.528Zm45.7-12.717a20.892,20.892,0,0,1-23.8-5.972s4.146,7.587,8.441,10.925c0,0-11.445-6.5-17.4-21.839-.751-1.938-5.749-5.162-6.28-.292,0,0,10.584,8.066,5.513,16.7-1.828,3.113-2.681,5.106-6.036,8.026-5.886-2.722-14.665,2.226-20.067-3.662a31.722,31.722,0,0,0,6.585-11.339l4.7-1.456c-2.4,2.393-3.87,6.285-4.634,8.706,0,0,5.576-8.92,9.061-10.48,0,0-6.959-1.39-10.756,2.1,0,0,3.568-5.947,3.207-9.9,0,0,3.026.82,8.947.122,0,0-.517-6.688,6.387-7.478s14.765,16.1,22,16.578c0,0-2.444,1.141-7.12-1.157C211.626,120.4,219.792,133.438,232.875,130.81ZM112.292,91s-6.921,4.814-5,12.684l-2.186,5.538.44,5.4a8.176,8.176,0,0,1-3.846,1.957c-1.631.17-3.8-1.507-6.112-1.555-2.081-.043-4.522-.377-4.522-.377l6.766-5.023,6.548-2.605L97.3,104.626l-13.254,3.94,7.983.114c.006.071-18.967,3.452-24.11,7.76,0,0,7.45-2.639,10.012.5a18.226,18.226,0,0,0-3.006,3.337c-1.381,2.8-.1,6.388-.1,6.388-1.709,1.72-6.282,2.4-8.819-.046a10.809,10.809,0,0,0,3.472,7.114s10.105,1.277,13.686-2.561a25.733,25.733,0,0,0,17.36,3.792c-8.106-3.066-14.145-6.553-15.849-10.927a77.7,77.7,0,0,0,8.932,5.727c5.079,2.734,10.78,5.472,13.075,2.1,0,0,3.507-6.054,14.629-2.14a20.065,20.065,0,0,1-4.613-19.623C118.921,102.273,109.488,101.21,112.292,91ZM66,122.741s3.028-5.841,8.236-5.827a11.144,11.144,0,0,0-2.072,6.784C72.407,127.474,66.031,126.284,66,122.741Zm28.7-8.8s5.819-3.885,8.462-3.932a10.2,10.2,0,0,0-.274,2.189s.525,2.343-1.553,2.45C99.8,114.724,96.239,113.416,94.7,113.938Z" transform="translate(467.681 513.816)" fill="#9ad4d7" fill-rule="evenodd"/>
  </g>
</svg>
