<svg width="345" height="56" viewBox="0 0 345 56" fill="none" xmlns="http://www.w3.org/2000/svg">
<g clip-path="url(#clip0_114_2623)">
<path d="M41.9547 18.7215C41.4332 18.4305 40.8457 18.2777 40.2482 18.2777C39.6508 18.2777 39.0633 18.4305 38.5418 18.7215L30.7115 23.2552L25.3913 26.212L17.5616 30.7458C17.04 31.0365 16.4525 31.1892 15.8551 31.1892C15.2577 31.1892 14.6702 31.0365 14.1486 30.7458L7.92459 27.1976C7.41819 26.9077 6.99521 26.4924 6.69649 25.9917C6.39777 25.4911 6.2334 24.922 6.21925 24.3394V17.3416C6.21224 16.7546 6.36777 16.1771 6.66869 15.6728C6.96961 15.1684 7.40422 14.7568 7.92459 14.4834L14.0481 11.0338C14.5697 10.7431 15.1572 10.5904 15.7546 10.5904C16.352 10.5904 16.9394 10.7431 17.461 11.0338L23.5846 14.4834C24.091 14.7733 24.5139 15.1886 24.8127 15.6893C25.1114 16.19 25.2758 16.7591 25.2899 17.3416V21.8754L30.6101 18.82V14.2863C30.6171 13.6993 30.4616 13.1218 30.1607 12.6174C29.8598 12.113 29.4251 11.7015 28.9048 11.428L17.5616 4.92352C17.04 4.63279 16.4525 4.48016 15.8551 4.48016C15.2577 4.48016 14.6702 4.63279 14.1486 4.92352L2.60303 11.4285C2.08273 11.7019 1.64816 12.1134 1.34725 12.6177C1.04633 13.1219 0.890762 13.6994 0.897688 14.2863V27.3948C0.890679 27.9818 1.04621 28.5593 1.34713 29.0636C1.64805 29.568 2.08266 29.9796 2.60303 30.253L14.1473 36.758C14.6689 37.0487 15.2564 37.2013 15.8538 37.2013C16.4512 37.2013 17.0386 37.0487 17.5602 36.758L25.39 32.3228L30.7102 29.2674L38.5404 24.8322C39.0619 24.5412 39.6494 24.3884 40.2469 24.3884C40.8443 24.3884 41.4318 24.5412 41.9533 24.8322L48.0769 28.2818C48.5832 28.5717 49.0062 28.9871 49.3049 29.4877C49.6036 29.9884 49.768 30.5575 49.7822 31.14V38.1378C49.7892 38.7248 49.6337 39.3023 49.3328 39.8067C49.0318 40.311 48.5972 40.7226 48.0769 40.996L41.9533 44.5442C41.4317 44.8349 40.8443 44.9876 40.2469 44.9876C39.6495 44.9876 39.062 44.8349 38.5404 44.5442L32.4169 41.0946C31.9105 40.8047 31.4876 40.3893 31.1888 39.8887C30.8901 39.388 30.7257 38.8189 30.7115 38.2364V33.7022L25.3913 36.7575V41.2913C25.3843 41.8783 25.5398 42.4558 25.8408 42.9601C26.1417 43.4645 26.5763 43.8761 27.0967 44.1495L38.6409 50.6545C39.1625 50.9452 39.75 51.0978 40.3474 51.0978C40.9448 51.0978 41.5323 50.9452 42.0539 50.6545L53.5981 44.1495C54.1045 43.8596 54.5274 43.4442 54.8262 42.9436C55.1249 42.4429 55.2893 41.8738 55.3035 41.2913V28.1832C55.3105 27.5962 55.1549 27.0187 54.854 26.5144C54.5531 26.01 54.1185 25.5984 53.5981 25.325L41.9547 18.7215Z" fill="#B3FCFF" fill-opacity="0.8"/>
<path d="M81.728 17.3157C83.5482 17.2879 85.3374 17.7869 86.8795 18.7524C88.4403 19.7615 89.6837 21.1902 90.4666 22.874C91.3852 24.863 91.8347 27.0358 91.7806 29.2253C91.8301 31.4072 91.3807 33.5717 90.4666 35.5542C89.6882 37.2466 88.4442 38.6834 86.8795 39.6973C85.3374 40.6628 83.5482 41.1618 81.728 41.134C80.1141 41.178 78.5215 40.7582 77.1398 39.9244C75.8852 39.1482 74.9074 37.9972 74.3453 36.6348V51.9161H67.2129V17.6082H74.3453V21.8136C74.9078 20.4516 75.8857 19.3011 77.1402 18.5253C78.5218 17.6916 80.1143 17.2718 81.728 17.3157ZM79.4339 23.5621C78.7459 23.5397 78.061 23.6636 77.4246 23.9256C76.7882 24.1876 76.2149 24.5817 75.7427 25.0818C74.7833 26.0948 74.3035 27.4759 74.3035 29.2249C74.2276 30.7334 74.7439 32.2119 75.7427 33.3465C76.2116 33.8522 76.7838 34.2515 77.4206 34.5175C78.0574 34.7834 78.744 34.9098 79.4339 34.888C80.1208 34.9163 80.8057 34.7972 81.4425 34.5386C82.0793 34.28 82.6531 33.8879 83.1251 33.389C84.057 32.3897 84.523 31.0018 84.523 29.2253C84.523 27.4488 84.0572 26.0609 83.1255 25.0616C82.6535 24.5625 82.0797 24.1704 81.4428 23.9117C80.8059 23.653 80.1209 23.5338 79.4339 23.5621ZM106.379 17.3157C108.53 17.2791 110.658 17.7726 112.572 18.7524C114.374 19.6914 115.866 21.1301 116.868 22.8955C117.944 24.8289 118.484 27.0135 118.432 29.2244C118.485 31.4354 117.946 33.6203 116.871 35.5542C115.868 37.3196 114.376 38.7583 112.575 39.6973C110.66 40.6771 108.533 41.1706 106.381 41.134C104.223 41.1691 102.089 40.6758 100.166 39.6973C98.3555 38.7631 96.8556 37.3237 95.8492 35.5542C94.7729 33.621 94.2322 31.4364 94.2829 29.2253C94.2316 27.0144 94.7714 24.8298 95.8469 22.8964C96.8534 21.1269 98.3533 19.6875 100.164 18.7533C102.087 17.7745 104.221 17.2809 106.379 17.3157ZM106.379 23.4784C105.733 23.4665 105.092 23.5922 104.499 23.8471C103.906 24.1021 103.373 24.4803 102.938 24.9568C102.006 25.9424 101.541 27.3651 101.541 29.2249C101.541 31.0847 102.006 32.5003 102.938 33.4719C103.377 33.9428 103.91 34.3161 104.503 34.5672C105.096 34.8183 105.735 34.9417 106.379 34.9292C107.02 34.943 107.657 34.8202 108.247 34.5689C108.836 34.3176 109.366 33.9436 109.799 33.4719C110.717 32.5003 111.176 31.0847 111.176 29.2249C111.176 27.3651 110.717 25.9424 109.799 24.9568C109.369 24.4799 108.841 24.1011 108.25 23.8461C107.66 23.5912 107.022 23.4661 106.379 23.4793V23.4784ZM129.278 4.03113V40.8424H122.146V4.03202H129.278L129.278 4.03113ZM139.581 17.6055L145.17 31.8483L150.384 17.6078H158.267L143.752 51.9183H135.91L141.374 39.9679L131.614 17.6082L139.581 17.6055ZM169.487 17.3157C171.101 17.2717 172.694 17.6916 174.075 18.5253C175.335 19.3073 176.325 20.4552 176.912 21.8149V17.6096H184.002V40.7174C184.034 42.737 183.606 44.7373 182.751 46.5678C181.917 48.3021 180.58 49.7458 178.913 50.7109C177.189 51.7381 175.048 52.2516 172.49 52.2516C168.986 52.2516 166.185 51.4258 164.085 49.7742C161.984 48.1204 160.627 45.7019 160.311 43.0497H167.36C167.556 43.9565 168.103 44.7494 168.882 45.2565C169.816 45.8221 170.898 46.0975 171.989 46.0477C173.299 46.1074 174.579 45.6513 175.555 44.7776C176.459 43.9309 176.911 42.5776 176.911 40.7178V36.637C176.324 37.9967 175.334 39.1446 174.075 39.9267C172.693 40.7604 171.101 41.1802 169.487 41.1363C167.667 41.1641 165.877 40.6651 164.335 39.6995C162.77 38.6856 161.527 37.2488 160.748 35.5564C159.834 33.5739 159.385 31.4095 159.434 29.2275C159.38 27.0385 159.83 24.8662 160.748 22.8776C161.531 21.1938 162.774 19.7651 164.335 18.756C165.877 17.7891 167.667 17.2889 169.487 17.3157ZM171.781 23.5617C171.094 23.5334 170.409 23.6526 169.773 23.9112C169.136 24.1698 168.562 24.5618 168.09 25.0607C167.158 26.06 166.693 27.4479 166.693 29.2244C166.693 31.0009 167.158 32.3888 168.09 33.3881C168.562 33.8871 169.136 34.2791 169.773 34.5377C170.409 34.7963 171.094 34.9154 171.781 34.8871C172.471 34.909 173.158 34.7828 173.794 34.517C174.431 34.2512 175.003 33.852 175.472 33.3465C176.471 32.2119 176.988 30.7334 176.912 29.2249C176.912 27.4762 176.432 26.0951 175.472 25.0818C175 24.5817 174.427 24.1876 173.791 23.9256C173.154 23.6636 172.469 23.5397 171.781 23.5621V23.5617ZM199.811 17.3157C201.962 17.2791 204.089 17.7726 206.004 18.7524C207.806 19.6914 209.298 21.1301 210.3 22.8955C211.376 24.8289 211.915 27.0135 211.864 29.2244C211.916 31.4355 211.376 33.6205 210.301 35.5542C209.299 37.3196 207.807 38.7583 206.005 39.6973C204.09 40.6771 201.963 41.1706 199.812 41.134C197.654 41.1691 195.52 40.6758 193.597 39.6973C191.786 38.7631 190.286 37.3237 189.279 35.5542C188.204 33.6208 187.664 31.4362 187.715 29.2253C187.664 27.0144 188.204 24.8298 189.279 22.8964C190.286 21.1269 191.786 19.6875 193.597 18.7533C195.519 17.7746 197.653 17.2811 199.811 17.3157ZM199.811 23.4784C199.165 23.4665 198.524 23.5922 197.931 23.8472C197.337 24.1021 196.805 24.4804 196.37 24.9568C195.438 25.9424 194.972 27.3651 194.972 29.2249C194.972 31.0847 195.438 32.5003 196.37 33.4719C196.808 33.9428 197.341 34.3161 197.934 34.5672C198.527 34.8183 199.167 34.9417 199.811 34.9292C200.452 34.943 201.089 34.8202 201.678 34.5689C202.268 34.3176 202.797 33.9436 203.231 33.4719C204.149 32.5003 204.607 31.0847 204.607 29.2249C204.607 27.3651 204.149 25.9424 203.231 24.9568C202.8 24.4799 202.272 24.1011 201.682 23.8461C201.092 23.5912 200.454 23.4661 199.811 23.4793V23.4784ZM230.343 17.3582C233.013 17.3582 235.133 18.2465 236.704 20.0229C238.275 21.7994 239.061 24.2421 239.061 27.3509V40.8424H231.928V28.1842C231.928 26.6311 231.518 25.4166 230.698 24.5406C230.277 24.1016 229.767 23.7575 229.202 23.5312C228.637 23.305 228.03 23.2019 227.422 23.2288C226.783 23.198 226.145 23.3048 225.551 23.5418C224.957 23.7789 224.422 24.1408 223.98 24.6028C223.133 25.5191 222.71 26.8234 222.71 28.5157V40.8424H215.578V17.6082H222.71V21.8553C223.357 20.4892 224.395 19.3447 225.692 18.5656C227.099 17.7376 228.71 17.3193 230.343 17.3582ZM252.243 17.3166C255.191 17.3166 257.548 18.0522 259.313 19.5234C261.085 21.0049 262.263 23.0746 262.629 25.3528H255.953C255.799 24.4764 255.332 23.6854 254.639 23.1253C253.904 22.5664 252.998 22.2795 252.074 22.3136C251.42 22.2677 250.771 22.4519 250.239 22.8341C250.028 23.0163 249.862 23.2443 249.754 23.5006C249.645 23.7569 249.597 24.0347 249.614 24.3125C249.615 24.6679 249.726 25.0143 249.931 25.3048C250.136 25.5953 250.426 25.8158 250.761 25.9365C251.923 26.4205 253.132 26.7834 254.369 27.0194C255.854 27.3494 257.317 27.7737 258.748 28.2894C259.899 28.727 260.919 29.4509 261.71 30.3923C262.544 31.3639 262.961 32.6686 262.961 34.3065C262.982 35.5709 262.603 36.8095 261.877 37.8457C261.082 38.9288 259.998 39.7659 258.748 40.2609C257.212 40.8765 255.566 41.174 253.91 41.1354C250.769 41.1354 248.252 40.4414 246.36 39.0535C244.469 37.6656 243.315 35.6802 242.898 33.0974H249.78C249.812 33.5489 249.942 33.9881 250.162 34.3838C250.382 34.7795 250.687 35.1222 251.054 35.3875C251.899 35.9464 252.899 36.2234 253.911 36.1787C254.572 36.2258 255.226 36.0254 255.746 35.6165C255.953 35.4308 256.116 35.2022 256.224 34.9467C256.332 34.6912 256.383 34.4152 256.372 34.1381C256.386 33.7663 256.282 33.3997 256.076 33.0897C255.87 32.7798 255.572 32.5423 255.223 32.4106C254.016 31.9287 252.766 31.5593 251.49 31.3072C250.045 31.0242 248.623 30.6348 247.236 30.1424C246.12 29.7238 245.13 29.0288 244.358 28.1228C243.55 27.1927 243.146 25.9234 243.146 24.3148C243.12 23.3447 243.321 22.3818 243.734 21.5033C244.147 20.6248 244.76 19.855 245.525 19.2555C247.11 17.9623 249.349 17.3157 252.241 17.3157L252.243 17.3166ZM277.437 17.3166C280.44 17.3166 282.956 18.1424 284.986 19.794C287.016 21.4456 288.295 23.7155 288.824 26.6036H281.272C281.1 25.6904 280.613 24.8661 279.895 24.274C279.143 23.7 278.214 23.4055 277.268 23.4412C276.674 23.4303 276.085 23.5583 275.549 23.815C275.013 24.0717 274.545 24.45 274.181 24.9196C273.373 25.9052 272.97 27.3418 272.97 29.2293C272.97 31.1169 273.373 32.5535 274.181 33.5391C274.545 34.0087 275.013 34.387 275.549 34.6437C276.085 34.9004 276.674 35.0284 277.268 35.0175C278.214 35.0532 279.143 34.7587 279.895 34.1847C280.613 33.5926 281.1 32.7683 281.272 31.8551H288.822C288.293 34.742 287.014 37.0118 284.984 38.6647C282.954 40.3175 280.438 41.1433 277.434 41.1421C275.322 41.1824 273.235 40.6882 271.366 39.7054C269.608 38.7562 268.166 37.3165 267.215 35.5623C266.18 33.616 265.663 31.4366 265.714 29.2334C265.658 27.0254 266.168 24.8397 267.195 22.8834C268.142 21.1324 269.586 19.6988 271.345 18.7618C273.221 17.7773 275.315 17.28 277.434 17.3157L277.437 17.3166ZM301.378 17.3166C302.992 17.2726 304.585 17.6925 305.967 18.5262C307.226 19.3082 308.216 20.4561 308.803 21.8158V17.6105H315.893V40.8424H308.803V36.637C308.216 37.9967 307.226 39.1446 305.967 39.9267C304.585 40.7604 302.992 41.1802 301.378 41.1363C299.558 41.1641 297.769 40.6651 296.227 39.6995C294.662 38.6856 293.418 37.2488 292.64 35.5564C291.726 33.5739 291.276 31.4095 291.326 29.2275C291.272 27.0385 291.721 24.8662 292.64 22.8776C293.423 21.1938 294.666 19.7651 296.227 18.756C297.768 17.7896 299.556 17.2894 301.376 17.3157L301.378 17.3166ZM303.672 23.5626C302.985 23.5342 302.3 23.6534 301.664 23.912C301.027 24.1706 300.453 24.5626 299.981 25.0616C299.049 26.0609 298.583 27.4488 298.583 29.2253C298.583 31.0018 299.049 32.3897 299.981 33.389C300.453 33.888 301.027 34.28 301.664 34.5386C302.3 34.7972 302.985 34.9164 303.672 34.888C304.362 34.9099 305.049 34.7837 305.686 34.5179C306.322 34.2521 306.895 33.8529 307.364 33.3474C308.362 32.2128 308.879 30.7342 308.803 29.2258C308.803 27.4771 308.323 26.096 307.364 25.0826C306.891 24.5821 306.318 24.1877 305.681 23.9255C305.044 23.6633 304.359 23.5395 303.67 23.5621L303.672 23.5626ZM335.58 17.3582C338.25 17.3582 340.37 18.2465 341.941 20.0229C343.512 21.7994 344.297 24.2421 344.296 27.3509V40.8424H337.164V28.1842C337.164 26.6311 336.754 25.4166 335.933 24.5406C335.512 24.1016 335.002 23.7575 334.437 23.5312C333.872 23.305 333.266 23.2019 332.657 23.2288C332.019 23.198 331.381 23.3048 330.787 23.5418C330.193 23.7789 329.657 24.1408 329.216 24.6028C328.369 25.5191 327.946 26.8234 327.946 28.5157V40.8424H320.813V17.6082H327.946V21.8553C328.593 20.4891 329.631 19.3446 330.928 18.5656C332.335 17.7377 333.946 17.3194 335.579 17.3582H335.58Z" fill="#B3FCFF" fill-opacity="0.8"/>
</g>
<defs>
<clipPath id="clip0_114_2623">
<rect width="344.296" height="56" fill="white"/>
</clipPath>
</defs>
</svg>
