<svg xmlns="http://www.w3.org/2000/svg" width="314.432" height="60" viewBox="0 0 314.432 60">
  <g id="logo-light" transform="translate(-1186.167 -750.463)">
    <g id="text" transform="translate(1254.637 766.099)">
      <path id="Path_116" data-name="Path 116" d="M1293.165,2313.344a9.559,9.559,0,0,1-4.106-2.944,6.891,6.891,0,0,1-1.462-3.986.8.8,0,0,1,.261-.581.844.844,0,0,1,.62-.26h5.047a1.5,1.5,0,0,1,.781.18,2.761,2.761,0,0,1,.621.54,4.152,4.152,0,0,0,1.682,1.723,6.066,6.066,0,0,0,3.084.68,6.858,6.858,0,0,0,3.485-.72,2.2,2.2,0,0,0,1.2-1.963,1.855,1.855,0,0,0-.62-1.44,5.556,5.556,0,0,0-1.943-1,40.077,40.077,0,0,0-3.925-1,16.855,16.855,0,0,1-7.19-2.944,6.749,6.749,0,0,1-2.385-5.548,7.37,7.37,0,0,1,1.361-4.364,8.926,8.926,0,0,1,3.886-3,14.865,14.865,0,0,1,5.889-1.082,14.13,14.13,0,0,1,6.048,1.2,9.978,9.978,0,0,1,3.906,3.024,6.591,6.591,0,0,1,1.422,3.585.821.821,0,0,1-.841.842H1304.7a1.645,1.645,0,0,1-.781-.16,1.519,1.519,0,0,1-.54-.521,2.638,2.638,0,0,0-1.3-1.562,5.972,5.972,0,0,0-5.387,0,2.118,2.118,0,0,0-.962,1.882,1.936,1.936,0,0,0,.54,1.4,4.8,4.8,0,0,0,1.762,1.022,25.25,25.25,0,0,0,3.505.941,25.607,25.607,0,0,1,5.948,1.7,7.534,7.534,0,0,1,2.765,11.375,9.717,9.717,0,0,1-4.287,3.044,17.3,17.3,0,0,1-6.268,1.061A17.117,17.117,0,0,1,1293.165,2313.344Z" transform="translate(-1287.597 -2285.623)" fill="rgba(179,252,255,0.8)"/>
      <path id="Path_117" data-name="Path 117" d="M1328.715,2313.954a.962.962,0,0,1-.3-.7v-26.035a.945.945,0,0,1,.3-.72,1,1,0,0,1,.7-.28h4.246a1.365,1.365,0,0,1,1.361.761l9.774,15.381v-15.141a.946.946,0,0,1,.3-.72,1,1,0,0,1,.7-.28h4.807a.96.96,0,0,1,1,1v26a1.048,1.048,0,0,1-.28.741.946.946,0,0,1-.72.3h-4.286a1.433,1.433,0,0,1-1.322-.762l-9.773-14.821v14.58a1,1,0,0,1-.281.7.944.944,0,0,1-.72.3h-4.806A.965.965,0,0,1,1328.715,2313.954Z" transform="translate(-1300.861 -2285.813)" fill="rgba(179,252,255,0.8)"/>
      <path id="Path_118" data-name="Path 118" d="M1372.351,2311.7q-3.244-2.765-3.445-8.132-.041-1.162-.04-3.445,0-2.323.04-3.484a10.776,10.776,0,0,1,3.505-8.152,15.082,15.082,0,0,1,17.685,0q3.325,2.865,3.485,8.152.08,2.323.08,3.484,0,1.122-.08,3.445-.2,5.369-3.445,8.132t-8.892,2.763Q1375.595,2314.468,1372.351,2311.7Zm12.4-4.326a5.822,5.822,0,0,0,1.383-4.046q.079-2.323.08-3.284,0-1.042-.08-3.284a5.768,5.768,0,0,0-1.4-4.046,4.715,4.715,0,0,0-3.485-1.321,4.643,4.643,0,0,0-3.464,1.322,5.937,5.937,0,0,0-1.422,4.046q-.041,1.121-.04,3.284,0,2.123.04,3.285a6.019,6.019,0,0,0,1.4,4.045,4.626,4.626,0,0,0,3.485,1.322,4.7,4.7,0,0,0,3.5-1.322Z" transform="translate(-1314.006 -2285.625)" fill="rgba(179,252,255,0.8)"/>
      <path id="Path_119" data-name="Path 119" d="M1413.64,2313.879a1.561,1.561,0,0,1-.48-.941l-4.364-25.6a.874.874,0,0,1-.04-.28.894.894,0,0,1,.841-.841h4.967q1.121,0,1.242.881l2.6,15.621,2.884-9.213q.441-1.079,1.322-1.08h2.885a1.3,1.3,0,0,1,1.322,1.08l2.884,9.213,2.6-15.621q.121-.88,1.242-.881h4.965a.846.846,0,0,1,.621.26.805.805,0,0,1,.26.581l-.041.28-4.364,25.6a1.522,1.522,0,0,1-1.562,1.322h-3.806a1.451,1.451,0,0,1-1-.321,1.907,1.907,0,0,1-.521-.72l-4.046-11.456-4.045,11.456a1.433,1.433,0,0,1-1.482,1.042h-3.806A1.5,1.5,0,0,1,1413.64,2313.879Z" transform="translate(-1326.968 -2285.817)" fill="rgba(179,252,255,0.8)"/>
      <path id="Path_120" data-name="Path 120" d="M1466.238,2313.963a.963.963,0,0,1-.3-.7v-20.748h-7.13a1.026,1.026,0,0,1-1-1v-4.286a.945.945,0,0,1,.3-.72,1,1,0,0,1,.7-.28h21.552a.96.96,0,0,1,1,1v4.285a.961.961,0,0,1-1,1h-7.13v20.749a1,1,0,0,1-.281.7.943.943,0,0,1-.72.3h-5.288A.964.964,0,0,1,1466.238,2313.963Z" transform="translate(-1342.907 -2285.82)" fill="rgba(179,252,255,0.8)"/>
      <path id="Path_121" data-name="Path 121" d="M1497.613,2313.963a.963.963,0,0,1-.3-.7v-26.035a.945.945,0,0,1,.3-.72,1,1,0,0,1,.7-.28h10.9q5.247,0,8.191,2.385a8.192,8.192,0,0,1,2.944,6.749,8.333,8.333,0,0,1-1.322,4.766,8.438,8.438,0,0,1-3.644,3l5.489,9.854a.993.993,0,0,1,.12.441.894.894,0,0,1-.841.842h-5.327a1.674,1.674,0,0,1-1.642-1.08l-4.566-8.813h-4.086v8.892a.94.94,0,0,1-.3.72,1.043,1.043,0,0,1-.741.281h-5.17A.964.964,0,0,1,1497.613,2313.963Zm11.518-15.281a3.96,3.96,0,0,0,2.8-.9,3.266,3.266,0,0,0,.961-2.5,3.44,3.44,0,0,0-.941-2.543,3.839,3.839,0,0,0-2.824-.941h-4.606v6.889Z" transform="translate(-1355.745 -2285.82)" fill="rgba(179,252,255,0.8)"/>
      <path id="Path_122" data-name="Path 122" d="M1535.869,2314a.8.8,0,0,1-.26-.581,1.212,1.212,0,0,1,.04-.36l9.413-25.716a1.456,1.456,0,0,1,.521-.8,1.611,1.611,0,0,1,1.042-.32h5.928a1.614,1.614,0,0,1,1.042.32,1.46,1.46,0,0,1,.521.8l9.373,25.716.08.36a.8.8,0,0,1-.26.581.846.846,0,0,1-.621.26h-4.926a1.246,1.246,0,0,1-1.282-.841l-1.562-4.086h-10.695l-1.522,4.086a1.276,1.276,0,0,1-1.322.842h-4.927A.8.8,0,0,1,1535.869,2314Zm17.444-10.435-3.725-10.573-3.725,10.573Z" transform="translate(-1368.189 -2285.816)" fill="rgba(179,252,255,0.8)"/>
      <path id="Path_123" data-name="Path 123" d="M1582.212,2311.681q-3.225-2.783-3.425-8.071-.04-1.083-.04-3.525,0-2.484.04-3.605a10.588,10.588,0,0,1,3.485-8.031q3.285-2.824,8.892-2.824a16.167,16.167,0,0,1,6.329,1.182,10.4,10.4,0,0,1,4.426,3.365,8.532,8.532,0,0,1,1.662,5.107v.08a.681.681,0,0,1-.26.54.879.879,0,0,1-.581.22h-5.407a1.269,1.269,0,0,1-.8-.22,1.726,1.726,0,0,1-.481-.822,4.868,4.868,0,0,0-1.762-2.864,5.507,5.507,0,0,0-3.164-.822q-4.727,0-4.887,5.288-.041,1.08-.04,3.325t.04,3.405q.16,5.288,4.887,5.287a5.5,5.5,0,0,0,3.2-.861,4.6,4.6,0,0,0,1.723-2.824,1.516,1.516,0,0,1,.441-.821,1.349,1.349,0,0,1,.841-.221h5.407a.883.883,0,0,1,.621.24.672.672,0,0,1,.22.6,8.529,8.529,0,0,1-1.662,5.108,10.392,10.392,0,0,1-4.427,3.365,16.157,16.157,0,0,1-6.329,1.182Q1585.436,2314.464,1582.212,2311.681Z" transform="translate(-1382.207 -2285.622)" fill="rgba(179,252,255,0.8)"/>
      <path id="Path_124" data-name="Path 124" d="M1621.107,2313.961a.96.96,0,0,1-.3-.7v-26.035a.944.944,0,0,1,.3-.72,1,1,0,0,1,.7-.28h18.706a.959.959,0,0,1,1,1v3.765a1,1,0,0,1-.28.7.943.943,0,0,1-.72.3h-12.778v5.407h11.9a.944.944,0,0,1,.72.3,1.05,1.05,0,0,1,.28.741v3.485a1,1,0,0,1-.28.7.944.944,0,0,1-.72.3h-11.9v5.568h13.1a.96.96,0,0,1,1,1v3.766a1,1,0,0,1-.28.7.945.945,0,0,1-.72.3h-19.027A.96.96,0,0,1,1621.107,2313.961Z" transform="translate(-1395.875 -2285.819)" fill="rgba(179,252,255,0.8)"/>
    </g>
    <g id="symbol" transform="translate(1186.167 750.463)">
      <path id="Soustraction_1" data-name="Soustraction 1" d="M30,60a29.86,29.86,0,0,1-16.773-5.123,30.087,30.087,0,0,1-10.869-13.2A29.961,29.961,0,0,1,5.124,13.227a30.087,30.087,0,0,1,13.2-10.869A29.961,29.961,0,0,1,46.773,5.124a30.087,30.087,0,0,1,10.869,13.2,29.961,29.961,0,0,1-2.766,28.451,30.087,30.087,0,0,1-13.2,10.869A29.813,29.813,0,0,1,30,60ZM28.148,45.038h0v3.926h2.6V45.038L33.418,47.7l1.841-1.841-4.507-4.508V35.029l.029-.011L30.838,35l.034-.013.069-.028.018-.008c.063-.026.114-.05.163-.074s.073-.037.106-.055l.021-.011.018-.01.037-.02.034-.018.035-.018a.169.169,0,0,0,.022-.014l.009-.007c.059-.034.116-.07.177-.11l.045-.031.011-.007.018-.012.072-.049c.057-.041.112-.086.164-.128l.021-.019.009-.008.013-.011,5.481,3.164,1.65,6.158,2.515-.674L40.6,39.351,44,41.315l1.3-2.256L33.236,32.091a1.368,1.368,0,0,0,.022-.137l0-.027c0-.024.007-.05.01-.075s.006-.064.009-.1v-.007c0-.056.009-.116.012-.191v-.084c0-.01,0-.02,0-.03s0-.02,0-.03v-.037c0-.073,0-.148-.009-.212a.188.188,0,0,0,0-.045l0-.035a.682.682,0,0,0,0-.07l0-.02c-.008-.072-.018-.14-.03-.207l0-.022-.011-.057,0-.022c0-.025-.009-.05-.014-.074-.014-.061-.028-.121-.045-.184l-.009-.03-.011-.04-.011-.038c-.008-.027-.015-.054-.024-.08-.016-.051-.036-.1-.054-.153-.008-.022-.017-.045-.026-.066l-.021-.055c-.011-.028-.021-.056-.033-.084s-.033-.073-.05-.108l-.007-.015c-.013-.028-.027-.055-.042-.082l-.006-.012c-.023-.047-.043-.085-.062-.12l-.014-.027-.014-.027c-.006-.01-.012-.019-.019-.029l-.016-.024c-.016-.027-.034-.054-.051-.08l-.022-.033-.057-.09c-.022-.031-.05-.073-.078-.112-.014-.02-.031-.041-.047-.061l-.043-.055-.02-.025-.025-.031-.011-.013c-.031-.037-.063-.075-.1-.111l-.034-.036c-.017-.018-.035-.035-.051-.054l-.029-.03-.021-.021c-.048-.048-.091-.091-.137-.131a.927.927,0,0,0-.076-.064c-.012-.012-.026-.022-.04-.034l0,0-.015-.014c-.051-.043-.105-.085-.164-.128l-.049-.034-.026-.018-.029-.019-.037-.025c-.052-.035-.115-.075-.18-.113l-.014-.01-.017-.011-.032-.016-.025-.012-.07-.038c-.052-.027-.107-.056-.163-.081-.031-.015-.068-.032-.1-.047l-.093-.038-.044-.017-.087-.033h0V13.859h-2.6v3.926l-2.667-2.666L23.642,16.96l4.507,4.507V27.8h-.005c-.038.014-.073.028-.11.043l-.02.008-.024.01-.069.028-.083.037-.022.01c-.051.024-.1.05-.163.081l-.028.015-.042.023-.029.015-.027.014-.017.011L27.5,28.1c-.055.033-.112.069-.179.113l-.036.025-.014.011-.038.026-.052.035c-.062.046-.122.094-.167.131l-.015.013-.014.011-.013.011-5.479-3.164-1.65-6.158-2.515.674L18.3,23.47l-3.4-1.964-1.3,2.255L17,25.725l-3.642.976.673,2.515,6.157-1.65,5.478,3.163c0,.022-.008.044-.012.065l-.005.03c-.009.059-.016.114-.021.167,0,.016,0,.031,0,.047s0,.026,0,.038l0,.028c0,.035-.007.072-.008.11,0,.06,0,.112,0,.16v.075c0,.052,0,.106,0,.159l0,.043c0,.033,0,.063.008.1,0,.013,0,.025,0,.038s0,.032,0,.047c.006.054.013.109.021.164,0,.018.006.036.009.054s.005.029.008.043l-5.478,3.164-6.157-1.65-.673,2.515L17,37.1,13.6,39.06l1.3,2.256,3.4-1.964-.976,3.642,2.515.674,1.65-6.158,5.479-3.164.014.011.009.008.02.017c.06.05.113.091.164.128.023.017.046.033.069.049l.02.014.01.006.026.018.017.012c.056.038.116.076.176.111l.017.011.016.01c.016.01.032.018.048.026l.02.011.053.028.023.012.017.009c.029.015.058.031.089.045.054.027.109.051.165.075l.017.008.072.029.032.012.056.021.03.011v6.326L23.64,45.863,25.481,47.7l2.666-2.666Zm4.831-31.214v2.6A12.913,12.913,0,0,1,44.033,36.012l2.228,1.347A15.517,15.517,0,0,0,32.979,13.824Zm1.5,8.81v2.6a3.682,3.682,0,0,1,3.211,5.475l2.27,1.274a6.284,6.284,0,0,0-5.481-9.354Z" transform="translate(0 0)" fill="rgba(179,252,255,0.8)"/>
    </g>
  </g>
</svg>
