<svg width="100" height="100" viewBox="0 0 100 100" fill="none" xmlns="http://www.w3.org/2000/svg">
<path d="M50 100C77.6142 100 100 77.6142 100 50C100 22.3858 77.6142 0 50 0C22.3858 0 0 22.3858 0 50C0 77.6142 22.3858 100 50 100Z" fill="#E84142"/>
<path d="M67.6378 51.2992C69.3701 48.307 72.1654 48.307 73.8977 51.2992L84.6851 70.2362C86.4174 73.2283 85.0001 75.6693 81.5355 75.6693H59.8032C56.378 75.6693 54.9607 73.2283 56.6536 70.2362L67.6378 51.2992ZM46.7717 14.8425C48.504 11.8504 51.2599 11.8504 52.9922 14.8425L55.3937 19.1732L61.063 29.1338C62.441 31.9685 62.441 35.3149 61.063 38.1496L42.0473 71.1023C40.315 73.7795 37.441 75.4724 34.252 75.6693H18.4646C15.0001 75.6693 13.5827 73.2677 15.315 70.2362L46.7717 14.8425Z" fill="white"/>
</svg>
