<svg width="100" height="100" viewBox="0 0 100 100" fill="none" xmlns="http://www.w3.org/2000/svg">
<g clip-path="url(#clip0_21_1483)">
<path d="M39.4737 89.4737C55.4632 89.4737 68.4211 76.5158 68.4211 60.5263C68.4211 44.5368 55.4632 31.5789 39.4737 31.5789C23.4842 31.5789 10.5263 44.5368 10.5263 60.5263C10.5263 76.5158 23.4842 89.4737 39.4737 89.4737ZM39.4737 100C17.6737 100 0 82.3263 0 60.5263C0 38.7263 17.6737 21.0526 39.4737 21.0526C61.2737 21.0526 78.9474 38.7263 78.9474 60.5263C78.9474 82.3263 61.2737 100 39.4737 100Z" fill="#FBCC5C"/>
<path d="M60.5264 68.4211C76.5159 68.4211 89.4738 55.4632 89.4738 39.4737C89.4738 23.4842 76.5159 10.5263 60.5264 10.5263C44.5369 10.5263 31.5791 23.4842 31.5791 39.4737C31.5791 55.4632 44.5369 68.4211 60.5264 68.4211ZM60.5264 78.9474C38.7264 78.9474 21.0527 61.2737 21.0527 39.4737C21.0527 17.6737 38.7264 0 60.5264 0C82.3264 0 100 17.6737 100 39.4737C100 61.2737 82.3264 78.9474 60.5264 78.9474Z" fill="#35D07F"/>
<path d="M61.8317 78.9474C64.5685 75.6316 66.5264 71.7474 67.5685 67.5684C71.7369 66.5263 75.6212 64.5684 78.9475 61.8316C78.8001 66.6631 77.758 71.421 75.8738 75.8842C71.4212 77.7579 66.6633 78.8 61.8317 78.9474ZM32.4317 32.4316C28.2633 33.4737 24.3791 35.4316 21.0527 38.1684C21.2001 33.3368 22.2422 28.5789 24.1264 24.1263C28.5791 22.2526 33.3475 21.2105 38.1685 21.0526C35.4317 24.3684 33.4738 28.2526 32.4317 32.4316Z" fill="#5EA33B"/>
</g>
<defs>
<clipPath id="clip0_21_1483">
<rect width="100" height="100" fill="white"/>
</clipPath>
</defs>
</svg>
