<svg width="100" height="88" viewBox="0 0 100 88" fill="none" xmlns="http://www.w3.org/2000/svg">
<g clip-path="url(#clip0_21_1489)">
<path d="M75.5208 26.591C73.6979 25.5482 71.3542 25.5482 69.2708 26.591L54.6875 35.194L44.7917 40.6686L30.4687 49.2716C28.6458 50.3144 26.3021 50.3144 24.2187 49.2716L13.0208 42.4935C11.1979 41.4507 9.89583 39.3651 9.89583 37.0189V23.984C9.89583 21.8985 10.9375 19.8129 13.0208 18.5094L24.2187 11.992C26.0417 10.9492 28.3854 10.9492 30.4687 11.992L41.6667 18.7701C43.4896 19.8129 44.7917 21.8985 44.7917 24.2447V32.8477L54.6875 27.1124V18.2487C54.6875 16.1631 53.6458 14.0776 51.5625 12.7741L30.7292 0.521347C28.9062 -0.521439 26.5625 -0.521439 24.4792 0.521347L3.125 13.0348C1.04167 14.0776 0 16.1631 0 18.2487V42.7542C0 44.8398 1.04167 46.9253 3.125 48.2288L24.2187 60.4816C26.0417 61.5243 28.3854 61.5243 30.4687 60.4816L44.7917 52.1393L54.6875 46.4039L69.0104 38.0616C70.8333 37.0189 73.1771 37.0189 75.2604 38.0616L86.4583 44.5791C88.2812 45.6218 89.5833 47.7074 89.5833 50.0537V63.0885C89.5833 65.1741 88.5417 67.2597 86.4583 68.5631L75.5208 75.0806C73.6979 76.1233 71.3542 76.1233 69.2708 75.0806L58.0729 68.5631C56.25 67.5204 54.9479 65.4348 54.9479 63.0885V54.7462L45.0521 60.4816V69.0845C45.0521 71.1701 46.0937 73.2557 48.1771 74.5592L69.2708 86.8119C71.0938 87.8547 73.4375 87.8547 75.5208 86.8119L96.6146 74.5592C98.4375 73.5164 99.7396 71.4308 99.7396 69.0845V44.3184C99.7396 42.2328 98.6979 40.1472 96.6146 38.8437L75.5208 26.591Z" fill="#8247E5"/>
</g>
<defs>
<clipPath id="clip0_21_1489">
<rect width="100" height="87.3333" fill="white"/>
</clipPath>
</defs>
</svg>
