<svg width="100" height="100" viewBox="0 0 100 100" fill="none" xmlns="http://www.w3.org/2000/svg">
<path d="M50 100C77.6142 100 100 77.6142 100 50C100 22.3858 77.6142 0 50 0C22.3858 0 0 22.3858 0 50C0 77.6142 22.3858 100 50 100Z" fill="#FF0420"/>
<path d="M35.4105 63.2597C32.809 63.3708 30.2418 62.6335 28.0957 61.159C27.1686 60.4507 26.4281 59.5274 25.938 58.4687C25.448 57.41 25.2232 56.2479 25.2832 55.0828C25.2947 54.4039 25.3575 53.7268 25.4711 53.0574C25.7963 51.254 26.2589 49.0909 26.8589 46.5679C28.5595 39.6909 32.9475 36.2523 40.023 36.2523C41.7968 36.2236 43.5578 36.5559 45.1992 37.2289C46.6563 37.8001 47.91 38.793 48.8 40.0804C49.6975 41.4067 50.1561 42.9812 50.1113 44.582C50.0984 45.2484 50.0356 45.9129 49.9234 46.5699C49.5479 48.7957 49.0979 50.9588 48.5734 53.0594C47.6992 56.4851 46.1863 59.0483 44.0347 60.7488C41.8863 62.4228 39.0116 63.2597 35.4105 63.2597ZM35.9359 57.8582C37.2351 57.8941 38.5027 57.4538 39.5 56.6203C40.6023 55.6206 41.3522 54.2916 41.6379 52.8312C42.2134 50.4815 42.6505 48.431 42.9492 46.6797C43.0498 46.1478 43.1 45.6077 43.0992 45.0664C43.0992 42.7903 41.9114 41.6526 39.5359 41.6531C38.2262 41.6217 36.9487 42.0609 35.9351 42.891C34.8533 43.9012 34.118 45.2273 33.8343 46.6801C33.3841 48.3556 32.9341 50.4061 32.4843 52.8316C32.3826 53.3505 32.3323 53.8782 32.3343 54.407C32.3343 56.7075 33.5349 57.8578 35.9359 57.8578V57.8582Z" fill="white"/>
<path d="M51.8399 62.8855C51.7207 62.8925 51.6014 62.8726 51.491 62.8273C51.3806 62.7819 51.2818 62.7122 51.202 62.6234C51.0772 62.4218 51.037 62.1791 51.0899 61.948L56.2664 37.5668C56.3122 37.2978 56.4587 37.0563 56.6762 36.8914C56.8773 36.7256 57.1288 36.6331 57.3895 36.6293H67.3672C69.7163 36.514 72.045 37.1158 74.0442 38.3547C74.8661 38.8931 75.5336 39.6364 75.9809 40.5113C76.4282 41.3862 76.6398 42.3625 76.5949 43.3441C76.5914 44.0007 76.5158 44.6548 76.3696 45.2949C75.9557 47.8223 74.6023 50.1 72.5805 51.6719C70.7055 53.0474 68.1298 53.7351 64.8535 53.7351H59.7906L58.0653 61.95C58.0194 62.219 57.8729 62.4604 57.6555 62.6254C57.4547 62.791 57.2036 62.8834 56.9434 62.8875L51.8399 62.8855ZM65.1184 48.5558C66.1013 48.5776 67.0639 48.2746 67.8571 47.6937C68.6731 47.0945 69.2351 46.2114 69.4324 45.2183C69.5021 44.8471 69.5396 44.4706 69.5445 44.093C69.5658 43.7879 69.5197 43.4818 69.4095 43.1965C69.2993 42.9112 69.1276 42.6537 68.9067 42.4422C68.2808 41.9799 67.5057 41.7661 66.7313 41.8422H62.2309L60.8055 48.5562L65.1184 48.5558Z" fill="white"/>
</svg>
