<svg width="100" height="100" viewBox="0 0 100 100" fill="none" xmlns="http://www.w3.org/2000/svg">
<path d="M50 100C77.6142 100 100 77.6142 100 50C100 22.3858 77.6142 0 50 0C22.3858 0 0 22.3858 0 50C0 77.6142 22.3858 100 50 100Z" fill="white"/>
<path d="M50.3872 11.4781C42.6559 11.5092 35.2502 14.5942 29.7833 20.0611C24.3165 25.5279 21.2315 32.9336 21.2004 40.6649C21.2006 43.8872 21.7203 47.0884 22.7395 50.1453C23.1064 51.147 23.8429 51.9702 24.7977 52.4459C25.7526 52.9215 26.8533 53.0136 27.8739 52.7031C28.8605 52.3255 29.6661 51.5861 30.127 50.6355C30.5879 49.6849 30.6693 48.5945 30.3547 47.586C29.4905 45.2049 29.1045 42.6766 29.2188 40.1461C29.3415 36.0651 30.6481 32.1077 32.9795 28.7559C35.3109 25.4041 38.5666 22.8025 42.3501 21.2679C46.1336 19.7332 50.2817 19.3317 54.2893 20.1123C58.2969 20.8929 61.9911 22.8219 64.922 25.6643C67.853 28.5068 69.8942 32.1402 70.7973 36.1219C71.7003 40.1037 71.4261 44.2622 70.0081 48.0909C68.5901 51.9197 66.0895 55.2536 62.8107 57.6866C59.5319 60.1197 55.6165 61.5469 51.5411 61.7945C51.5411 61.7945 47.4442 62.0438 45.4083 62.2934C44.657 62.4011 43.912 62.5491 43.1766 62.7367C43.1519 62.7622 43.1223 62.7825 43.0897 62.7964C43.057 62.8103 43.0219 62.8177 42.9864 62.818C42.951 62.8183 42.9158 62.8115 42.8829 62.7981C42.85 62.7847 42.8201 62.7649 42.795 62.7399L42.7918 62.7367C42.756 62.6899 42.7365 62.6326 42.7365 62.5737C42.7365 62.5147 42.756 62.4574 42.7918 62.4106L43.4258 58.9508L47.2735 41.6461C47.4956 40.6085 47.2963 39.5252 46.7197 38.6345C46.143 37.7437 45.2361 37.1186 44.1985 36.8965C43.1609 36.6744 42.0776 36.8737 41.1868 37.4503C40.2961 38.027 39.6709 38.9339 39.4489 39.9715C39.4489 39.9715 30.2961 82.3297 30.2961 82.7145C30.1715 83.204 30.1446 83.7133 30.2169 84.2132C30.2892 84.7132 30.4592 85.194 30.7174 85.6282C30.9755 86.0624 31.3166 86.4415 31.7213 86.7438C32.126 87.0462 32.5863 87.2658 33.0758 87.3903C33.098 87.3968 33.1206 87.4019 33.1434 87.4055H33.3559C33.8448 87.532 34.3539 87.561 34.854 87.4907C35.3541 87.4204 35.8354 87.2523 36.2705 86.9959C36.7055 86.7395 37.0858 86.3998 37.3896 85.9964C37.6933 85.5929 37.9146 85.1336 38.0407 84.6445C38.0507 84.6101 38.0589 84.5751 38.0653 84.5399C38.0591 84.4763 38.0591 84.4124 38.0653 84.3488C38.1793 83.85 39.3336 78.216 39.3336 78.216C39.7604 76.1394 40.8126 74.2431 42.3489 72.7822C43.8852 71.3212 45.8319 70.3656 47.9274 70.0438C48.811 69.9082 52.5231 69.659 52.5231 69.659C59.9085 68.9263 66.7368 65.4058 71.6171 59.8145C76.4975 54.2232 79.0628 46.9817 78.7905 39.565C78.5182 32.1484 75.4288 25.1145 70.1516 19.8961C64.8744 14.6777 57.8064 11.6673 50.3872 11.4781V11.4781Z" fill="#1E1E1E"/>
<path d="M52.157 78.7746C51.5316 78.6443 50.8867 78.6385 50.2591 78.7575C49.6315 78.8765 49.0335 79.1179 48.4993 79.4681C47.965 79.8182 47.505 80.2703 47.1455 80.7983C46.7859 81.3262 46.5339 81.9198 46.4038 82.5452C46.3976 82.5698 46.3944 82.5944 46.3886 82.619C46.253 83.2407 46.2412 83.8831 46.354 84.5094C46.4667 85.1357 46.7018 85.7335 47.0456 86.2689C47.3895 86.8043 47.8356 87.2668 48.3582 87.6297C48.8809 87.9927 49.4699 88.249 50.0917 88.3843C50.0934 88.3841 50.0951 88.3843 50.0968 88.3848C50.0984 88.3854 50.0999 88.3862 50.1011 88.3874H50.2366C50.8452 88.5346 51.4769 88.5604 52.0955 88.4633C52.7141 88.3663 53.3074 88.1483 53.8417 87.8218C54.376 87.4953 54.8407 87.0667 55.2093 86.5606C55.5779 86.0544 55.8431 85.4805 55.9898 84.8718C55.996 84.8534 55.9992 84.8328 56.005 84.8132V84.5456C56.2236 83.274 55.9464 81.967 55.2306 80.8935C54.5148 79.82 53.4148 79.0617 52.157 78.7746Z" fill="#E6007A"/>
</svg>
