<svg width="545" height="306" viewBox="0 0 545 306" fill="none" xmlns="http://www.w3.org/2000/svg">
<g clip-path="url(#clip0_353_2217)">
<g opacity="0.05">
<path d="M538.456 0V306" stroke="#00E1FF" stroke-width="0.16" stroke-miterlimit="10"/>
<path d="M515.424 0V306" stroke="#00E1FF" stroke-width="0.16" stroke-miterlimit="10"/>
<path d="M492.446 0V306" stroke="#00E1FF" stroke-width="0.16" stroke-miterlimit="10"/>
<path d="M469.468 0V306" stroke="#00E1FF" stroke-width="0.16" stroke-miterlimit="10"/>
<path d="M446.49 0V306" stroke="#00E1FF" stroke-width="0.16" stroke-miterlimit="10"/>
<path d="M423.512 0V306" stroke="#00E1FF" stroke-width="0.16" stroke-miterlimit="10"/>
<path d="M400.534 0V306" stroke="#00E1FF" stroke-width="0.16" stroke-miterlimit="10"/>
<path d="M377.502 0V306" stroke="#00E1FF" stroke-width="0.16" stroke-miterlimit="10"/>
<path d="M354.524 0V306" stroke="#00E1FF" stroke-width="0.16" stroke-miterlimit="10"/>
<path d="M331.546 0V306" stroke="#00E1FF" stroke-width="0.16" stroke-miterlimit="10"/>
<path d="M308.568 0V306" stroke="#00E1FF" stroke-width="0.16" stroke-miterlimit="10"/>
<path d="M285.59 0V306" stroke="#00E1FF" stroke-width="0.16" stroke-miterlimit="10"/>
<path d="M262.612 0V306" stroke="#00E1FF" stroke-width="0.16" stroke-miterlimit="10"/>
<path d="M239.635 0V306" stroke="#00E1FF" stroke-width="0.16" stroke-miterlimit="10"/>
<path d="M216.602 0V306" stroke="#00E1FF" stroke-width="0.16" stroke-miterlimit="10"/>
<path d="M216.548 18.4961L245.352 1.90405" stroke="#00E1FF" stroke-width="0.16" stroke-miterlimit="10"/>
<path d="M216.548 45.0433L291.307 1.90405" stroke="#00E1FF" stroke-width="0.16" stroke-miterlimit="10"/>
<path d="M216.548 71.536L337.263 1.90405" stroke="#00E1FF" stroke-width="0.16" stroke-miterlimit="10"/>
<path d="M216.548 98.0288L383.274 1.90405" stroke="#00E1FF" stroke-width="0.16" stroke-miterlimit="10"/>
<path d="M216.548 124.576L429.229 1.90405" stroke="#00E1FF" stroke-width="0.16" stroke-miterlimit="10"/>
<path d="M216.548 151.069L476.982 0.870422" stroke="#00E1FF" stroke-width="0.16" stroke-miterlimit="10"/>
<path d="M216.548 177.616L521.195 1.90405" stroke="#00E1FF" stroke-width="0.16" stroke-miterlimit="10"/>
<path d="M216.548 204.109L538.347 18.496" stroke="#00E1FF" stroke-width="0.16" stroke-miterlimit="10"/>
<path d="M216.548 230.656L538.347 45.0432" stroke="#00E1FF" stroke-width="0.16" stroke-miterlimit="10"/>
<path d="M216.548 257.149L538.347 71.536" stroke="#00E1FF" stroke-width="0.16" stroke-miterlimit="10"/>
<path d="M216.548 283.696L538.347 98.0288" stroke="#00E1FF" stroke-width="0.16" stroke-miterlimit="10"/>
<path d="M226.294 304.586L538.347 124.576" stroke="#00E1FF" stroke-width="0.16" stroke-miterlimit="10"/>
<path d="M272.25 304.586L538.347 151.069" stroke="#00E1FF" stroke-width="0.16" stroke-miterlimit="10"/>
<path d="M319.349 303.933L538.347 177.616" stroke="#00E1FF" stroke-width="0.16" stroke-miterlimit="10"/>
<path d="M365.305 303.933L538.347 204.109" stroke="#00E1FF" stroke-width="0.16" stroke-miterlimit="10"/>
<path d="M411.315 303.933L538.347 230.656" stroke="#00E1FF" stroke-width="0.16" stroke-miterlimit="10"/>
<path d="M457.271 303.933L538.347 257.149" stroke="#00E1FF" stroke-width="0.16" stroke-miterlimit="10"/>
</g>
<path d="M469.468 164.56L423.839 190.89L469.468 217.219L515.097 190.89L469.468 164.56M469.468 164.342L515.424 190.835L469.468 217.328L423.512 190.835L469.468 164.342Z" fill="#00E7FF"/>
<path style="mix-blend-mode:screen" opacity="0.5" d="M515.424 190.835V244.474L469.468 271.021V217.382L515.424 190.835Z" fill="url(#paint0_radial_353_2217)"/>
<path d="M515.26 191.162L469.631 217.491V270.694L515.26 244.365V191.162ZM515.424 190.835V244.474L469.468 270.966V217.328L515.424 190.835Z" fill="#00E7FF"/>
<path style="mix-blend-mode:screen" opacity="0.3" d="M469.468 217.382L423.512 190.835V244.474L469.468 271.021V217.382Z" fill="url(#paint1_radial_353_2217)"/>
<path d="M423.675 191.162V244.365L469.305 270.694V217.491L423.675 191.162ZM423.512 190.835L469.468 217.328V270.966L423.512 244.474V190.835Z" fill="#00E7FF"/>
<path style="mix-blend-mode:screen" opacity="0.3" d="M515.424 244.474L469.468 271.021L423.512 244.474L469.468 217.981L515.424 244.474Z" fill="url(#paint2_radial_353_2217)"/>
<path d="M469.468 218.198L423.839 244.528L469.468 270.858L515.097 244.528L469.468 218.198ZM469.468 217.981L515.424 244.474L469.468 270.966L423.512 244.474L469.468 217.981Z" fill="#00E7FF"/>
<path d="M329.021 139.927L283.392 166.256L329.021 192.586L374.65 166.256L329.021 139.927M329.021 139.709L374.977 166.202L329.021 192.695L283.066 166.202L329.021 139.709Z" fill="#00E7FF"/>
<path style="mix-blend-mode:screen" opacity="0.5" d="M374.977 166.202V219.84L329.021 246.387V192.749L374.977 166.202Z" fill="url(#paint3_radial_353_2217)"/>
<path d="M374.814 166.528L329.185 192.858V246.061L374.814 219.731V166.528M374.977 166.202V219.84L329.021 246.333V192.695L374.977 166.202V166.202Z" fill="#00E7FF"/>
<path style="mix-blend-mode:screen" opacity="0.3" d="M329.021 192.749L283.066 166.202V219.84L329.021 246.387V192.749Z" fill="url(#paint4_radial_353_2217)"/>
<path d="M283.229 166.528V219.731L328.858 246.061V192.858L283.229 166.528ZM283.066 166.202L329.021 192.695V246.333L283.066 219.84V166.202Z" fill="#00E7FF"/>
<path style="mix-blend-mode:screen" opacity="0.3" d="M374.977 219.84L329.021 246.387L283.066 219.84L329.021 193.347L374.977 219.84Z" fill="url(#paint5_radial_353_2217)"/>
<path d="M329.021 193.565L283.392 219.895L329.021 246.224L374.65 219.895L329.021 193.565ZM329.021 193.347L374.977 219.84L329.021 246.333L283.066 219.84L329.021 193.347Z" fill="#00E7FF"/>
<path d="M423.512 31.9328L377.883 58.2624L423.512 84.592L469.141 58.2624L423.512 31.9328M423.512 31.7152L469.468 58.208L423.512 84.7008L377.556 58.208L423.512 31.7152V31.7152Z" fill="#00E7FF"/>
<path style="mix-blend-mode:screen" opacity="0.5" d="M469.468 58.2624V111.901L423.512 138.394V84.8096L469.468 58.2624Z" fill="url(#paint6_radial_353_2217)"/>
<path d="M469.305 58.5888L423.675 84.9184V138.122L469.305 111.792V58.5888ZM469.468 58.2624V111.901L423.512 138.394V84.8096L469.468 58.3168V58.2624Z" fill="#00E7FF"/>
<path style="mix-blend-mode:screen" opacity="0.3" d="M423.512 84.8096L377.502 58.2624V111.901L423.512 138.394V84.8096Z" fill="url(#paint7_radial_353_2217)"/>
<path d="M377.72 58.5888V111.792L423.349 138.122V84.864L377.72 58.5344M377.556 58.208L423.512 84.7008V138.339L377.556 111.846V58.2624V58.208Z" fill="#00E7FF"/>
<path style="mix-blend-mode:screen" opacity="0.3" d="M469.468 111.901L423.512 138.394L377.502 111.901L423.512 85.3536L469.468 111.901Z" fill="url(#paint8_radial_353_2217)"/>
<path d="M423.512 85.5712L377.883 111.901L423.512 138.23L469.141 111.901L423.512 85.5712ZM423.512 85.3536L469.468 111.846L423.512 138.339L377.556 111.846L423.512 85.3536Z" fill="#00E7FF"/>
<path d="M377.502 0V31.7696L354.524 44.9888V95.6352" stroke="#00F9FF" stroke-width="0.16" stroke-miterlimit="10"/>
<path d="M354.524 98.0288C353.111 98.0288 351.965 96.8841 351.965 95.472C351.965 94.0599 353.111 92.9152 354.524 92.9152C355.937 92.9152 357.083 94.0599 357.083 95.472C357.083 96.8841 355.937 98.0288 354.524 98.0288Z" fill="#00F9FF"/>
<path d="M331.546 60.7104V111.248L375.433 136.598" stroke="#00F9FF" stroke-width="0.16" stroke-miterlimit="10"/>
<path d="M334.105 60.8192C334.105 59.4048 332.962 58.2624 331.546 58.2624C330.13 58.2624 328.987 59.4048 328.987 60.8192C328.987 62.2336 330.13 63.376 331.546 63.376C332.962 63.376 334.105 62.2336 334.105 60.8192Z" fill="#00F9FF"/>
<path d="M376.576 134.314C377.774 135.021 378.21 136.598 377.502 137.795C376.794 138.992 375.215 139.427 374.017 138.72C372.819 138.013 372.384 136.435 373.091 135.238C373.799 134.042 375.378 133.606 376.576 134.314Z" fill="#00F9FF"/>
<path d="M492.446 47.4368V124.576L448.613 149.818" stroke="#00F9FF" stroke-width="0.16" stroke-miterlimit="10"/>
<path d="M495.005 47.6C495.005 46.1856 493.861 45.0432 492.446 45.0432C491.03 45.0432 489.887 46.1856 489.887 47.6C489.887 49.0144 491.03 50.1568 492.446 50.1568C493.861 50.1568 495.005 49.0144 495.005 47.6Z" fill="#00F9FF"/>
<path d="M449.975 151.994C448.777 152.701 447.198 152.266 446.49 151.069C445.782 149.872 446.218 148.294 447.416 147.587C448.614 146.88 450.193 147.315 450.9 148.512C451.608 149.709 451.173 151.286 449.975 151.994Z" fill="#00F9FF"/>
<path d="M400.534 153.517V230.602L354.524 257.149V281.248" stroke="#00F9FF" stroke-width="0.16" stroke-miterlimit="10"/>
<path d="M403.093 153.626C403.093 152.211 401.95 151.069 400.534 151.069C399.118 151.069 397.975 152.211 397.975 153.626C397.975 155.04 399.118 156.182 400.534 156.182C401.95 156.182 403.093 155.04 403.093 153.626Z" fill="#00F9FF"/>
<path d="M357.083 281.139C357.083 282.554 355.94 283.696 354.524 283.696C353.108 283.696 351.965 282.554 351.965 281.139C351.965 279.725 353.108 278.582 354.524 278.582C355.94 278.582 357.083 279.725 357.083 281.139Z" fill="#00F9FF"/>
<path d="M494.569 152.32L538.347 177.616V257.149L492.446 283.696V306" stroke="#00F9FF" stroke-width="0.16" stroke-miterlimit="10"/>
<path d="M495.93 150.144C494.733 149.437 493.153 149.872 492.446 151.069C491.738 152.266 492.173 153.843 493.371 154.55C494.569 155.258 496.148 154.822 496.856 153.626C497.564 152.429 497.128 150.851 495.93 150.144Z" fill="#00F9FF"/>
<path d="M515.424 0V84.8096L482.264 103.904" stroke="#00F9FF" stroke-width="0.16" stroke-miterlimit="10"/>
<path d="M483.679 106.026C482.481 106.733 480.902 106.298 480.195 105.101C479.487 103.904 479.922 102.326 481.12 101.619C482.318 100.912 483.897 101.347 484.605 102.544C485.313 103.741 484.877 105.318 483.679 106.026Z" fill="#00F9FF"/>
<path d="M506.113 116.688L538.347 98.0288V20.944" stroke="#00F9FF" stroke-width="0.16" stroke-miterlimit="10"/>
<path d="M504.915 114.403C503.717 115.11 503.281 116.688 503.989 117.885C504.697 119.082 506.276 119.517 507.474 118.81C508.672 118.102 509.107 116.525 508.4 115.328C507.692 114.131 506.113 113.696 504.915 114.403Z" fill="#00F9FF"/>
<path d="M535.788 21.0528C535.788 19.6384 536.931 18.496 538.347 18.496C539.763 18.496 540.906 19.6384 540.906 21.0528C540.906 22.4672 539.763 23.6096 538.347 23.6096C536.931 23.6096 535.788 22.4672 535.788 21.0528Z" fill="#00F9FF"/>
<path d="M492.446 0V18.496L471.591 30.5184" stroke="#00F9FF" stroke-width="0.16" stroke-miterlimit="10"/>
<path d="M472.953 32.64C471.755 33.3472 470.176 32.912 469.468 31.7152C468.76 30.5184 469.196 28.9408 470.394 28.2336C471.591 27.5264 473.17 27.9616 473.878 29.1584C474.586 30.3552 474.151 31.9328 472.953 32.64Z" fill="#00F9FF"/>
<path d="M444.366 17.2448L423.403 5.2224L423.512 0" stroke="#00F9FF" stroke-width="0.16" stroke-miterlimit="10"/>
<path d="M443.005 19.4208C444.257 20.128 445.782 19.6928 446.49 18.496C447.198 17.2448 446.762 15.7216 445.564 15.0144C444.312 14.3072 442.787 14.7424 442.079 15.9392C441.372 17.1904 441.807 18.7136 443.005 19.4208Z" fill="#00F9FF"/>
<path d="M400.534 0L400.48 16.048" stroke="#00F9FF" stroke-width="0.16" stroke-miterlimit="10"/>
<path d="M403.039 15.9392C403.039 17.3536 401.895 18.496 400.48 18.496C399.064 18.496 397.921 17.3536 397.921 15.9392C397.921 14.5248 399.064 13.3824 400.48 13.3824C401.895 13.3824 403.039 14.5248 403.039 15.9392V15.9392Z" fill="#00F9FF"/>
<path d="M402.549 258.346L446.49 283.696V306" stroke="#00F9FF" stroke-width="0.16" stroke-miterlimit="10"/>
<path d="M403.965 256.224C402.767 255.517 401.188 255.952 400.48 257.149C399.772 258.346 400.207 259.923 401.405 260.63C402.603 261.338 404.182 260.902 404.89 259.706C405.598 258.509 405.162 256.931 403.965 256.224Z" fill="#00F9FF"/>
<path d="M379.625 271.565L423.458 296.915L423.512 306" stroke="#00F9FF" stroke-width="0.16" stroke-miterlimit="10"/>
<path d="M381.041 269.443C379.843 268.736 378.264 269.171 377.556 270.368C376.848 271.565 377.284 273.142 378.482 273.85C379.68 274.557 381.259 274.122 381.967 272.925C382.675 271.728 382.239 270.15 381.041 269.443Z" fill="#00F9FF"/>
<path d="M329.477 269.171L262.612 230.656L262.503 177.616L218.671 152.32" stroke="#00F9FF" stroke-width="0.16" stroke-miterlimit="10"/>
<path d="M328.061 271.293C329.259 272 330.838 271.565 331.546 270.368C332.254 269.171 331.818 267.594 330.62 266.886C329.422 266.179 327.843 266.614 327.136 267.811C326.428 269.008 326.863 270.586 328.061 271.293Z" fill="#00F9FF"/>
<path d="M217.473 154.605C216.275 153.898 215.84 152.32 216.548 151.123C217.255 149.926 218.834 149.491 220.032 150.198C221.23 150.906 221.666 152.483 220.958 153.68C220.25 154.877 218.671 155.312 217.473 154.605Z" fill="#00F9FF"/>
<path d="M264.681 149.872L308.568 124.576V73.9296" stroke="#00F9FF" stroke-width="0.16" stroke-miterlimit="10"/>
<path d="M263.538 147.587C262.34 148.294 261.904 149.872 262.612 151.069C263.32 152.266 264.899 152.701 266.097 151.994C267.295 151.286 267.731 149.709 267.023 148.512C266.315 147.315 264.736 146.88 263.538 147.587Z" fill="#00F9FF"/>
<path d="M306.009 74.0384C306.009 72.624 307.152 71.4816 308.568 71.4816C309.984 71.4816 311.127 72.624 311.127 74.0384C311.127 75.4528 309.984 76.5952 308.568 76.5952C307.152 76.5952 306.009 75.4528 306.009 74.0384Z" fill="#00F9FF"/>
<path d="M285.59 34.1632V111.901L239.526 137.85V241.482" stroke="#00F9FF" stroke-width="0.16" stroke-miterlimit="10"/>
<path d="M288.149 34.3264C288.149 32.912 287.006 31.7696 285.59 31.7696C284.175 31.7696 283.031 32.912 283.031 34.3264C283.031 35.7408 284.175 36.8832 285.59 36.8832C287.006 36.8832 288.149 35.7408 288.149 34.3264Z" fill="#00F9FF"/>
<path d="M242.085 241.318C242.085 242.733 240.941 243.875 239.526 243.875C238.11 243.875 236.966 242.733 236.966 241.318C236.966 239.904 238.11 238.762 239.526 238.762C240.941 238.762 242.085 239.904 242.085 241.318Z" fill="#00F9FF"/>
<path d="M354.524 0L354.469 18.496L310.583 43.792" stroke="#00F9FF" stroke-width="0.16" stroke-miterlimit="10"/>
<path d="M311.998 45.968C310.801 46.6752 309.221 46.24 308.514 45.0432C307.806 43.8464 308.241 42.2688 309.439 41.5616C310.637 40.8544 312.216 41.2896 312.924 42.4864C313.632 43.6832 313.196 45.2608 311.998 45.968Z" fill="#00F9FF"/>
<path d="M308.568 16.048V0" stroke="#00F9FF" stroke-width="0.16" stroke-miterlimit="10"/>
<path d="M306.009 15.9392C306.009 17.3536 307.152 18.496 308.568 18.496C309.984 18.496 311.127 17.3536 311.127 15.9392C311.127 14.5248 309.984 13.3824 308.568 13.3824C307.152 13.3824 306.009 14.5248 306.009 15.9392V15.9392Z" fill="#00F9FF"/>
<path d="M262.612 0L262.57 98.3552L227.183 124.576H69.0502" stroke="#00F9FF" stroke-width="0.16" stroke-miterlimit="10"/>
<path d="M68.47 126.957C67.0271 126.957 65.8616 125.794 65.8616 124.353C65.8616 122.913 67.0271 121.749 68.47 121.749C69.9129 121.749 71.0784 122.913 71.0784 124.353C71.0784 125.794 69.9129 126.957 68.47 126.957Z" fill="#00F9FF"/>
<path d="M239.634 0V58.208L218.671 70.3392" stroke="#00F9FF" stroke-width="0.16" stroke-miterlimit="10"/>
<path d="M220.032 72.4608C218.834 73.168 217.255 72.7328 216.548 71.536C215.84 70.3392 216.275 68.7616 217.473 68.0544C218.671 67.3472 220.25 67.7824 220.958 68.9792C221.666 70.176 221.23 71.7536 220.032 72.4608Z" fill="#00F9FF"/>
<path d="M264.627 258.346L331.546 296.915V306" stroke="#00F9FF" stroke-width="0.16" stroke-miterlimit="10"/>
<path d="M266.043 256.224C264.845 255.517 263.266 255.952 262.558 257.149C261.85 258.346 262.286 259.923 263.483 260.63C264.681 261.338 266.26 260.902 266.968 259.706C267.676 258.509 267.241 256.931 266.043 256.224Z" fill="#00F9FF"/>
<path d="M285.59 306V296.915L241.649 272.218" stroke="#00F9FF" stroke-width="0.16" stroke-miterlimit="10"/>
<path d="M240.506 274.502C239.253 273.795 238.818 272.272 239.526 271.021C240.233 269.77 241.758 269.334 243.01 270.042C244.263 270.749 244.698 272.272 243.99 273.523C243.283 274.774 241.758 275.21 240.506 274.502Z" fill="#00F9FF"/>
<path d="M536.224 149.926L517.547 139.59" stroke="#00F9FF" stroke-width="0.16" stroke-miterlimit="10"/>
<path d="M534.862 152.102C536.115 152.81 537.639 152.32 538.347 151.123C539.055 149.872 538.565 148.349 537.367 147.642C536.115 146.934 534.59 147.424 533.882 148.621C533.174 149.872 533.664 151.395 534.862 152.102Z" fill="#00F9FF"/>
<path d="M516.404 141.875C515.151 141.168 514.716 139.645 515.424 138.394C516.132 137.142 517.656 136.707 518.909 137.414C520.161 138.122 520.596 139.645 519.889 140.896C519.181 142.147 517.656 142.582 516.404 141.875Z" fill="#00F9FF"/>
</g>
<defs>
<radialGradient id="paint0_radial_353_2217" cx="0" cy="0" r="1" gradientUnits="userSpaceOnUse" gradientTransform="translate(492.446 230.928) rotate(180) scale(32.67 32.64)">
<stop/>
<stop offset="0.25" stop-color="#000202"/>
<stop offset="0.38" stop-color="#00090A"/>
<stop offset="0.49" stop-color="#001518"/>
<stop offset="0.59" stop-color="#00272B"/>
<stop offset="0.68" stop-color="#003E45"/>
<stop offset="0.76" stop-color="#005A64"/>
<stop offset="0.83" stop-color="#007C89"/>
<stop offset="0.9" stop-color="#00A3B4"/>
<stop offset="0.97" stop-color="#00CEE4"/>
<stop offset="1" stop-color="#00E7FF"/>
</radialGradient>
<radialGradient id="paint1_radial_353_2217" cx="0" cy="0" r="1" gradientUnits="userSpaceOnUse" gradientTransform="translate(446.49 230.928) rotate(180) scale(32.67 32.64)">
<stop/>
<stop offset="0.25" stop-color="#000202"/>
<stop offset="0.38" stop-color="#00090A"/>
<stop offset="0.49" stop-color="#001518"/>
<stop offset="0.59" stop-color="#00272B"/>
<stop offset="0.68" stop-color="#003E45"/>
<stop offset="0.76" stop-color="#005A64"/>
<stop offset="0.83" stop-color="#007C89"/>
<stop offset="0.9" stop-color="#00A3B4"/>
<stop offset="0.97" stop-color="#00CEE4"/>
<stop offset="1" stop-color="#00E7FF"/>
</radialGradient>
<radialGradient id="paint2_radial_353_2217" cx="0" cy="0" r="1" gradientUnits="userSpaceOnUse" gradientTransform="translate(469.468 160.707) rotate(180) scale(41.1097 25.0539)">
<stop offset="0.35"/>
<stop offset="0.51" stop-color="#000202"/>
<stop offset="0.6" stop-color="#00090A"/>
<stop offset="0.67" stop-color="#001518"/>
<stop offset="0.73" stop-color="#00272B"/>
<stop offset="0.79" stop-color="#003E45"/>
<stop offset="0.84" stop-color="#005A64"/>
<stop offset="0.89" stop-color="#007C89"/>
<stop offset="0.94" stop-color="#00A3B4"/>
<stop offset="0.98" stop-color="#00CEE4"/>
<stop offset="1" stop-color="#00E7FF"/>
</radialGradient>
<radialGradient id="paint3_radial_353_2217" cx="0" cy="0" r="1" gradientUnits="userSpaceOnUse" gradientTransform="translate(351.999 206.295) rotate(180) scale(32.67 32.64)">
<stop/>
<stop offset="0.25" stop-color="#000202"/>
<stop offset="0.38" stop-color="#00090A"/>
<stop offset="0.49" stop-color="#001518"/>
<stop offset="0.59" stop-color="#00272B"/>
<stop offset="0.68" stop-color="#003E45"/>
<stop offset="0.76" stop-color="#005A64"/>
<stop offset="0.83" stop-color="#007C89"/>
<stop offset="0.9" stop-color="#00A3B4"/>
<stop offset="0.97" stop-color="#00CEE4"/>
<stop offset="1" stop-color="#00E7FF"/>
</radialGradient>
<radialGradient id="paint4_radial_353_2217" cx="0" cy="0" r="1" gradientUnits="userSpaceOnUse" gradientTransform="translate(306.043 206.295) rotate(180) scale(32.67 32.64)">
<stop/>
<stop offset="0.25" stop-color="#000202"/>
<stop offset="0.38" stop-color="#00090A"/>
<stop offset="0.49" stop-color="#001518"/>
<stop offset="0.59" stop-color="#00272B"/>
<stop offset="0.68" stop-color="#003E45"/>
<stop offset="0.76" stop-color="#005A64"/>
<stop offset="0.83" stop-color="#007C89"/>
<stop offset="0.9" stop-color="#00A3B4"/>
<stop offset="0.97" stop-color="#00CEE4"/>
<stop offset="1" stop-color="#00E7FF"/>
</radialGradient>
<radialGradient id="paint5_radial_353_2217" cx="0" cy="0" r="1" gradientUnits="userSpaceOnUse" gradientTransform="translate(329.021 136.073) rotate(180) scale(41.1097 25.0539)">
<stop offset="0.35"/>
<stop offset="0.51" stop-color="#000202"/>
<stop offset="0.6" stop-color="#00090A"/>
<stop offset="0.67" stop-color="#001518"/>
<stop offset="0.73" stop-color="#00272B"/>
<stop offset="0.79" stop-color="#003E45"/>
<stop offset="0.84" stop-color="#005A64"/>
<stop offset="0.89" stop-color="#007C89"/>
<stop offset="0.94" stop-color="#00A3B4"/>
<stop offset="0.98" stop-color="#00CEE4"/>
<stop offset="1" stop-color="#00E7FF"/>
</radialGradient>
<radialGradient id="paint6_radial_353_2217" cx="0" cy="0" r="1" gradientUnits="userSpaceOnUse" gradientTransform="translate(446.49 98.3552) rotate(180) scale(32.67 32.64)">
<stop/>
<stop offset="0.25" stop-color="#000202"/>
<stop offset="0.38" stop-color="#00090A"/>
<stop offset="0.49" stop-color="#001518"/>
<stop offset="0.59" stop-color="#00272B"/>
<stop offset="0.68" stop-color="#003E45"/>
<stop offset="0.76" stop-color="#005A64"/>
<stop offset="0.83" stop-color="#007C89"/>
<stop offset="0.9" stop-color="#00A3B4"/>
<stop offset="0.97" stop-color="#00CEE4"/>
<stop offset="1" stop-color="#00E7FF"/>
</radialGradient>
<radialGradient id="paint7_radial_353_2217" cx="0" cy="0" r="1" gradientUnits="userSpaceOnUse" gradientTransform="translate(400.534 98.3552) rotate(180) scale(32.67 32.64)">
<stop/>
<stop offset="0.25" stop-color="#000202"/>
<stop offset="0.38" stop-color="#00090A"/>
<stop offset="0.49" stop-color="#001518"/>
<stop offset="0.59" stop-color="#00272B"/>
<stop offset="0.68" stop-color="#003E45"/>
<stop offset="0.76" stop-color="#005A64"/>
<stop offset="0.83" stop-color="#007C89"/>
<stop offset="0.9" stop-color="#00A3B4"/>
<stop offset="0.97" stop-color="#00CEE4"/>
<stop offset="1" stop-color="#00E7FF"/>
</radialGradient>
<radialGradient id="paint8_radial_353_2217" cx="0" cy="0" r="1" gradientUnits="userSpaceOnUse" gradientTransform="translate(423.512 28.7673) rotate(180) scale(41.1097 25.0539)">
<stop offset="0.35"/>
<stop offset="0.51" stop-color="#000202"/>
<stop offset="0.6" stop-color="#00090A"/>
<stop offset="0.67" stop-color="#001518"/>
<stop offset="0.73" stop-color="#00272B"/>
<stop offset="0.79" stop-color="#003E45"/>
<stop offset="0.84" stop-color="#005A64"/>
<stop offset="0.89" stop-color="#007C89"/>
<stop offset="0.94" stop-color="#00A3B4"/>
<stop offset="0.98" stop-color="#00CEE4"/>
<stop offset="1" stop-color="#00E7FF"/>
</radialGradient>
<clipPath id="clip0_353_2217">
<rect width="544.5" height="306" fill="white" transform="matrix(-1 0 0 1 544.5 0)"/>
</clipPath>
</defs>
</svg>
