<svg width="1000" height="563" viewBox="0 0 1000 563" fill="none" xmlns="http://www.w3.org/2000/svg">
<g clip-path="url(#clip0_2_369)">
<g opacity="0.05">
<path d="M989.889 0V563" stroke="#00E1FF" stroke-width="0.16" stroke-miterlimit="10"/>
<path d="M947.547 0V563" stroke="#00E1FF" stroke-width="0.16" stroke-miterlimit="10"/>
<path d="M905.304 0V563" stroke="#00E1FF" stroke-width="0.16" stroke-miterlimit="10"/>
<path d="M863.062 0V563" stroke="#00E1FF" stroke-width="0.16" stroke-miterlimit="10"/>
<path d="M820.82 0V563" stroke="#00E1FF" stroke-width="0.16" stroke-miterlimit="10"/>
<path d="M778.578 0V563" stroke="#00E1FF" stroke-width="0.16" stroke-miterlimit="10"/>
<path d="M736.336 0V563" stroke="#00E1FF" stroke-width="0.16" stroke-miterlimit="10"/>
<path d="M693.993 0V563" stroke="#00E1FF" stroke-width="0.16" stroke-miterlimit="10"/>
<path d="M651.751 0V563" stroke="#00E1FF" stroke-width="0.16" stroke-miterlimit="10"/>
<path d="M609.509 0V563" stroke="#00E1FF" stroke-width="0.16" stroke-miterlimit="10"/>
<path d="M567.267 0V563" stroke="#00E1FF" stroke-width="0.16" stroke-miterlimit="10"/>
<path d="M525.024 0V563" stroke="#00E1FF" stroke-width="0.16" stroke-miterlimit="10"/>
<path d="M482.782 0V563" stroke="#00E1FF" stroke-width="0.16" stroke-miterlimit="10"/>
<path d="M440.54 0V563" stroke="#00E1FF" stroke-width="0.16" stroke-miterlimit="10"/>
<path d="M398.198 0V563" stroke="#00E1FF" stroke-width="0.16" stroke-miterlimit="10"/>
<path d="M398.098 34.0302L451.051 3.50311" stroke="#00E1FF" stroke-width="0.16" stroke-miterlimit="10"/>
<path d="M398.098 82.8736L535.535 3.50311" stroke="#00E1FF" stroke-width="0.16" stroke-miterlimit="10"/>
<path d="M398.098 131.617L620.019 3.50311" stroke="#00E1FF" stroke-width="0.16" stroke-miterlimit="10"/>
<path d="M398.098 180.36L704.604 3.50311" stroke="#00E1FF" stroke-width="0.16" stroke-miterlimit="10"/>
<path d="M398.098 229.204L789.088 3.50311" stroke="#00E1FF" stroke-width="0.16" stroke-miterlimit="10"/>
<path d="M398.098 277.947L876.876 1.60144" stroke="#00E1FF" stroke-width="0.16" stroke-miterlimit="10"/>
<path d="M398.098 326.79L958.157 3.50311" stroke="#00E1FF" stroke-width="0.16" stroke-miterlimit="10"/>
<path d="M398.098 375.534L989.689 34.0303" stroke="#00E1FF" stroke-width="0.16" stroke-miterlimit="10"/>
<path d="M398.098 424.377L989.689 82.8736" stroke="#00E1FF" stroke-width="0.16" stroke-miterlimit="10"/>
<path d="M398.098 473.12L989.689 131.617" stroke="#00E1FF" stroke-width="0.16" stroke-miterlimit="10"/>
<path d="M398.098 521.964L989.689 180.36" stroke="#00E1FF" stroke-width="0.16" stroke-miterlimit="10"/>
<path d="M416.016 560.398L989.689 229.204" stroke="#00E1FF" stroke-width="0.16" stroke-miterlimit="10"/>
<path d="M500.5 560.398L989.689 277.947" stroke="#00E1FF" stroke-width="0.16" stroke-miterlimit="10"/>
<path d="M587.086 559.197L989.689 326.79" stroke="#00E1FF" stroke-width="0.16" stroke-miterlimit="10"/>
<path d="M671.571 559.197L989.689 375.534" stroke="#00E1FF" stroke-width="0.16" stroke-miterlimit="10"/>
<path d="M756.155 559.197L989.689 424.377" stroke="#00E1FF" stroke-width="0.16" stroke-miterlimit="10"/>
<path d="M840.64 559.197L989.689 473.12" stroke="#00E1FF" stroke-width="0.16" stroke-miterlimit="10"/>
</g>
<path d="M609.509 253.926L525.625 302.369L609.509 350.812L693.393 302.369L609.509 253.926ZM609.509 253.525L693.993 302.268L609.509 351.012L525.024 302.268L609.509 253.525Z" fill="#00E7FF"/>
<path style="mix-blend-mode:screen" opacity="0.5" d="M693.993 302.268V400.956L609.509 449.799V351.112L693.993 302.268Z" fill="url(#paint0_radial_2_369)"/>
<path d="M693.693 302.869L609.809 351.312V449.199L693.693 400.756V302.869ZM693.993 302.268V400.956L609.509 449.699V351.012L693.993 302.268Z" fill="#00E7FF"/>
<path style="mix-blend-mode:screen" opacity="0.3" d="M609.509 351.112L525.024 302.268V400.956L609.509 449.799V351.112Z" fill="url(#paint1_radial_2_369)"/>
<path d="M525.325 302.869V400.756L609.209 449.199V351.312L525.325 302.869ZM525.024 302.268L609.509 351.012V449.699L525.024 400.956V302.268Z" fill="#00E7FF"/>
<path style="mix-blend-mode:screen" opacity="0.3" d="M693.993 400.956L609.509 449.799L525.024 400.956L609.509 352.213L693.993 400.956Z" fill="url(#paint2_radial_2_369)"/>
<path d="M609.509 352.613L525.625 401.056L609.509 449.499L693.393 401.056L609.509 352.613ZM609.509 352.213L693.993 400.956L609.509 449.699L525.024 400.956L609.509 352.213Z" fill="#00E7FF"/>
<path d="M863.062 302.769L779.178 351.212L863.062 399.655L946.946 351.212L863.062 302.769ZM863.062 302.369L947.547 351.112L863.062 399.855L778.578 351.112L863.062 302.369Z" fill="#00E7FF"/>
<path style="mix-blend-mode:screen" opacity="0.5" d="M947.547 351.112V449.799L863.062 498.643V399.955L947.547 351.112Z" fill="url(#paint3_radial_2_369)"/>
<path d="M947.246 351.712L863.362 400.155V498.042L947.246 449.599V351.712ZM947.547 351.112V449.799L863.062 498.543V399.855L947.547 351.112Z" fill="#00E7FF"/>
<path style="mix-blend-mode:screen" opacity="0.3" d="M863.062 399.955L778.578 351.112V449.799L863.062 498.643V399.955Z" fill="url(#paint4_radial_2_369)"/>
<path d="M778.878 351.712V449.599L862.762 498.042V400.155L778.878 351.712ZM778.578 351.112L863.062 399.855V498.543L778.578 449.799V351.112Z" fill="#00E7FF"/>
<path style="mix-blend-mode:screen" opacity="0.3" d="M947.547 449.799L863.062 498.643L778.578 449.799L863.062 401.056L947.547 449.799Z" fill="url(#paint5_radial_2_369)"/>
<path d="M863.062 401.457L779.178 449.9L863.062 498.343L946.946 449.9L863.062 401.457ZM863.062 401.056L947.547 449.799L863.062 498.543L778.578 449.799L863.062 401.056Z" fill="#00E7FF"/>
<path d="M778.578 58.7522L694.694 107.195L778.578 155.638L862.462 107.195L778.578 58.7522ZM778.578 58.3518L863.062 107.095L778.578 155.838L694.093 107.095L778.578 58.3518Z" fill="#00E7FF"/>
<path style="mix-blend-mode:screen" opacity="0.5" d="M863.062 107.195V205.883L778.578 254.626V156.039L863.062 107.195Z" fill="url(#paint6_radial_2_369)"/>
<path d="M862.762 107.796L778.878 156.239V254.126L862.762 205.683V107.796ZM863.062 107.195V205.883L778.578 254.626V156.039L863.062 107.295V107.195Z" fill="#00E7FF"/>
<path style="mix-blend-mode:screen" opacity="0.3" d="M778.578 156.039L693.993 107.195V205.883L778.578 254.626V156.039Z" fill="url(#paint7_radial_2_369)"/>
<path d="M694.394 107.796V205.683L778.278 254.126V156.139L694.394 107.696M694.093 107.095L778.578 155.838V254.526L694.093 205.783V107.195V107.095Z" fill="#00E7FF"/>
<path style="mix-blend-mode:screen" opacity="0.3" d="M863.062 205.883L778.578 254.626L693.993 205.883L778.578 157.039L863.062 205.883Z" fill="url(#paint8_radial_2_369)"/>
<path d="M778.578 157.44L694.694 205.883L778.578 254.326L862.462 205.883L778.578 157.44ZM778.578 157.039L863.062 205.783L778.578 254.526L694.093 205.783L778.578 157.039Z" fill="#00E7FF"/>
<path d="M693.993 0V58.4519L651.751 82.7735V175.956" stroke="#00F9FF" stroke-width="0.16" stroke-miterlimit="10"/>
<path d="M651.751 180.36C649.153 180.36 647.046 178.254 647.046 175.656C647.046 173.058 649.153 170.952 651.751 170.952C654.349 170.952 656.456 173.058 656.456 175.656C656.456 178.254 654.349 180.36 651.751 180.36Z" fill="#00F9FF"/>
<path d="M609.509 111.699V204.682L690.189 251.323" stroke="#00F9FF" stroke-width="0.16" stroke-miterlimit="10"/>
<path d="M614.214 111.899C614.214 109.297 612.111 107.195 609.509 107.195C606.906 107.195 604.804 109.297 604.804 111.899C604.804 114.502 606.906 116.604 609.509 116.604C612.111 116.604 614.214 114.502 614.214 111.899Z" fill="#00F9FF"/>
<path d="M692.292 247.119C694.494 248.421 695.295 251.323 693.993 253.525C692.692 255.727 689.789 256.528 687.587 255.227C685.385 253.926 684.584 251.023 685.885 248.821C687.186 246.619 690.089 245.818 692.292 247.119Z" fill="#00F9FF"/>
<path d="M905.304 87.2775V229.204L824.724 275.645" stroke="#00F9FF" stroke-width="0.16" stroke-miterlimit="10"/>
<path d="M910.009 87.5778C910.009 84.9755 907.907 82.8736 905.304 82.8736C902.702 82.8736 900.6 84.9755 900.6 87.5778C900.6 90.1801 902.702 92.282 905.304 92.282C907.907 92.282 910.009 90.1801 910.009 87.5778Z" fill="#00F9FF"/>
<path d="M827.226 279.648C825.024 280.95 822.121 280.149 820.82 277.947C819.519 275.745 820.319 272.842 822.522 271.541C824.724 270.24 827.627 271.041 828.928 273.243C830.229 275.445 829.429 278.347 827.226 279.648Z" fill="#00F9FF"/>
<path d="M736.336 282.451V424.277L651.751 473.12V517.46" stroke="#00F9FF" stroke-width="0.16" stroke-miterlimit="10"/>
<path d="M741.04 282.651C741.04 280.049 738.938 277.947 736.336 277.947C733.733 277.947 731.631 280.049 731.631 282.651C731.631 285.253 733.733 287.355 736.336 287.355C738.938 287.355 741.04 285.253 741.04 282.651Z" fill="#00F9FF"/>
<path d="M656.456 517.259C656.456 519.862 654.354 521.964 651.751 521.964C649.148 521.964 647.046 519.862 647.046 517.259C647.046 514.657 649.148 512.555 651.751 512.555C654.354 512.555 656.456 514.657 656.456 517.259Z" fill="#00F9FF"/>
<path d="M909.208 280.249L989.689 326.79V473.12L905.304 521.964V563" stroke="#00F9FF" stroke-width="0.16" stroke-miterlimit="10"/>
<path d="M911.711 276.245C909.509 274.944 906.606 275.745 905.304 277.947C904.003 280.149 904.804 283.051 907.006 284.353C909.208 285.654 912.111 284.853 913.412 282.651C914.714 280.449 913.913 277.546 911.711 276.245Z" fill="#00F9FF"/>
<path d="M947.547 0V156.039L886.586 191.17" stroke="#00F9FF" stroke-width="0.16" stroke-miterlimit="10"/>
<path d="M889.188 195.073C886.986 196.374 884.083 195.574 882.782 193.372C881.481 191.17 882.281 188.267 884.484 186.966C886.686 185.665 889.589 186.466 890.89 188.668C892.191 190.87 891.39 193.772 889.188 195.073Z" fill="#00F9FF"/>
<path d="M930.429 214.691L989.689 180.36V38.5342" stroke="#00F9FF" stroke-width="0.16" stroke-miterlimit="10"/>
<path d="M928.227 210.487C926.025 211.788 925.224 214.691 926.526 216.893C927.827 219.095 930.73 219.895 932.932 218.594C935.134 217.293 935.935 214.39 934.634 212.188C933.332 209.986 930.429 209.186 928.227 210.487Z" fill="#00F9FF"/>
<path d="M984.984 38.7344C984.984 36.1321 987.086 34.0302 989.689 34.0302C992.291 34.0302 994.393 36.1321 994.393 38.7344C994.393 41.3367 992.291 43.4386 989.689 43.4386C987.086 43.4386 984.984 41.3367 984.984 38.7344Z" fill="#00F9FF"/>
<path d="M905.304 0V34.0302L866.966 56.1499" stroke="#00F9FF" stroke-width="0.16" stroke-miterlimit="10"/>
<path d="M869.469 60.0533C867.266 61.3545 864.364 60.5538 863.062 58.3518C861.761 56.1499 862.562 53.2473 864.764 51.9461C866.966 50.645 869.869 51.4457 871.17 53.6477C872.472 55.8496 871.671 58.7522 869.469 60.0533Z" fill="#00F9FF"/>
<path d="M816.916 31.7282L778.378 9.60853L778.578 0" stroke="#00F9FF" stroke-width="0.16" stroke-miterlimit="10"/>
<path d="M814.414 35.7317C816.716 37.0329 819.519 36.2322 820.82 34.0302C822.121 31.7282 821.32 28.9257 819.118 27.6245C816.816 26.3234 814.013 27.1241 812.712 29.3261C811.411 31.6281 812.211 34.4306 814.414 35.7317Z" fill="#00F9FF"/>
<path d="M736.336 0L736.235 29.5262" stroke="#00F9FF" stroke-width="0.16" stroke-miterlimit="10"/>
<path d="M740.94 29.3261C740.94 31.9284 738.838 34.0302 736.235 34.0302C733.633 34.0302 731.531 31.9284 731.531 29.3261C731.531 26.7238 733.633 24.6219 736.235 24.6219C738.838 24.6219 740.94 26.7238 740.94 29.3261Z" fill="#00F9FF"/>
<path d="M740.039 475.322L820.82 521.964V563" stroke="#00F9FF" stroke-width="0.16" stroke-miterlimit="10"/>
<path d="M742.642 471.419C740.44 470.118 737.537 470.918 736.235 473.12C734.934 475.322 735.735 478.225 737.937 479.526C740.139 480.827 743.042 480.026 744.344 477.824C745.645 475.622 744.844 472.72 742.642 471.419Z" fill="#00F9FF"/>
<path d="M697.897 499.644L778.478 546.285L778.578 563" stroke="#00F9FF" stroke-width="0.16" stroke-miterlimit="10"/>
<path d="M700.5 495.74C698.298 494.439 695.395 495.24 694.093 497.442C692.792 499.644 693.593 502.546 695.795 503.847C697.997 505.149 700.9 504.348 702.201 502.146C703.503 499.944 702.702 497.041 700.5 495.74Z" fill="#00F9FF"/>
<path d="M605.705 495.24L482.782 424.377L482.582 326.79L402.002 280.249" stroke="#00F9FF" stroke-width="0.16" stroke-miterlimit="10"/>
<path d="M603.102 499.143C605.305 500.444 608.208 499.644 609.509 497.442C610.81 495.24 610.009 492.337 607.807 491.036C605.605 489.735 602.702 490.536 601.401 492.738C600.099 494.94 600.9 497.842 603.102 499.143Z" fill="#00F9FF"/>
<path d="M399.799 284.453C397.597 283.151 396.796 280.249 398.098 278.047C399.399 275.845 402.302 275.044 404.504 276.345C406.706 277.647 407.507 280.549 406.206 282.751C404.904 284.953 402.002 285.754 399.799 284.453Z" fill="#00F9FF"/>
<path d="M486.586 275.745L567.267 229.204V136.021" stroke="#00F9FF" stroke-width="0.16" stroke-miterlimit="10"/>
<path d="M484.484 271.541C482.282 272.842 481.481 275.745 482.782 277.947C484.084 280.149 486.986 280.95 489.189 279.648C491.391 278.347 492.192 275.445 490.89 273.243C489.589 271.041 486.686 270.24 484.484 271.541Z" fill="#00F9FF"/>
<path d="M562.562 136.221C562.562 133.619 564.664 131.517 567.267 131.517C569.869 131.517 571.971 133.619 571.971 136.221C571.971 138.823 569.869 140.925 567.267 140.925C564.664 140.925 562.562 138.823 562.562 136.221Z" fill="#00F9FF"/>
<path d="M525.024 62.8558V205.883L440.34 253.625V444.295" stroke="#00F9FF" stroke-width="0.16" stroke-miterlimit="10"/>
<path d="M529.729 63.1561C529.729 60.5538 527.627 58.4519 525.025 58.4519C522.422 58.4519 520.32 60.5538 520.32 63.1561C520.32 65.7584 522.422 67.8603 525.025 67.8603C527.627 67.8603 529.729 65.7584 529.729 63.1561Z" fill="#00F9FF"/>
<path d="M445.045 443.994C445.045 446.597 442.942 448.699 440.34 448.699C437.737 448.699 435.635 446.597 435.635 443.994C435.635 441.392 437.737 439.29 440.34 439.29C442.942 439.29 445.045 441.392 445.045 443.994Z" fill="#00F9FF"/>
<path d="M651.751 0L651.651 34.0302L570.97 80.5716" stroke="#00F9FF" stroke-width="0.16" stroke-miterlimit="10"/>
<path d="M573.573 84.5751C571.371 85.8763 568.468 85.0756 567.167 82.8736C565.865 80.6717 566.666 77.7691 568.868 76.4679C571.07 75.1668 573.973 75.9675 575.275 78.1694C576.576 80.3714 575.775 83.274 573.573 84.5751Z" fill="#00F9FF"/>
<path d="M567.267 29.5262V0" stroke="#00F9FF" stroke-width="0.16" stroke-miterlimit="10"/>
<path d="M562.562 29.3261C562.562 31.9284 564.664 34.0302 567.267 34.0302C569.869 34.0302 571.971 31.9284 571.971 29.3261C571.971 26.7238 569.869 24.6219 567.267 24.6219C564.664 24.6219 562.562 26.7238 562.562 29.3261Z" fill="#00F9FF"/>
<path d="M482.782 0L482.705 180.961L417.65 229.204H126.941" stroke="#00F9FF" stroke-width="0.16" stroke-miterlimit="10"/>
<path d="M125.874 233.585C123.221 233.585 121.079 231.444 121.079 228.794C121.079 226.143 123.221 224.002 125.874 224.002C128.527 224.002 130.669 226.143 130.669 228.794C130.669 231.444 128.527 233.585 125.874 233.585Z" fill="#00F9FF"/>
<path d="M440.54 0V107.095L402.002 129.415" stroke="#00F9FF" stroke-width="0.16" stroke-miterlimit="10"/>
<path d="M404.504 133.318C402.302 134.62 399.399 133.819 398.098 131.617C396.796 129.415 397.597 126.512 399.799 125.211C402.002 123.91 404.904 124.711 406.206 126.913C407.507 129.115 406.706 132.017 404.504 133.318Z" fill="#00F9FF"/>
<path d="M486.486 475.322L609.509 546.285V563" stroke="#00F9FF" stroke-width="0.16" stroke-miterlimit="10"/>
<path d="M489.089 471.419C486.886 470.118 483.983 470.918 482.682 473.12C481.381 475.322 482.182 478.225 484.384 479.526C486.586 480.827 489.489 480.026 490.79 477.824C492.092 475.622 491.291 472.72 489.089 471.419Z" fill="#00F9FF"/>
<path d="M525.024 563V546.285L444.244 500.845" stroke="#00F9FF" stroke-width="0.16" stroke-miterlimit="10"/>
<path d="M442.142 505.049C439.839 503.747 439.039 500.945 440.34 498.643C441.641 496.341 444.444 495.54 446.746 496.841C449.049 498.142 449.849 500.945 448.548 503.247C447.247 505.549 444.444 506.35 442.142 505.049Z" fill="#00F9FF"/>
<path d="M985.785 275.845L951.45 256.828" stroke="#00F9FF" stroke-width="0.16" stroke-miterlimit="10"/>
<path d="M983.282 279.849C985.585 281.15 988.387 280.249 989.689 278.047C990.99 275.745 990.089 272.942 987.887 271.641C985.585 270.34 982.782 271.241 981.48 273.443C980.179 275.745 981.08 278.547 983.282 279.849Z" fill="#00F9FF"/>
<path d="M949.348 261.032C947.046 259.731 946.245 256.928 947.547 254.626C948.848 252.324 951.651 251.523 953.953 252.825C956.255 254.126 957.056 256.928 955.755 259.23C954.453 261.532 951.651 262.333 949.348 261.032Z" fill="#00F9FF"/>
</g>
<defs>
<radialGradient id="paint0_radial_2_369" cx="0" cy="0" r="1" gradientUnits="userSpaceOnUse" gradientTransform="translate(651.751 376.034) rotate(180) scale(60.06 60.0533)">
<stop/>
<stop offset="0.25" stop-color="#000202"/>
<stop offset="0.38" stop-color="#00090A"/>
<stop offset="0.49" stop-color="#001518"/>
<stop offset="0.59" stop-color="#00272B"/>
<stop offset="0.68" stop-color="#003E45"/>
<stop offset="0.76" stop-color="#005A64"/>
<stop offset="0.83" stop-color="#007C89"/>
<stop offset="0.9" stop-color="#00A3B4"/>
<stop offset="0.97" stop-color="#00CEE4"/>
<stop offset="1" stop-color="#00E7FF"/>
</radialGradient>
<radialGradient id="paint1_radial_2_369" cx="0" cy="0" r="1" gradientUnits="userSpaceOnUse" gradientTransform="translate(567.267 5.00448) rotate(180) scale(60.06 60.0533)">
<stop/>
<stop offset="0.25" stop-color="#000202"/>
<stop offset="0.38" stop-color="#00090A"/>
<stop offset="0.49" stop-color="#001518"/>
<stop offset="0.59" stop-color="#00272B"/>
<stop offset="0.68" stop-color="#003E45"/>
<stop offset="0.76" stop-color="#005A64"/>
<stop offset="0.83" stop-color="#007C89"/>
<stop offset="0.9" stop-color="#00A3B4"/>
<stop offset="0.97" stop-color="#00CEE4"/>
<stop offset="1" stop-color="#00E7FF"/>
</radialGradient>
<radialGradient id="paint2_radial_2_369" cx="0" cy="0" r="1" gradientUnits="userSpaceOnUse" gradientTransform="translate(609.509 247.08) rotate(180) scale(75.5755 46.0959)">
<stop offset="0.35"/>
<stop offset="0.51" stop-color="#000202"/>
<stop offset="0.6" stop-color="#00090A"/>
<stop offset="0.67" stop-color="#001518"/>
<stop offset="0.73" stop-color="#00272B"/>
<stop offset="0.79" stop-color="#003E45"/>
<stop offset="0.84" stop-color="#005A64"/>
<stop offset="0.89" stop-color="#007C89"/>
<stop offset="0.94" stop-color="#00A3B4"/>
<stop offset="0.98" stop-color="#00CEE4"/>
<stop offset="1" stop-color="#00E7FF"/>
</radialGradient>
<radialGradient id="paint3_radial_2_369" cx="0" cy="0" r="1" gradientUnits="userSpaceOnUse" gradientTransform="translate(905.304 424.877) rotate(180) scale(60.06 60.0533)">
<stop/>
<stop offset="0.25" stop-color="#000202"/>
<stop offset="0.38" stop-color="#00090A"/>
<stop offset="0.49" stop-color="#001518"/>
<stop offset="0.59" stop-color="#00272B"/>
<stop offset="0.68" stop-color="#003E45"/>
<stop offset="0.76" stop-color="#005A64"/>
<stop offset="0.83" stop-color="#007C89"/>
<stop offset="0.9" stop-color="#00A3B4"/>
<stop offset="0.97" stop-color="#00CEE4"/>
<stop offset="1" stop-color="#00E7FF"/>
</radialGradient>
<radialGradient id="paint4_radial_2_369" cx="0" cy="0" r="1" gradientUnits="userSpaceOnUse" gradientTransform="translate(820.82 424.877) rotate(180) scale(60.06 60.0533)">
<stop/>
<stop offset="0.25" stop-color="#000202"/>
<stop offset="0.38" stop-color="#00090A"/>
<stop offset="0.49" stop-color="#001518"/>
<stop offset="0.59" stop-color="#00272B"/>
<stop offset="0.68" stop-color="#003E45"/>
<stop offset="0.76" stop-color="#005A64"/>
<stop offset="0.83" stop-color="#007C89"/>
<stop offset="0.9" stop-color="#00A3B4"/>
<stop offset="0.97" stop-color="#00CEE4"/>
<stop offset="1" stop-color="#00E7FF"/>
</radialGradient>
<radialGradient id="paint5_radial_2_369" cx="0" cy="0" r="1" gradientUnits="userSpaceOnUse" gradientTransform="translate(863.062 295.68) rotate(180) scale(75.5755 46.0959)">
<stop offset="0.35"/>
<stop offset="0.51" stop-color="#000202"/>
<stop offset="0.6" stop-color="#00090A"/>
<stop offset="0.67" stop-color="#001518"/>
<stop offset="0.73" stop-color="#00272B"/>
<stop offset="0.79" stop-color="#003E45"/>
<stop offset="0.84" stop-color="#005A64"/>
<stop offset="0.89" stop-color="#007C89"/>
<stop offset="0.94" stop-color="#00A3B4"/>
<stop offset="0.98" stop-color="#00CEE4"/>
<stop offset="1" stop-color="#00E7FF"/>
</radialGradient>
<radialGradient id="paint6_radial_2_369" cx="0" cy="0" r="1" gradientUnits="userSpaceOnUse" gradientTransform="translate(820.82 180.961) rotate(180) scale(60.06 60.0533)">
<stop/>
<stop offset="0.25" stop-color="#000202"/>
<stop offset="0.38" stop-color="#00090A"/>
<stop offset="0.49" stop-color="#001518"/>
<stop offset="0.59" stop-color="#00272B"/>
<stop offset="0.68" stop-color="#003E45"/>
<stop offset="0.76" stop-color="#005A64"/>
<stop offset="0.83" stop-color="#007C89"/>
<stop offset="0.9" stop-color="#00A3B4"/>
<stop offset="0.97" stop-color="#00CEE4"/>
<stop offset="1" stop-color="#00E7FF"/>
</radialGradient>
<radialGradient id="paint7_radial_2_369" cx="0" cy="0" r="1" gradientUnits="userSpaceOnUse" gradientTransform="translate(736.336 180.961) rotate(180) scale(60.06 60.0533)">
<stop/>
<stop offset="0.25" stop-color="#000202"/>
<stop offset="0.38" stop-color="#00090A"/>
<stop offset="0.49" stop-color="#001518"/>
<stop offset="0.59" stop-color="#00272B"/>
<stop offset="0.68" stop-color="#003E45"/>
<stop offset="0.76" stop-color="#005A64"/>
<stop offset="0.83" stop-color="#007C89"/>
<stop offset="0.9" stop-color="#00A3B4"/>
<stop offset="0.97" stop-color="#00CEE4"/>
<stop offset="1" stop-color="#00E7FF"/>
</radialGradient>
<radialGradient id="paint8_radial_2_369" cx="0" cy="0" r="1" gradientUnits="userSpaceOnUse" gradientTransform="translate(778.578 52.928) rotate(180) scale(75.5755 46.0959)">
<stop offset="0.35"/>
<stop offset="0.51" stop-color="#000202"/>
<stop offset="0.6" stop-color="#00090A"/>
<stop offset="0.67" stop-color="#001518"/>
<stop offset="0.73" stop-color="#00272B"/>
<stop offset="0.79" stop-color="#003E45"/>
<stop offset="0.84" stop-color="#005A64"/>
<stop offset="0.89" stop-color="#007C89"/>
<stop offset="0.94" stop-color="#00A3B4"/>
<stop offset="0.98" stop-color="#00CEE4"/>
<stop offset="1" stop-color="#00E7FF"/>
</radialGradient>
<clipPath id="clip0_2_369">
<rect width="1001" height="563" fill="white" transform="matrix(-1 0 0 1 1001 0)"/>
</clipPath>
</defs>
</svg>
