<svg width="924" height="703" viewBox="0 0 924 703" fill="none" xmlns="http://www.w3.org/2000/svg">
<g opacity="0.02">
<path d="M537.317 171.661L537.214 171.601L489.354 143.795V88.0628L489.46 88.0023L537.317 60.1968L537.422 60.2573L585.28 88.0628V143.797L585.176 143.858L537.317 171.661ZM489.769 143.555L537.317 171.179L584.867 143.555V88.3028L537.317 60.6788L489.769 88.3028V143.555Z" fill="url(#paint0_linear_2_38)"/>
<path d="M632.83 171.661L632.727 171.601L584.867 143.795V88.063L584.97 88.0024L632.83 60.1969L632.933 60.2574L680.792 88.063V143.797L680.687 143.858L632.83 171.661ZM585.28 143.555L632.83 171.179L680.378 143.555V88.3029L632.83 60.679L585.28 88.3029V143.555Z" fill="url(#paint1_linear_2_38)"/>
<path d="M728.34 171.661L728.235 171.601L680.378 143.795V88.063L680.481 88.0024L728.34 60.1969L728.444 60.2574L776.301 88.063V143.797L776.198 143.858L728.34 171.661ZM680.792 143.555L728.34 171.179L775.888 143.555V88.3029L728.34 60.679L680.792 88.3029V143.555Z" fill="url(#paint2_linear_2_38)"/>
<path d="M823.848 171.661L823.745 171.601L775.888 143.795V88.063L775.993 88.0025L823.848 60.197L823.953 60.2575L871.811 88.063V143.797L871.705 143.858L823.848 171.661ZM776.3 143.555L823.848 171.179L871.396 143.555V88.303L823.848 60.679L776.3 88.303V143.555Z" fill="url(#paint3_linear_2_38)"/>
<path d="M931.083 164.368L919.359 171.179L871.811 143.555V88.303L919.359 60.679L931.083 67.4904V67.0084L919.462 60.2575L919.359 60.197L871.499 88.0025L871.396 88.063V143.795L919.254 171.601L919.359 171.661L931.083 164.85V164.368Z" fill="url(#paint4_linear_2_38)"/>
<path d="M107.523 254.898L107.42 254.838L59.5603 227.032V171.3L59.6656 171.24L107.523 143.434L107.628 143.495L155.485 171.3V227.032L155.382 227.093L107.523 254.898ZM59.9749 226.79L107.523 254.414L155.071 226.79V171.54L107.523 143.916L59.9749 171.54V226.79Z" fill="url(#paint5_linear_2_38)"/>
<path d="M585.076 254.898L584.971 254.838L537.113 227.032V171.3L537.216 171.239L585.076 143.434L585.179 143.494L633.036 171.3V227.032L632.933 227.093L585.076 254.898ZM537.526 226.79L585.076 254.414L632.624 226.79V171.54L585.076 143.916L537.526 171.54V226.79Z" fill="url(#paint6_linear_2_38)"/>
<path d="M680.586 254.898L680.48 254.838L632.621 227.032V171.3L632.726 171.239L680.584 143.434L680.687 143.494L728.546 171.3V227.032L728.441 227.093L680.586 254.898ZM633.036 226.79L680.586 254.414L728.134 226.79V171.54L680.586 143.916L633.036 171.54V226.79Z" fill="url(#paint7_linear_2_38)"/>
<path d="M776.094 254.898L775.991 254.838L728.132 227.032V171.3L728.235 171.239L776.094 143.434L776.197 143.494L824.057 171.3V227.032L823.952 227.093L776.094 254.898ZM728.549 226.79L776.096 254.414L823.644 226.79V171.54L776.094 143.916L728.546 171.54V226.79H728.549Z" fill="url(#paint8_linear_2_38)"/>
<path d="M871.603 254.898L871.498 254.838L823.643 227.032V171.3L823.746 171.239L871.603 143.434L871.706 143.494L919.565 171.3V227.032L919.46 227.093L871.603 254.898ZM824.059 226.79L871.605 254.414L919.155 226.79V171.54L871.603 143.916L824.057 171.54V226.79H824.059Z" fill="url(#paint9_linear_2_38)"/>
<path d="M931.083 233.483L919.565 226.79V171.54L931.083 164.85V164.368L919.253 171.239L919.152 171.3V227.032L931.083 233.965V233.483Z" fill="url(#paint10_linear_2_38)"/>
<path d="M728.34 338.136L728.235 338.075L680.378 310.269V254.537L680.481 254.477L728.34 226.671L728.444 226.732L776.301 254.537V310.269L776.198 310.33L728.34 338.136ZM680.792 310.027L728.34 337.651L775.888 310.027V254.777L728.34 227.153L680.792 254.777V310.027Z" fill="url(#paint11_linear_2_38)"/>
<path d="M823.848 338.135L823.745 338.075L775.888 310.269V254.537L775.993 254.477L823.848 226.671L823.953 226.732L871.811 254.537V310.269L871.705 310.33L823.848 338.135ZM776.3 310.027L823.848 337.651L871.396 310.027V254.777L823.848 227.153L776.3 254.777V310.027Z" fill="url(#paint12_linear_2_38)"/>
<path d="M931.083 330.842L919.359 337.653L871.811 310.027V254.777L919.359 227.153L931.083 233.964V233.482L919.462 226.732L919.359 226.671L871.499 254.477L871.396 254.537V310.269L919.254 338.075L919.359 338.135L931.083 331.324V330.842Z" fill="url(#paint13_linear_2_38)"/>
<path d="M776.094 421.373L775.991 421.312L728.132 393.509V337.775L728.235 337.714L776.094 309.909L776.197 309.969L824.057 337.775V393.509L823.952 393.567L776.094 421.373ZM728.549 393.265L776.096 420.889L823.644 393.265V338.015L776.096 310.391L728.549 338.015V393.265Z" fill="url(#paint14_linear_2_38)"/>
<path d="M871.603 421.373L871.498 421.312L823.643 393.509V337.775L823.746 337.714L871.603 309.909L871.706 309.969L919.565 337.775V393.509L919.46 393.567L871.603 421.373ZM824.059 393.265L871.605 420.889L919.155 393.265V338.015L871.605 310.391L824.059 338.015V393.265Z" fill="url(#paint15_linear_2_38)"/>
<path d="M931.083 399.957L919.565 393.264V338.014L931.083 331.324V330.842L919.253 337.714L919.152 337.774V393.507L931.083 400.439V399.957Z" fill="url(#paint16_linear_2_38)"/>
<path d="M155.279 504.61L155.176 504.549L107.316 476.746V421.012L107.421 420.953L155.279 393.148L155.384 393.208L203.239 421.012V476.746L203.136 476.804L155.279 504.61ZM107.731 476.502L155.279 504.126L202.825 476.502V421.252L155.279 393.628L107.731 421.252V476.502Z" fill="url(#paint17_linear_2_38)"/>
<path d="M823.848 504.61L823.745 504.549L775.888 476.746V421.012L775.993 420.953L823.848 393.148L823.953 393.208L871.811 421.012V476.746L871.705 476.804L823.848 504.61ZM776.3 476.502L823.848 504.126L871.396 476.502V421.252L823.848 393.628L776.3 421.252V476.502Z" fill="url(#paint18_linear_2_38)"/>
<path d="M931.083 497.316L919.359 504.126L871.811 476.502V421.252L919.359 393.628L931.083 400.439V399.957L919.462 393.206L919.359 393.143L871.499 420.951L871.396 421.01V476.744L919.254 504.549L919.359 504.61L931.083 497.798V497.316Z" fill="url(#paint19_linear_2_38)"/>
<path d="M107.523 587.847L107.42 587.789L59.5603 559.983V504.251L59.6656 504.19L107.523 476.385L107.628 476.445L155.485 504.251V559.983L155.382 560.041L107.523 587.847ZM59.9749 559.739L107.523 587.365L155.071 559.739V504.489L107.523 476.865L59.9749 504.489V559.739Z" fill="url(#paint20_linear_2_38)"/>
<path d="M203.031 587.847L202.928 587.789L155.07 559.983V504.251L155.176 504.19L203.031 476.385L203.136 476.445L250.993 504.251V559.983L250.89 560.041L203.031 587.847ZM155.485 559.739L203.031 587.365L250.579 559.739V504.489L203.031 476.865L155.485 504.489V559.739Z" fill="url(#paint21_linear_2_38)"/>
<path d="M298.542 587.847L298.441 587.789L250.579 559.983V504.251L250.684 504.19L298.542 476.385L298.647 476.445L346.504 504.251V559.983L346.401 560.041L298.542 587.847ZM250.994 559.739L298.542 587.365L346.09 559.739V504.489L298.542 476.865L250.994 504.489V559.739Z" fill="url(#paint22_linear_2_38)"/>
<path d="M394.052 587.847L393.949 587.789L346.09 559.983V504.251L346.195 504.19L394.052 476.385L394.157 476.445L442.015 504.251V559.983L441.912 560.041L394.052 587.847ZM346.504 559.739L394.052 587.365L441.602 559.739V504.489L394.052 476.865L346.504 504.489V559.739Z" fill="url(#paint23_linear_2_38)"/>
<path d="M931.083 566.431L919.565 559.739V504.489L931.083 497.798V497.316L919.253 504.188L919.152 504.249V559.981L931.083 566.913V566.431Z" fill="url(#paint24_linear_2_38)"/>
<path d="M155.279 671.084L155.176 671.026L107.316 643.22V587.488L107.421 587.428L155.279 559.622L155.384 559.683L203.239 587.488V643.22L203.136 643.279L155.279 671.084ZM107.731 642.976L155.279 670.602L202.825 642.976V587.726L155.279 560.102L107.731 587.726V642.976Z" fill="url(#paint25_linear_2_38)"/>
<path d="M250.788 671.084L250.685 671.026L202.825 643.22V587.488L202.93 587.428L250.788 559.622L250.893 559.683L298.75 587.488V643.22L298.647 643.279L250.788 671.084ZM203.24 642.976L250.788 670.602L298.338 642.976V587.726L250.788 560.102L203.24 587.726V642.976Z" fill="url(#paint26_linear_2_38)"/>
<path d="M346.297 671.084L346.192 671.026L298.335 643.22V587.488L298.44 587.428L346.297 559.622L346.401 559.683L394.258 587.488V643.22L394.155 643.279L346.297 671.084ZM298.749 642.976L346.3 670.602L393.845 642.976V587.726L346.297 560.102L298.747 587.726V642.976H298.749Z" fill="url(#paint27_linear_2_38)"/>
<path d="M59.9749 702.184V670.963L107.523 643.339L155.071 670.963V702.184H155.485V670.723L107.626 642.915L107.523 642.855L59.6656 670.661L59.5603 670.723V702.184H59.9749Z" fill="url(#paint28_linear_2_38)"/>
<path d="M155.485 702.184V670.963L203.031 643.339L250.581 670.963V702.184H250.993V670.723L203.136 642.915L203.031 642.855L155.176 670.661L155.07 670.723V702.184H155.485Z" fill="url(#paint29_linear_2_38)"/>
<path d="M250.993 702.184V670.963L298.541 643.339L346.089 670.963V702.184H346.504V670.723L298.647 642.915L298.541 642.855L250.684 670.66L250.581 670.723V702.184H250.993Z" fill="url(#paint30_linear_2_38)"/>
<path d="M346.504 702.184V670.963L394.052 643.339L441.602 670.963V702.184H442.015V670.723L394.157 642.915L394.052 642.855L346.195 670.661L346.09 670.723V702.184H346.504Z" fill="url(#paint31_linear_2_38)"/>
<path d="M728.549 702.184V670.963L776.094 643.339L823.64 670.963V702.184H824.059V670.723L776.197 642.915L776.094 642.855L728.235 670.66L728.132 670.723V702.184H728.549Z" fill="url(#paint32_linear_2_38)"/>
<path d="M824.059 702.184V670.963L871.602 643.339L919.152 670.963V702.184H919.565V670.723L871.705 642.915L871.602 642.855L823.747 670.661L823.64 670.723V702.184H824.059Z" fill="url(#paint33_linear_2_38)"/>
<path d="M713.718 -29V18.28L652.564 53.8113L591.406 18.28V-29H589.245V19.5338L652.564 56.3232L715.881 19.5338V-29H713.718Z" fill="url(#paint34_linear_2_38)"/>
<path d="M838.195 -29V18.28L777.037 53.8113L715.881 18.28V-29H713.718V19.5338L777.037 56.3232L840.356 19.5338V-29H838.195Z" fill="url(#paint35_linear_2_38)"/>
<path d="M840.356 18.28V-29H838.195V19.5338L901.512 56.3232L931.083 39.1423V36.6304L901.512 53.8113L840.356 18.28Z" fill="url(#paint36_linear_2_38)"/>
<path d="M714.798 164.805L651.479 128.017V54.4384L714.798 17.6511L778.119 54.4384V128.015L714.798 164.805ZM653.644 126.759L714.8 162.293L775.958 126.759V55.6943L714.8 20.1608L653.644 55.6943V126.759Z" fill="url(#paint37_linear_2_38)"/>
<path d="M839.276 164.804L775.956 128.017V54.4381L839.276 17.6509L902.595 54.4381V128.015L839.276 164.804ZM778.119 126.759L839.276 162.292L900.432 126.759V55.6941L839.276 20.1606L778.119 55.6941V126.759Z" fill="url(#paint38_linear_2_38)"/>
<path d="M931.083 143.313L902.593 126.759V55.6941L931.083 39.1422V36.6304L900.43 54.4382V128.017L931.083 145.823V143.313Z" fill="url(#paint39_linear_2_38)"/>
<path d="M777.037 273.283L713.718 236.496V162.922L777.037 126.132L840.358 162.922V236.498L777.037 273.283ZM715.881 235.24L777.037 270.774L838.195 235.24V164.175L777.037 128.644L715.881 164.175V235.24Z" fill="url(#paint40_linear_2_38)"/>
<path d="M931.083 253.593L901.512 270.774L840.356 235.24V164.175L901.512 128.644L931.083 145.823V143.313L901.512 126.132L838.195 162.922V236.496L901.512 273.283L931.083 256.102V253.593Z" fill="url(#paint41_linear_2_38)"/>
<path d="M-0.00012207 253.238V255.748L29.1 272.657V343.721L-0.00012207 360.628V363.14L31.261 344.977V271.401L-0.00012207 253.238Z" fill="url(#paint42_linear_2_38)"/>
<path d="M92.422 381.765L29.1006 344.977V271.401L92.422 234.611L155.741 271.401V344.977L92.422 381.765ZM31.2616 343.722L92.422 379.255L153.578 343.722V272.657L92.422 237.125L31.2616 272.657V343.722Z" fill="url(#paint43_linear_2_38)"/>
<path d="M216.894 381.764L153.575 344.977V271.401L216.894 234.611L280.216 271.401V344.977L216.894 381.764ZM155.738 343.721L216.894 379.255L278.053 343.721V272.656L216.894 237.125L155.738 272.656V343.721Z" fill="url(#paint44_linear_2_38)"/>
<path d="M931.083 360.273L902.593 343.721V272.656L931.083 256.102V253.593L900.43 271.4V344.977L931.083 362.787V360.273Z" fill="url(#paint45_linear_2_38)"/>
<path d="M30.1805 343.094L-0.00012207 360.628V363.142L30.1805 345.604L91.3388 381.138V452.202L30.1805 487.734L-0.00012207 470.198V472.71L30.1805 490.244L93.4998 453.458V379.882L30.1805 343.094Z" fill="url(#paint46_linear_2_38)"/>
<path d="M154.657 490.244L91.3379 453.456V379.88L154.657 343.092L217.976 379.88V453.456L154.657 490.244ZM93.4989 452.202L154.657 487.736L215.815 452.202V381.138L154.657 345.604L93.4989 381.138V452.202Z" fill="url(#paint47_linear_2_38)"/>
<path d="M279.136 490.244L215.814 453.456V379.88L279.136 343.092L342.455 379.88V453.456L279.136 490.244ZM217.975 452.202L279.136 487.736L340.292 452.202V381.138L279.136 345.604L217.975 381.138V452.202Z" fill="url(#paint48_linear_2_38)"/>
<path d="M-0.00012207 470.198V472.71L29.1 489.617V560.681L-0.00012207 577.59V580.102L31.261 561.937V488.361L-0.00012207 470.198Z" fill="url(#paint49_linear_2_38)"/>
<path d="M92.422 598.725L29.1006 561.937V488.361L92.422 451.573L155.741 488.361V561.937L92.422 598.725ZM31.2616 560.681L92.422 596.215L153.578 560.681V489.616L92.422 454.083L31.2616 489.616V560.681Z" fill="url(#paint50_linear_2_38)"/>
<path d="M216.894 598.725L153.575 561.937V488.361L216.894 451.573L280.216 488.361V561.937L216.894 598.725ZM155.738 560.682L216.894 596.215L278.053 560.682V489.617L216.894 454.083L155.738 489.617V560.682Z" fill="url(#paint51_linear_2_38)"/>
<path d="M839.276 598.725L775.956 561.937V488.361L839.276 451.573L902.595 488.361V561.937L839.276 598.725ZM778.119 560.681L839.276 596.215L900.432 560.681V489.617L839.276 454.083L778.119 489.617V560.681Z" fill="url(#paint52_linear_2_38)"/>
<path d="M-0.000244141 689.67L21.5387 702.184H25.8606L-0.000244141 687.161V689.67Z" fill="url(#paint53_linear_2_38)"/>
<path d="M30.1805 560.055L-0.00012207 577.59V580.102L30.1805 562.564L91.3388 598.098V669.163L34.5025 702.184H38.8266L93.4998 670.418V596.842L30.1805 560.055Z" fill="url(#paint54_linear_2_38)"/>
<path d="M150.335 702.184L93.4989 669.163V598.098L154.657 562.564L215.813 598.098V669.163L158.977 702.184H163.301L217.974 670.419V596.842L154.657 560.055L91.3379 596.842V670.419L146.013 702.184H150.335Z" fill="url(#paint55_linear_2_38)"/>
<path d="M274.812 702.184L217.975 669.163V598.098L279.136 562.564L340.292 598.098V669.163L283.456 702.184H287.778L342.453 670.418V596.842L279.136 560.054L215.814 596.842V670.418L270.49 702.184H274.812Z" fill="url(#paint56_linear_2_38)"/>
<path d="M772.715 702.184L715.881 669.163V598.098L777.037 562.564L838.195 598.098V669.163L781.361 702.184H785.681L840.356 670.418V596.842L777.037 560.055L713.718 596.842V670.418L768.393 702.184H772.715Z" fill="url(#paint57_linear_2_38)"/>
<path d="M901.512 562.564L931.083 579.747V577.235L901.512 560.055L838.195 596.842V670.418L892.868 702.184H897.188L840.356 669.163V598.098L901.512 562.564Z" fill="url(#paint58_linear_2_38)"/>
<path d="M931.083 687.513L905.834 702.184H910.156L931.083 690.025V687.513Z" fill="url(#paint59_linear_2_38)"/>
<path d="M-0.00012207 687.161V689.67L21.5366 702.184H25.8629L-0.00012207 687.161Z" fill="url(#paint60_linear_2_38)"/>
<path d="M38.827 702.184L92.4196 671.045L146.012 702.184H150.339L92.4196 668.536L34.5029 702.184H38.827Z" fill="url(#paint61_linear_2_38)"/>
<path d="M163.302 702.184L216.897 671.045L270.487 702.184H274.811L216.897 668.536L158.978 702.184H163.302Z" fill="url(#paint62_linear_2_38)"/>
<path d="M287.777 702.184L341.372 671.045L394.965 702.184H399.286L341.372 668.536L283.455 702.184H287.777Z" fill="url(#paint63_linear_2_38)"/>
<path d="M412.255 702.184L465.85 671.045L519.442 702.184H523.764L465.85 668.536L407.931 702.184H412.255Z" fill="url(#paint64_linear_2_38)"/>
<path d="M536.73 702.184L590.325 671.045L643.918 702.184H648.24L590.325 668.536L532.406 702.184H536.73Z" fill="url(#paint65_linear_2_38)"/>
<path d="M661.208 702.184L714.799 671.045L768.393 702.184H772.718L714.799 668.536L656.882 702.184H661.208Z" fill="url(#paint66_linear_2_38)"/>
<path d="M785.681 702.184L839.278 671.045L892.869 702.184H897.191L839.278 668.536L781.359 702.184H785.681Z" fill="url(#paint67_linear_2_38)"/>
<path d="M931.083 687.515L905.834 702.184H910.156L931.083 690.025V687.515Z" fill="url(#paint68_linear_2_38)"/>
<path d="M155.279 174.878C157.176 174.878 158.714 173.33 158.714 171.421C158.714 169.512 157.176 167.965 155.279 167.965C153.382 167.965 151.844 169.512 151.844 171.421C151.844 173.33 153.382 174.878 155.279 174.878Z" fill="url(#paint69_linear_2_38)"/>
<path d="M441.808 61.0226C442.129 61.0226 442.39 60.7604 442.39 60.4368C442.39 60.1133 442.129 59.851 441.808 59.851C441.486 59.851 441.226 60.1133 441.226 60.4368C441.226 60.7604 441.486 61.0226 441.808 61.0226Z" fill="url(#paint70_linear_2_38)"/>
<path d="M489.564 94.8096C493.201 94.8096 496.148 91.8432 496.148 88.184C496.148 84.5249 493.201 81.5585 489.564 81.5585C485.928 81.5585 482.98 84.5249 482.98 88.184C482.98 91.8432 485.928 94.8096 489.564 94.8096Z" fill="url(#paint71_linear_2_38)"/>
<path d="M489.564 147.822C491.841 147.822 493.687 145.965 493.687 143.674C493.687 141.383 491.841 139.526 489.564 139.526C487.288 139.526 485.442 141.383 485.442 143.674C485.442 145.965 487.288 147.822 489.564 147.822Z" fill="url(#paint72_linear_2_38)"/>
<path d="M537.316 175.152C539.364 175.152 541.024 173.482 541.024 171.421C541.024 169.361 539.364 167.69 537.316 167.69C535.268 167.69 533.608 169.361 533.608 171.421C533.608 173.482 535.268 175.152 537.316 175.152Z" fill="url(#paint73_linear_2_38)"/>
<path d="M537.317 62.3607C538.372 62.3607 539.226 61.5003 539.226 60.439C539.226 59.3777 538.372 58.5173 537.317 58.5173C536.262 58.5173 535.407 59.3777 535.407 60.439C535.407 61.5003 536.262 62.3607 537.317 62.3607Z" fill="url(#paint74_linear_2_38)"/>
<path d="M585.074 91.9865C587.161 91.9865 588.853 90.2841 588.853 88.1842C588.853 86.0842 587.161 84.3818 585.074 84.3818C582.988 84.3818 581.296 86.0842 581.296 88.1842C581.296 90.2841 582.988 91.9865 585.074 91.9865Z" fill="url(#paint75_linear_2_38)"/>
<path d="M585.075 150.349C588.738 150.349 591.708 147.361 591.708 143.674C591.708 139.987 588.738 136.999 585.075 136.999C581.411 136.999 578.441 139.987 578.441 143.674C578.441 147.361 581.411 150.349 585.075 150.349Z" fill="url(#paint76_linear_2_38)"/>
<path d="M632.829 63.2534C634.374 63.2534 635.626 61.9933 635.626 60.4389C635.626 58.8845 634.374 57.6244 632.829 57.6244C631.284 57.6244 630.032 58.8845 630.032 60.4389C630.032 61.9933 631.284 63.2534 632.829 63.2534Z" fill="url(#paint77_linear_2_38)"/>
<path d="M680.583 93.3699C683.429 93.3699 685.736 91.0481 685.736 88.1841C685.736 85.32 683.429 82.9982 680.583 82.9982C677.737 82.9982 675.43 85.32 675.43 88.1841C675.43 91.0481 677.737 93.3699 680.583 93.3699Z" fill="url(#paint78_linear_2_38)"/>
<path d="M680.583 149.863C683.979 149.863 686.733 147.092 686.733 143.674C686.733 140.256 683.979 137.485 680.583 137.485C677.186 137.485 674.433 140.256 674.433 143.674C674.433 147.092 677.186 149.863 680.583 149.863Z" fill="url(#paint79_linear_2_38)"/>
<path d="M728.337 63.6708C730.111 63.6708 731.55 62.2229 731.55 60.4369C731.55 58.6509 730.111 57.2031 728.337 57.2031C726.562 57.2031 725.123 58.6509 725.123 60.4369C725.123 62.2229 726.562 63.6708 728.337 63.6708Z" fill="url(#paint80_linear_2_38)"/>
<path d="M776.093 91.904C778.135 91.904 779.79 90.2384 779.79 88.1838C779.79 86.1292 778.135 84.4636 776.093 84.4636C774.052 84.4636 772.396 86.1292 772.396 88.1838C772.396 90.2384 774.052 91.904 776.093 91.904Z" fill="url(#paint81_linear_2_38)"/>
<path d="M776.094 146.326C777.549 146.326 778.73 145.139 778.73 143.674C778.73 142.209 777.549 141.022 776.094 141.022C774.638 141.022 773.458 142.209 773.458 143.674C773.458 145.139 774.638 146.326 776.094 146.326Z" fill="url(#paint82_linear_2_38)"/>
<path d="M823.849 62.9376C825.221 62.9376 826.334 61.8178 826.334 60.4365C826.334 59.0552 825.221 57.9355 823.849 57.9355C822.476 57.9355 821.363 59.0552 821.363 60.4365C821.363 61.8178 822.476 62.9376 823.849 62.9376Z" fill="url(#paint83_linear_2_38)"/>
<path d="M871.601 92.1227C873.763 92.1227 875.515 90.3593 875.515 88.1841C875.515 86.0089 873.763 84.2455 871.601 84.2455C869.44 84.2455 867.688 86.0089 867.688 88.1841C867.688 90.3593 869.44 92.1227 871.601 92.1227Z" fill="url(#paint84_linear_2_38)"/>
<path d="M871.602 148.146C874.056 148.146 876.046 146.144 876.046 143.674C876.046 141.204 874.056 139.201 871.602 139.201C869.147 139.201 867.157 141.204 867.157 143.674C867.157 146.144 869.147 148.146 871.602 148.146Z" fill="url(#paint85_linear_2_38)"/>
<path d="M919.358 64.196C921.42 64.196 923.092 62.514 923.092 60.439C923.092 58.3641 921.42 56.6821 919.358 56.6821C917.296 56.6821 915.625 58.3641 915.625 60.439C915.625 62.514 917.296 64.196 919.358 64.196Z" fill="url(#paint86_linear_2_38)"/>
<path d="M107.523 259.079C109.949 259.079 111.915 257.1 111.915 254.658C111.915 252.217 109.949 250.238 107.523 250.238C105.096 250.238 103.13 252.217 103.13 254.658C103.13 257.1 105.096 259.079 107.523 259.079Z" fill="url(#paint87_linear_2_38)"/>
<path d="M59.7675 229.693C61.2943 229.693 62.5321 228.448 62.5321 226.911C62.5321 225.375 61.2943 224.129 59.7675 224.129C58.2406 224.129 57.0029 225.375 57.0029 226.911C57.0029 228.448 58.2406 229.693 59.7675 229.693Z" fill="url(#paint88_linear_2_38)"/>
<path d="M59.7676 173.533C60.9266 173.533 61.8663 172.587 61.8663 171.421C61.8663 170.255 60.9266 169.309 59.7676 169.309C58.6085 169.309 57.6689 170.255 57.6689 171.421C57.6689 172.587 58.6085 173.533 59.7676 173.533Z" fill="url(#paint89_linear_2_38)"/>
<path d="M107.521 150.137C111.069 150.137 113.944 147.244 113.944 143.674C113.944 140.104 111.069 137.211 107.521 137.211C103.974 137.211 101.099 140.104 101.099 143.674C101.099 147.244 103.974 150.137 107.521 150.137Z" fill="url(#paint90_linear_2_38)"/>
<path d="M155.278 232.343C158.259 232.343 160.676 229.911 160.676 226.911C160.676 223.911 158.259 221.479 155.278 221.479C152.297 221.479 149.88 223.911 149.88 226.911C149.88 229.911 152.297 232.343 155.278 232.343Z" fill="url(#paint91_linear_2_38)"/>
<path d="M537.316 231.924C540.068 231.924 542.298 229.68 542.298 226.911C542.298 224.143 540.068 221.898 537.316 221.898C534.565 221.898 532.335 224.143 532.335 226.911C532.335 229.68 534.565 231.924 537.316 231.924Z" fill="url(#paint92_linear_2_38)"/>
<path d="M632.829 173.985C634.236 173.985 635.376 172.837 635.376 171.421C635.376 170.005 634.236 168.857 632.829 168.857C631.422 168.857 630.281 170.005 630.281 171.421C630.281 172.837 631.422 173.985 632.829 173.985Z" fill="url(#paint93_linear_2_38)"/>
<path d="M632.829 231.665C635.438 231.665 637.553 229.537 637.553 226.911C637.553 224.286 635.438 222.158 632.829 222.158C630.22 222.158 628.106 224.286 628.106 226.911C628.106 229.537 630.22 231.665 632.829 231.665Z" fill="url(#paint94_linear_2_38)"/>
<path d="M680.583 257.659C682.23 257.659 683.565 256.315 683.565 254.658C683.565 253.001 682.23 251.658 680.583 251.658C678.937 251.658 677.602 253.001 677.602 254.658C677.602 256.315 678.937 257.659 680.583 257.659Z" fill="url(#paint95_linear_2_38)"/>
<path d="M728.337 178.444C732.192 178.444 735.317 175.3 735.317 171.421C735.317 167.542 732.192 164.398 728.337 164.398C724.483 164.398 721.358 167.542 721.358 171.421C721.358 175.3 724.483 178.444 728.337 178.444Z" fill="url(#paint96_linear_2_38)"/>
<path d="M823.848 176.631C826.707 176.631 829.025 174.298 829.025 171.421C829.025 168.544 826.707 166.212 823.848 166.212C820.989 166.212 818.671 168.544 818.671 171.421C818.671 174.298 820.989 176.631 823.848 176.631Z" fill="url(#paint97_linear_2_38)"/>
<path d="M871.602 259.849C874.45 259.849 876.76 257.525 876.76 254.658C876.76 251.792 874.45 249.468 871.602 249.468C868.754 249.468 866.444 251.792 866.444 254.658C866.444 257.525 868.754 259.849 871.602 259.849Z" fill="url(#paint98_linear_2_38)"/>
<path d="M823.851 233.031C827.209 233.031 829.932 230.291 829.932 226.911C829.932 223.531 827.209 220.791 823.851 220.791C820.492 220.791 817.77 223.531 817.77 226.911C817.77 230.291 820.492 233.031 823.851 233.031Z" fill="url(#paint99_linear_2_38)"/>
<path d="M919.359 176.987C922.413 176.987 924.89 174.495 924.89 171.421C924.89 168.347 922.413 165.855 919.359 165.855C916.304 165.855 913.827 168.347 913.827 171.421C913.827 174.495 916.304 176.987 919.359 176.987Z" fill="url(#paint100_linear_2_38)"/>
<path d="M585.073 258.651C587.264 258.651 589.04 256.863 589.04 254.658C589.04 252.453 587.264 250.666 585.073 250.666C582.882 250.666 581.105 252.453 581.105 254.658C581.105 256.863 582.882 258.651 585.073 258.651Z" fill="url(#paint101_linear_2_38)"/>
<path d="M728.337 230.13C730.104 230.13 731.536 228.689 731.536 226.911C731.536 225.134 730.104 223.692 728.337 223.692C726.571 223.692 725.139 225.134 725.139 226.911C725.139 228.689 726.571 230.13 728.337 230.13Z" fill="url(#paint102_linear_2_38)"/>
<path d="M776.094 258.106C777.986 258.106 779.52 256.562 779.52 254.658C779.52 252.754 777.986 251.21 776.094 251.21C774.202 251.21 772.668 252.754 772.668 254.658C772.668 256.562 774.202 258.106 776.094 258.106Z" fill="url(#paint103_linear_2_38)"/>
<path d="M919.358 341.311C921.232 341.311 922.752 339.782 922.752 337.896C922.752 336.009 921.232 334.48 919.358 334.48C917.483 334.48 915.964 336.009 915.964 337.896C915.964 339.782 917.483 341.311 919.358 341.311Z" fill="url(#paint104_linear_2_38)"/>
<path d="M871.601 314.595C874.042 314.595 876.02 312.604 876.02 310.148C876.02 307.693 874.042 305.702 871.601 305.702C869.161 305.702 867.183 307.693 867.183 310.148C867.183 312.604 869.161 314.595 871.601 314.595Z" fill="url(#paint105_linear_2_38)"/>
<path d="M919.358 231.165C921.693 231.165 923.586 229.261 923.586 226.911C923.586 224.562 921.693 222.657 919.358 222.657C917.023 222.657 915.131 224.562 915.131 226.911C915.131 229.261 917.023 231.165 919.358 231.165Z" fill="url(#paint106_linear_2_38)"/>
<path d="M107.523 426.195C110.301 426.195 112.554 423.929 112.554 421.133C112.554 418.337 110.301 416.07 107.523 416.07C104.745 416.07 102.492 418.337 102.492 421.133C102.492 423.929 104.745 426.195 107.523 426.195Z" fill="url(#paint107_linear_2_38)"/>
<path d="M59.7678 393.831C60.0122 393.831 60.2103 393.631 60.2103 393.385C60.2103 393.14 60.0122 392.94 59.7678 392.94C59.5234 392.94 59.3253 393.14 59.3253 393.385C59.3253 393.631 59.5234 393.831 59.7678 393.831Z" fill="url(#paint108_linear_2_38)"/>
<path d="M59.7681 341.931C61.9831 341.931 63.7786 340.124 63.7786 337.895C63.7786 335.667 61.9831 333.86 59.7681 333.86C57.5532 333.86 55.7576 335.667 55.7576 337.895C55.7576 340.124 57.5532 341.931 59.7681 341.931Z" fill="url(#paint109_linear_2_38)"/>
<path d="M107.523 313.629C109.433 313.629 110.981 312.07 110.981 310.148C110.981 308.226 109.433 306.668 107.523 306.668C105.613 306.668 104.064 308.226 104.064 310.148C104.064 312.07 105.613 313.629 107.523 313.629Z" fill="url(#paint110_linear_2_38)"/>
<path d="M203.033 424.28C204.76 424.28 206.16 422.871 206.16 421.133C206.16 419.395 204.76 417.986 203.033 417.986C201.306 417.986 199.905 419.395 199.905 421.133C199.905 422.871 201.306 424.28 203.033 424.28Z" fill="url(#paint111_linear_2_38)"/>
<path d="M680.583 315.285C683.402 315.285 685.687 312.985 685.687 310.149C685.687 307.312 683.402 305.012 680.583 305.012C677.765 305.012 675.479 307.312 675.479 310.149C675.479 312.985 677.765 315.285 680.583 315.285Z" fill="url(#paint112_linear_2_38)"/>
<path d="M728.337 343.226C731.264 343.226 733.637 340.839 733.637 337.893C733.637 334.948 731.264 332.56 728.337 332.56C725.411 332.56 723.038 334.948 723.038 337.893C723.038 340.839 725.411 343.226 728.337 343.226Z" fill="url(#paint113_linear_2_38)"/>
<path d="M776.094 424.356C777.862 424.356 779.296 422.913 779.296 421.133C779.296 419.353 777.862 417.91 776.094 417.91C774.325 417.91 772.891 419.353 772.891 421.133C772.891 422.913 774.325 424.356 776.094 424.356Z" fill="url(#paint114_linear_2_38)"/>
<path d="M728.338 397.583C730.641 397.583 732.509 395.704 732.509 393.385C732.509 391.067 730.641 389.187 728.338 389.187C726.034 389.187 724.166 391.067 724.166 393.385C724.166 395.704 726.034 397.583 728.338 397.583Z" fill="url(#paint115_linear_2_38)"/>
<path d="M776.094 314.627C778.552 314.627 780.544 312.622 780.544 310.148C780.544 307.675 778.552 305.669 776.094 305.669C773.635 305.669 771.643 307.675 771.643 310.148C771.643 312.622 773.635 314.627 776.094 314.627Z" fill="url(#paint116_linear_2_38)"/>
<path d="M823.85 399.747C827.342 399.747 830.172 396.899 830.172 393.386C830.172 389.872 827.342 387.024 823.85 387.024C820.359 387.024 817.528 389.872 817.528 393.386C817.528 396.899 820.359 399.747 823.85 399.747Z" fill="url(#paint117_linear_2_38)"/>
<path d="M871.602 424.725C873.574 424.725 875.174 423.116 875.174 421.13C875.174 419.145 873.574 417.536 871.602 417.536C869.629 417.536 868.029 419.145 868.029 421.13C868.029 423.116 869.629 424.725 871.602 424.725Z" fill="url(#paint118_linear_2_38)"/>
<path d="M823.85 344.188C827.305 344.188 830.105 341.37 830.105 337.893C830.105 334.417 827.305 331.599 823.85 331.599C820.395 331.599 817.595 334.417 817.595 337.893C817.595 341.37 820.395 344.188 823.85 344.188Z" fill="url(#paint119_linear_2_38)"/>
<path d="M919.358 396.241C920.925 396.241 922.196 394.963 922.196 393.386C922.196 391.808 920.925 390.53 919.358 390.53C917.791 390.53 916.521 391.808 916.521 393.386C916.521 394.963 917.791 396.241 919.358 396.241Z" fill="url(#paint120_linear_2_38)"/>
<path d="M155.279 399.514C158.643 399.514 161.369 396.77 161.369 393.386C161.369 390.001 158.643 387.257 155.279 387.257C151.916 387.257 149.19 390.001 149.19 393.386C149.19 396.77 151.916 399.514 155.279 399.514Z" fill="url(#paint121_linear_2_38)"/>
<path d="M203.03 481.83C205.888 481.83 208.205 479.499 208.205 476.623C208.205 473.747 205.888 471.415 203.03 471.415C200.172 471.415 197.856 473.747 197.856 476.623C197.856 479.499 200.172 481.83 203.03 481.83Z" fill="url(#paint122_linear_2_38)"/>
<path d="M298.54 479.096C299.898 479.096 300.998 477.989 300.998 476.623C300.998 475.257 299.898 474.15 298.54 474.15C297.183 474.15 296.083 475.257 296.083 476.623C296.083 477.989 297.183 479.096 298.54 479.096Z" fill="url(#paint123_linear_2_38)"/>
<path d="M346.297 509.156C348.923 509.156 351.053 507.013 351.053 504.37C351.053 501.727 348.923 499.584 346.297 499.584C343.67 499.584 341.541 501.727 341.541 504.37C341.541 507.013 343.67 509.156 346.297 509.156Z" fill="url(#paint124_linear_2_38)"/>
<path d="M394.051 481.244C396.588 481.244 398.644 479.175 398.644 476.623C398.644 474.07 396.588 472.001 394.051 472.001C391.515 472.001 389.459 474.07 389.459 476.623C389.459 479.175 391.515 481.244 394.051 481.244Z" fill="url(#paint125_linear_2_38)"/>
<path d="M441.808 509.781C444.778 509.781 447.185 507.358 447.185 504.37C447.185 501.382 444.778 498.959 441.808 498.959C438.839 498.959 436.432 501.382 436.432 504.37C436.432 507.358 438.839 509.781 441.808 509.781Z" fill="url(#paint126_linear_2_38)"/>
<path d="M107.522 590.722C109.233 590.722 110.62 589.326 110.62 587.605C110.62 585.883 109.233 584.488 107.522 584.488C105.812 584.488 104.425 585.883 104.425 587.605C104.425 589.326 105.812 590.722 107.522 590.722Z" fill="url(#paint127_linear_2_38)"/>
<path d="M59.7684 562.35C61.135 562.35 62.243 561.235 62.243 559.86C62.243 558.485 61.135 557.37 59.7684 557.37C58.4017 557.37 57.2938 558.485 57.2938 559.86C57.2938 561.235 58.4017 562.35 59.7684 562.35Z" fill="url(#paint128_linear_2_38)"/>
<path d="M59.7685 505.55C60.4162 505.55 60.9413 505.022 60.9413 504.37C60.9413 503.718 60.4162 503.19 59.7685 503.19C59.1207 503.19 58.5956 503.718 58.5956 504.37C58.5956 505.022 59.1207 505.55 59.7685 505.55Z" fill="url(#paint129_linear_2_38)"/>
<path d="M107.522 481.51C110.204 481.51 112.379 479.322 112.379 476.623C112.379 473.923 110.204 471.735 107.522 471.735C104.84 471.735 102.665 473.923 102.665 476.623C102.665 479.322 104.84 481.51 107.522 481.51Z" fill="url(#paint130_linear_2_38)"/>
<path d="M155.278 563.887C157.489 563.887 159.28 562.084 159.28 559.86C159.28 557.636 157.489 555.833 155.278 555.833C153.068 555.833 151.277 557.636 151.277 559.86C151.277 562.084 153.068 563.887 155.278 563.887Z" fill="url(#paint131_linear_2_38)"/>
<path d="M155.276 507.133C156.793 507.133 158.022 505.896 158.022 504.37C158.022 502.844 156.793 501.607 155.276 501.607C153.76 501.607 152.531 502.844 152.531 504.37C152.531 505.896 153.76 507.133 155.276 507.133Z" fill="url(#paint132_linear_2_38)"/>
<path d="M250.789 506.629C252.03 506.629 253.036 505.617 253.036 504.368C253.036 503.119 252.03 502.107 250.789 502.107C249.548 502.107 248.542 503.119 248.542 504.368C248.542 505.617 249.548 506.629 250.789 506.629Z" fill="url(#paint133_linear_2_38)"/>
<path d="M298.543 591.412C300.632 591.412 302.325 589.707 302.325 587.605C302.325 585.503 300.632 583.798 298.543 583.798C296.453 583.798 294.76 585.503 294.76 587.605C294.76 589.707 296.453 591.412 298.543 591.412Z" fill="url(#paint134_linear_2_38)"/>
<path d="M250.789 565.344C253.799 565.344 256.239 562.889 256.239 559.86C256.239 556.831 253.799 554.376 250.789 554.376C247.779 554.376 245.34 556.831 245.34 559.86C245.34 562.889 247.779 565.344 250.789 565.344Z" fill="url(#paint135_linear_2_38)"/>
<path d="M441.808 565.776C445.055 565.776 447.687 563.127 447.687 559.86C447.687 556.592 445.055 553.943 441.808 553.943C438.561 553.943 435.929 556.592 435.929 559.86C435.929 563.127 438.561 565.776 441.808 565.776Z" fill="url(#paint136_linear_2_38)"/>
<path d="M776.093 590.569C777.72 590.569 779.038 589.242 779.038 587.605C779.038 585.968 777.72 584.641 776.093 584.641C774.467 584.641 773.148 585.968 773.148 587.605C773.148 589.242 774.467 590.569 776.093 590.569Z" fill="url(#paint137_linear_2_38)"/>
<path d="M776.094 480.084C777.994 480.084 779.533 478.534 779.533 476.623C779.533 474.712 777.994 473.162 776.094 473.162C774.195 473.162 772.655 474.712 772.655 476.623C772.655 478.534 774.195 480.084 776.094 480.084Z" fill="url(#paint138_linear_2_38)"/>
<path d="M823.85 511.127C827.558 511.127 830.565 508.102 830.565 504.37C830.565 500.638 827.558 497.612 823.85 497.612C820.141 497.612 817.135 500.638 817.135 504.37C817.135 508.102 820.141 511.127 823.85 511.127Z" fill="url(#paint139_linear_2_38)"/>
<path d="M871.602 480.298C873.619 480.298 875.254 478.652 875.254 476.623C875.254 474.593 873.619 472.948 871.602 472.948C869.585 472.948 867.95 474.593 867.95 476.623C867.95 478.652 869.585 480.298 871.602 480.298Z" fill="url(#paint140_linear_2_38)"/>
<path d="M919.359 509.873C922.379 509.873 924.828 507.409 924.828 504.37C924.828 501.33 922.379 498.866 919.359 498.866C916.338 498.866 913.89 501.33 913.89 504.37C913.89 507.409 916.338 509.873 919.359 509.873Z" fill="url(#paint141_linear_2_38)"/>
<path d="M919.358 567.201C923.387 567.201 926.653 563.914 926.653 559.86C926.653 555.806 923.387 552.519 919.358 552.519C915.33 552.519 912.063 555.806 912.063 559.86C912.063 563.914 915.33 567.201 919.358 567.201Z" fill="url(#paint142_linear_2_38)"/>
<path d="M203.033 591.25C205.033 591.25 206.654 589.618 206.654 587.605C206.654 585.592 205.033 583.961 203.033 583.961C201.033 583.961 199.411 585.592 199.411 587.605C199.411 589.618 201.033 591.25 203.033 591.25Z" fill="url(#paint143_linear_2_38)"/>
<path d="M203.031 649.059C206.303 649.059 208.955 646.39 208.955 643.097C208.955 639.804 206.303 637.135 203.031 637.135C199.759 637.135 197.106 639.804 197.106 643.097C197.106 646.39 199.759 649.059 203.031 649.059Z" fill="url(#paint144_linear_2_38)"/>
<path d="M346.298 566.086C349.714 566.086 352.484 563.298 352.484 559.86C352.484 556.422 349.714 553.634 346.298 553.634C342.881 553.634 340.111 556.422 340.111 559.86C340.111 563.298 342.881 566.086 346.298 566.086Z" fill="url(#paint145_linear_2_38)"/>
<path d="M394.053 589.896C395.311 589.896 396.33 588.871 396.33 587.605C396.33 586.34 395.311 585.314 394.053 585.314C392.796 585.314 391.776 586.34 391.776 587.605C391.776 588.871 392.796 589.896 394.053 589.896Z" fill="url(#paint146_linear_2_38)"/>
<path d="M441.808 675.436C444.329 675.436 446.373 673.379 446.373 670.842C446.373 668.305 444.329 666.249 441.808 666.249C439.287 666.249 437.243 668.305 437.243 670.842C437.243 673.379 439.287 675.436 441.808 675.436Z" fill="url(#paint147_linear_2_38)"/>
<path d="M394.051 650.12C397.906 650.12 401.031 646.976 401.031 643.097C401.031 639.218 397.906 636.074 394.051 636.074C390.197 636.074 387.072 639.218 387.072 643.097C387.072 646.976 390.197 650.12 394.051 650.12Z" fill="url(#paint148_linear_2_38)"/>
<path d="M776.093 647.085C778.282 647.085 780.056 645.3 780.056 643.097C780.056 640.894 778.282 639.109 776.093 639.109C773.904 639.109 772.13 640.894 772.13 643.097C772.13 645.3 773.904 647.085 776.093 647.085Z" fill="url(#paint149_linear_2_38)"/>
<path d="M871.602 592.802C874.454 592.802 876.767 590.475 876.767 587.605C876.767 584.735 874.454 582.408 871.602 582.408C868.75 582.408 866.438 584.735 866.438 587.605C866.438 590.475 868.75 592.802 871.602 592.802Z" fill="url(#paint150_linear_2_38)"/>
<path d="M871.602 648.287C874.45 648.287 876.76 645.964 876.76 643.097C876.76 640.231 874.45 637.907 871.602 637.907C868.754 637.907 866.444 640.231 866.444 643.097C866.444 645.964 868.754 648.287 871.602 648.287Z" fill="url(#paint151_linear_2_38)"/>
<path d="M59.7676 671.763C60.273 671.763 60.6827 671.351 60.6827 670.842C60.6827 670.333 60.273 669.921 59.7676 669.921C59.2622 669.921 58.8525 670.333 58.8525 670.842C58.8525 671.351 59.2622 671.763 59.7676 671.763Z" fill="url(#paint152_linear_2_38)"/>
<path d="M107.522 646.093C109.166 646.093 110.499 644.752 110.499 643.097C110.499 641.442 109.166 640.101 107.522 640.101C105.878 640.101 104.545 641.442 104.545 643.097C104.545 644.752 105.878 646.093 107.522 646.093Z" fill="url(#paint153_linear_2_38)"/>
<path d="M155.279 678.49C159.476 678.49 162.879 675.066 162.879 670.842C162.879 666.618 159.476 663.194 155.279 663.194C151.081 663.194 147.679 666.618 147.679 670.842C147.679 675.066 151.081 678.49 155.279 678.49Z" fill="url(#paint154_linear_2_38)"/>
<path d="M250.789 675.462C253.324 675.462 255.379 673.393 255.379 670.842C255.379 668.291 253.324 666.223 250.789 666.223C248.253 666.223 246.198 668.291 246.198 670.842C246.198 673.393 248.253 675.462 250.789 675.462Z" fill="url(#paint155_linear_2_38)"/>
<path d="M298.543 648.354C301.429 648.354 303.768 646 303.768 643.097C303.768 640.194 301.429 637.84 298.543 637.84C295.658 637.84 293.319 640.194 293.319 643.097C293.319 646 295.658 648.354 298.543 648.354Z" fill="url(#paint156_linear_2_38)"/>
<path d="M346.297 676.856C349.598 676.856 352.273 674.163 352.273 670.842C352.273 667.521 349.598 664.828 346.297 664.828C342.997 664.828 340.321 667.521 340.321 670.842C340.321 674.163 342.997 676.856 346.297 676.856Z" fill="url(#paint157_linear_2_38)"/>
<path d="M728.337 674.971C730.603 674.971 732.44 673.122 732.44 670.842C732.44 668.562 730.603 666.713 728.337 666.713C726.071 666.713 724.234 668.562 724.234 670.842C724.234 673.122 726.071 674.971 728.337 674.971Z" fill="url(#paint158_linear_2_38)"/>
<path d="M823.848 675.41C826.355 675.41 828.387 673.365 828.387 670.842C828.387 668.319 826.355 666.274 823.848 666.274C821.342 666.274 819.31 668.319 819.31 670.842C819.31 673.365 821.342 675.41 823.848 675.41Z" fill="url(#paint159_linear_2_38)"/>
</g>
<defs>
<linearGradient id="paint0_linear_2_38" x1="986.39" y1="813.677" x2="494.332" y2="58.713" gradientUnits="userSpaceOnUse">
<stop stop-color="#52BBE8"/>
<stop offset="0.196" stop-color="#69C3EB"/>
<stop offset="0.6037" stop-color="#A3D8F1"/>
<stop offset="1" stop-color="#E1EFF8"/>
</linearGradient>
<linearGradient id="paint1_linear_2_38" x1="1053.68" y1="769.826" x2="561.621" y2="14.8613" gradientUnits="userSpaceOnUse">
<stop stop-color="#52BBE8"/>
<stop offset="0.196" stop-color="#69C3EB"/>
<stop offset="0.6037" stop-color="#A3D8F1"/>
<stop offset="1" stop-color="#E1EFF8"/>
</linearGradient>
<linearGradient id="paint2_linear_2_38" x1="1120.96" y1="725.97" x2="628.904" y2="-28.995" gradientUnits="userSpaceOnUse">
<stop stop-color="#52BBE8"/>
<stop offset="0.196" stop-color="#69C3EB"/>
<stop offset="0.6037" stop-color="#A3D8F1"/>
<stop offset="1" stop-color="#E1EFF8"/>
</linearGradient>
<linearGradient id="paint3_linear_2_38" x1="1188.24" y1="682.107" x2="696.19" y2="-72.8478" gradientUnits="userSpaceOnUse">
<stop stop-color="#52BBE8"/>
<stop offset="0.196" stop-color="#69C3EB"/>
<stop offset="0.6037" stop-color="#A3D8F1"/>
<stop offset="1" stop-color="#E1EFF8"/>
</linearGradient>
<linearGradient id="paint4_linear_2_38" x1="1247.54" y1="643.476" x2="755.479" y2="-111.498" gradientUnits="userSpaceOnUse">
<stop stop-color="#52BBE8"/>
<stop offset="0.196" stop-color="#69C3EB"/>
<stop offset="0.6037" stop-color="#A3D8F1"/>
<stop offset="1" stop-color="#E1EFF8"/>
</linearGradient>
<linearGradient id="paint5_linear_2_38" x1="645.867" y1="1035.62" x2="153.809" y2="280.658" gradientUnits="userSpaceOnUse">
<stop stop-color="#52BBE8"/>
<stop offset="0.196" stop-color="#69C3EB"/>
<stop offset="0.6037" stop-color="#A3D8F1"/>
<stop offset="1" stop-color="#E1EFF8"/>
</linearGradient>
<linearGradient id="paint6_linear_2_38" x1="982.276" y1="816.32" x2="490.239" y2="61.388" gradientUnits="userSpaceOnUse">
<stop stop-color="#52BBE8"/>
<stop offset="0.196" stop-color="#69C3EB"/>
<stop offset="0.6037" stop-color="#A3D8F1"/>
<stop offset="1" stop-color="#E1EFF8"/>
</linearGradient>
<linearGradient id="paint7_linear_2_38" x1="1049.58" y1="772.494" x2="557.522" y2="17.5293" gradientUnits="userSpaceOnUse">
<stop stop-color="#52BBE8"/>
<stop offset="0.196" stop-color="#69C3EB"/>
<stop offset="0.6037" stop-color="#A3D8F1"/>
<stop offset="1" stop-color="#E1EFF8"/>
</linearGradient>
<linearGradient id="paint8_linear_2_38" x1="1116.86" y1="728.627" x2="624.809" y2="-26.3209" gradientUnits="userSpaceOnUse">
<stop stop-color="#52BBE8"/>
<stop offset="0.196" stop-color="#69C3EB"/>
<stop offset="0.6037" stop-color="#A3D8F1"/>
<stop offset="1" stop-color="#E1EFF8"/>
</linearGradient>
<linearGradient id="paint9_linear_2_38" x1="1184.14" y1="684.767" x2="692.096" y2="-70.1722" gradientUnits="userSpaceOnUse">
<stop stop-color="#52BBE8"/>
<stop offset="0.196" stop-color="#69C3EB"/>
<stop offset="0.6037" stop-color="#A3D8F1"/>
<stop offset="1" stop-color="#E1EFF8"/>
</linearGradient>
<linearGradient id="paint10_linear_2_38" x1="1223.42" y1="659.188" x2="731.362" y2="-95.7718" gradientUnits="userSpaceOnUse">
<stop stop-color="#52BBE8"/>
<stop offset="0.196" stop-color="#69C3EB"/>
<stop offset="0.6037" stop-color="#A3D8F1"/>
<stop offset="1" stop-color="#E1EFF8"/>
</linearGradient>
<linearGradient id="paint11_linear_2_38" x1="1045.47" y1="775.154" x2="553.425" y2="20.2054" gradientUnits="userSpaceOnUse">
<stop stop-color="#52BBE8"/>
<stop offset="0.196" stop-color="#69C3EB"/>
<stop offset="0.6037" stop-color="#A3D8F1"/>
<stop offset="1" stop-color="#E1EFF8"/>
</linearGradient>
<linearGradient id="paint12_linear_2_38" x1="1112.76" y1="731.293" x2="620.714" y2="-23.6458" gradientUnits="userSpaceOnUse">
<stop stop-color="#52BBE8"/>
<stop offset="0.196" stop-color="#69C3EB"/>
<stop offset="0.6037" stop-color="#A3D8F1"/>
<stop offset="1" stop-color="#E1EFF8"/>
</linearGradient>
<linearGradient id="paint13_linear_2_38" x1="1172.06" y1="692.662" x2="680.004" y2="-62.2958" gradientUnits="userSpaceOnUse">
<stop stop-color="#52BBE8"/>
<stop offset="0.196" stop-color="#69C3EB"/>
<stop offset="0.6037" stop-color="#A3D8F1"/>
<stop offset="1" stop-color="#E1EFF8"/>
</linearGradient>
<linearGradient id="paint14_linear_2_38" x1="1041.38" y1="777.833" x2="549.324" y2="22.8686" gradientUnits="userSpaceOnUse">
<stop stop-color="#52BBE8"/>
<stop offset="0.196" stop-color="#69C3EB"/>
<stop offset="0.6037" stop-color="#A3D8F1"/>
<stop offset="1" stop-color="#E1EFF8"/>
</linearGradient>
<linearGradient id="paint15_linear_2_38" x1="1108.67" y1="733.973" x2="616.613" y2="-20.9827" gradientUnits="userSpaceOnUse">
<stop stop-color="#52BBE8"/>
<stop offset="0.196" stop-color="#69C3EB"/>
<stop offset="0.6037" stop-color="#A3D8F1"/>
<stop offset="1" stop-color="#E1EFF8"/>
</linearGradient>
<linearGradient id="paint16_linear_2_38" x1="1147.94" y1="708.38" x2="655.882" y2="-46.5792" gradientUnits="userSpaceOnUse">
<stop stop-color="#52BBE8"/>
<stop offset="0.196" stop-color="#69C3EB"/>
<stop offset="0.6037" stop-color="#A3D8F1"/>
<stop offset="1" stop-color="#E1EFF8"/>
</linearGradient>
<linearGradient id="paint17_linear_2_38" x1="566.289" y1="1087.49" x2="74.2262" y2="332.52" gradientUnits="userSpaceOnUse">
<stop stop-color="#52BBE8"/>
<stop offset="0.196" stop-color="#69C3EB"/>
<stop offset="0.6037" stop-color="#A3D8F1"/>
<stop offset="1" stop-color="#E1EFF8"/>
</linearGradient>
<linearGradient id="paint18_linear_2_38" x1="1037.28" y1="780.497" x2="545.229" y2="25.5418" gradientUnits="userSpaceOnUse">
<stop stop-color="#52BBE8"/>
<stop offset="0.196" stop-color="#69C3EB"/>
<stop offset="0.6037" stop-color="#A3D8F1"/>
<stop offset="1" stop-color="#E1EFF8"/>
</linearGradient>
<linearGradient id="paint19_linear_2_38" x1="1096.58" y1="741.863" x2="604.515" y2="-13.1109" gradientUnits="userSpaceOnUse">
<stop stop-color="#52BBE8"/>
<stop offset="0.196" stop-color="#69C3EB"/>
<stop offset="0.6037" stop-color="#A3D8F1"/>
<stop offset="1" stop-color="#E1EFF8"/>
</linearGradient>
<linearGradient id="paint20_linear_2_38" x1="494.895" y1="1134" x2="2.84701" y2="379.051" gradientUnits="userSpaceOnUse">
<stop stop-color="#52BBE8"/>
<stop offset="0.196" stop-color="#69C3EB"/>
<stop offset="0.6037" stop-color="#A3D8F1"/>
<stop offset="1" stop-color="#E1EFF8"/>
</linearGradient>
<linearGradient id="paint21_linear_2_38" x1="562.184" y1="1090.15" x2="70.1316" y2="335.194" gradientUnits="userSpaceOnUse">
<stop stop-color="#52BBE8"/>
<stop offset="0.196" stop-color="#69C3EB"/>
<stop offset="0.6037" stop-color="#A3D8F1"/>
<stop offset="1" stop-color="#E1EFF8"/>
</linearGradient>
<linearGradient id="paint22_linear_2_38" x1="629.473" y1="1046.3" x2="137.415" y2="291.339" gradientUnits="userSpaceOnUse">
<stop stop-color="#52BBE8"/>
<stop offset="0.196" stop-color="#69C3EB"/>
<stop offset="0.6037" stop-color="#A3D8F1"/>
<stop offset="1" stop-color="#E1EFF8"/>
</linearGradient>
<linearGradient id="paint23_linear_2_38" x1="696.758" y1="1002.45" x2="204.701" y2="247.483" gradientUnits="userSpaceOnUse">
<stop stop-color="#52BBE8"/>
<stop offset="0.196" stop-color="#69C3EB"/>
<stop offset="0.6037" stop-color="#A3D8F1"/>
<stop offset="1" stop-color="#E1EFF8"/>
</linearGradient>
<linearGradient id="paint24_linear_2_38" x1="1072.45" y1="757.571" x2="580.412" y2="2.63844" gradientUnits="userSpaceOnUse">
<stop stop-color="#52BBE8"/>
<stop offset="0.196" stop-color="#69C3EB"/>
<stop offset="0.6037" stop-color="#A3D8F1"/>
<stop offset="1" stop-color="#E1EFF8"/>
</linearGradient>
<linearGradient id="paint25_linear_2_38" x1="490.799" y1="1136.67" x2="-1.25246" y2="381.718" gradientUnits="userSpaceOnUse">
<stop stop-color="#52BBE8"/>
<stop offset="0.196" stop-color="#69C3EB"/>
<stop offset="0.6037" stop-color="#A3D8F1"/>
<stop offset="1" stop-color="#E1EFF8"/>
</linearGradient>
<linearGradient id="paint26_linear_2_38" x1="558.083" y1="1092.82" x2="66.0356" y2="337.869" gradientUnits="userSpaceOnUse">
<stop stop-color="#52BBE8"/>
<stop offset="0.196" stop-color="#69C3EB"/>
<stop offset="0.6037" stop-color="#A3D8F1"/>
<stop offset="1" stop-color="#E1EFF8"/>
</linearGradient>
<linearGradient id="paint27_linear_2_38" x1="625.376" y1="1048.97" x2="133.318" y2="294.008" gradientUnits="userSpaceOnUse">
<stop stop-color="#52BBE8"/>
<stop offset="0.196" stop-color="#69C3EB"/>
<stop offset="0.6037" stop-color="#A3D8F1"/>
<stop offset="1" stop-color="#E1EFF8"/>
</linearGradient>
<linearGradient id="paint28_linear_2_38" x1="424.918" y1="1179.61" x2="-67.1284" y2="424.659" gradientUnits="userSpaceOnUse">
<stop stop-color="#52BBE8"/>
<stop offset="0.196" stop-color="#69C3EB"/>
<stop offset="0.6037" stop-color="#A3D8F1"/>
<stop offset="1" stop-color="#E1EFF8"/>
</linearGradient>
<linearGradient id="paint29_linear_2_38" x1="492.207" y1="1135.76" x2="0.152148" y2="380.801" gradientUnits="userSpaceOnUse">
<stop stop-color="#52BBE8"/>
<stop offset="0.196" stop-color="#69C3EB"/>
<stop offset="0.6037" stop-color="#A3D8F1"/>
<stop offset="1" stop-color="#E1EFF8"/>
</linearGradient>
<linearGradient id="paint30_linear_2_38" x1="559.496" y1="1091.91" x2="67.4367" y2="336.948" gradientUnits="userSpaceOnUse">
<stop stop-color="#52BBE8"/>
<stop offset="0.196" stop-color="#69C3EB"/>
<stop offset="0.6037" stop-color="#A3D8F1"/>
<stop offset="1" stop-color="#E1EFF8"/>
</linearGradient>
<linearGradient id="paint31_linear_2_38" x1="626.78" y1="1048.06" x2="134.72" y2="293.09" gradientUnits="userSpaceOnUse">
<stop stop-color="#52BBE8"/>
<stop offset="0.196" stop-color="#69C3EB"/>
<stop offset="0.6037" stop-color="#A3D8F1"/>
<stop offset="1" stop-color="#E1EFF8"/>
</linearGradient>
<linearGradient id="paint32_linear_2_38" x1="895.925" y1="872.638" x2="403.865" y2="117.672" gradientUnits="userSpaceOnUse">
<stop stop-color="#52BBE8"/>
<stop offset="0.196" stop-color="#69C3EB"/>
<stop offset="0.6037" stop-color="#A3D8F1"/>
<stop offset="1" stop-color="#E1EFF8"/>
</linearGradient>
<linearGradient id="paint33_linear_2_38" x1="963.207" y1="828.784" x2="471.143" y2="73.8109" gradientUnits="userSpaceOnUse">
<stop stop-color="#52BBE8"/>
<stop offset="0.196" stop-color="#69C3EB"/>
<stop offset="0.6037" stop-color="#A3D8F1"/>
<stop offset="1" stop-color="#E1EFF8"/>
</linearGradient>
<linearGradient id="paint34_linear_2_38" x1="1122.28" y1="725.087" x2="630.231" y2="-29.8591" gradientUnits="userSpaceOnUse">
<stop stop-color="#52BBE8"/>
<stop offset="0.196" stop-color="#69C3EB"/>
<stop offset="0.6037" stop-color="#A3D8F1"/>
<stop offset="1" stop-color="#E1EFF8"/>
</linearGradient>
<linearGradient id="paint35_linear_2_38" x1="1209.99" y1="667.964" x2="717.921" y2="-87.0118" gradientUnits="userSpaceOnUse">
<stop stop-color="#52BBE8"/>
<stop offset="0.196" stop-color="#69C3EB"/>
<stop offset="0.6037" stop-color="#A3D8F1"/>
<stop offset="1" stop-color="#E1EFF8"/>
</linearGradient>
<linearGradient id="paint36_linear_2_38" x1="1270.9" y1="628.232" x2="778.848" y2="-126.717" gradientUnits="userSpaceOnUse">
<stop stop-color="#52BBE8"/>
<stop offset="0.196" stop-color="#69C3EB"/>
<stop offset="0.6037" stop-color="#A3D8F1"/>
<stop offset="1" stop-color="#E1EFF8"/>
</linearGradient>
<linearGradient id="paint37_linear_2_38" x1="1122.62" y1="724.878" x2="630.564" y2="-30.0778" gradientUnits="userSpaceOnUse">
<stop stop-color="#52BBE8"/>
<stop offset="0.196" stop-color="#69C3EB"/>
<stop offset="0.6037" stop-color="#A3D8F1"/>
<stop offset="1" stop-color="#E1EFF8"/>
</linearGradient>
<linearGradient id="paint38_linear_2_38" x1="1210.31" y1="667.731" x2="718.256" y2="-87.2315" gradientUnits="userSpaceOnUse">
<stop stop-color="#52BBE8"/>
<stop offset="0.196" stop-color="#69C3EB"/>
<stop offset="0.6037" stop-color="#A3D8F1"/>
<stop offset="1" stop-color="#E1EFF8"/>
</linearGradient>
<linearGradient id="paint39_linear_2_38" x1="1268.23" y1="629.982" x2="776.174" y2="-124.981" gradientUnits="userSpaceOnUse">
<stop stop-color="#52BBE8"/>
<stop offset="0.196" stop-color="#69C3EB"/>
<stop offset="0.6037" stop-color="#A3D8F1"/>
<stop offset="1" stop-color="#E1EFF8"/>
</linearGradient>
<linearGradient id="paint40_linear_2_38" x1="1117.28" y1="728.37" x2="625.224" y2="-26.5984" gradientUnits="userSpaceOnUse">
<stop stop-color="#52BBE8"/>
<stop offset="0.196" stop-color="#69C3EB"/>
<stop offset="0.6037" stop-color="#A3D8F1"/>
<stop offset="1" stop-color="#E1EFF8"/>
</linearGradient>
<linearGradient id="paint41_linear_2_38" x1="1197.53" y1="676.057" x2="705.476" y2="-78.9008" gradientUnits="userSpaceOnUse">
<stop stop-color="#52BBE8"/>
<stop offset="0.196" stop-color="#69C3EB"/>
<stop offset="0.6037" stop-color="#A3D8F1"/>
<stop offset="1" stop-color="#E1EFF8"/>
</linearGradient>
<linearGradient id="paint42_linear_2_38" x1="527.579" y1="1112.71" x2="35.5216" y2="357.751" gradientUnits="userSpaceOnUse">
<stop stop-color="#52BBE8"/>
<stop offset="0.196" stop-color="#69C3EB"/>
<stop offset="0.6037" stop-color="#A3D8F1"/>
<stop offset="1" stop-color="#E1EFF8"/>
</linearGradient>
<linearGradient id="paint43_linear_2_38" x1="585.79" y1="1074.76" x2="93.7373" y2="319.809" gradientUnits="userSpaceOnUse">
<stop stop-color="#52BBE8"/>
<stop offset="0.196" stop-color="#69C3EB"/>
<stop offset="0.6037" stop-color="#A3D8F1"/>
<stop offset="1" stop-color="#E1EFF8"/>
</linearGradient>
<linearGradient id="paint44_linear_2_38" x1="673.488" y1="1017.62" x2="181.427" y2="262.653" gradientUnits="userSpaceOnUse">
<stop stop-color="#52BBE8"/>
<stop offset="0.196" stop-color="#69C3EB"/>
<stop offset="0.6037" stop-color="#A3D8F1"/>
<stop offset="1" stop-color="#E1EFF8"/>
</linearGradient>
<linearGradient id="paint45_linear_2_38" x1="1169.86" y1="694.104" x2="677.795" y2="-60.8764" gradientUnits="userSpaceOnUse">
<stop stop-color="#52BBE8"/>
<stop offset="0.196" stop-color="#69C3EB"/>
<stop offset="0.6037" stop-color="#A3D8F1"/>
<stop offset="1" stop-color="#E1EFF8"/>
</linearGradient>
<linearGradient id="paint46_linear_2_38" x1="500.07" y1="1130.64" x2="8.01049" y2="375.68" gradientUnits="userSpaceOnUse">
<stop stop-color="#52BBE8"/>
<stop offset="0.196" stop-color="#69C3EB"/>
<stop offset="0.6037" stop-color="#A3D8F1"/>
<stop offset="1" stop-color="#E1EFF8"/>
</linearGradient>
<linearGradient id="paint47_linear_2_38" x1="580.442" y1="1078.23" x2="88.3967" y2="323.289" gradientUnits="userSpaceOnUse">
<stop stop-color="#52BBE8"/>
<stop offset="0.196" stop-color="#69C3EB"/>
<stop offset="0.6037" stop-color="#A3D8F1"/>
<stop offset="1" stop-color="#E1EFF8"/>
</linearGradient>
<linearGradient id="paint48_linear_2_38" x1="668.147" y1="1021.1" x2="176.087" y2="266.133" gradientUnits="userSpaceOnUse">
<stop stop-color="#52BBE8"/>
<stop offset="0.196" stop-color="#69C3EB"/>
<stop offset="0.6037" stop-color="#A3D8F1"/>
<stop offset="1" stop-color="#E1EFF8"/>
</linearGradient>
<linearGradient id="paint49_linear_2_38" x1="429.208" y1="1176.83" x2="-62.8499" y2="421.864" gradientUnits="userSpaceOnUse">
<stop stop-color="#52BBE8"/>
<stop offset="0.196" stop-color="#69C3EB"/>
<stop offset="0.6037" stop-color="#A3D8F1"/>
<stop offset="1" stop-color="#E1EFF8"/>
</linearGradient>
<linearGradient id="paint50_linear_2_38" x1="487.425" y1="1138.89" x2="-4.63592" y2="383.922" gradientUnits="userSpaceOnUse">
<stop stop-color="#52BBE8"/>
<stop offset="0.196" stop-color="#69C3EB"/>
<stop offset="0.6037" stop-color="#A3D8F1"/>
<stop offset="1" stop-color="#E1EFF8"/>
</linearGradient>
<linearGradient id="paint51_linear_2_38" x1="575.116" y1="1081.74" x2="83.0552" y2="326.767" gradientUnits="userSpaceOnUse">
<stop stop-color="#52BBE8"/>
<stop offset="0.196" stop-color="#69C3EB"/>
<stop offset="0.6037" stop-color="#A3D8F1"/>
<stop offset="1" stop-color="#E1EFF8"/>
</linearGradient>
<linearGradient id="paint52_linear_2_38" x1="1013.57" y1="795.96" x2="521.51" y2="40.9974" gradientUnits="userSpaceOnUse">
<stop stop-color="#52BBE8"/>
<stop offset="0.196" stop-color="#69C3EB"/>
<stop offset="0.6037" stop-color="#A3D8F1"/>
<stop offset="1" stop-color="#E1EFF8"/>
</linearGradient>
<linearGradient id="paint53_linear_2_38" x1="354.02" y1="1225.9" x2="-138.083" y2="470.869" gradientUnits="userSpaceOnUse">
<stop stop-color="#52BBE8"/>
<stop offset="0.196" stop-color="#69C3EB"/>
<stop offset="0.6037" stop-color="#A3D8F1"/>
<stop offset="1" stop-color="#E1EFF8"/>
</linearGradient>
<linearGradient id="paint54_linear_2_38" x1="411.014" y1="1188.68" x2="-81.0452" y2="433.72" gradientUnits="userSpaceOnUse">
<stop stop-color="#52BBE8"/>
<stop offset="0.196" stop-color="#69C3EB"/>
<stop offset="0.6037" stop-color="#A3D8F1"/>
<stop offset="1" stop-color="#E1EFF8"/>
</linearGradient>
<linearGradient id="paint55_linear_2_38" x1="482.076" y1="1142.36" x2="-9.97591" y2="387.406" gradientUnits="userSpaceOnUse">
<stop stop-color="#52BBE8"/>
<stop offset="0.196" stop-color="#69C3EB"/>
<stop offset="0.6037" stop-color="#A3D8F1"/>
<stop offset="1" stop-color="#E1EFF8"/>
</linearGradient>
<linearGradient id="paint56_linear_2_38" x1="569.774" y1="1085.21" x2="77.7133" y2="330.247" gradientUnits="userSpaceOnUse">
<stop stop-color="#52BBE8"/>
<stop offset="0.196" stop-color="#69C3EB"/>
<stop offset="0.6037" stop-color="#A3D8F1"/>
<stop offset="1" stop-color="#E1EFF8"/>
</linearGradient>
<linearGradient id="paint57_linear_2_38" x1="920.537" y1="856.59" x2="428.485" y2="101.635" gradientUnits="userSpaceOnUse">
<stop stop-color="#52BBE8"/>
<stop offset="0.196" stop-color="#69C3EB"/>
<stop offset="0.6037" stop-color="#A3D8F1"/>
<stop offset="1" stop-color="#E1EFF8"/>
</linearGradient>
<linearGradient id="paint58_linear_2_38" x1="1000.79" y1="804.29" x2="508.726" y2="49.3219" gradientUnits="userSpaceOnUse">
<stop stop-color="#52BBE8"/>
<stop offset="0.196" stop-color="#69C3EB"/>
<stop offset="0.6037" stop-color="#A3D8F1"/>
<stop offset="1" stop-color="#E1EFF8"/>
</linearGradient>
<linearGradient id="paint59_linear_2_38" x1="992.412" y1="809.753" x2="500.338" y2="54.7683" gradientUnits="userSpaceOnUse">
<stop stop-color="#52BBE8"/>
<stop offset="0.196" stop-color="#69C3EB"/>
<stop offset="0.6037" stop-color="#A3D8F1"/>
<stop offset="1" stop-color="#E1EFF8"/>
</linearGradient>
<linearGradient id="paint60_linear_2_38" x1="354.02" y1="1225.9" x2="-138.078" y2="470.871" gradientUnits="userSpaceOnUse">
<stop stop-color="#52BBE8"/>
<stop offset="0.196" stop-color="#69C3EB"/>
<stop offset="0.6037" stop-color="#A3D8F1"/>
<stop offset="1" stop-color="#E1EFF8"/>
</linearGradient>
<linearGradient id="paint61_linear_2_38" x1="407.146" y1="1191.19" x2="-84.9002" y2="436.245" gradientUnits="userSpaceOnUse">
<stop stop-color="#52BBE8"/>
<stop offset="0.196" stop-color="#69C3EB"/>
<stop offset="0.6037" stop-color="#A3D8F1"/>
<stop offset="1" stop-color="#E1EFF8"/>
</linearGradient>
<linearGradient id="paint62_linear_2_38" x1="494.835" y1="1134.04" x2="2.78929" y2="379.092" gradientUnits="userSpaceOnUse">
<stop stop-color="#52BBE8"/>
<stop offset="0.196" stop-color="#69C3EB"/>
<stop offset="0.6037" stop-color="#A3D8F1"/>
<stop offset="1" stop-color="#E1EFF8"/>
</linearGradient>
<linearGradient id="paint63_linear_2_38" x1="582.536" y1="1076.9" x2="90.473" y2="321.926" gradientUnits="userSpaceOnUse">
<stop stop-color="#52BBE8"/>
<stop offset="0.196" stop-color="#69C3EB"/>
<stop offset="0.6037" stop-color="#A3D8F1"/>
<stop offset="1" stop-color="#E1EFF8"/>
</linearGradient>
<linearGradient id="paint64_linear_2_38" x1="670.22" y1="1019.73" x2="178.173" y2="264.785" gradientUnits="userSpaceOnUse">
<stop stop-color="#52BBE8"/>
<stop offset="0.196" stop-color="#69C3EB"/>
<stop offset="0.6037" stop-color="#A3D8F1"/>
<stop offset="1" stop-color="#E1EFF8"/>
</linearGradient>
<linearGradient id="paint65_linear_2_38" x1="757.92" y1="962.588" x2="265.858" y2="207.617" gradientUnits="userSpaceOnUse">
<stop stop-color="#52BBE8"/>
<stop offset="0.196" stop-color="#69C3EB"/>
<stop offset="0.6037" stop-color="#A3D8F1"/>
<stop offset="1" stop-color="#E1EFF8"/>
</linearGradient>
<linearGradient id="paint66_linear_2_38" x1="845.606" y1="905.424" x2="353.56" y2="150.479" gradientUnits="userSpaceOnUse">
<stop stop-color="#52BBE8"/>
<stop offset="0.196" stop-color="#69C3EB"/>
<stop offset="0.6037" stop-color="#A3D8F1"/>
<stop offset="1" stop-color="#E1EFF8"/>
</linearGradient>
<linearGradient id="paint67_linear_2_38" x1="933.302" y1="848.279" x2="441.229" y2="93.2926" gradientUnits="userSpaceOnUse">
<stop stop-color="#52BBE8"/>
<stop offset="0.196" stop-color="#69C3EB"/>
<stop offset="0.6037" stop-color="#A3D8F1"/>
<stop offset="1" stop-color="#E1EFF8"/>
</linearGradient>
<linearGradient id="paint68_linear_2_38" x1="992.408" y1="809.747" x2="500.359" y2="54.7995" gradientUnits="userSpaceOnUse">
<stop stop-color="#52BBE8"/>
<stop offset="0.196" stop-color="#69C3EB"/>
<stop offset="0.6037" stop-color="#A3D8F1"/>
<stop offset="1" stop-color="#E1EFF8"/>
</linearGradient>
<linearGradient id="paint69_linear_2_38" x1="691.952" y1="1005.28" x2="200.018" y2="250.51" gradientUnits="userSpaceOnUse">
<stop stop-color="#52BBE8"/>
<stop offset="0.196" stop-color="#69C3EB"/>
<stop offset="0.6037" stop-color="#A3D8F1"/>
<stop offset="1" stop-color="#E1EFF8"/>
</linearGradient>
<linearGradient id="paint70_linear_2_38" x1="944.611" y1="841.661" x2="452.224" y2="86.1814" gradientUnits="userSpaceOnUse">
<stop stop-color="#52BBE8"/>
<stop offset="0.196" stop-color="#69C3EB"/>
<stop offset="0.6037" stop-color="#A3D8F1"/>
<stop offset="1" stop-color="#E1EFF8"/>
</linearGradient>
<linearGradient id="paint71_linear_2_38" x1="965.414" y1="827.541" x2="473.268" y2="72.4397" gradientUnits="userSpaceOnUse">
<stop stop-color="#52BBE8"/>
<stop offset="0.196" stop-color="#69C3EB"/>
<stop offset="0.6037" stop-color="#A3D8F1"/>
<stop offset="1" stop-color="#E1EFF8"/>
</linearGradient>
<linearGradient id="paint72_linear_2_38" x1="940.218" y1="843.882" x2="448.104" y2="88.8339" gradientUnits="userSpaceOnUse">
<stop stop-color="#52BBE8"/>
<stop offset="0.196" stop-color="#69C3EB"/>
<stop offset="0.6037" stop-color="#A3D8F1"/>
<stop offset="1" stop-color="#E1EFF8"/>
</linearGradient>
<linearGradient id="paint73_linear_2_38" x1="961.259" y1="830.126" x2="469.164" y2="75.1058" gradientUnits="userSpaceOnUse">
<stop stop-color="#52BBE8"/>
<stop offset="0.196" stop-color="#69C3EB"/>
<stop offset="0.6037" stop-color="#A3D8F1"/>
<stop offset="1" stop-color="#E1EFF8"/>
</linearGradient>
<linearGradient id="paint74_linear_2_38" x1="1011.37" y1="796.99" x2="519.501" y2="42.3234" gradientUnits="userSpaceOnUse">
<stop stop-color="#52BBE8"/>
<stop offset="0.196" stop-color="#69C3EB"/>
<stop offset="0.6037" stop-color="#A3D8F1"/>
<stop offset="1" stop-color="#E1EFF8"/>
</linearGradient>
<linearGradient id="paint75_linear_2_38" x1="1032.73" y1="783.729" x2="540.544" y2="28.5718" gradientUnits="userSpaceOnUse">
<stop stop-color="#52BBE8"/>
<stop offset="0.196" stop-color="#69C3EB"/>
<stop offset="0.6037" stop-color="#A3D8F1"/>
<stop offset="1" stop-color="#E1EFF8"/>
</linearGradient>
<linearGradient id="paint76_linear_2_38" x1="1007.53" y1="800.07" x2="515.381" y2="44.9674" gradientUnits="userSpaceOnUse">
<stop stop-color="#52BBE8"/>
<stop offset="0.196" stop-color="#69C3EB"/>
<stop offset="0.6037" stop-color="#A3D8F1"/>
<stop offset="1" stop-color="#E1EFF8"/>
</linearGradient>
<linearGradient id="paint77_linear_2_38" x1="1078.84" y1="753.434" x2="586.77" y2="-1.5356" gradientUnits="userSpaceOnUse">
<stop stop-color="#52BBE8"/>
<stop offset="0.196" stop-color="#69C3EB"/>
<stop offset="0.6037" stop-color="#A3D8F1"/>
<stop offset="1" stop-color="#E1EFF8"/>
</linearGradient>
<linearGradient id="paint78_linear_2_38" x1="1099.93" y1="739.752" x2="607.835" y2="-15.2759" gradientUnits="userSpaceOnUse">
<stop stop-color="#52BBE8"/>
<stop offset="0.196" stop-color="#69C3EB"/>
<stop offset="0.6037" stop-color="#A3D8F1"/>
<stop offset="1" stop-color="#E1EFF8"/>
</linearGradient>
<linearGradient id="paint79_linear_2_38" x1="1074.68" y1="756.009" x2="582.693" y2="1.14763" gradientUnits="userSpaceOnUse">
<stop stop-color="#52BBE8"/>
<stop offset="0.196" stop-color="#69C3EB"/>
<stop offset="0.6037" stop-color="#A3D8F1"/>
<stop offset="1" stop-color="#E1EFF8"/>
</linearGradient>
<linearGradient id="paint80_linear_2_38" x1="1146.2" y1="709.692" x2="654.049" y2="-45.4119" gradientUnits="userSpaceOnUse">
<stop stop-color="#52BBE8"/>
<stop offset="0.196" stop-color="#69C3EB"/>
<stop offset="0.6037" stop-color="#A3D8F1"/>
<stop offset="1" stop-color="#E1EFF8"/>
</linearGradient>
<linearGradient id="paint81_linear_2_38" x1="1167.13" y1="695.765" x2="675.135" y2="-59.1002" gradientUnits="userSpaceOnUse">
<stop stop-color="#52BBE8"/>
<stop offset="0.196" stop-color="#69C3EB"/>
<stop offset="0.6037" stop-color="#A3D8F1"/>
<stop offset="1" stop-color="#E1EFF8"/>
</linearGradient>
<linearGradient id="paint82_linear_2_38" x1="1142.14" y1="712.417" x2="649.929" y2="-42.7832" gradientUnits="userSpaceOnUse">
<stop stop-color="#52BBE8"/>
<stop offset="0.196" stop-color="#69C3EB"/>
<stop offset="0.6037" stop-color="#A3D8F1"/>
<stop offset="1" stop-color="#E1EFF8"/>
</linearGradient>
<linearGradient id="paint83_linear_2_38" x1="1213.48" y1="665.825" x2="721.329" y2="-89.2746" gradientUnits="userSpaceOnUse">
<stop stop-color="#52BBE8"/>
<stop offset="0.196" stop-color="#69C3EB"/>
<stop offset="0.6037" stop-color="#A3D8F1"/>
<stop offset="1" stop-color="#E1EFF8"/>
</linearGradient>
<linearGradient id="paint84_linear_2_38" x1="1234.53" y1="652.086" x2="742.392" y2="-103.01" gradientUnits="userSpaceOnUse">
<stop stop-color="#52BBE8"/>
<stop offset="0.196" stop-color="#69C3EB"/>
<stop offset="0.6037" stop-color="#A3D8F1"/>
<stop offset="1" stop-color="#E1EFF8"/>
</linearGradient>
<linearGradient id="paint85_linear_2_38" x1="1209.35" y1="668.457" x2="717.23" y2="-86.6078" gradientUnits="userSpaceOnUse">
<stop stop-color="#52BBE8"/>
<stop offset="0.196" stop-color="#69C3EB"/>
<stop offset="0.6037" stop-color="#A3D8F1"/>
<stop offset="1" stop-color="#E1EFF8"/>
</linearGradient>
<linearGradient id="paint86_linear_2_38" x1="1280.68" y1="621.849" x2="788.635" y2="-133.095" gradientUnits="userSpaceOnUse">
<stop stop-color="#52BBE8"/>
<stop offset="0.196" stop-color="#69C3EB"/>
<stop offset="0.6037" stop-color="#A3D8F1"/>
<stop offset="1" stop-color="#E1EFF8"/>
</linearGradient>
<linearGradient id="paint87_linear_2_38" x1="620.633" y1="1051.91" x2="128.644" y2="297.048" gradientUnits="userSpaceOnUse">
<stop stop-color="#52BBE8"/>
<stop offset="0.196" stop-color="#69C3EB"/>
<stop offset="0.6037" stop-color="#A3D8F1"/>
<stop offset="1" stop-color="#E1EFF8"/>
</linearGradient>
<linearGradient id="paint88_linear_2_38" x1="599.781" y1="1065.96" x2="107.596" y2="310.803" gradientUnits="userSpaceOnUse">
<stop stop-color="#52BBE8"/>
<stop offset="0.196" stop-color="#69C3EB"/>
<stop offset="0.6037" stop-color="#A3D8F1"/>
<stop offset="1" stop-color="#E1EFF8"/>
</linearGradient>
<linearGradient id="paint89_linear_2_38" x1="625.046" y1="1049.73" x2="132.777" y2="294.44" gradientUnits="userSpaceOnUse">
<stop stop-color="#52BBE8"/>
<stop offset="0.196" stop-color="#69C3EB"/>
<stop offset="0.6037" stop-color="#A3D8F1"/>
<stop offset="1" stop-color="#E1EFF8"/>
</linearGradient>
<linearGradient id="paint90_linear_2_38" x1="670.984" y1="1019.16" x2="178.962" y2="264.25" gradientUnits="userSpaceOnUse">
<stop stop-color="#52BBE8"/>
<stop offset="0.196" stop-color="#69C3EB"/>
<stop offset="0.6037" stop-color="#A3D8F1"/>
<stop offset="1" stop-color="#E1EFF8"/>
</linearGradient>
<linearGradient id="paint91_linear_2_38" x1="666.896" y1="1021.85" x2="174.867" y2="266.926" gradientUnits="userSpaceOnUse">
<stop stop-color="#52BBE8"/>
<stop offset="0.196" stop-color="#69C3EB"/>
<stop offset="0.6037" stop-color="#A3D8F1"/>
<stop offset="1" stop-color="#E1EFF8"/>
</linearGradient>
<linearGradient id="paint92_linear_2_38" x1="936.052" y1="846.445" x2="444.016" y2="91.5147" gradientUnits="userSpaceOnUse">
<stop stop-color="#52BBE8"/>
<stop offset="0.196" stop-color="#69C3EB"/>
<stop offset="0.6037" stop-color="#A3D8F1"/>
<stop offset="1" stop-color="#E1EFF8"/>
</linearGradient>
<linearGradient id="paint93_linear_2_38" x1="1028.48" y1="786.169" x2="536.461" y2="31.2739" gradientUnits="userSpaceOnUse">
<stop stop-color="#52BBE8"/>
<stop offset="0.196" stop-color="#69C3EB"/>
<stop offset="0.6037" stop-color="#A3D8F1"/>
<stop offset="1" stop-color="#E1EFF8"/>
</linearGradient>
<linearGradient id="paint94_linear_2_38" x1="1003.41" y1="802.709" x2="511.274" y2="47.6314" gradientUnits="userSpaceOnUse">
<stop stop-color="#52BBE8"/>
<stop offset="0.196" stop-color="#69C3EB"/>
<stop offset="0.6037" stop-color="#A3D8F1"/>
<stop offset="1" stop-color="#E1EFF8"/>
</linearGradient>
<linearGradient id="paint95_linear_2_38" x1="1024.56" y1="789.116" x2="532.298" y2="33.8363" gradientUnits="userSpaceOnUse">
<stop stop-color="#52BBE8"/>
<stop offset="0.196" stop-color="#69C3EB"/>
<stop offset="0.6037" stop-color="#A3D8F1"/>
<stop offset="1" stop-color="#E1EFF8"/>
</linearGradient>
<linearGradient id="paint96_linear_2_38" x1="1095.77" y1="742.324" x2="603.75" y2="-12.5816" gradientUnits="userSpaceOnUse">
<stop stop-color="#52BBE8"/>
<stop offset="0.196" stop-color="#69C3EB"/>
<stop offset="0.6037" stop-color="#A3D8F1"/>
<stop offset="1" stop-color="#E1EFF8"/>
</linearGradient>
<linearGradient id="paint97_linear_2_38" x1="1163.19" y1="698.666" x2="670.984" y2="-56.5196" gradientUnits="userSpaceOnUse">
<stop stop-color="#52BBE8"/>
<stop offset="0.196" stop-color="#69C3EB"/>
<stop offset="0.6037" stop-color="#A3D8F1"/>
<stop offset="1" stop-color="#E1EFF8"/>
</linearGradient>
<linearGradient id="paint98_linear_2_38" x1="1158.93" y1="701.098" x2="666.968" y2="-53.7271" gradientUnits="userSpaceOnUse">
<stop stop-color="#52BBE8"/>
<stop offset="0.196" stop-color="#69C3EB"/>
<stop offset="0.6037" stop-color="#A3D8F1"/>
<stop offset="1" stop-color="#E1EFF8"/>
</linearGradient>
<linearGradient id="paint99_linear_2_38" x1="1137.92" y1="714.893" x2="645.877" y2="-40.0424" gradientUnits="userSpaceOnUse">
<stop stop-color="#52BBE8"/>
<stop offset="0.196" stop-color="#69C3EB"/>
<stop offset="0.6037" stop-color="#A3D8F1"/>
<stop offset="1" stop-color="#E1EFF8"/>
</linearGradient>
<linearGradient id="paint100_linear_2_38" x1="1230.4" y1="654.711" x2="738.292" y2="-100.336" gradientUnits="userSpaceOnUse">
<stop stop-color="#52BBE8"/>
<stop offset="0.196" stop-color="#69C3EB"/>
<stop offset="0.6037" stop-color="#A3D8F1"/>
<stop offset="1" stop-color="#E1EFF8"/>
</linearGradient>
<linearGradient id="paint101_linear_2_38" x1="957.069" y1="832.647" x2="465.095" y2="77.8105" gradientUnits="userSpaceOnUse">
<stop stop-color="#52BBE8"/>
<stop offset="0.196" stop-color="#69C3EB"/>
<stop offset="0.6037" stop-color="#A3D8F1"/>
<stop offset="1" stop-color="#E1EFF8"/>
</linearGradient>
<linearGradient id="paint102_linear_2_38" x1="1070.67" y1="758.82" x2="578.566" y2="3.77899" gradientUnits="userSpaceOnUse">
<stop stop-color="#52BBE8"/>
<stop offset="0.196" stop-color="#69C3EB"/>
<stop offset="0.6037" stop-color="#A3D8F1"/>
<stop offset="1" stop-color="#E1EFF8"/>
</linearGradient>
<linearGradient id="paint103_linear_2_38" x1="1091.65" y1="744.96" x2="599.672" y2="-9.8879" gradientUnits="userSpaceOnUse">
<stop stop-color="#52BBE8"/>
<stop offset="0.196" stop-color="#69C3EB"/>
<stop offset="0.6037" stop-color="#A3D8F1"/>
<stop offset="1" stop-color="#E1EFF8"/>
</linearGradient>
<linearGradient id="paint104_linear_2_38" x1="1154.84" y1="703.777" x2="662.883" y2="-51.0323" gradientUnits="userSpaceOnUse">
<stop stop-color="#52BBE8"/>
<stop offset="0.196" stop-color="#69C3EB"/>
<stop offset="0.6037" stop-color="#A3D8F1"/>
<stop offset="1" stop-color="#E1EFF8"/>
</linearGradient>
<linearGradient id="paint105_linear_2_38" x1="1133.83" y1="717.578" x2="641.773" y2="-37.383" gradientUnits="userSpaceOnUse">
<stop stop-color="#52BBE8"/>
<stop offset="0.196" stop-color="#69C3EB"/>
<stop offset="0.6037" stop-color="#A3D8F1"/>
<stop offset="1" stop-color="#E1EFF8"/>
</linearGradient>
<linearGradient id="paint106_linear_2_38" x1="1205.23" y1="671.086" x2="713.139" y2="-83.929" gradientUnits="userSpaceOnUse">
<stop stop-color="#52BBE8"/>
<stop offset="0.196" stop-color="#69C3EB"/>
<stop offset="0.6037" stop-color="#A3D8F1"/>
<stop offset="1" stop-color="#E1EFF8"/>
</linearGradient>
<linearGradient id="paint107_linear_2_38" x1="545.367" y1="1101.43" x2="53.1491" y2="346.226" gradientUnits="userSpaceOnUse">
<stop stop-color="#52BBE8"/>
<stop offset="0.196" stop-color="#69C3EB"/>
<stop offset="0.6037" stop-color="#A3D8F1"/>
<stop offset="1" stop-color="#E1EFF8"/>
</linearGradient>
<linearGradient id="paint108_linear_2_38" x1="524.063" y1="1114.79" x2="32.1039" y2="359.987" gradientUnits="userSpaceOnUse">
<stop stop-color="#52BBE8"/>
<stop offset="0.196" stop-color="#69C3EB"/>
<stop offset="0.6037" stop-color="#A3D8F1"/>
<stop offset="1" stop-color="#E1EFF8"/>
</linearGradient>
<linearGradient id="paint109_linear_2_38" x1="549.184" y1="1098.33" x2="57.2663" y2="343.58" gradientUnits="userSpaceOnUse">
<stop stop-color="#52BBE8"/>
<stop offset="0.196" stop-color="#69C3EB"/>
<stop offset="0.6037" stop-color="#A3D8F1"/>
<stop offset="1" stop-color="#E1EFF8"/>
</linearGradient>
<linearGradient id="paint110_linear_2_38" x1="595.611" y1="1068.52" x2="103.487" y2="313.452" gradientUnits="userSpaceOnUse">
<stop stop-color="#52BBE8"/>
<stop offset="0.196" stop-color="#69C3EB"/>
<stop offset="0.6037" stop-color="#A3D8F1"/>
<stop offset="1" stop-color="#E1EFF8"/>
</linearGradient>
<linearGradient id="paint111_linear_2_38" x1="612.423" y1="1057.23" x2="120.466" y2="302.418" gradientUnits="userSpaceOnUse">
<stop stop-color="#52BBE8"/>
<stop offset="0.196" stop-color="#69C3EB"/>
<stop offset="0.6037" stop-color="#A3D8F1"/>
<stop offset="1" stop-color="#E1EFF8"/>
</linearGradient>
<linearGradient id="paint112_linear_2_38" x1="999.31" y1="805.373" x2="507.172" y2="50.2827" gradientUnits="userSpaceOnUse">
<stop stop-color="#52BBE8"/>
<stop offset="0.196" stop-color="#69C3EB"/>
<stop offset="0.6037" stop-color="#A3D8F1"/>
<stop offset="1" stop-color="#E1EFF8"/>
</linearGradient>
<linearGradient id="paint113_linear_2_38" x1="1020.3" y1="791.529" x2="528.275" y2="36.6195" gradientUnits="userSpaceOnUse">
<stop stop-color="#52BBE8"/>
<stop offset="0.196" stop-color="#69C3EB"/>
<stop offset="0.6037" stop-color="#A3D8F1"/>
<stop offset="1" stop-color="#E1EFF8"/>
</linearGradient>
<linearGradient id="paint114_linear_2_38" x1="1016.27" y1="794.308" x2="524.115" y2="39.1861" gradientUnits="userSpaceOnUse">
<stop stop-color="#52BBE8"/>
<stop offset="0.196" stop-color="#69C3EB"/>
<stop offset="0.6037" stop-color="#A3D8F1"/>
<stop offset="1" stop-color="#E1EFF8"/>
</linearGradient>
<linearGradient id="paint115_linear_2_38" x1="995.194" y1="808.016" x2="503.07" y2="52.9503" gradientUnits="userSpaceOnUse">
<stop stop-color="#52BBE8"/>
<stop offset="0.196" stop-color="#69C3EB"/>
<stop offset="0.6037" stop-color="#A3D8F1"/>
<stop offset="1" stop-color="#E1EFF8"/>
</linearGradient>
<linearGradient id="paint116_linear_2_38" x1="1066.54" y1="761.432" x2="574.488" y2="6.46995" gradientUnits="userSpaceOnUse">
<stop stop-color="#52BBE8"/>
<stop offset="0.196" stop-color="#69C3EB"/>
<stop offset="0.6037" stop-color="#A3D8F1"/>
<stop offset="1" stop-color="#E1EFF8"/>
</linearGradient>
<linearGradient id="paint117_linear_2_38" x1="1062.48" y1="764.153" x2="570.356" y2="9.09396" gradientUnits="userSpaceOnUse">
<stop stop-color="#52BBE8"/>
<stop offset="0.196" stop-color="#69C3EB"/>
<stop offset="0.6037" stop-color="#A3D8F1"/>
<stop offset="1" stop-color="#E1EFF8"/>
</linearGradient>
<linearGradient id="paint118_linear_2_38" x1="1083.5" y1="750.371" x2="591.45" y2="-4.58163" gradientUnits="userSpaceOnUse">
<stop stop-color="#52BBE8"/>
<stop offset="0.196" stop-color="#69C3EB"/>
<stop offset="0.6037" stop-color="#A3D8F1"/>
<stop offset="1" stop-color="#E1EFF8"/>
</linearGradient>
<linearGradient id="paint119_linear_2_38" x1="1087.62" y1="747.726" x2="595.535" y2="-7.27393" gradientUnits="userSpaceOnUse">
<stop stop-color="#52BBE8"/>
<stop offset="0.196" stop-color="#69C3EB"/>
<stop offset="0.6037" stop-color="#A3D8F1"/>
<stop offset="1" stop-color="#E1EFF8"/>
</linearGradient>
<linearGradient id="paint120_linear_2_38" x1="1129.61" y1="720.067" x2="637.826" y2="-34.4805" gradientUnits="userSpaceOnUse">
<stop stop-color="#52BBE8"/>
<stop offset="0.196" stop-color="#69C3EB"/>
<stop offset="0.6037" stop-color="#A3D8F1"/>
<stop offset="1" stop-color="#E1EFF8"/>
</linearGradient>
<linearGradient id="paint121_linear_2_38" x1="591.473" y1="1071.12" x2="99.3881" y2="316.117" gradientUnits="userSpaceOnUse">
<stop stop-color="#52BBE8"/>
<stop offset="0.196" stop-color="#69C3EB"/>
<stop offset="0.6037" stop-color="#A3D8F1"/>
<stop offset="1" stop-color="#E1EFF8"/>
</linearGradient>
<linearGradient id="paint122_linear_2_38" x1="587.421" y1="1073.87" x2="95.2679" y2="318.762" gradientUnits="userSpaceOnUse">
<stop stop-color="#52BBE8"/>
<stop offset="0.196" stop-color="#69C3EB"/>
<stop offset="0.6037" stop-color="#A3D8F1"/>
<stop offset="1" stop-color="#E1EFF8"/>
</linearGradient>
<linearGradient id="paint123_linear_2_38" x1="654.491" y1="1029.69" x2="162.623" y2="275.019" gradientUnits="userSpaceOnUse">
<stop stop-color="#52BBE8"/>
<stop offset="0.196" stop-color="#69C3EB"/>
<stop offset="0.6037" stop-color="#A3D8F1"/>
<stop offset="1" stop-color="#E1EFF8"/>
</linearGradient>
<linearGradient id="paint124_linear_2_38" x1="675.664" y1="1016.13" x2="183.653" y2="261.234" gradientUnits="userSpaceOnUse">
<stop stop-color="#52BBE8"/>
<stop offset="0.196" stop-color="#69C3EB"/>
<stop offset="0.6037" stop-color="#A3D8F1"/>
<stop offset="1" stop-color="#E1EFF8"/>
</linearGradient>
<linearGradient id="paint125_linear_2_38" x1="721.897" y1="986.016" x2="229.87" y2="231.099" gradientUnits="userSpaceOnUse">
<stop stop-color="#52BBE8"/>
<stop offset="0.196" stop-color="#69C3EB"/>
<stop offset="0.6037" stop-color="#A3D8F1"/>
<stop offset="1" stop-color="#E1EFF8"/>
</linearGradient>
<linearGradient id="paint126_linear_2_38" x1="742.977" y1="972.313" x2="250.925" y2="217.357" gradientUnits="userSpaceOnUse">
<stop stop-color="#52BBE8"/>
<stop offset="0.196" stop-color="#69C3EB"/>
<stop offset="0.6037" stop-color="#A3D8F1"/>
<stop offset="1" stop-color="#E1EFF8"/>
</linearGradient>
<linearGradient id="paint127_linear_2_38" x1="469.797" y1="1150.49" x2="-22.334" y2="395.415" gradientUnits="userSpaceOnUse">
<stop stop-color="#52BBE8"/>
<stop offset="0.196" stop-color="#69C3EB"/>
<stop offset="0.6037" stop-color="#A3D8F1"/>
<stop offset="1" stop-color="#E1EFF8"/>
</linearGradient>
<linearGradient id="paint128_linear_2_38" x1="448.694" y1="1164.16" x2="-43.3796" y2="409.17" gradientUnits="userSpaceOnUse">
<stop stop-color="#52BBE8"/>
<stop offset="0.196" stop-color="#69C3EB"/>
<stop offset="0.6037" stop-color="#A3D8F1"/>
<stop offset="1" stop-color="#E1EFF8"/>
</linearGradient>
<linearGradient id="paint129_linear_2_38" x1="473.9" y1="1147.83" x2="-18.2251" y2="392.755" gradientUnits="userSpaceOnUse">
<stop stop-color="#52BBE8"/>
<stop offset="0.196" stop-color="#69C3EB"/>
<stop offset="0.6037" stop-color="#A3D8F1"/>
<stop offset="1" stop-color="#E1EFF8"/>
</linearGradient>
<linearGradient id="paint130_linear_2_38" x1="520.054" y1="1117.6" x2="28.0086" y2="362.651" gradientUnits="userSpaceOnUse">
<stop stop-color="#52BBE8"/>
<stop offset="0.196" stop-color="#69C3EB"/>
<stop offset="0.6037" stop-color="#A3D8F1"/>
<stop offset="1" stop-color="#E1EFF8"/>
</linearGradient>
<linearGradient id="paint131_linear_2_38" x1="515.876" y1="1120.14" x2="23.9416" y2="365.368" gradientUnits="userSpaceOnUse">
<stop stop-color="#52BBE8"/>
<stop offset="0.196" stop-color="#69C3EB"/>
<stop offset="0.6037" stop-color="#A3D8F1"/>
<stop offset="1" stop-color="#E1EFF8"/>
</linearGradient>
<linearGradient id="paint132_linear_2_38" x1="541.128" y1="1103.89" x2="49.0681" y2="348.92" gradientUnits="userSpaceOnUse">
<stop stop-color="#52BBE8"/>
<stop offset="0.196" stop-color="#69C3EB"/>
<stop offset="0.6037" stop-color="#A3D8F1"/>
<stop offset="1" stop-color="#E1EFF8"/>
</linearGradient>
<linearGradient id="paint133_linear_2_38" x1="608.38" y1="1059.98" x2="116.364" y2="305.082" gradientUnits="userSpaceOnUse">
<stop stop-color="#52BBE8"/>
<stop offset="0.196" stop-color="#69C3EB"/>
<stop offset="0.6037" stop-color="#A3D8F1"/>
<stop offset="1" stop-color="#E1EFF8"/>
</linearGradient>
<linearGradient id="paint134_linear_2_38" x1="604.308" y1="1062.69" x2="112.257" y2="307.739" gradientUnits="userSpaceOnUse">
<stop stop-color="#52BBE8"/>
<stop offset="0.196" stop-color="#69C3EB"/>
<stop offset="0.6037" stop-color="#A3D8F1"/>
<stop offset="1" stop-color="#E1EFF8"/>
</linearGradient>
<linearGradient id="paint135_linear_2_38" x1="583.188" y1="1076.33" x2="91.2231" y2="321.511" gradientUnits="userSpaceOnUse">
<stop stop-color="#52BBE8"/>
<stop offset="0.196" stop-color="#69C3EB"/>
<stop offset="0.6037" stop-color="#A3D8F1"/>
<stop offset="1" stop-color="#E1EFF8"/>
</linearGradient>
<linearGradient id="paint136_linear_2_38" x1="717.859" y1="988.777" x2="225.733" y2="233.708" gradientUnits="userSpaceOnUse">
<stop stop-color="#52BBE8"/>
<stop offset="0.196" stop-color="#69C3EB"/>
<stop offset="0.6037" stop-color="#A3D8F1"/>
<stop offset="1" stop-color="#E1EFF8"/>
</linearGradient>
<linearGradient id="paint137_linear_2_38" x1="940.72" y1="843.401" x2="448.712" y2="88.5225" gradientUnits="userSpaceOnUse">
<stop stop-color="#52BBE8"/>
<stop offset="0.196" stop-color="#69C3EB"/>
<stop offset="0.6037" stop-color="#A3D8F1"/>
<stop offset="1" stop-color="#E1EFF8"/>
</linearGradient>
<linearGradient id="paint138_linear_2_38" x1="991.074" y1="810.652" x2="498.983" y2="55.6411" gradientUnits="userSpaceOnUse">
<stop stop-color="#52BBE8"/>
<stop offset="0.196" stop-color="#69C3EB"/>
<stop offset="0.6037" stop-color="#A3D8F1"/>
<stop offset="1" stop-color="#E1EFF8"/>
</linearGradient>
<linearGradient id="paint139_linear_2_38" x1="1012.11" y1="796.887" x2="520.078" y2="41.9632" gradientUnits="userSpaceOnUse">
<stop stop-color="#52BBE8"/>
<stop offset="0.196" stop-color="#69C3EB"/>
<stop offset="0.6037" stop-color="#A3D8F1"/>
<stop offset="1" stop-color="#E1EFF8"/>
</linearGradient>
<linearGradient id="paint140_linear_2_38" x1="1058.36" y1="766.795" x2="566.266" y2="11.7819" gradientUnits="userSpaceOnUse">
<stop stop-color="#52BBE8"/>
<stop offset="0.196" stop-color="#69C3EB"/>
<stop offset="0.6037" stop-color="#A3D8F1"/>
<stop offset="1" stop-color="#E1EFF8"/>
</linearGradient>
<linearGradient id="paint141_linear_2_38" x1="1079.41" y1="753.055" x2="587.341" y2="-1.93424" gradientUnits="userSpaceOnUse">
<stop stop-color="#52BBE8"/>
<stop offset="0.196" stop-color="#69C3EB"/>
<stop offset="0.6037" stop-color="#A3D8F1"/>
<stop offset="1" stop-color="#E1EFF8"/>
</linearGradient>
<linearGradient id="paint142_linear_2_38" x1="1054.25" y1="769.452" x2="562.179" y2="14.4593" gradientUnits="userSpaceOnUse">
<stop stop-color="#52BBE8"/>
<stop offset="0.196" stop-color="#69C3EB"/>
<stop offset="0.6037" stop-color="#A3D8F1"/>
<stop offset="1" stop-color="#E1EFF8"/>
</linearGradient>
<linearGradient id="paint143_linear_2_38" x1="537.074" y1="1106.63" x2="44.9492" y2="351.558" gradientUnits="userSpaceOnUse">
<stop stop-color="#52BBE8"/>
<stop offset="0.196" stop-color="#69C3EB"/>
<stop offset="0.6037" stop-color="#A3D8F1"/>
<stop offset="1" stop-color="#E1EFF8"/>
</linearGradient>
<linearGradient id="paint144_linear_2_38" x1="511.833" y1="1122.9" x2="19.8285" y2="368.017" gradientUnits="userSpaceOnUse">
<stop stop-color="#52BBE8"/>
<stop offset="0.196" stop-color="#69C3EB"/>
<stop offset="0.6037" stop-color="#A3D8F1"/>
<stop offset="1" stop-color="#E1EFF8"/>
</linearGradient>
<linearGradient id="paint145_linear_2_38" x1="650.557" y1="1032.61" x2="158.464" y2="277.589" gradientUnits="userSpaceOnUse">
<stop stop-color="#52BBE8"/>
<stop offset="0.196" stop-color="#69C3EB"/>
<stop offset="0.6037" stop-color="#A3D8F1"/>
<stop offset="1" stop-color="#E1EFF8"/>
</linearGradient>
<linearGradient id="paint146_linear_2_38" x1="671.603" y1="1018.85" x2="179.537" y2="263.875" gradientUnits="userSpaceOnUse">
<stop stop-color="#52BBE8"/>
<stop offset="0.196" stop-color="#69C3EB"/>
<stop offset="0.6037" stop-color="#A3D8F1"/>
<stop offset="1" stop-color="#E1EFF8"/>
</linearGradient>
<linearGradient id="paint147_linear_2_38" x1="667.53" y1="1021.56" x2="175.409" y2="266.5" gradientUnits="userSpaceOnUse">
<stop stop-color="#52BBE8"/>
<stop offset="0.196" stop-color="#69C3EB"/>
<stop offset="0.6037" stop-color="#A3D8F1"/>
<stop offset="1" stop-color="#E1EFF8"/>
</linearGradient>
<linearGradient id="paint148_linear_2_38" x1="646.454" y1="1035.27" x2="154.365" y2="280.255" gradientUnits="userSpaceOnUse">
<stop stop-color="#52BBE8"/>
<stop offset="0.196" stop-color="#69C3EB"/>
<stop offset="0.6037" stop-color="#A3D8F1"/>
<stop offset="1" stop-color="#E1EFF8"/>
</linearGradient>
<linearGradient id="paint149_linear_2_38" x1="915.573" y1="859.814" x2="423.536" y2="104.882" gradientUnits="userSpaceOnUse">
<stop stop-color="#52BBE8"/>
<stop offset="0.196" stop-color="#69C3EB"/>
<stop offset="0.6037" stop-color="#A3D8F1"/>
<stop offset="1" stop-color="#E1EFF8"/>
</linearGradient>
<linearGradient id="paint150_linear_2_38" x1="1008.06" y1="799.618" x2="515.888" y2="44.4838" gradientUnits="userSpaceOnUse">
<stop stop-color="#52BBE8"/>
<stop offset="0.196" stop-color="#69C3EB"/>
<stop offset="0.6037" stop-color="#A3D8F1"/>
<stop offset="1" stop-color="#E1EFF8"/>
</linearGradient>
<linearGradient id="paint151_linear_2_38" x1="982.834" y1="815.922" x2="490.912" y2="61.1667" gradientUnits="userSpaceOnUse">
<stop stop-color="#52BBE8"/>
<stop offset="0.196" stop-color="#69C3EB"/>
<stop offset="0.6037" stop-color="#A3D8F1"/>
<stop offset="1" stop-color="#E1EFF8"/>
</linearGradient>
<linearGradient id="paint152_linear_2_38" x1="398.901" y1="1197.77" x2="-93.9361" y2="441.599" gradientUnits="userSpaceOnUse">
<stop stop-color="#52BBE8"/>
<stop offset="0.196" stop-color="#69C3EB"/>
<stop offset="0.6037" stop-color="#A3D8F1"/>
<stop offset="1" stop-color="#E1EFF8"/>
</linearGradient>
<linearGradient id="paint153_linear_2_38" x1="444.537" y1="1166.73" x2="-47.4446" y2="411.875" gradientUnits="userSpaceOnUse">
<stop stop-color="#52BBE8"/>
<stop offset="0.196" stop-color="#69C3EB"/>
<stop offset="0.6037" stop-color="#A3D8F1"/>
<stop offset="1" stop-color="#E1EFF8"/>
</linearGradient>
<linearGradient id="paint154_linear_2_38" x1="465.725" y1="1153.2" x2="-26.458" y2="398.045" gradientUnits="userSpaceOnUse">
<stop stop-color="#52BBE8"/>
<stop offset="0.196" stop-color="#69C3EB"/>
<stop offset="0.6037" stop-color="#A3D8F1"/>
<stop offset="1" stop-color="#E1EFF8"/>
</linearGradient>
<linearGradient id="paint155_linear_2_38" x1="532.946" y1="1109.25" x2="40.8601" y2="354.242" gradientUnits="userSpaceOnUse">
<stop stop-color="#52BBE8"/>
<stop offset="0.196" stop-color="#69C3EB"/>
<stop offset="0.6037" stop-color="#A3D8F1"/>
<stop offset="1" stop-color="#E1EFF8"/>
</linearGradient>
<linearGradient id="paint156_linear_2_38" x1="579.259" y1="1079.26" x2="87.0139" y2="324.015" gradientUnits="userSpaceOnUse">
<stop stop-color="#52BBE8"/>
<stop offset="0.196" stop-color="#69C3EB"/>
<stop offset="0.6037" stop-color="#A3D8F1"/>
<stop offset="1" stop-color="#E1EFF8"/>
</linearGradient>
<linearGradient id="paint157_linear_2_38" x1="600.211" y1="1065.36" x2="108.161" y2="310.409" gradientUnits="userSpaceOnUse">
<stop stop-color="#52BBE8"/>
<stop offset="0.196" stop-color="#69C3EB"/>
<stop offset="0.6037" stop-color="#A3D8F1"/>
<stop offset="1" stop-color="#E1EFF8"/>
</linearGradient>
<linearGradient id="paint158_linear_2_38" x1="869.365" y1="889.961" x2="377.282" y2="134.959" gradientUnits="userSpaceOnUse">
<stop stop-color="#52BBE8"/>
<stop offset="0.196" stop-color="#69C3EB"/>
<stop offset="0.6037" stop-color="#A3D8F1"/>
<stop offset="1" stop-color="#E1EFF8"/>
</linearGradient>
<linearGradient id="paint159_linear_2_38" x1="936.648" y1="846.103" x2="444.57" y2="91.1074" gradientUnits="userSpaceOnUse">
<stop stop-color="#52BBE8"/>
<stop offset="0.196" stop-color="#69C3EB"/>
<stop offset="0.6037" stop-color="#A3D8F1"/>
<stop offset="1" stop-color="#E1EFF8"/>
</linearGradient>
</defs>
</svg>
