<svg width="42" height="42" viewBox="0 0 42 42" fill="none" xmlns="http://www.w3.org/2000/svg">
<path opacity="0.4" d="M13.6675 3.5H28.315C34.7025 3.5 38.5 7.2975 38.5 13.6675V28.315C38.5 34.685 34.7025 38.4825 28.3325 38.4825H13.6675C7.2975 38.5 3.5 34.7025 3.5 28.3325V13.6675C3.5 7.2975 7.2975 3.5 13.6675 3.5Z" fill="white"/>
<path d="M30.9575 23.59C30.8175 23.275 30.5725 23.0125 30.24 22.8725C30.0825 22.8025 29.9075 22.7675 29.7325 22.7675H12.25C11.5325 22.7675 10.9375 23.3625 10.9375 24.08C10.9375 24.7975 11.5325 25.3925 12.25 25.3925H26.5825L23.66 28.315C23.1525 28.8225 23.1525 29.6625 23.66 30.17C23.9225 30.4325 24.255 30.555 24.5875 30.555C24.92 30.555 25.2525 30.4325 25.515 30.17L30.6775 25.0075C30.8 24.885 30.8875 24.745 30.9575 24.5875C31.0975 24.255 31.0975 23.905 30.9575 23.59Z" fill="white"/>
<path d="M11.0425 18.41C11.1825 18.725 11.4275 18.9875 11.76 19.1275C11.9175 19.1975 12.075 19.2325 12.25 19.2325H29.75C30.4675 19.2325 31.0625 18.6375 31.0625 17.92C31.0625 17.2025 30.4675 16.6075 29.75 16.6075H15.4175L18.34 13.685C18.8475 13.1775 18.8475 12.3375 18.34 11.83C17.8325 11.3225 16.9925 11.3225 16.485 11.83L11.3225 16.9925C11.2 17.115 11.1125 17.255 11.0425 17.4125C10.9025 17.745 10.9025 18.095 11.0425 18.41Z" fill="white"/>
</svg>
