<svg width="40" height="40" viewBox="0 0 40 40" fill="none" xmlns="http://www.w3.org/2000/svg">
<path d="M15.5339 22.1333H20.6839V34.1333C20.6839 35.8999 22.8839 36.7333 24.0505 35.3999L36.6672 21.0666C37.7672 19.8166 36.8839 17.8666 35.2172 17.8666H30.0672V5.86662C30.0672 4.09995 27.8672 3.26662 26.7006 4.59995L14.0839 18.9333C13.0005 20.1833 13.8839 22.1333 15.5339 22.1333Z" fill="white"/>
<path opacity="0.4" d="M14.1667 7.91667H2.5C1.81667 7.91667 1.25 7.35001 1.25 6.66667C1.25 5.98334 1.81667 5.41667 2.5 5.41667H14.1667C14.85 5.41667 15.4167 5.98334 15.4167 6.66667C15.4167 7.35001 14.85 7.91667 14.1667 7.91667Z" fill="white"/>
<path opacity="0.4" d="M12.5 34.5833H2.5C1.81667 34.5833 1.25 34.0167 1.25 33.3333C1.25 32.65 1.81667 32.0833 2.5 32.0833H12.5C13.1833 32.0833 13.75 32.65 13.75 33.3333C13.75 34.0167 13.1833 34.5833 12.5 34.5833Z" fill="white"/>
<path opacity="0.4" d="M7.5 21.25H2.5C1.81667 21.25 1.25 20.6833 1.25 20C1.25 19.3167 1.81667 18.75 2.5 18.75H7.5C8.18333 18.75 8.75 19.3167 8.75 20C8.75 20.6833 8.18333 21.25 7.5 21.25Z" fill="white"/>
</svg>
