<svg width="99" height="111" viewBox="0 0 99 111" fill="none" xmlns="http://www.w3.org/2000/svg">
<g clip-path="url(#clip0_21_1482)">
<path d="M99 75.2679C99 77.893 98.3146 80.4717 97.013 82.7438C95.7113 85.0159 93.8394 86.901 91.5861 88.209L56.8622 108.363C54.6222 109.664 52.0839 110.348 49.5004 110.348C46.9169 110.348 44.3785 109.664 42.1385 108.363L7.41467 88.209C5.16123 86.9011 3.28916 85.016 1.98735 82.7439C0.685532 80.4718 3.05176e-05 77.8931 0 75.2679V35.0799C-3.8147e-05 32.4548 0.685356 29.8761 1.98703 27.604C3.28871 25.3319 5.16063 23.4468 7.41393 22.1388L42.1378 1.98436C44.3778 0.684202 46.9161 0 49.4996 0C52.0831 0 54.6215 0.684202 56.8615 1.98436L91.5853 22.1388C93.8388 23.4467 95.7108 25.3318 97.0127 27.6039C98.3145 29.876 99 32.4547 99 35.0799V75.2679Z" fill="#1D86CC"/>
<path d="M45.2199 7.59547L10.9394 27.5955C9.63614 28.3555 8.55386 29.4488 7.80165 30.7654C7.04943 32.082 6.65376 33.5754 6.6543 35.0955L6.67576 75.1395C6.67672 76.6572 7.0727 78.1481 7.82401 79.4625C8.57533 80.7769 9.65554 81.8686 10.9564 82.6283L45.2769 102.669C46.5798 103.428 48.0575 103.828 49.5619 103.828C51.0662 103.828 52.5441 103.428 53.847 102.669L88.1277 82.6746C89.4309 81.9145 90.513 80.8212 91.2653 79.5046C92.0175 78.1881 92.4131 76.6947 92.4126 75.1746L92.3913 35.1305C92.3902 33.6129 91.994 32.1222 91.2427 30.808C90.4914 29.4937 89.4113 28.4021 88.1105 27.6425L53.7902 7.60143C52.4873 6.84165 51.0094 6.44165 49.505 6.44165C48.0007 6.44165 46.5228 6.84165 45.2199 7.60143V7.59547Z" fill="white"/>
<path d="M33.9051 89.1335C33.9579 88.8726 34.0735 88.6288 34.2419 88.4238C44.497 70.8477 54.7535 53.2723 65.0111 35.6977C65.1537 35.4537 65.2858 35.2029 65.407 34.9843C65.3169 34.8253 65.2142 34.8582 65.127 34.8582C60.7444 34.8738 56.3618 34.9022 51.9763 34.897C51.7888 34.8936 51.6049 34.9483 51.4492 35.0537C51.2935 35.1591 51.1734 35.3102 51.1052 35.4866C47.7993 41.0089 44.4891 46.5298 41.1748 52.0492C34.1537 63.7502 27.1319 75.4509 20.1093 87.1514C20.0472 87.2552 19.9822 87.3567 19.9268 87.4634C19.8026 87.7052 19.6616 87.7433 19.4096 87.5955C18.3199 86.9455 17.2184 86.3164 16.0607 85.644L47.3122 35.0156C47.245 34.8097 47.1067 34.8612 47.0003 34.8574C45.3255 34.8067 43.65 34.7336 41.9766 34.7186C39.6258 34.6483 37.2829 35.0297 35.073 35.8425C33.0604 36.5952 31.35 37.9978 30.2073 39.8328C24.4973 48.8288 18.7657 57.8109 13.0124 66.7791C12.9222 66.9209 12.8262 67.0597 12.7332 67.2C12.4036 67.2 12.4523 66.9253 12.422 66.7335C12.3928 66.4447 12.3861 66.1541 12.4014 65.8642C12.4014 55.9448 12.4354 46.0254 12.3711 36.1067C12.3195 35.252 12.5229 34.4014 12.9552 33.6648C13.3875 32.9283 14.0288 32.3397 14.7959 31.9753C22.3472 27.6268 29.8498 23.1888 37.3767 18.7963C40.7361 16.8358 44.1058 14.894 47.4408 12.8925C48.0681 12.4674 48.8064 12.2404 49.5618 12.2404C50.3172 12.2404 51.0557 12.4674 51.683 12.8925C57.8151 16.5276 64.0017 20.0783 70.1656 23.6619C74.8146 26.3659 79.4661 29.0651 84.1196 31.7597C84.4528 31.9515 84.7769 32.1567 85.1116 32.3455C85.6558 32.6376 86.1058 33.0809 86.4085 33.6231C86.7112 34.1653 86.8539 34.7837 86.8197 35.4052C86.8286 46.1953 86.8286 56.9853 86.8197 67.7753C86.8414 68.0408 86.8128 68.308 86.7355 68.5626C86.3661 68.9231 86.2325 68.5186 86.0981 68.3268C85.544 67.5395 85.0467 66.7104 84.5317 65.8955C80.4082 59.3781 76.2708 52.8669 72.1197 46.3619C70.7249 44.1642 69.3123 41.9753 67.9322 39.7686C67.6101 39.2537 67.5518 39.2462 67.2297 39.7992C65.1472 43.3584 63.066 46.9184 60.9861 50.4791C60.872 50.677 60.8227 50.9063 60.8455 51.1342C60.8684 51.3621 60.962 51.5769 61.113 51.7477C62.8281 54.5428 64.5398 57.3398 66.2484 60.1388L75.0086 74.4522C76.1907 76.3865 77.3746 78.3191 78.5607 80.25C78.7808 80.5088 78.9047 80.8372 78.9109 81.1783C78.6738 81.6544 78.1794 81.788 77.7679 82.0044C77.0926 82.4971 76.3504 82.8885 75.5641 83.1664C75.14 83.0597 74.99 82.6731 74.7891 82.3567C72.0769 78.0835 69.3996 73.7888 66.7051 69.5052C63.9339 65.1022 61.1759 60.6828 58.3928 56.2843C58.036 55.7201 57.979 55.7164 57.6436 56.2843C55.2225 60.3985 52.8347 64.5321 50.4077 68.6418C50.2836 68.8344 50.2226 69.0615 50.2333 69.2911C50.2441 69.5206 50.3261 69.7409 50.4676 69.9209C53.7368 75.0104 56.9307 80.1447 60.1652 85.2597C61.0673 86.685 61.9759 88.1052 62.8617 89.541C63.0346 89.8201 63.2711 90.0985 63.1145 90.4761C62.2653 91.1434 61.3491 91.7187 60.3809 92.1925C57.3597 93.9681 54.337 95.7413 51.3129 97.5119C50.8284 97.8278 50.2639 97.9958 49.6873 97.9958C49.1107 97.9958 48.5464 97.8278 48.062 97.5119C43.6075 94.909 39.145 92.3176 34.6742 89.738C34.366 89.6144 34.099 89.4047 33.9044 89.1335H33.9051Z" fill="#2D374B"/>
<path d="M86.6034 68.6709C86.6101 68.4045 86.6232 68.1388 86.6232 67.8731C86.6232 57.1075 86.6268 46.3423 86.6337 35.5776C86.6716 34.9248 86.5198 34.275 86.1972 33.708C85.8746 33.141 85.3952 32.6814 84.8177 32.3858C73.6263 25.9052 62.4429 19.4099 51.2677 12.9C50.7645 12.5693 50.1776 12.3925 49.5772 12.3909C48.9769 12.3893 48.389 12.563 47.8841 12.891C41.6781 16.5343 35.4641 20.1682 29.2424 23.7925C24.2505 26.7114 19.2591 29.6311 14.2677 32.5515C13.7347 32.8309 13.2926 33.2598 12.995 33.7866C12.6974 34.3135 12.5568 34.9159 12.5899 35.5216C12.6155 45.8515 12.6299 56.1813 12.6333 66.5112C12.6333 66.741 12.541 66.997 12.7398 67.2C11.5577 69.188 10.2589 71.0985 9.01399 73.044C8.39044 74.0181 7.76443 74.9906 7.13595 75.9612C7.03547 76.1164 6.91947 76.2597 6.72073 76.5366C6.70596 76.2112 6.69043 76.0313 6.69043 75.8522C6.69043 62.2298 6.6929 48.6075 6.69782 34.9851C6.66482 33.4731 7.04472 31.9813 7.79593 30.6731C8.54714 29.365 9.64056 28.2911 10.9562 27.5694C15.296 24.9664 19.6934 22.4605 24.0619 19.9037C27.7481 17.748 31.4291 15.5853 35.1049 13.4157C38.5403 11.4007 41.941 9.32536 45.4348 7.42013C46.7729 6.66748 48.2866 6.2916 49.8177 6.33177C51.3488 6.37194 52.8411 6.82668 54.1387 7.64849C56.9462 9.25745 59.7418 10.8963 62.5412 12.5216C65.1743 14.0525 67.8072 15.5843 70.4399 17.1172C72.8661 18.5281 75.2931 19.9375 77.7208 21.3455C80.1278 22.742 82.535 24.1378 84.9425 25.5328C86.0005 26.147 87.0577 26.7619 88.109 27.3873C89.2696 28.0506 90.2677 28.9694 91.0287 30.0756C91.7897 31.1817 92.2943 32.4468 92.505 33.7768C92.555 34.161 92.5706 34.5488 92.5516 34.9358C92.5516 48.3403 92.5532 61.745 92.5566 75.15C92.5636 76.4237 92.2915 77.6832 91.7599 78.8381C91.2283 79.9931 90.4504 81.015 89.4818 81.8306C88.9292 82.2564 88.335 82.6242 87.7085 82.9284C84.113 85.0473 80.5124 87.1574 76.9066 89.2589C73.0751 91.4977 69.242 93.7328 65.4071 95.9641C61.7224 98.1204 58.0417 100.285 54.3649 102.457C53.4495 103.079 52.4192 103.508 51.3357 103.719C49.5359 104.073 47.6708 103.834 46.0163 103.035C44.1826 102.042 42.3962 100.964 40.5884 99.9179C38.1607 98.5109 35.7342 97.1012 33.3089 95.6888C32.6238 95.2908 31.938 94.895 31.2519 94.5015C31 94.3567 30.828 94.2097 31.0245 93.8776C31.9317 92.3425 32.8249 90.7985 33.7277 89.2604C33.7595 89.2045 33.8407 89.1783 33.8991 89.1373C34.7403 89.5342 35.5548 89.9867 36.3372 90.4918C40.2987 92.7803 44.254 95.0801 48.2032 97.391C48.6594 97.6824 49.1893 97.8344 49.7291 97.8286C50.2689 97.8228 50.7955 97.6594 51.2455 97.3582C54.9964 95.1351 58.7667 92.944 62.5287 90.7418C62.7149 90.6328 62.9054 90.5336 63.0945 90.4306C63.4493 89.9729 63.923 89.6238 64.4629 89.4224C67.8614 87.4552 71.2347 85.4492 74.6324 83.4873C74.9161 83.3239 75.1718 83.0716 75.5412 83.1142L78.8703 81.1664C79.0735 80.7366 79.5071 80.5977 79.8706 80.3858C81.5455 79.4089 83.2049 78.4052 84.8946 77.4597C85.3836 77.1998 85.7879 76.8028 86.059 76.3165C86.3302 75.8301 86.4566 75.2751 86.423 74.7179C86.44 73.006 86.423 71.2933 86.4311 69.5806C86.3723 69.2662 86.4342 68.9409 86.6041 68.6709H86.6034Z" fill="#96BEDC"/>
<path d="M86.6069 68.6702C86.6158 70.7956 86.6623 72.9239 86.615 75.0463C86.6281 75.5436 86.5046 76.0348 86.2582 76.4655C86.0119 76.8963 85.6525 77.2497 85.2195 77.4866C83.1006 78.6986 81.02 79.9792 78.8819 81.1583C78.0315 79.5911 77.0496 78.0986 76.1202 76.5762C71.2934 68.6737 66.4612 60.7757 61.6235 52.8821C61.3339 52.409 61.0685 51.918 60.7449 51.4709C60.6396 51.3427 60.582 51.1812 60.582 51.0146C60.582 50.8479 60.6396 50.6865 60.7449 50.5582C61.8997 48.6075 63.0354 46.6456 64.1783 44.6866L67.3507 39.2508C67.407 39.1216 67.5059 39.0161 67.6306 38.9523C68.1828 39.8115 68.7373 40.6757 69.2944 41.5448C72.6318 46.7936 75.9686 52.0423 79.3045 57.2911L86.0905 67.9754C86.2149 68.2398 86.3908 68.4761 86.6076 68.6702H86.6069Z" fill="#28A0F0"/>
<path d="M75.553 83.106C74.1751 84.0194 72.7138 84.7963 71.2938 85.6433C68.7191 87.1724 66.1281 88.6731 63.5445 90.1851C63.3967 90.2694 63.2489 90.3485 63.1064 90.4299C63.0737 90.1884 62.9709 89.9622 62.8109 89.7798C60.5103 86.1276 58.2094 82.4761 55.9082 78.8254C54.0174 75.8274 52.121 72.8323 50.2193 69.8403C50.0905 69.6851 50.0159 69.4915 50.0068 69.2892C49.9977 69.0869 50.0548 68.8872 50.1691 68.7209C52.7111 64.3965 55.2426 60.0657 57.7634 55.7284C57.8232 55.6284 57.8712 55.5119 58.0197 55.4799C58.2265 55.5269 58.2767 55.7358 58.375 55.8918L72.1169 77.7575C73.0913 79.309 74.0614 80.8642 75.0418 82.4127C75.1666 82.6748 75.3396 82.9106 75.5515 83.1075L75.553 83.106Z" fill="#28A0F0"/>
</g>
<defs>
<clipPath id="clip0_21_1482">
<rect width="99" height="110.348" fill="white"/>
</clipPath>
</defs>
</svg>
