<svg width="16" height="16" viewBox="0 0 16 16" fill="none" xmlns="http://www.w3.org/2000/svg">
<path d="M14.5 10.5494C14.5 10.8824 14.41 11.2096 14.2391 11.4978C14.0681 11.7861 13.8223 12.0253 13.5265 12.1912L8.96675 14.7482C8.67261 14.9132 8.33929 15 8.00005 15C7.6608 15 7.32749 14.9132 7.03334 14.7482L2.47364 12.1912C2.17774 12.0253 1.93191 11.7861 1.76096 11.4979C1.59002 11.2096 1.5 10.8824 1.5 10.5494V5.45064C1.49999 5.11759 1.59 4.79043 1.76092 4.50217C1.93185 4.2139 2.17766 3.97473 2.47355 3.80879L7.03325 1.25176C7.32739 1.08681 7.66071 1 7.99995 1C8.3392 1 8.67251 1.08681 8.96666 1.25176L13.5264 3.80879C13.8223 3.97472 14.0681 4.21388 14.239 4.50215C14.41 4.79041 14.5 5.11758 14.5 5.45064V10.5494Z" fill="#838689"/>
<path d="M7.4382 1.9634L2.93671 4.50084C2.76558 4.59727 2.62346 4.73597 2.52469 4.90301C2.42591 5.07004 2.37395 5.25952 2.37402 5.45237L2.37684 10.5328C2.37697 10.7254 2.42896 10.9145 2.52762 11.0813C2.62628 11.248 2.76813 11.3866 2.93894 11.4829L7.44568 14.0255C7.61676 14.1219 7.81081 14.1726 8.00835 14.1726C8.20589 14.1726 8.39996 14.1219 8.57104 14.0255L13.0725 11.4888C13.2437 11.3924 13.3858 11.2537 13.4846 11.0866C13.5833 10.9196 13.6353 10.7301 13.6352 10.5373L13.6324 5.45682C13.6323 5.26428 13.5802 5.07515 13.4816 4.90841C13.3829 4.74167 13.2411 4.60317 13.0703 4.5068L8.56358 1.96416C8.3925 1.86776 8.19843 1.81702 8.00089 1.81702C7.80334 1.81702 7.60928 1.86776 7.4382 1.96416V1.9634Z" fill="white"/>
<path d="M5.95275 12.3081C5.95968 12.2749 5.97485 12.244 5.99697 12.218C7.3436 9.9881 8.69041 7.75828 10.0374 5.52856C10.0561 5.4976 10.0734 5.46579 10.0894 5.43805C10.0775 5.41788 10.064 5.42205 10.0526 5.42205C9.47711 5.42404 8.90161 5.42763 8.32573 5.42697C8.30112 5.42654 8.27697 5.43348 8.25652 5.44686C8.23607 5.46023 8.22031 5.4794 8.21135 5.50177C7.77724 6.20241 7.34257 6.90285 6.90736 7.6031C5.98539 9.08763 5.06334 10.5721 4.14118 12.0566C4.13303 12.0697 4.12448 12.0826 4.11721 12.0962C4.10091 12.1268 4.08238 12.1317 4.0493 12.1129C3.90621 12.0305 3.76156 11.9506 3.60954 11.8653L7.71327 5.44203C7.70445 5.41589 7.68629 5.42243 7.67232 5.42196C7.45239 5.41552 7.23238 5.40624 7.01264 5.40435C6.70394 5.39542 6.3963 5.44381 6.10611 5.54693C5.84182 5.64243 5.61723 5.82038 5.46718 6.05319C4.71738 7.19453 3.96474 8.3341 3.20926 9.47191C3.19742 9.4899 3.18482 9.50751 3.17259 9.52531C3.12932 9.52531 3.13571 9.49046 3.13174 9.46613C3.12791 9.42949 3.12701 9.39261 3.12903 9.35583C3.12903 8.09734 3.1335 6.83885 3.12506 5.58045C3.11828 5.47202 3.14498 5.3641 3.20175 5.27065C3.25851 5.1772 3.34273 5.10253 3.44346 5.0563C4.43505 4.5046 5.42023 3.94154 6.40862 3.38425C6.84974 3.13552 7.29224 2.88916 7.73016 2.63523C7.81254 2.58129 7.90948 2.55249 8.00868 2.55249C8.10788 2.55249 8.20484 2.58129 8.28722 2.63523C9.09244 3.09642 9.90483 3.54691 10.7142 4.00156C11.3247 4.34462 11.9355 4.68708 12.5466 5.02894C12.5903 5.05327 12.6329 5.0793 12.6768 5.10326C12.7483 5.14032 12.8074 5.19657 12.8471 5.26536C12.8869 5.33414 12.9056 5.4126 12.9011 5.49145C12.9023 6.8604 12.9023 8.22935 12.9011 9.5983C12.904 9.63198 12.9002 9.66588 12.8901 9.69819C12.8416 9.74392 12.824 9.69261 12.8064 9.66827C12.7336 9.56839 12.6683 9.4632 12.6007 9.35981C12.0592 8.53293 11.5159 7.70685 10.9708 6.88155C10.7877 6.60272 10.6022 6.32502 10.421 6.04505C10.3787 5.97972 10.371 5.97877 10.3287 6.04893C10.0552 6.50049 9.78196 6.95215 9.50883 7.4039C9.49385 7.42901 9.48738 7.45811 9.49038 7.48702C9.49338 7.51593 9.50567 7.54318 9.52551 7.56486C9.75071 7.91946 9.97549 8.27433 10.1999 8.62944L11.3502 10.4454C11.5054 10.6908 11.6609 10.936 11.8166 11.181C11.8455 11.2138 11.8618 11.2555 11.8626 11.2988C11.8315 11.3592 11.7665 11.3761 11.7125 11.4036C11.6238 11.4661 11.5264 11.5157 11.4231 11.551C11.3674 11.5375 11.3477 11.4884 11.3213 11.4483C10.9652 10.9061 10.6136 10.3612 10.2598 9.81777C9.89592 9.25916 9.53376 8.69846 9.16831 8.14041C9.12145 8.06884 9.11396 8.06836 9.06992 8.14041C8.752 8.66239 8.43845 9.18682 8.11976 9.70823C8.10346 9.73266 8.09545 9.76148 8.09686 9.79061C8.09827 9.81973 8.10904 9.84768 8.12762 9.87051C8.55692 10.5162 8.97631 11.1676 9.40104 11.8166C9.5195 11.9974 9.63881 12.1776 9.75514 12.3598C9.77784 12.3952 9.80889 12.4305 9.78832 12.4784C9.67682 12.5631 9.55651 12.636 9.42937 12.6961C9.03264 12.9214 8.63573 13.1464 8.23861 13.371C8.175 13.4111 8.10088 13.4324 8.02516 13.4324C7.94945 13.4324 7.87534 13.4111 7.81173 13.371C7.2268 13.0408 6.64081 12.712 6.05374 12.3847C6.01327 12.3691 5.9783 12.3425 5.95275 12.3081Z" fill="#838689"/>
<path d="M12.8728 9.71217C12.8736 9.67837 12.8754 9.64466 12.8754 9.61096C12.8754 8.2451 12.8758 6.8793 12.8768 5.51357C12.8817 5.43074 12.8618 5.3483 12.8194 5.27637C12.7771 5.20443 12.7141 5.14613 12.6383 5.10862C11.1687 4.28642 9.70018 3.46235 8.23273 2.63642C8.16666 2.59447 8.08958 2.57204 8.01075 2.57184C7.93192 2.57164 7.85472 2.59367 7.78842 2.63529C6.97349 3.09752 6.15752 3.55855 5.34052 4.01838C4.68502 4.38871 4.02958 4.75913 3.37415 5.12964C3.30415 5.16509 3.2461 5.2195 3.20702 5.28635C3.16794 5.35319 3.14948 5.42962 3.15382 5.50647C3.15719 6.81703 3.15908 8.1276 3.15953 9.43816C3.15953 9.46733 3.14741 9.4998 3.17351 9.52555C3.01828 9.77778 2.84773 10.0202 2.68426 10.267C2.60238 10.3906 2.52018 10.514 2.43765 10.6371C2.42446 10.6568 2.40923 10.675 2.38313 10.7101C2.38119 10.6688 2.37915 10.646 2.37915 10.6233C2.37915 8.89498 2.37947 7.16669 2.38012 5.43839C2.37579 5.24657 2.42567 5.0573 2.52432 4.89133C2.62296 4.72536 2.76654 4.58912 2.93931 4.49756C3.50917 4.16731 4.08661 3.84938 4.66026 3.525C5.1443 3.2515 5.62766 2.97711 6.11034 2.70185C6.56146 2.44621 7.00801 2.18291 7.4668 1.94119C7.64251 1.8457 7.84127 1.79801 8.04233 1.8031C8.24338 1.8082 8.43933 1.86589 8.60973 1.97016C8.97839 2.17429 9.3455 2.38221 9.71309 2.58842C10.0588 2.78264 10.4046 2.97699 10.7503 3.17146C11.0689 3.35047 11.3876 3.52929 11.7064 3.70792C12.0224 3.8851 12.3385 4.06218 12.6547 4.23917C12.7936 4.31709 12.9324 4.39511 13.0705 4.47445C13.2229 4.55861 13.3539 4.67518 13.4539 4.81552C13.5538 4.95586 13.6201 5.11636 13.6477 5.28511C13.6543 5.33384 13.6563 5.38305 13.6538 5.43214C13.6538 7.13279 13.6541 8.83347 13.6545 10.5342C13.6554 10.6958 13.6197 10.8556 13.5499 11.0021C13.4801 11.1486 13.3779 11.2783 13.2507 11.3818C13.1782 11.4358 13.1001 11.4825 13.0179 11.521C12.5458 11.7899 12.0729 12.0576 11.5995 12.3242C11.0963 12.6083 10.593 12.8918 10.0894 13.1749C9.60557 13.4485 9.12224 13.723 8.63943 13.9986C8.51923 14.0776 8.38393 14.132 8.24166 14.1587C8.00532 14.2038 7.76042 14.1733 7.54316 14.072C7.30237 13.946 7.06779 13.8093 6.8304 13.6765C6.51161 13.498 6.19297 13.3192 5.87451 13.14C5.78454 13.0895 5.69449 13.0393 5.6044 12.9893C5.57132 12.971 5.54873 12.9523 5.57453 12.9102C5.69367 12.7154 5.81095 12.5195 5.9295 12.3244C5.93367 12.3173 5.94434 12.314 5.952 12.3088C6.06247 12.3591 6.16942 12.4165 6.27216 12.4806C6.79235 12.771 7.31174 13.0627 7.83032 13.3559C7.89023 13.3929 7.95981 13.4122 8.0307 13.4115C8.10158 13.4107 8.17073 13.39 8.22982 13.3518C8.72236 13.0697 9.21745 12.7917 9.71145 12.5123C9.7359 12.4985 9.76092 12.4859 9.78575 12.4729C9.83233 12.4148 9.89454 12.3705 9.96543 12.3449C10.4117 12.0954 10.8547 11.8409 11.3008 11.592C11.3381 11.5712 11.3716 11.5392 11.4202 11.5446L11.8573 11.2975C11.884 11.243 11.9409 11.2253 11.9887 11.1985C12.2086 11.0745 12.4265 10.9472 12.6484 10.8272C12.7126 10.7942 12.7657 10.7439 12.8013 10.6822C12.8369 10.6205 12.8535 10.5501 12.8491 10.4794C12.8513 10.2622 12.8491 10.0449 12.8502 9.82758C12.8424 9.78769 12.8506 9.74643 12.8729 9.71217H12.8728Z" fill="white"/>
<path d="M12.8727 9.71226C12.8739 9.98191 12.88 10.2519 12.8738 10.5212C12.8755 10.5843 12.8593 10.6466 12.8269 10.7013C12.7946 10.7559 12.7474 10.8007 12.6905 10.8308C12.4123 10.9846 12.1391 11.147 11.8583 11.2966C11.7467 11.0978 11.6177 10.9084 11.4957 10.7153C10.8619 9.7127 10.2273 8.71066 9.59208 7.7092C9.55405 7.64917 9.5192 7.58687 9.47671 7.53016C9.46288 7.51388 9.45532 7.4934 9.45532 7.47226C9.45532 7.45112 9.46288 7.43064 9.47671 7.41436C9.62834 7.16687 9.77748 6.91796 9.92756 6.66942L10.3441 5.97977C10.3515 5.96337 10.3645 5.94999 10.3809 5.94189C10.4534 6.0509 10.5262 6.16054 10.5994 6.27081C11.0376 6.93673 11.4758 7.60265 11.9138 8.26857L12.8049 9.62411C12.8213 9.65765 12.8443 9.68762 12.8728 9.71226H12.8727Z" fill="white"/>
<path d="M11.4221 11.5435C11.2411 11.6594 11.0492 11.758 10.8628 11.8655C10.5247 12.0595 10.1844 12.2499 9.84518 12.4417C9.82578 12.4524 9.80637 12.4624 9.78765 12.4727C9.78336 12.4421 9.76986 12.4134 9.74885 12.3903C9.44675 11.9269 9.14461 11.4636 8.84244 11.0005C8.59415 10.6201 8.34512 10.2401 8.09541 9.86051C8.0785 9.84082 8.0687 9.81625 8.06751 9.79059C8.06631 9.76493 8.07381 9.73959 8.08882 9.71849C8.42262 9.16984 8.75503 8.62039 9.08604 8.0701C9.0939 8.05742 9.1002 8.04265 9.1197 8.03857C9.14686 8.04454 9.15346 8.07105 9.16636 8.09084L10.9708 10.865C11.0988 11.0618 11.2262 11.2591 11.3549 11.4556C11.3713 11.4888 11.394 11.5188 11.4219 11.5437L11.4221 11.5435Z" fill="white"/>
</svg>
