<svg width="16" height="16" viewBox="0 0 16 16" fill="none" xmlns="http://www.w3.org/2000/svg">
<path d="M8 15C11.866 15 15 11.866 15 8C15 4.13401 11.866 1 8 1C4.13401 1 1 4.13401 1 8C1 11.866 4.13401 15 8 15Z" fill="#838689"/>
<path d="M10.4695 8.1819C10.712 7.76301 11.1033 7.76301 11.3459 8.1819L12.8561 10.8331C13.0986 11.252 12.9002 11.5937 12.4151 11.5937H9.37262C8.8931 11.5937 8.69467 11.252 8.93168 10.8331L10.4695 8.1819ZM7.54821 3.07797C7.79073 2.65907 8.17656 2.65907 8.41908 3.07797L8.7553 3.68427L9.549 5.07875C9.74192 5.4756 9.74192 5.94411 9.549 6.34096L6.8868 10.9543C6.64428 11.3291 6.24192 11.5662 5.79546 11.5937H3.58522C3.10018 11.5937 2.90176 11.2575 3.14428 10.8331L7.54821 3.07797Z" fill="white"/>
</svg>
