<svg width="100" height="118" viewBox="0 0 100 118" fill="none" xmlns="http://www.w3.org/2000/svg">
<g clip-path="url(#clip0_21_1487)">
<path d="M61.2921 97.8684V111.085L49.8371 117.857L38.7079 111.085V97.8684L49.8371 104.641L61.2921 97.8684ZM0 52.1564L11.1292 58.9286V81.5934L30.2932 93.117V106.334L0 88.3655V52.1564ZM99.6743 52.1564V88.4202L69.0554 106.388V93.1716L88.2193 81.648V58.9832L99.6743 52.1564ZM69.0011 34.1884L80.456 40.9605V54.1771L61.2921 65.7007V88.6932L50.1629 95.4654L39.088 88.6932V65.6461L19.2182 54.1225V40.9059L30.6732 34.1338L49.8371 45.6574L69.0011 34.1884ZM19.2182 63.6254L30.3475 70.3975V83.6141L19.2182 76.842V63.6254ZM80.456 63.6254V76.842L69.3268 83.6141V70.3975L80.456 63.6254ZM11.1292 22.6648L22.5842 29.437L11.1292 36.2091V49.4257L0 42.6536V29.437L11.1292 22.6648ZM88.5451 22.6648L100 29.437V42.6536L88.5451 49.4257V36.2091L77.4159 29.437L88.5451 22.6648ZM49.8371 22.6648L61.2921 29.437L49.8371 36.2091L38.7079 29.437L49.8371 22.6648ZM49.8371 0L80.456 17.968L69.3268 24.7402L50.1629 13.2166L30.6189 24.7402L19.4897 17.968L49.8371 0Z" fill="#F3BA2F"/>
</g>
<defs>
<clipPath id="clip0_21_1487">
<rect width="100" height="117.857" fill="white"/>
</clipPath>
</defs>
</svg>
