<svg width="16" height="16" viewBox="0 0 16 16" fill="none" xmlns="http://www.w3.org/2000/svg">
<path d="M7.75346 1.10099L3.96584 4.88983C3.82291 5.0328 3.82291 5.25441 3.96584 5.39739L4.88773 6.31958C5.03066 6.46255 5.2522 6.46255 5.39513 6.31958L7.74631 3.96764C7.88924 3.82466 8.11078 3.82466 8.25371 3.96764L10.6049 6.31958C10.7478 6.46255 10.9694 6.46255 11.1123 6.31958L12.0342 5.39739C12.1771 5.25441 12.1771 5.0328 12.0342 4.88983L8.25371 1.10814C8.11793 0.965167 7.88924 0.965167 7.75346 1.10099Z" fill="white"/>
<path d="M7.75388 14.8984L3.97341 11.1167C3.83048 10.9737 3.83048 10.7521 3.97341 10.6091L4.8953 9.68694C5.03823 9.54397 5.25977 9.54397 5.4027 9.68694L7.75388 12.0389C7.89681 12.1819 8.11835 12.1819 8.26128 12.0389L10.6125 9.68694C10.7554 9.54397 10.9769 9.54397 11.1199 9.68694L12.0418 10.6091C12.1847 10.7521 12.1847 10.9737 12.0418 11.1167L8.26128 14.8984C8.11835 15.0342 7.88966 15.0342 7.75388 14.8984Z" fill="white"/>
<path opacity="0.4" d="M13.7918 6.64176L14.8924 7.74267C15.0353 7.88565 15.0353 8.10726 14.8924 8.25023L13.7918 9.35829C13.6489 9.50126 13.4273 9.50126 13.2844 9.35829L12.1839 8.25738C12.0409 8.11441 12.0409 7.89279 12.1839 7.74982L13.2844 6.64891C13.4273 6.50594 13.656 6.50594 13.7918 6.64176Z" fill="white"/>
<path opacity="0.4" d="M2.71515 6.64081L3.8157 7.74172C3.95863 7.88469 3.95863 8.1063 3.8157 8.24928L2.71515 9.35733C2.57222 9.50031 2.35068 9.50031 2.20775 9.35733L1.1072 8.25643C0.964268 8.11345 0.964268 7.89184 1.1072 7.74886L2.2149 6.64081C2.35068 6.50498 2.57937 6.50498 2.71515 6.64081Z" fill="white"/>
<path opacity="0.4" d="M8.25378 6.48394L9.51871 7.74927C9.66164 7.89224 9.66164 8.11385 9.51871 8.25683L8.25378 9.52216C8.11086 9.66513 7.88932 9.66513 7.74639 9.52216L6.48146 8.25683C6.33854 8.11385 6.33854 7.89224 6.48146 7.74927L7.74639 6.48394C7.88932 6.34097 8.118 6.34097 8.25378 6.48394Z" fill="white"/>
</svg>
