<svg width="100" height="100" viewBox="0 0 100 100" fill="none" xmlns="http://www.w3.org/2000/svg">
<path d="M98.5035 62.0961C96.1102 71.687 90.9264 80.353 83.6076 86.9983C76.2888 93.6435 67.1637 97.9697 57.3861 99.4298C47.6084 100.89 37.6173 99.4182 28.6761 95.201C19.7349 90.9837 12.2451 84.2103 7.15367 75.7371C2.06226 67.2639 -0.402084 57.4714 0.0722309 47.5979C0.546546 37.7243 3.93822 28.2131 9.81841 20.2668C15.6986 12.3205 23.8032 6.29606 33.1075 2.95513C42.4118 -0.385802 52.498 -0.893162 62.0906 1.49721C68.4612 3.08524 74.4565 5.91244 79.7342 9.81734C85.0119 13.7223 89.4686 18.6284 92.8499 24.2556C96.2312 29.8828 98.4709 36.1209 99.4409 42.6136C100.411 49.1063 100.092 55.7265 98.5035 62.0961Z" fill="#F7931A"/>
<path d="M72.0473 42.8768C73.0425 36.2232 67.9762 32.6474 61.0491 30.2615L63.2964 21.2493L57.8099 19.8805L55.6227 28.6557C54.18 28.2967 52.6994 27.9576 51.2272 27.6217L53.4302 18.7886L47.9469 17.4198L45.6986 26.4288C44.5044 26.1571 43.3324 25.8886 42.1951 25.6054L42.2014 25.577L34.6352 23.688L33.1756 29.5476C33.1756 29.5476 37.2467 30.4805 37.1604 30.5384C37.9195 30.6294 38.6127 31.0146 39.0908 31.6112C39.5689 32.2078 39.7938 32.9681 39.7172 33.7288L37.1572 43.996C37.3513 44.0445 37.542 44.1057 37.728 44.1793C37.5447 44.134 37.3499 44.0835 37.1477 44.035L33.5589 58.4256C33.4796 58.6764 33.3517 58.9092 33.1823 59.1105C33.0129 59.3118 32.8055 59.4778 32.572 59.5989C32.3384 59.7199 32.0832 59.7938 31.821 59.8161C31.5589 59.8385 31.2949 59.8089 31.0442 59.7291C31.099 59.8091 27.0562 58.7341 27.0562 58.7341L24.333 65.0138L31.4728 66.7933C32.8007 67.126 34.1055 67.4746 35.3839 67.8031L33.1135 76.9184L38.5894 78.2872L40.8377 69.2688C42.3351 69.6752 43.7863 70.05 45.21 70.4028L42.9691 79.3791L48.4556 80.7479L50.726 71.6495C60.0814 73.4195 67.1169 72.7024 70.0781 64.2452C72.4643 57.4327 69.9591 53.5052 65.0371 50.9402C68.6175 50.1136 71.3218 47.7561 72.0421 42.8852L72.0473 42.8768ZM59.5159 60.4535C57.8204 67.2661 46.3526 63.5829 42.63 62.6647L45.6428 50.5885C49.357 51.512 61.284 53.3493 59.5117 60.4535H59.5159ZM61.2134 42.7788C59.6665 48.9754 50.1183 45.8324 47.0213 45.0553L49.7529 34.1047C52.8458 34.8744 62.8193 36.3138 61.2081 42.7788H61.2134Z" fill="white"/>
</svg>
