<svg width="16" height="16" viewBox="0 0 16 16" fill="none" xmlns="http://www.w3.org/2000/svg">
<g opacity="0.6">
<path opacity="0.6" d="M11.0042 6.83317C11.3264 6.83317 11.5876 6.572 11.5876 6.24984C11.5876 5.92767 11.3264 5.6665 11.0042 5.6665C10.6821 5.6665 10.4209 5.92767 10.4209 6.24984C10.4209 6.572 10.6821 6.83317 11.0042 6.83317Z" fill="white"/>
<path opacity="0.6" d="M11.0042 10.3332C11.3264 10.3332 11.5876 10.072 11.5876 9.74984C11.5876 9.42767 11.3264 9.1665 11.0042 9.1665C10.6821 9.1665 10.4209 9.42767 10.4209 9.74984C10.4209 10.072 10.6821 10.3332 11.0042 10.3332Z" fill="white"/>
<path opacity="0.6" d="M12.5199 8.58317C12.842 8.58317 13.1032 8.322 13.1032 7.99984C13.1032 7.67767 12.842 7.4165 12.5199 7.4165C12.1977 7.4165 11.9365 7.67767 11.9365 7.99984C11.9365 8.322 12.1977 8.58317 12.5199 8.58317Z" fill="white"/>
<path opacity="0.6" d="M4.96615 6.83317C5.28831 6.83317 5.54948 6.572 5.54948 6.24984C5.54948 5.92767 5.28831 5.6665 4.96615 5.6665C4.64398 5.6665 4.38281 5.92767 4.38281 6.24984C4.38281 6.572 4.64398 6.83317 4.96615 6.83317Z" fill="white"/>
<path opacity="0.6" d="M4.96615 10.3332C5.28831 10.3332 5.54948 10.072 5.54948 9.74984C5.54948 9.42767 5.28831 9.1665 4.96615 9.1665C4.64398 9.1665 4.38281 9.42767 4.38281 9.74984C4.38281 10.072 4.64398 10.3332 4.96615 10.3332Z" fill="white"/>
<path opacity="0.6" d="M3.44954 8.58317C3.77171 8.58317 4.03288 8.322 4.03288 7.99984C4.03288 7.67767 3.77171 7.4165 3.44954 7.4165C3.12738 7.4165 2.86621 7.67767 2.86621 7.99984C2.86621 8.322 3.12738 8.58317 3.44954 8.58317Z" fill="white"/>
<path opacity="0.6" d="M10.274 4.61637C10.5962 4.61637 10.8573 4.35521 10.8573 4.03304C10.8573 3.71087 10.5962 3.44971 10.274 3.44971C9.95184 3.44971 9.69067 3.71087 9.69067 4.03304C9.69067 4.35521 9.95184 4.61637 10.274 4.61637Z" fill="white"/>
<path opacity="0.6" d="M5.72494 4.61637C6.0471 4.61637 6.30827 4.35521 6.30827 4.03304C6.30827 3.71087 6.0471 3.44971 5.72494 3.44971C5.40277 3.44971 5.1416 3.71087 5.1416 4.03304C5.1416 4.35521 5.40277 4.61637 5.72494 4.61637Z" fill="white"/>
<path opacity="0.6" d="M8.02865 5.08317C8.35081 5.08317 8.61198 4.822 8.61198 4.49984C8.61198 4.17767 8.35081 3.9165 8.02865 3.9165C7.70648 3.9165 7.44531 4.17767 7.44531 4.49984C7.44531 4.822 7.70648 5.08317 8.02865 5.08317Z" fill="white"/>
<path opacity="0.6" d="M10.274 12.6662C10.5962 12.6662 10.8573 12.405 10.8573 12.0828C10.8573 11.7607 10.5962 11.4995 10.274 11.4995C9.95184 11.4995 9.69067 11.7607 9.69067 12.0828C9.69067 12.405 9.95184 12.6662 10.274 12.6662Z" fill="white"/>
<path opacity="0.6" d="M5.72494 12.6662C6.0471 12.6662 6.30827 12.405 6.30827 12.0828C6.30827 11.7607 6.0471 11.4995 5.72494 11.4995C5.40277 11.4995 5.1416 11.7607 5.1416 12.0828C5.1416 12.405 5.40277 12.6662 5.72494 12.6662Z" fill="white"/>
<path opacity="0.6" d="M8.02865 12.1999C8.35081 12.1999 8.61198 11.9387 8.61198 11.6165C8.61198 11.2944 8.35081 11.0332 8.02865 11.0332C7.70648 11.0332 7.44531 11.2944 7.44531 11.6165C7.44531 11.9387 7.70648 12.1999 8.02865 12.1999Z" fill="white"/>
</g>
<path d="M9.02189 6.97884C9.4246 6.97884 9.75106 6.65238 9.75106 6.24967C9.75106 5.84697 9.4246 5.52051 9.02189 5.52051C8.61918 5.52051 8.29272 5.84697 8.29272 6.24967C8.29272 6.65238 8.61918 6.97884 9.02189 6.97884Z" fill="white"/>
<path d="M6.98088 6.97884C7.38358 6.97884 7.71004 6.65238 7.71004 6.24967C7.71004 5.84697 7.38358 5.52051 6.98088 5.52051C6.57817 5.52051 6.25171 5.84697 6.25171 6.24967C6.25171 6.65238 6.57817 6.97884 6.98088 6.97884Z" fill="white"/>
<path d="M10.0434 8.72884C10.4461 8.72884 10.7725 8.40238 10.7725 7.99967C10.7725 7.59697 10.4461 7.27051 10.0434 7.27051C9.64067 7.27051 9.31421 7.59697 9.31421 7.99967C9.31421 8.40238 9.64067 8.72884 10.0434 8.72884Z" fill="white"/>
<path d="M5.95939 8.72884C6.3621 8.72884 6.68856 8.40238 6.68856 7.99967C6.68856 7.59697 6.3621 7.27051 5.95939 7.27051C5.55668 7.27051 5.23022 7.59697 5.23022 7.99967C5.23022 8.40238 5.55668 8.72884 5.95939 8.72884Z" fill="white"/>
<path d="M6.98088 10.4788C7.38358 10.4788 7.71004 10.1524 7.71004 9.74967C7.71004 9.34697 7.38358 9.02051 6.98088 9.02051C6.57817 9.02051 6.25171 9.34697 6.25171 9.74967C6.25171 10.1524 6.57817 10.4788 6.98088 10.4788Z" fill="white"/>
<path d="M9.02189 10.4788C9.4246 10.4788 9.75106 10.1524 9.75106 9.74967C9.75106 9.34697 9.4246 9.02051 9.02189 9.02051C8.61918 9.02051 8.29272 9.34697 8.29272 9.74967C8.29272 10.1524 8.61918 10.4788 9.02189 10.4788Z" fill="white"/>
<g opacity="0.4">
<path opacity="0.4" d="M8.00064 2.94222C7.7148 2.94222 7.4873 2.71472 7.4873 2.42889C7.4873 2.14305 7.7148 1.92139 8.00064 1.92139C8.28647 1.92139 8.51397 2.14889 8.51397 2.43472C8.51397 2.72055 8.28647 2.94222 8.00064 2.94222Z" fill="white"/>
</g>
<g opacity="0.4">
<path opacity="0.4" d="M11.0627 3.09961C10.8177 3.09961 10.6194 2.90128 10.6194 2.66211C10.6194 2.42294 10.8177 2.22461 11.0569 2.22461C11.2961 2.22461 11.5002 2.42294 11.5002 2.66211C11.5002 2.90128 11.3077 3.09961 11.0627 3.09961Z" fill="white"/>
</g>
<g opacity="0.4">
<path opacity="0.4" d="M4.9375 3.09961C4.69833 3.09961 4.5 2.90128 4.5 2.66211C4.5 2.42294 4.6925 2.22461 4.9375 2.22461H4.94333C5.1825 2.22461 5.38083 2.42294 5.38083 2.66211C5.38083 2.90128 5.1825 3.09961 4.9375 3.09961Z" fill="white"/>
</g>
<g opacity="0.4">
<path opacity="0.4" d="M8.00064 14.0555C7.7148 14.0555 7.4873 13.828 7.4873 13.5421C7.4873 13.2563 7.7148 13.0288 8.00064 13.0288C8.28647 13.0288 8.51397 13.2563 8.51397 13.5421C8.51397 13.828 8.28647 14.0555 8.00064 14.0555Z" fill="white"/>
</g>
<g opacity="0.4">
<path opacity="0.4" d="M11.0627 13.7461C10.8177 13.7461 10.6194 13.5478 10.6194 13.3086C10.6194 13.0694 10.8177 12.8711 11.0569 12.8711C11.2961 12.8711 11.5002 13.0694 11.5002 13.3086C11.5002 13.5478 11.3077 13.7461 11.0627 13.7461Z" fill="white"/>
</g>
<g opacity="0.4">
<path opacity="0.4" d="M4.9375 13.7461C4.69833 13.7461 4.5 13.5478 4.5 13.3086C4.5 13.0694 4.6925 12.8711 4.9375 12.8711H4.94333C5.1825 12.8711 5.38083 13.0694 5.38083 13.3086C5.38083 13.5478 5.1825 13.7461 4.9375 13.7461Z" fill="white"/>
</g>
<g opacity="0.4">
<path opacity="0.4" d="M1.9042 8.51348C1.6242 8.51348 1.39087 8.28598 1.39087 8.00598V8.00015C1.39087 7.72015 1.61837 7.48682 1.9042 7.48682C2.19004 7.48682 2.4117 7.71432 2.4117 8.00015C2.4117 8.28598 2.1842 8.51348 1.9042 8.51348Z" fill="white"/>
</g>
<g opacity="0.4">
<path opacity="0.4" d="M3.1875 11.3545C2.94833 11.3545 2.75 11.1561 2.75 10.917V10.9111C2.75 10.672 2.94833 10.4736 3.1875 10.4736C3.42667 10.4736 3.625 10.672 3.625 10.9111C3.625 11.1503 3.42667 11.3545 3.1875 11.3545Z" fill="white"/>
</g>
<g opacity="0.4">
<path opacity="0.4" d="M3.1875 5.52637C2.94833 5.52637 2.75 5.32803 2.75 5.08887C2.75 4.8497 2.94833 4.65137 3.1875 4.65137C3.42667 4.65137 3.625 4.84387 3.625 5.08303V5.08887C3.625 5.32803 3.42667 5.52637 3.1875 5.52637Z" fill="white"/>
</g>
<g opacity="0.4">
<path opacity="0.4" d="M14.1256 8.51348C13.8456 8.51348 13.6123 8.28598 13.6123 8.00598V8.00015C13.6123 7.72015 13.8398 7.48682 14.1256 7.48682C14.4115 7.48682 14.639 7.71432 14.639 8.00015C14.639 8.28598 14.4056 8.51348 14.1256 8.51348Z" fill="white"/>
</g>
<g opacity="0.4">
<path opacity="0.4" d="M12.8408 11.354C12.6017 11.354 12.4033 11.1615 12.4033 10.9165V10.9106C12.4033 10.6715 12.6017 10.4731 12.8408 10.4731C13.08 10.4731 13.2783 10.6715 13.2783 10.9106C13.2783 11.1498 13.08 11.354 12.8408 11.354Z" fill="white"/>
</g>
<g opacity="0.4">
<path opacity="0.4" d="M12.8408 5.52686C12.6017 5.52686 12.4033 5.32852 12.4033 5.08936C12.4033 4.85019 12.6017 4.65186 12.8408 4.65186C13.08 4.65186 13.2783 4.84436 13.2783 5.08352V5.08936C13.2783 5.32852 13.08 5.52686 12.8408 5.52686Z" fill="white"/>
</g>
</svg>
