<svg width="16" height="16" viewBox="0 0 16 16" fill="none" xmlns="http://www.w3.org/2000/svg">
<path opacity="0.4" d="M10.938 1H5.06903C2.51976 1 1 2.519 1 5.067V10.926C1 13.481 2.51976 15 5.06903 15H10.9309C13.4802 15 15 13.481 15 10.933V5.067C15.007 2.519 13.4872 1 10.938 1Z" fill="white"/>
<path d="M4.7331 10.2676C4.62104 10.2676 4.50899 10.2326 4.41094 10.1556C4.17982 9.98064 4.1378 9.65164 4.31289 9.42064L5.97972 7.25764C6.18282 6.99864 6.46996 6.83064 6.79913 6.78864C7.12129 6.74664 7.45045 6.83764 7.70958 7.04064L8.99122 8.04864C9.04025 8.09064 9.08927 8.09064 9.12429 8.08364C9.1523 8.08364 9.20133 8.06964 9.24335 8.01364L10.8612 5.92764C11.0362 5.69664 11.3724 5.65464 11.5965 5.83664C11.8276 6.01164 11.8697 6.34064 11.6876 6.57164L10.0698 8.65764C9.86666 8.91664 9.57951 9.08464 9.25035 9.11964C8.92119 9.16164 8.59903 9.07064 8.3399 8.86764L7.05826 7.85964C7.00923 7.81764 6.95321 7.81764 6.92519 7.82464C6.89718 7.82464 6.84815 7.83864 6.80613 7.89464L5.1393 10.0576C5.04826 10.1976 4.89418 10.2676 4.7331 10.2676Z" fill="white"/>
</svg>
