<svg width="16" height="16" viewBox="0 0 16 16" fill="none" xmlns="http://www.w3.org/2000/svg">
<path d="M5.17127 11.8127L5.17125 11.8127L5.17273 11.8141C5.2505 11.8882 5.34314 11.9585 5.44145 12.0108C5.53894 12.0627 5.64802 12.1 5.75687 12.1C5.96835 12.1 6.18913 11.9648 6.33669 11.8185L6.26628 11.7474L6.33688 11.8183L14.0706 4.10973C14.1094 4.07104 14.1099 4.00832 14.0716 3.96909L13.0586 2.93019C13.0399 2.91105 13.0144 2.90018 12.9876 2.9C12.9609 2.89982 12.9352 2.91036 12.9163 2.92924L5.76241 10.0738L3.1008 7.43473C3.06182 7.39608 2.99896 7.39608 2.95998 7.43473L1.92959 8.45641C1.91065 8.47519 1.9 8.50075 1.9 8.52742C1.9 8.55409 1.91065 8.57966 1.92959 8.59843L5.17127 11.8127Z" fill="white" stroke="white" stroke-width="0.2" stroke-linejoin="round"/>
</svg>
