<svg width="100" height="116" viewBox="0 0 100 116" fill="none" xmlns="http://www.w3.org/2000/svg">
<path d="M85.4415 78.5338L85.6914 78.3895V78.1008V37.4334V37.1448L85.4415 37.0004L50.2692 16.686L50.0192 16.5417L49.7692 16.686L14.5777 37.0004L14.3277 37.1447V37.4334V78.1008V78.3895L14.5777 78.5339L49.7692 98.8482L50.0192 98.9925L50.2692 98.8481L85.4415 78.5338ZM0.5 86.3718V29.1818L50.019 0.577479L99.5 29.1817V86.3719L50.019 114.957L0.5 86.3718Z" fill="#002D74" stroke="black"/>
<g style="mix-blend-mode:multiply">
<path d="M85.6914 37.4528V37.1642L85.4415 37.0198L50.5193 16.8498V0.866578L99.5 29.1817V86.3719L50.5193 114.668V98.7039L85.4413 78.5532L85.6914 78.4089V78.1202V37.4528Z" fill="url(#paint0_linear_21_1486)" style="mix-blend-mode:multiply"/>
<path d="M85.6914 37.4528V37.1642L85.4415 37.0198L50.5193 16.8498V0.866578L99.5 29.1817V86.3719L50.5193 114.668V98.7039L85.4413 78.5532L85.6914 78.4089V78.1202V37.4528Z" stroke="black"/>
</g>
<g style="mix-blend-mode:multiply">
<path d="M14.3083 78.0814V78.3701L14.5582 78.5144L49.4804 98.6846V114.668L0.5 86.3529V29.1625L49.4804 0.86629V16.8303L14.5584 36.9809L14.3083 37.1252V37.414V78.0814Z" fill="url(#paint1_linear_21_1486)" style="mix-blend-mode:multiply"/>
<path d="M14.3083 78.0814V78.3701L14.5582 78.5144L49.4804 98.6846V114.668L0.5 86.3529V29.1625L49.4804 0.86629V16.8303L14.5584 36.9809L14.3083 37.1252V37.414V78.0814Z" stroke="black"/>
</g>
<path d="M50.2501 41.5903L49.9997 41.4455L49.7494 41.5903L36.1219 49.472L35.8722 49.6164V49.9048V65.6296V65.918L36.1219 66.0624L49.7494 73.9442L49.9997 74.089L50.2501 73.9442L63.6269 66.2074L72.3463 71.2639L49.9996 84.1664L27.1355 70.9761V44.5775L49.9996 31.3686L72.3455 44.2888L63.6273 49.3273L50.2501 41.5903Z" fill="#002D74" stroke="black"/>
<defs>
<linearGradient id="paint0_linear_21_1486" x1="75.0095" y1="115.534" x2="75.0095" y2="57.7671" gradientUnits="userSpaceOnUse">
<stop stop-color="#002D74"/>
<stop offset="1" stop-color="#002D74" stop-opacity="0"/>
</linearGradient>
<linearGradient id="paint1_linear_21_1486" x1="24.9902" y1="0" x2="24.9902" y2="57.7671" gradientUnits="userSpaceOnUse">
<stop stop-color="#002D74"/>
<stop offset="1" stop-color="#002D74" stop-opacity="0"/>
</linearGradient>
</defs>
</svg>
