<svg width="16" height="16" viewBox="0 0 16 16" fill="none" xmlns="http://www.w3.org/2000/svg">
<path d="M6.56977 8.83187H8.57788V13.5109C8.57788 14.1998 9.43571 14.5247 9.89062 14.0048L14.8101 8.41595C15.2391 7.92855 14.8946 7.1682 14.2448 7.1682H12.2367V2.48913C12.2367 1.80026 11.3788 1.47533 10.9239 1.99522L6.00439 7.58412C5.58197 8.07152 5.9264 8.83187 6.56977 8.83187Z" fill="white"/>
<path opacity="0.4" d="M6.0365 3.28718H1.4874C1.22096 3.28718 1 3.06623 1 2.79978C1 2.53333 1.22096 2.31238 1.4874 2.31238H6.0365C6.30295 2.31238 6.52391 2.53333 6.52391 2.79978C6.52391 3.06623 6.30295 3.28718 6.0365 3.28718Z" fill="white"/>
<path opacity="0.4" d="M5.38663 13.6873H1.4874C1.22096 13.6873 1 13.4664 1 13.1999C1 12.9335 1.22096 12.7125 1.4874 12.7125H5.38663C5.65308 12.7125 5.87403 12.9335 5.87403 13.1999C5.87403 13.4664 5.65308 13.6873 5.38663 13.6873Z" fill="white"/>
<path opacity="0.4" d="M3.43702 8.48726H1.4874C1.22096 8.48726 1 8.2663 1 7.99985C1 7.73341 1.22096 7.51245 1.4874 7.51245H3.43702C3.70346 7.51245 3.92442 7.73341 3.92442 7.99985C3.92442 8.2663 3.70346 8.48726 3.43702 8.48726Z" fill="white"/>
</svg>
