<svg width="16" height="16" viewBox="0 0 16 16" fill="none" xmlns="http://www.w3.org/2000/svg">
<path d="M8 15C11.866 15 15 11.866 15 8C15 4.13401 11.866 1 8 1C4.13401 1 1 4.13401 1 8C1 11.866 4.13401 15 8 15Z" fill="#838689"/>
<path fill-rule="evenodd" clip-rule="evenodd" d="M8.525 6.64375L10.1 5.725V7.5625L8.525 6.64375ZM10.1 10.5813L8 11.8063L5.9 10.5813V8.4375L8 9.6625L10.1 8.4375V10.5813ZM5.9 5.725L7.475 6.64375L5.9 7.5625V5.725ZM8.2625 7.08125L9.8375 8L8.2625 8.91875V7.08125ZM7.7375 8.91875L6.1625 8L7.7375 7.08125V8.91875ZM9.8375 5.2875L8 6.3375L6.1625 5.2875L8 4.19375L9.8375 5.2875ZM5.375 5.1125V10.8438L8 12.3313L10.625 10.8438V5.1125L8 3.625L5.375 5.1125Z" fill="white"/>
</svg>
