<svg width="16" height="16" viewBox="0 0 16 16" fill="none" xmlns="http://www.w3.org/2000/svg">
<path opacity="0.4" d="M2.46411 14.4944V3.02415C2.46411 1.67472 3.33677 1 4.41782 1H9.6277C10.7088 1 11.5814 1.67472 11.5814 3.02415V14.4944H2.46411Z" fill="white"/>
<path d="M12.5594 15H1.48843C1.22142 15 1 14.7706 1 14.494C1 14.2173 1.22142 13.9879 1.48843 13.9879H12.5594C12.8264 13.9879 13.0479 14.2173 13.0479 14.494C13.0479 14.7706 12.8264 15 12.5594 15Z" fill="white"/>
<path d="M5.32336 6.39776H8.72933C9.40661 6.39776 9.96016 6.0604 9.96016 5.12254V4.29264C9.95365 3.36153 9.4001 3.02417 8.72282 3.02417H5.31685C4.64608 3.02417 4.09253 3.36153 4.09253 4.29939V5.12929C4.09253 6.0604 4.64608 6.39776 5.32336 6.39776Z" fill="white"/>
<path d="M6.3728 8.92748H4.41909C4.15208 8.92748 3.93066 8.69808 3.93066 8.42144C3.93066 8.14481 4.15208 7.91541 4.41909 7.91541H6.3728C6.6398 7.91541 6.86122 8.14481 6.86122 8.42144C6.86122 8.69808 6.6398 8.92748 6.3728 8.92748Z" fill="white"/>
<path d="M15 6.39747V10.4458C15 10.7224 14.7851 10.9518 14.5116 10.9518L11.5811 10.9586V9.94649L14.0232 9.93974V6.70784L12.9877 6.17481C12.7468 6.05336 12.6491 5.74974 12.7728 5.49335C12.89 5.2437 13.1896 5.14924 13.4306 5.27069L14.733 5.94541C14.8958 6.03312 15 6.20855 15 6.39747Z" fill="white"/>
</svg>
