<svg width="16" height="16" viewBox="0 0 16 16" fill="none" xmlns="http://www.w3.org/2000/svg">
<path d="M13.8337 4.34863V11.652C13.8337 12.8536 12.8537 13.8336 11.652 13.8336H11.3487C10.147 13.8336 9.16699 12.8536 9.16699 11.652V7.9303C9.37116 7.90697 9.5695 7.8778 9.75616 7.83697C10.9462 7.62113 11.8503 7.2128 12.5036 6.79863C13.3436 6.27363 13.8337 5.3403 13.8337 4.34863Z" fill="white"/>
<path opacity="0.4" d="M13.8337 4.34866C13.8337 5.34032 13.3436 6.27366 12.5036 6.79866C11.8503 7.21282 10.9462 7.62116 9.75616 7.83699C9.5695 7.87782 9.37116 7.90699 9.16699 7.93032V8.36782C8.47282 8.45532 7.732 8.40866 6.8745 8.49616L6.83366 8.50199V11.652C6.83366 12.8537 5.85366 13.8337 4.652 13.8337H4.34865C3.14699 13.8337 2.16699 12.8537 2.16699 11.652C2.16699 11.5995 2.167 11.5412 2.17867 11.4887C2.22534 10.5553 2.70368 9.69782 3.49701 9.20199C4.15034 8.78782 5.05448 8.37949 6.23865 8.16366C6.42531 8.12282 6.62949 8.09366 6.83366 8.07032V7.62116C7.74366 7.53949 8.43781 7.58616 9.11448 7.49866L9.16699 7.49282V4.34866C9.16699 3.14699 10.147 2.16699 11.3487 2.16699H11.652C12.7195 2.16699 13.6178 2.94283 13.7987 3.96366C13.822 4.08616 13.8337 4.21449 13.8337 4.34866Z" fill="white"/>
<path d="M6.83366 4.34866V8.07033C6.62949 8.09366 6.42531 8.12283 6.23865 8.16366C5.05448 8.37949 4.15034 8.78783 3.49701 9.20199C2.70368 9.69783 2.22534 10.5553 2.17867 11.4887C2.17284 11.4945 2.16699 11.5003 2.16699 11.5003V4.34866C2.16699 3.14699 3.14699 2.16699 4.34865 2.16699H4.652C5.85366 2.16699 6.83366 3.14699 6.83366 4.34866Z" fill="white"/>
</svg>
