<svg width="16" height="16" viewBox="0 0 16 16" fill="none" xmlns="http://www.w3.org/2000/svg">
<path d="M8.00001 1C10.0782 1 11.763 2.6399 11.763 4.66283C11.763 6.00074 11.3645 6.75008 10.3444 7.79072L9.84755 8.28437C9.13738 9.00515 8.94075 9.39356 8.94075 10.1571C8.94075 10.6628 8.51957 11.0728 8.00001 11.0728C7.48046 11.0728 7.05928 10.6628 7.05928 10.1571C7.05928 8.81917 7.45773 8.06983 8.47782 7.02919L8.97469 6.53554C9.68486 5.81475 9.88149 5.42635 9.88149 4.66283C9.88149 3.65137 9.03912 2.83141 8.00001 2.83141C6.9609 2.83141 6.11854 3.65137 6.11854 4.66283C6.11854 5.16856 5.69735 5.57854 5.1778 5.57854C4.65824 5.57854 4.23706 5.16856 4.23706 4.66283C4.23706 2.6399 5.92179 1 8.00001 1Z" fill="white"/>
<ellipse opacity="0.4" cx="8.08354" cy="13.8603" rx="1.1707" ry="1.13955" fill="white"/>
</svg>
