<svg width="16" height="16" viewBox="0 0 16 16" fill="none" xmlns="http://www.w3.org/2000/svg">
<path d="M4.4794 0.992676H2.51937C1.67269 0.992676 1.16602 1.49935 1.16602 2.34603V4.30606C1.16602 5.15274 1.67269 5.65941 2.51937 5.65941H4.4794C5.32608 5.65941 5.83275 5.15274 5.83275 4.30606V2.34603C5.83275 1.49935 5.32608 0.992676 4.4794 0.992676ZM4.81274 4.03272C4.97941 4.19939 4.97941 4.47273 4.81274 4.6394C4.72607 4.7194 4.61273 4.7594 4.50607 4.7594C4.3994 4.7594 4.29273 4.7194 4.20606 4.6394L3.49272 3.93272L2.79937 4.6394C2.71271 4.7194 2.60604 4.7594 2.48604 4.7594C2.37937 4.7594 2.2727 4.7194 2.18603 4.6394C2.01936 4.47273 2.01936 4.19939 2.18603 4.03272L2.89937 3.32604L2.1927 2.62603C2.02603 2.45936 2.02603 2.18603 2.1927 2.01936C2.35937 1.85269 2.6327 1.85269 2.79937 2.01936L3.49272 2.72603L4.19939 2.01936C4.36606 1.85269 4.6394 1.85269 4.80607 2.01936C4.97274 2.18603 4.97274 2.45936 4.80607 2.62603L4.10606 3.32604L4.81274 4.03272Z" fill="white"/>
<path opacity="0.4" d="M11.5862 1.65894H5.68607C5.7794 1.85227 5.83274 2.07894 5.83274 2.34561V4.30564C5.83274 5.15232 5.32606 5.65899 4.47938 5.65899H2.51935C2.39269 5.65899 2.27935 5.64566 2.16602 5.61899V11.7458C2.16602 13.5391 3.61937 14.9925 5.41273 14.9925H10.7261C10.8395 14.9925 10.9528 14.9525 11.0395 14.8591C12.0262 13.8658 13.7462 12.1324 14.7129 11.1591C14.7995 11.0724 14.8329 10.9724 14.8329 10.8724V4.90565C14.8329 3.11229 13.3795 1.65894 11.5862 1.65894Z" fill="white"/>
<path d="M14.833 10.8725C14.833 10.9725 14.7997 11.0725 14.713 11.1591C13.7464 12.1325 12.0263 13.8659 11.0396 14.8592C10.953 14.9525 10.8396 14.9925 10.7263 14.9925C10.5063 14.9925 10.293 14.8192 10.293 14.5659V12.2325C10.293 11.2591 11.1196 10.4525 12.133 10.4525C12.7663 10.4458 13.6464 10.4458 14.3997 10.4458C14.6597 10.4458 14.833 10.6525 14.833 10.8725Z" fill="white"/>
<path d="M10.354 8.79921H5.40723C5.12723 8.79921 4.90723 8.57254 4.90723 8.2992C4.90723 8.02586 5.1339 7.79919 5.40723 7.79919H10.354C10.634 7.79919 10.854 8.02586 10.854 8.2992C10.854 8.57254 10.634 8.79921 10.354 8.79921Z" fill="white"/>
<path d="M8.50061 11.2724H5.40723C5.12723 11.2724 4.90723 11.0457 4.90723 10.7723C4.90723 10.4923 5.1339 10.2723 5.40723 10.2723H8.50061C8.78062 10.2723 9.00062 10.499 9.00062 10.7723C9.00062 11.0457 8.78062 11.2724 8.50061 11.2724Z" fill="white"/>
</svg>
