<svg width="16" height="16" viewBox="0 0 16 16" fill="none" xmlns="http://www.w3.org/2000/svg">
<path d="M8 15C11.866 15 15 11.866 15 8C15 4.13401 11.866 1 8 1C4.13401 1 1 4.13401 1 8C1 11.866 4.13401 15 8 15Z" fill="#838689"/>
<path d="M5.95797 9.85635C5.59376 9.87189 5.23436 9.76868 4.9339 9.56224C4.80411 9.46309 4.70043 9.33382 4.63183 9.1856C4.56322 9.03738 4.53175 8.87469 4.54015 8.71158C4.54176 8.61653 4.55055 8.52174 4.56645 8.42802C4.61199 8.17555 4.67676 7.87271 4.76076 7.5195C4.99883 6.55671 5.61315 6.07531 6.60372 6.07531C6.85205 6.0713 7.0986 6.11781 7.32839 6.21203C7.53239 6.29201 7.7079 6.431 7.8325 6.61125C7.95815 6.79693 8.02236 7.01736 8.01608 7.24147C8.01427 7.33476 8.00548 7.42779 7.98978 7.51977C7.93721 7.83138 7.87421 8.13422 7.80078 8.4283C7.67839 8.90791 7.46658 9.26675 7.16537 9.50482C6.86458 9.73917 6.46212 9.85635 5.95797 9.85635ZM6.03153 9.10013C6.21342 9.10516 6.39088 9.04352 6.5305 8.92683C6.68482 8.78688 6.7898 8.60082 6.8298 8.39636C6.91038 8.0674 6.97157 7.78032 7.01339 7.53514C7.02748 7.46068 7.03451 7.38506 7.03439 7.30928C7.03439 6.99064 6.8681 6.83135 6.53553 6.83142C6.35217 6.82703 6.17332 6.88852 6.03142 7.00473C5.87996 7.14616 5.77703 7.33181 5.73731 7.5352C5.67427 7.76977 5.61127 8.05684 5.54831 8.39641C5.53406 8.46906 5.52703 8.54294 5.52731 8.61697C5.52731 8.93904 5.69538 9.10008 6.03153 9.10008V9.10013Z" fill="white"/>
<path d="M8.2576 9.80392C8.24091 9.8049 8.22422 9.80212 8.20876 9.79576C8.1933 9.78941 8.17947 9.77966 8.16829 9.76723C8.15083 9.739 8.14519 9.70503 8.1526 9.67267L8.87731 6.2593C8.88373 6.22164 8.90424 6.18783 8.93468 6.16474C8.96284 6.14153 8.99805 6.12859 9.03454 6.12805H10.4314C10.7603 6.11191 11.0863 6.19616 11.3662 6.3696C11.4813 6.44498 11.5747 6.54904 11.6373 6.67153C11.7 6.79402 11.7296 6.9307 11.7233 7.06813C11.7228 7.16004 11.7122 7.25163 11.6918 7.34124C11.6338 7.69506 11.4443 8.01394 11.1613 8.23401C10.8988 8.42658 10.5382 8.52287 10.0795 8.52287H9.3707L9.12915 9.67295C9.12273 9.7106 9.10222 9.74441 9.07178 9.7675C9.04368 9.79069 9.00852 9.80363 8.97209 9.8042L8.2576 9.80392ZM10.1166 7.79777C10.2542 7.80081 10.389 7.75839 10.5 7.67707C10.6142 7.59317 10.6929 7.46954 10.7206 7.33052C10.7303 7.27855 10.7356 7.22583 10.7363 7.17296C10.7392 7.13025 10.7328 7.0874 10.7173 7.04746C10.7019 7.00752 10.6779 6.97146 10.6469 6.94185C10.5593 6.87713 10.4508 6.8472 10.3424 6.85785H9.71234L9.51278 7.79782L10.1166 7.79777Z" fill="white"/>
</svg>
