<svg width="16" height="16" viewBox="0 0 16 16" fill="none" xmlns="http://www.w3.org/2000/svg">
<path d="M14.7134 7.5367L11.4893 5.67277C11.3245 5.57957 11.1167 5.57957 10.9519 5.67277L7.72774 7.5367C7.72774 7.5367 7.72773 7.54387 7.72057 7.54387L4.76868 9.25009L2.08188 7.69442V4.58308L4.76868 3.02741L7.45547 4.58308V5.40035C7.45547 5.69428 7.69908 5.93802 7.99283 5.93802C8.28659 5.93802 8.53019 5.69428 8.53019 5.40035V4.27482C8.53019 4.08125 8.42988 3.90203 8.25793 3.80883L5.03377 1.9449C4.86898 1.8517 4.6612 1.8517 4.49641 1.9449L1.27225 3.80883C1.10746 3.90203 1 4.08125 1 4.27482V8.00269C1 8.19625 1.1003 8.37548 1.27225 8.46867L4.49641 10.3326C4.58239 10.3828 4.67553 10.4043 4.76868 10.4043C4.86182 10.4043 4.95496 10.3828 5.04094 10.3326L8.2651 8.46867C8.2651 8.46867 8.2651 8.4615 8.27226 8.4615L11.2242 6.75528L13.9109 8.31095V11.4151L11.2242 12.9708L8.53735 11.4151V10.5405C8.53735 10.2466 8.29375 10.0028 7.99999 10.0028C7.70624 10.0028 7.46263 10.2466 7.46263 10.5405V11.7234C7.46263 11.917 7.56295 12.0962 7.7349 12.1894L10.9591 14.0533C11.045 14.1035 11.1382 14.125 11.2313 14.125C11.3245 14.125 11.4176 14.1035 11.5036 14.0533L14.7277 12.1894C14.8925 12.0962 15 11.917 15 11.7234V7.99552C14.9785 7.80913 14.8782 7.6299 14.7134 7.5367Z" fill="white"/>
<path opacity="0.4" d="M2.6189 5.31433V6.97036C2.6189 7.22844 2.75503 7.46502 2.97714 7.59406L4.41009 8.4185C4.6322 8.54754 4.90447 8.54754 5.12657 8.4185L6.55953 7.59406C6.78164 7.46502 6.91777 7.22844 6.91777 6.97036V5.31433C6.91777 5.05624 6.78164 4.81967 6.55953 4.69062L5.12657 3.86619C4.90447 3.73715 4.6322 3.73715 4.41009 3.86619L2.97714 4.69062C2.75503 4.81967 2.6189 5.05624 2.6189 5.31433Z" fill="white"/>
<path opacity="0.4" d="M9.06665 9.04235V10.6984C9.06665 10.9565 9.20278 11.193 9.42489 11.3221L10.8578 12.1465C11.08 12.2756 11.3522 12.2756 11.5743 12.1465L13.0073 11.3221C13.2294 11.193 13.3655 10.9565 13.3655 10.6984V9.04235C13.3655 8.78427 13.2294 8.54769 13.0073 8.41865L11.5743 7.59422C11.3522 7.46518 11.08 7.46518 10.8578 7.59422L9.42489 8.41865C9.20278 8.54769 9.06665 8.78427 9.06665 9.04235Z" fill="white"/>
</svg>
