<svg width="16" height="16" viewBox="0 0 16 16" fill="none" xmlns="http://www.w3.org/2000/svg">
<path d="M3.27381 10.7639C3.35829 10.683 3.47446 10.6359 3.59767 10.6359H14.7709C14.9751 10.6359 15.0772 10.8717 14.9328 11.0098L12.7257 13.1219C12.6412 13.2028 12.525 13.2499 12.4018 13.2499H1.22855C1.02437 13.2499 0.922288 13.0141 1.06662 12.876L3.27381 10.7639Z" fill="white"/>
<path d="M3.27381 2.87813C3.36181 2.79728 3.47798 2.75012 3.59767 2.75012H14.7709C14.9751 2.75012 15.0772 2.98593 14.9328 3.12404L12.7257 5.23617C12.6412 5.31701 12.525 5.36417 12.4018 5.36417H1.22855C1.02437 5.36417 0.922288 5.12837 1.06662 4.99026L3.27381 2.87813Z" fill="white"/>
<path d="M12.7257 6.79561C12.6412 6.71476 12.525 6.6676 12.4018 6.6676H1.22855C1.02437 6.6676 0.922288 6.90341 1.06662 7.04152L3.27381 9.15365C3.35829 9.23449 3.47446 9.28165 3.59767 9.28165H14.7709C14.9751 9.28165 15.0772 9.04585 14.9328 8.90774L12.7257 6.79561Z" fill="#838689"/>
</svg>
