<svg width="100" height="79" viewBox="0 0 100 79" fill="none" xmlns="http://www.w3.org/2000/svg">
<g clip-path="url(#clip0_21_1493)">
<path d="M16.2433 59.9684C16.8468 59.3634 17.6766 59.0105 18.5566 59.0105H98.3655C99.8239 59.0105 100.553 60.775 99.5222 61.8085L83.7565 77.6135C83.1531 78.2185 82.3233 78.5714 81.4432 78.5714H1.63434C0.175954 78.5714 -0.553239 76.8069 0.477689 75.7734L16.2433 59.9684Z" fill="url(#paint0_linear_21_1493)"/>
<path d="M16.2433 0.957881C16.872 0.352903 17.7017 0 18.5566 0H98.3655C99.8239 0 100.553 1.76452 99.5222 2.79802L83.7565 18.6031C83.1531 19.208 82.3233 19.5609 81.4432 19.5609H1.63434C0.175954 19.5609 -0.553239 17.7964 0.477689 16.7629L16.2433 0.957881Z" fill="url(#paint1_linear_21_1493)"/>
<path d="M83.7565 30.274C83.1531 29.6691 82.3233 29.3162 81.4432 29.3162H1.63434C0.175954 29.3162 -0.553239 31.0807 0.477689 32.1142L16.2433 47.9192C16.8468 48.5242 17.6766 48.8771 18.5566 48.8771H98.3655C99.8239 48.8771 100.553 47.1126 99.5222 46.0791L83.7565 30.274Z" fill="url(#paint2_linear_21_1493)"/>
</g>
<defs>
<linearGradient id="paint0_linear_21_1493" x1="90.7415" y1="-9.44151" x2="35.2905" y2="96.5048" gradientUnits="userSpaceOnUse">
<stop stop-color="#00FFA3"/>
<stop offset="1" stop-color="#DC1FFF"/>
</linearGradient>
<linearGradient id="paint1_linear_21_1493" x1="66.5901" y1="-22.082" x2="11.1391" y2="83.8643" gradientUnits="userSpaceOnUse">
<stop stop-color="#00FFA3"/>
<stop offset="1" stop-color="#DC1FFF"/>
</linearGradient>
<linearGradient id="paint2_linear_21_1493" x1="78.5889" y1="-15.802" x2="23.1379" y2="90.1443" gradientUnits="userSpaceOnUse">
<stop stop-color="#00FFA3"/>
<stop offset="1" stop-color="#DC1FFF"/>
</linearGradient>
<clipPath id="clip0_21_1493">
<rect width="100" height="78.5714" fill="white"/>
</clipPath>
</defs>
</svg>
