<svg width="16" height="16" viewBox="0 0 16 16" fill="none" xmlns="http://www.w3.org/2000/svg">
<path opacity="0.4" d="M5.27521 1H10.7184C13.0921 1 14.5033 2.51976 14.5033 5.06903V10.9309C14.5033 13.4802 13.0921 15 10.7249 15H5.27521C2.90803 15.007 1.49683 13.4872 1.49683 10.938V5.06903C1.49683 2.51976 2.90803 1 5.27521 1Z" fill="white"/>
<path d="M11.7012 9.03925C11.6492 8.91318 11.5581 8.80813 11.4346 8.7521C11.376 8.72409 11.311 8.71008 11.246 8.71008H4.74922C4.48258 8.71008 4.26147 8.9482 4.26147 9.23534C4.26147 9.52249 4.48258 9.76061 4.74922 9.76061H10.0754L8.98933 10.9302C8.80074 11.1333 8.80074 11.4695 8.98933 11.6726C9.08688 11.7776 9.21044 11.8266 9.334 11.8266C9.45756 11.8266 9.58113 11.7776 9.67867 11.6726L11.5971 9.60653C11.6427 9.55751 11.6752 9.50148 11.7012 9.43845C11.7532 9.30538 11.7532 9.16531 11.7012 9.03925Z" fill="white"/>
<path d="M4.30049 6.96716C4.35252 7.09322 4.44357 7.19827 4.56713 7.2543C4.62566 7.28231 4.68419 7.29632 4.74922 7.29632H11.2525C11.5191 7.29632 11.7402 7.0582 11.7402 6.77106C11.7402 6.48392 11.5191 6.2458 11.2525 6.2458H5.9263L7.01235 5.07621C7.20094 4.87311 7.20094 4.53695 7.01235 4.33384C6.82375 4.13074 6.5116 4.13074 6.323 4.33384L4.40455 6.39987C4.35902 6.4489 4.32651 6.50493 4.30049 6.56796C4.24847 6.70102 4.24847 6.84109 4.30049 6.96716Z" fill="white"/>
</svg>
