<svg width="16" height="16" viewBox="0 0 16 16" fill="none" xmlns="http://www.w3.org/2000/svg">
<path d="M5.65313 1.40668C7.06193 0.882013 8.64758 0.880816 10.0828 1.31205C11.9512 1.88942 13.5284 3.29333 14.3525 5.05539C14.5799 5.5573 14.7977 6.08077 14.8193 6.63898C13.7691 6.03286 12.6177 5.63995 11.464 5.28179C9.61846 4.61937 7.68632 4.15939 5.93946 3.24901C5.53282 3.00704 5.0143 2.75908 4.90362 2.25477C4.8591 1.81875 5.32229 1.57558 5.65313 1.40668Z" fill="white"/>
<path d="M1.40124 5.64756C1.80908 4.54552 2.47799 3.52253 3.38631 2.76428C3.6173 4.65572 4.42576 6.48367 5.76117 7.85882C7.36246 9.51548 9.64348 10.5325 11.9642 10.4941C12.8858 10.5229 13.7869 10.3109 14.6856 10.1396C13.8013 13.3211 10.2992 15.433 7.05447 14.9251C5.09587 14.6759 3.28765 13.5212 2.19647 11.8909C0.965726 10.0893 0.655334 7.69711 1.40124 5.64756Z" fill="white"/>
<path d="M11.4641 5.28174C12.6179 5.6399 13.7692 6.0328 14.8195 6.63892L14.8905 6.67606C14.9879 7.40556 15.0589 8.14944 14.929 8.88014C14.4008 8.65734 13.9725 8.26563 13.525 7.91945C12.6636 7.20552 11.7841 6.38857 11.4641 5.28174Z" fill="#828289"/>
</svg>
