<svg width="100" height="100" viewBox="0 0 100 100" fill="none" xmlns="http://www.w3.org/2000/svg">
<path d="M50 100C77.6142 100 100 77.6142 100 50C100 22.3858 77.6142 0 50 0C22.3858 0 0 22.3858 0 50C0 77.6142 22.3858 100 50 100Z" fill="#172852"/>
<path d="M40.275 22.345C46.13 20.155 52.72 20.15 58.685 21.95C66.45 24.36 73.005 30.22 76.43 37.575C77.375 39.67 78.28 41.855 78.37 44.185C74.005 41.655 69.22 40.015 64.425 38.52C56.755 35.755 48.725 33.835 41.465 30.035C39.775 29.025 37.62 27.99 37.16 25.885C36.975 24.065 38.9 23.05 40.275 22.345Z" fill="#FFD83D"/>
<path d="M22.6 40.045C24.295 35.445 27.075 31.175 30.85 28.01C31.81 35.905 35.17 43.535 40.72 49.275C47.375 56.19 56.855 60.435 66.5 60.275C70.33 60.395 74.075 59.51 77.81 58.795C74.135 72.075 59.58 80.89 46.095 78.77C37.955 77.73 30.44 72.91 25.905 66.105C20.79 58.585 19.5 48.6 22.6 40.045Z" fill="#FFD83D"/>
<path d="M64.425 38.52C69.22 40.015 74.005 41.655 78.37 44.185L78.665 44.34C79.07 47.385 79.365 50.49 78.825 53.54C76.63 52.61 74.85 50.975 72.99 49.53C69.41 46.55 65.755 43.14 64.425 38.52Z" fill="#FF6F03"/>
</svg>
