<svg width="16" height="16" viewBox="0 0 16 16" fill="none" xmlns="http://www.w3.org/2000/svg">
<path opacity="0.4" d="M10.4435 2.16699H5.56102C3.43185 2.16699 2.16602 3.43283 2.16602 5.55616V10.4387C2.16602 12.562 3.43185 13.8278 5.55518 13.8278H10.4377C12.561 13.8278 13.8268 12.562 13.8268 10.4387V5.55616C13.8327 3.43283 12.5669 2.16699 10.4435 2.16699Z" fill="white"/>
<path d="M9.83817 4.5H6.16314C5.56814 4.5 5.08398 4.98417 5.08398 5.57917V10.4208C5.08398 11.0158 5.56814 11.5 6.16314 11.5H9.83817C10.4332 11.5 10.9173 11.0158 10.9173 10.4208V5.57917C10.9173 4.98417 10.4332 4.5 9.83817 4.5ZM9.16732 9.3125H8.43815V10.0417C8.43815 10.2808 8.23982 10.4792 8.00065 10.4792C7.76148 10.4792 7.56315 10.2808 7.56315 10.0417V9.3125H6.83398C6.59482 9.3125 6.39648 9.11417 6.39648 8.875C6.39648 8.63583 6.59482 8.4375 6.83398 8.4375H9.16732C9.40648 8.4375 9.60482 8.63583 9.60482 8.875C9.60482 9.11417 9.40648 9.3125 9.16732 9.3125ZM9.16732 7.5625H6.83398C6.59482 7.5625 6.39648 7.36417 6.39648 7.125C6.39648 6.88583 6.59482 6.6875 6.83398 6.6875H7.56315V5.95833C7.56315 5.71917 7.76148 5.52083 8.00065 5.52083C8.23982 5.52083 8.43815 5.71917 8.43815 5.95833V6.6875H9.16732C9.40648 6.6875 9.60482 6.88583 9.60482 7.125C9.60482 7.36417 9.40648 7.5625 9.16732 7.5625Z" fill="white"/>
</svg>
