<svg width="16" height="16" viewBox="0 0 16 16" fill="none" xmlns="http://www.w3.org/2000/svg">
<path d="M7.53769 9.22489C7.25069 9.22489 7.0127 8.98689 7.0127 8.6999V5.19992C7.0127 4.91292 7.25069 4.67493 7.53769 4.67493C7.82469 4.67493 8.06269 4.91292 8.06269 5.19992V8.6999C8.06269 8.98689 7.82469 9.22489 7.53769 9.22489Z" fill="white"/>
<path d="M9.55997 2.01499H5.51401C5.23401 2.01499 5.01001 1.79099 5.01001 1.511C5.01001 1.231 5.23401 1 5.51401 1H9.55997C9.83997 1 10.064 1.224 10.064 1.504C10.064 1.78399 9.83997 2.01499 9.55997 2.01499Z" fill="white"/>
<path opacity="0.4" d="M9.63866 13.579V11.521C9.63866 10.632 10.1707 10.1 11.0597 10.1H13.1176C13.2506 10.1 13.3696 10.114 13.4886 10.142C13.5656 9.75001 13.6076 9.34401 13.6076 8.93101C13.6076 5.58504 10.8847 2.86206 7.53868 2.86206C4.19271 2.86206 1.46973 5.58504 1.46973 8.93101C1.46973 12.277 4.19271 15 7.53868 15C8.38567 15 9.19067 14.825 9.92566 14.51C9.74366 14.272 9.63866 13.964 9.63866 13.579Z" fill="white"/>
<path d="M13.1167 10.0995H11.0657C10.1697 10.0995 9.6377 10.6315 9.6377 11.5205V13.5715C9.6377 14.4605 10.1697 14.9924 11.0587 14.9924H13.1097C13.9987 14.9924 14.5307 14.4605 14.5307 13.5715V11.5205C14.5377 10.6315 14.0057 10.0995 13.1167 10.0995ZM11.6817 13.6415C11.6817 13.8655 11.4997 14.0475 11.2757 14.0475C11.0517 14.0475 10.8697 13.8655 10.8697 13.6415V11.4645C10.8697 11.2405 11.0517 11.0585 11.2757 11.0585C11.4997 11.0585 11.6817 11.2405 11.6817 11.4645V13.6415ZM13.3127 13.6415C13.3127 13.8655 13.1307 14.0475 12.9067 14.0475C12.6827 14.0475 12.5007 13.8655 12.5007 13.6415V11.4645C12.5007 11.2405 12.6827 11.0585 12.9067 11.0585C13.1307 11.0585 13.3127 11.2405 13.3127 11.4645V13.6415Z" fill="white"/>
</svg>
