<svg width="16" height="16" viewBox="0 0 16 16" fill="none" xmlns="http://www.w3.org/2000/svg">
<path d="M10.9827 5.27122C12.6266 6.91508 12.6266 9.58295 10.9827 11.2268C9.33885 12.8707 6.67094 12.8707 5.02708 11.2268C3.38323 9.58295 3.38323 6.91508 5.02708 5.27122C6.67094 3.62737 9.33885 3.62737 10.9827 5.27122Z" fill="white"/>
<path opacity="0.4" d="M5.47823 14.9993C5.4176 14.9993 5.35023 14.9858 5.28959 14.9656C3.77374 14.3592 2.54758 13.288 1.72565 11.8732C0.930674 10.4921 0.614032 8.92913 0.822883 7.33917C0.856568 7.06294 1.11931 6.86755 1.3888 6.90124C1.66502 6.93492 1.86039 7.19095 1.82671 7.46717C1.65154 8.82807 1.92104 10.1755 2.60149 11.3612C3.30215 12.5739 4.35986 13.4969 5.66013 14.0156C5.91614 14.1234 6.04415 14.4131 5.9431 14.6759C5.86899 14.878 5.67361 14.9993 5.47823 14.9993Z" fill="white"/>
<path opacity="0.4" d="M3.86158 3.43871C3.71336 3.43871 3.56515 3.37135 3.46409 3.24335C3.28893 3.02102 3.32935 2.70439 3.55168 2.53596C4.83847 1.53213 6.37452 0.999878 8.0049 0.999878C9.59486 0.999878 11.1107 1.51191 12.384 2.48205C12.6064 2.65048 12.6468 2.96712 12.4784 3.18944C12.3099 3.41177 11.9933 3.4522 11.7709 3.28377C10.6795 2.44837 9.37928 2.01045 8.0049 2.01045C6.60358 2.01045 5.27637 2.46858 4.17148 3.33094C4.07716 3.40504 3.96938 3.43871 3.86158 3.43871Z" fill="white"/>
<path opacity="0.4" d="M10.531 15.0001C10.3289 15.0001 10.1402 14.8788 10.0594 14.6834C9.95833 14.4274 10.0796 14.131 10.3424 14.0232C11.6426 13.4977 12.7004 12.5815 13.401 11.3688C14.0882 10.183 14.3577 8.8356 14.1758 7.4747C14.1421 7.19848 14.3375 6.94249 14.6137 6.90881C14.8832 6.87512 15.1459 7.07051 15.1796 7.34673C15.3817 8.92996 15.0718 10.4997 14.2768 11.8808C13.4616 13.2956 12.2287 14.36 10.7129 14.9731C10.659 14.9866 10.5984 15.0001 10.531 15.0001Z" fill="white"/>
</svg>
