<svg width="16" height="16" viewBox="0 0 16 16" fill="none" xmlns="http://www.w3.org/2000/svg">
<path d="M7.99902 1C6.19548 1 4.72925 2.49104 4.72925 4.32508C4.72925 6.12413 6.11288 7.58016 7.91642 7.64316C7.97149 7.63616 8.02656 7.63616 8.06786 7.64316C8.08163 7.64316 8.08851 7.64316 8.10228 7.64316C8.10916 7.64316 8.10916 7.64316 8.11605 7.64316C9.87829 7.58016 11.2619 6.12413 11.2688 4.32508C11.2688 2.49104 9.80256 1 7.99902 1Z" fill="white"/>
<path opacity="0.4" d="M11.4969 9.51192C9.57634 8.20989 6.44424 8.20989 4.50991 9.51192C3.63567 10.0999 3.15381 10.905 3.15381 11.766C3.15381 12.627 3.63567 13.425 4.50302 14.013C5.46675 14.6711 6.73335 15.0001 7.99996 15.0001C9.26657 15.0001 10.5332 14.6711 11.4969 14.013C12.3643 13.418 12.8461 12.62 12.8461 11.752C12.8392 10.898 12.3643 10.0929 11.4969 9.51192Z" fill="white"/>
<path d="M7.56514 13.0821C7.455 13.0821 7.34486 13.0331 7.26225 12.9561L6.3949 12.0741C6.22969 11.9061 6.22969 11.6261 6.3949 11.4581C6.56011 11.2901 6.83546 11.2901 7.00067 11.4581L7.56514 12.0321L8.99696 10.5761C9.16217 10.4081 9.43752 10.4081 9.60273 10.5761C9.76794 10.7441 9.76794 11.0241 9.60273 11.1921L7.86802 12.9561C7.78542 13.0401 7.67528 13.0821 7.56514 13.0821Z" fill="white"/>
</svg>
