<svg width="16" height="16" viewBox="0 0 16 16" fill="none" xmlns="http://www.w3.org/2000/svg">
<path opacity="0.4" d="M8 15C11.866 15 15 11.866 15 8C15 4.13401 11.866 1 8 1C4.13401 1 1 4.13401 1 8C1 11.866 4.13401 15 8 15Z" fill="white"/>
<path d="M11.143 7.72741C11.409 7.38441 11.577 6.95041 11.577 6.48141C11.577 5.39641 10.625 4.43741 9.53301 4.43741H8.91701V3.45042C8.91701 3.16342 8.67901 2.92542 8.39201 2.92542C8.10501 2.92542 7.86701 3.16342 7.86701 3.45042V4.44442H7.18101H7.02001V3.45042C7.02001 3.16342 6.78201 2.92542 6.49501 2.92542C6.20801 2.92542 5.98401 3.16342 5.98401 3.45042V4.44442H5.74601H4.53501C4.24801 4.44442 4.01001 4.68242 4.01001 4.96942C4.01001 5.25642 4.24801 5.49442 4.53501 5.49442H5.22101V8.00041V10.5064H4.53501C4.24801 10.5064 4.01001 10.7444 4.01001 11.0314C4.01001 11.3184 4.24801 11.5564 4.53501 11.5564H5.74601H5.97701V12.5504C5.97701 12.8374 6.21501 13.0754 6.50201 13.0754C6.78901 13.0754 7.02701 12.8374 7.02701 12.5504V11.5564H7.18801H7.87401V12.5504C7.87401 12.8374 8.11201 13.0754 8.39901 13.0754C8.68601 13.0754 8.92401 12.8374 8.92401 12.5504V11.5564H10.079C11.325 11.5564 12.34 10.6394 12.34 9.51241C12.34 8.74241 11.85 8.07041 11.143 7.72741ZM7.18801 5.49442H9.54001C10.1 5.49442 10.534 6.02642 10.534 6.48842C10.534 7.03442 10.086 7.48242 9.54001 7.48242H6.27101V5.49442H7.18801ZM10.079 10.5064H7.18801H6.27101V8.52541H9.54001H10.079C10.744 8.52541 11.29 8.97342 11.29 9.51941C11.29 10.0654 10.744 10.5064 10.079 10.5064Z" fill="white"/>
</svg>
