<svg width="16" height="16" viewBox="0 0 16 16" fill="none" xmlns="http://www.w3.org/2000/svg">
<path d="M8.0023 1L2 4.50117V11.5012L8.0023 15L14 11.5012V4.50117L8.0023 1ZM12.223 10.464L8.0023 12.9256L3.77932 10.464V5.53603L8.0023 3.07442L12.223 5.53603V10.464Z" fill="white"/>
<path style="mix-blend-mode:multiply" d="M7.99765 1L2 4.49882V11.4989L7.99765 15V12.9232L3.777 10.4616V5.53368L7.99765 3.07442V1Z" fill="#808388"/>
<path d="M10.8004 9.63541L7.99902 11.2687L5.19531 9.63541V6.36656L7.99902 4.73096L10.8004 6.36656L9.63432 7.04708L7.99902 6.092L6.36372 7.04708V8.95254L7.99902 9.90763L9.63432 8.95254L10.8004 9.63541Z" fill="white"/>
</svg>
