<svg width="16" height="16" viewBox="0 0 16 16" fill="none" xmlns="http://www.w3.org/2000/svg">
<path opacity="0.4" d="M11.9445 7.63612C11.8656 7.70066 11.7867 7.75085 11.6935 7.79387L10.9119 8.18824L8.71065 9.2853C8.31628 9.48606 7.67812 9.48606 7.29093 9.2853L5.08964 8.18824L4.30808 7.79387C4.22203 7.74368 4.14316 7.70066 4.05711 7.63612C3.29706 7.10552 3.16083 6.13753 3.7703 5.3703L6.76032 1.64174C6.94675 1.41229 7.16903 1.24021 7.39848 1.13982C7.78568 0.953393 8.2159 0.953393 8.59592 1.13982C8.82537 1.24021 9.05482 1.41229 9.23408 1.64174L12.2241 5.3703C12.8407 6.1447 12.7045 7.11269 11.9445 7.63612Z" fill="white"/>
<path d="M11.944 7.6364C11.8651 7.70093 11.7862 7.75112 11.693 7.79415L10.9115 8.18851L8.00031 6.00157L5.08917 8.19568L4.3076 7.80132C4.22156 7.75112 4.14268 7.7081 4.05664 7.64357C4.08532 7.50733 4.15702 7.38544 4.27892 7.29939L7.39801 4.9547V1.14727C7.7852 0.960839 8.21542 0.960839 8.59545 1.14727V4.9547L11.7145 7.29939C11.8364 7.38544 11.9081 7.50016 11.944 7.6364Z" fill="white"/>
<path d="M5.6853 9.7441L6.83972 10.2604C7.57827 10.5902 8.42436 10.5902 9.17008 10.2604L10.3245 9.7441C11.357 9.2852 12.3107 10.5328 11.5936 11.4076L9.11271 14.4407C8.50324 15.1864 7.50656 15.1864 6.88992 14.4407L4.41616 11.4076C3.69196 10.5328 4.64561 9.2852 5.6853 9.7441Z" fill="white"/>
</svg>
