<svg width="16" height="16" viewBox="0 0 16 16" fill="none" xmlns="http://www.w3.org/2000/svg">
<path opacity="0.4" d="M13.8333 7.99967C13.8333 9.60967 12.5267 10.9163 10.9167 10.9163C10.9167 9.30634 9.61 7.99967 8 7.99967C9.61 7.99967 10.9167 6.69301 10.9167 5.08301C12.5267 5.08301 13.8333 6.38967 13.8333 7.99967Z" fill="white"/>
<path d="M10.9167 10.9167C9.30667 10.9167 8 9.61 8 8C9.61 8 10.9167 9.30667 10.9167 10.9167Z" fill="white"/>
<path opacity="0.4" d="M10.9173 10.9167C10.9173 12.5267 9.61065 13.8333 8.00065 13.8333C6.39065 13.8333 5.08398 12.5267 5.08398 10.9167C6.69398 10.9167 8.00065 9.61 8.00065 8C8.00065 9.61 9.30732 10.9167 10.9173 10.9167Z" fill="white"/>
<path d="M10.9167 5.08301C10.9167 6.69301 9.61 7.99967 8 7.99967C8 6.38967 9.30667 5.08301 10.9167 5.08301Z" fill="white"/>
<path opacity="0.4" d="M10.9173 5.08366C9.30732 5.08366 8.00065 6.39032 8.00065 8.00032C8.00065 6.39032 6.69398 5.08366 5.08398 5.08366C5.08398 3.47366 6.39065 2.16699 8.00065 2.16699C9.61065 2.16699 10.9173 3.47366 10.9173 5.08366Z" fill="white"/>
<path d="M8.00065 8C8.00065 9.61 6.69398 10.9167 5.08398 10.9167C5.08398 9.30667 6.39065 8 8.00065 8Z" fill="white"/>
<path d="M8.00065 7.99967C6.39065 7.99967 5.08398 6.69301 5.08398 5.08301C6.69398 5.08301 8.00065 6.38967 8.00065 7.99967Z" fill="white"/>
<path opacity="0.4" d="M7.99935 7.99967C6.38935 7.99967 5.08268 9.30634 5.08268 10.9163C3.47268 10.9163 2.16602 9.60967 2.16602 7.99967C2.16602 6.38967 3.47268 5.08301 5.08268 5.08301C5.08268 6.69301 6.38935 7.99967 7.99935 7.99967Z" fill="white"/>
</svg>
