<svg width="16" height="16" viewBox="0 0 16 16" fill="none" xmlns="http://www.w3.org/2000/svg">
<path d="M8 15C11.866 15 15 11.866 15 8C15 4.13401 11.866 1 8 1C4.13401 1 1 4.13401 1 8C1 11.866 4.13401 15 8 15Z" fill="#828289"/>
<path d="M8.05391 2.60693C6.97154 2.61128 5.93474 3.04318 5.16938 3.80854C4.40402 4.5739 3.97212 5.6107 3.96777 6.69307C3.9678 7.1442 4.04056 7.59237 4.18324 8.02034C4.23461 8.16057 4.33772 8.27582 4.4714 8.34242C4.60507 8.40901 4.75917 8.4219 4.90205 8.37843C5.04018 8.32556 5.15297 8.22205 5.21749 8.08897C5.28201 7.95588 5.29341 7.80322 5.24938 7.66203C5.12838 7.32867 5.07434 6.97472 5.09034 6.62045C5.10752 6.0491 5.29044 5.49507 5.61684 5.02582C5.94324 4.55657 6.39904 4.19234 6.92873 3.97749C7.45842 3.76264 8.03915 3.70644 8.60022 3.81572C9.16128 3.925 9.67846 4.19506 10.0888 4.593C10.4991 4.99095 10.7849 5.49961 10.9113 6.05706C11.0378 6.61452 10.9994 7.1967 10.8008 7.73272C10.6023 8.26875 10.2522 8.73549 9.79321 9.07612C9.33418 9.41675 8.78602 9.61656 8.21546 9.65123C8.21546 9.65123 7.6419 9.68612 7.35687 9.72107C7.25169 9.73615 7.14739 9.75687 7.04444 9.78314C7.04097 9.7867 7.03684 9.78954 7.03227 9.79149C7.0277 9.79344 7.02278 9.79447 7.01781 9.79451C7.01285 9.79455 7.00792 9.7936 7.00332 9.79173C6.99871 9.78985 6.99453 9.78708 6.99101 9.78357L6.99057 9.78314C6.98555 9.77659 6.98282 9.76856 6.98282 9.7603C6.98282 9.75205 6.98555 9.74402 6.99057 9.73747L7.07933 9.2531L7.618 6.83045C7.64909 6.68518 7.6212 6.53352 7.54047 6.40882C7.45973 6.28412 7.33277 6.19659 7.1875 6.1655C7.04224 6.13441 6.89057 6.1623 6.76587 6.24304C6.64117 6.32377 6.55364 6.45074 6.52256 6.596C6.52256 6.596 5.24117 12.5262 5.24117 12.58C5.22373 12.6486 5.21996 12.7199 5.23008 12.7898C5.24019 12.8598 5.264 12.9272 5.30014 12.9879C5.33628 13.0487 5.38404 13.1018 5.44069 13.1441C5.49735 13.1865 5.56179 13.2172 5.63033 13.2346C5.63343 13.2355 5.63659 13.2363 5.63979 13.2368H5.66954C5.73798 13.2545 5.80925 13.2585 5.87927 13.2487C5.94928 13.2389 6.01667 13.2153 6.07758 13.1794C6.13849 13.1435 6.19173 13.096 6.23425 13.0395C6.27678 12.983 6.30775 12.9187 6.32541 12.8502C6.32681 12.8454 6.32796 12.8405 6.32885 12.8356C6.32799 12.8267 6.32799 12.8177 6.32885 12.8088C6.34482 12.739 6.50642 11.9502 6.50642 11.9502C6.56616 11.6595 6.71348 11.394 6.92856 11.1895C7.14364 10.985 7.41618 10.8512 7.70955 10.8061C7.83325 10.7871 8.35295 10.7523 8.35295 10.7523C9.3869 10.6497 10.3429 10.1568 11.0261 9.37402C11.7094 8.59124 12.0685 7.57743 12.0304 6.5391C11.9923 5.50077 11.5598 4.51603 10.8209 3.78545C10.0821 3.05487 9.09261 2.63342 8.05391 2.60693V2.60693Z" fill="white"/>
<path d="M8.30264 12.029C8.21509 12.0107 8.1248 12.0099 8.03694 12.0266C7.94908 12.0432 7.86536 12.077 7.79056 12.126C7.71577 12.1751 7.65137 12.2384 7.60103 12.3123C7.55069 12.3862 7.51541 12.4693 7.4972 12.5568C7.49632 12.5603 7.49589 12.5637 7.49507 12.5672C7.47608 12.6542 7.47444 12.7442 7.49022 12.8318C7.506 12.9195 7.53891 13.0032 7.58705 13.0782C7.6352 13.1531 7.69764 13.2179 7.77081 13.2687C7.84399 13.3195 7.92646 13.3554 8.01351 13.3743C8.01374 13.3743 8.01398 13.3743 8.01421 13.3744C8.01444 13.3745 8.01464 13.3746 8.01482 13.3748H8.03379C8.119 13.3954 8.20743 13.399 8.29403 13.3854C8.38063 13.3718 8.46371 13.3413 8.53851 13.2956C8.61331 13.2499 8.67836 13.1899 8.72997 13.119C8.78157 13.0481 8.8187 12.9678 8.83923 12.8826C8.84011 12.88 8.84055 12.8771 8.84137 12.8744V12.8369C8.87196 12.6589 8.83316 12.4759 8.73295 12.3256C8.63274 12.1753 8.47874 12.0692 8.30264 12.029V12.029Z" fill="white"/>
</svg>
