<svg width="16" height="16" viewBox="0 0 16 16" fill="none" xmlns="http://www.w3.org/2000/svg">
<path d="M13.7735 5.68994C13.7735 5.82411 13.7335 5.96411 13.6335 6.07494L7.38016 13.0399C7.15349 13.2908 6.88682 13.3783 6.66016 13.3083L6.66682 13.2499L7.33349 6.83327L13.3602 5.77744L13.7735 5.68994Z" fill="white"/>
<path opacity="0.4" d="M13.773 5.6898L13.3597 5.7773L7.33301 6.83314L11.2997 3.3623C11.3797 3.39147 11.4463 3.4323 11.493 3.47314L13.5797 5.29897C13.6997 5.40397 13.7663 5.54397 13.773 5.6898Z" fill="white"/>
<path d="M11.3001 3.36241L7.33344 6.83324L2.00677 2.69158L1.77344 2.49324V2.48741C1.90677 2.33574 2.14677 2.25991 2.46677 2.30074L11.1068 3.30991C11.1668 3.31574 11.2334 3.33324 11.3001 3.36241Z" fill="white"/>
<path opacity="0.4" d="M7.3336 6.83316L6.66693 13.2498L6.66027 13.3082C6.4936 13.2557 6.34027 13.1157 6.24027 12.894L1.76027 3.094C1.64693 2.849 1.66027 2.639 1.7736 2.49316L2.00693 2.6915L7.3336 6.83316Z" fill="white"/>
</svg>
