<svg width="16" height="16" viewBox="0 0 16 16" fill="none" xmlns="http://www.w3.org/2000/svg">
<path d="M4.7302 2.16663H4.0252C3.5602 2.16663 3.3252 2.82579 3.6552 3.21079L6.5202 6.55329C7.3402 7.50996 8.6652 7.50996 9.4852 6.55329L12.3502 3.21079C12.6752 2.82579 12.4402 2.16663 11.9752 2.16663H11.2702C10.8552 2.16663 10.4552 2.35913 10.1602 2.70329L8.3702 4.79163C8.1652 5.03079 7.8352 5.03079 7.6302 4.79163L5.8402 2.70329C5.5452 2.35913 5.1452 2.16663 4.7302 2.16663Z" fill="white"/>
<path opacity="0.4" d="M4.7302 13.8162H4.0252C3.5602 13.8162 3.3252 13.157 3.6552 12.772L6.5202 9.42954C7.3402 8.47287 8.6652 8.47287 9.4852 9.42954L12.3502 12.772C12.6802 13.157 12.4452 13.8162 11.9802 13.8162H11.2752C10.8602 13.8162 10.4602 13.6237 10.1652 13.2795L8.3752 11.1912C8.1702 10.952 7.8402 10.952 7.6352 11.1912L5.8452 13.2795C5.5452 13.6237 5.1452 13.8162 4.7302 13.8162Z" fill="white"/>
</svg>
